999
"DXF R12 Output" (www.mydxf.blogspot.com)
 0 
SECTION
 2 
HEADER
 9 
$ACADVER
 1 
AC1009
 9 
$EXTMIN
 10 
 0 
 20 
 0 
 9 
$EXTMAX
 10 
 8.5 
 20 
 11 
 0 
ENDSEC
 0 
SECTION
 2 
ENTITIES
0
LINE
8
Layer 1
10
0.848655
20
33.692200
11
0.848655
21
59.598200
0
LINE
8
Layer 1
10
0.848655
20
59.598200
11
0.848655
21
59.598200
0
LINE
8
Layer 1
10
0.848655
20
59.598200
11
0.848655
21
33.692200
0
LINE
8
Layer 1
10
0.848655
20
33.692200
11
0.848655
21
33.692200
0
LINE
8
Layer 1
10
0.848655
20
33.692200
11
0.848655
21
33.692200
0
LINE
8
Layer 1
10
0.848655
20
59.598200
11
1.024542
21
62.247394
0
LINE
8
Layer 1
10
1.024542
20
62.247394
11
1.540975
21
64.816556
0
LINE
8
Layer 1
10
1.540975
20
64.816556
11
2.381126
21
67.276541
0
LINE
8
Layer 1
10
2.381126
20
67.276541
11
3.528168
21
69.598203
0
LINE
8
Layer 1
10
3.528168
20
69.598203
11
4.965275
21
71.752396
0
LINE
8
Layer 1
10
4.965275
20
71.752396
11
6.675617
21
73.709973
0
LINE
8
Layer 1
10
6.675617
20
73.709973
11
8.642368
21
75.441790
0
LINE
8
Layer 1
10
8.642368
20
75.441790
11
10.848700
21
76.918700
0
LINE
8
Layer 1
10
10.848700
20
76.918700
11
10.848700
21
76.918700
0
LINE
8
Layer 1
10
10.848700
20
76.918700
11
8.642374
21
75.441786
0
LINE
8
Layer 1
10
8.642374
20
75.441786
11
6.675630
21
73.709967
0
LINE
8
Layer 1
10
6.675630
20
73.709967
11
4.965294
21
71.752388
0
LINE
8
Layer 1
10
4.965294
20
71.752388
11
3.528194
21
69.598195
0
LINE
8
Layer 1
10
3.528194
20
69.598195
11
2.381157
21
67.276534
0
LINE
8
Layer 1
10
2.381157
20
67.276534
11
1.541011
21
64.816551
0
LINE
8
Layer 1
10
1.541011
20
64.816551
11
1.024583
21
62.247391
0
LINE
8
Layer 1
10
1.024583
20
62.247391
11
0.848700
21
59.598200
0
LINE
8
Layer 1
10
0.848700
20
59.598200
11
0.848655
21
59.598200
0
LINE
8
Layer 1
10
0.848655
20
59.598200
11
0.848655
21
59.598200
0
LINE
8
Layer 1
10
0.848655
20
33.692200
11
1.024542
21
31.043006
0
LINE
8
Layer 1
10
1.024542
20
31.043006
11
1.540975
21
28.473844
0
LINE
8
Layer 1
10
1.540975
20
28.473844
11
2.381126
21
26.013859
0
LINE
8
Layer 1
10
2.381126
20
26.013859
11
3.528168
21
23.692197
0
LINE
8
Layer 1
10
3.528168
20
23.692197
11
4.965275
21
21.538004
0
LINE
8
Layer 1
10
4.965275
20
21.538004
11
6.675617
21
19.580427
0
LINE
8
Layer 1
10
6.675617
20
19.580427
11
8.642368
21
17.848610
0
LINE
8
Layer 1
10
8.642368
20
17.848610
11
10.848700
21
16.371700
0
LINE
8
Layer 1
10
10.848700
20
16.371700
11
10.848700
21
16.371700
0
LINE
8
Layer 1
10
10.848700
20
16.371700
11
8.642374
21
17.848614
0
LINE
8
Layer 1
10
8.642374
20
17.848614
11
6.675630
21
19.580433
0
LINE
8
Layer 1
10
6.675630
20
19.580433
11
4.965294
21
21.538012
0
LINE
8
Layer 1
10
4.965294
20
21.538012
11
3.528194
21
23.692205
0
LINE
8
Layer 1
10
3.528194
20
23.692205
11
2.381157
21
26.013866
0
LINE
8
Layer 1
10
2.381157
20
26.013866
11
1.541011
21
28.473849
0
LINE
8
Layer 1
10
1.541011
20
28.473849
11
1.024583
21
31.043009
0
LINE
8
Layer 1
10
1.024583
20
31.043009
11
0.848700
21
33.692200
0
LINE
8
Layer 1
10
0.848700
20
33.692200
11
0.848655
21
33.692200
0
LINE
8
Layer 1
10
0.848655
20
33.692200
11
0.848655
21
33.692200
0
LINE
8
Layer 1
10
10.848700
20
76.918700
11
33.283900
21
89.871700
0
LINE
8
Layer 1
10
33.283900
20
89.871700
11
33.283900
21
89.871700
0
LINE
8
Layer 1
10
33.283900
20
89.871700
11
10.848700
21
76.918700
0
LINE
8
Layer 1
10
10.848700
20
76.918700
11
10.848700
21
76.918700
0
LINE
8
Layer 1
10
10.848700
20
76.918700
11
10.848700
21
76.918700
0
LINE
8
Layer 1
10
33.283900
20
3.418700
11
10.848700
21
16.371700
0
LINE
8
Layer 1
10
10.848700
20
16.371700
11
10.848700
21
16.371700
0
LINE
8
Layer 1
10
10.848700
20
16.371700
11
33.283900
21
3.418700
0
LINE
8
Layer 1
10
33.283900
20
3.418700
11
33.283900
21
3.418700
0
LINE
8
Layer 1
10
33.283900
20
3.418700
11
33.283900
21
3.418700
0
LINE
8
Layer 1
10
53.283900
20
89.871700
11
50.901692
21
91.043978
0
LINE
8
Layer 1
10
50.901692
20
91.043978
11
48.418519
21
91.881319
0
LINE
8
Layer 1
10
48.418519
20
91.881319
11
45.868037
21
92.383724
0
LINE
8
Layer 1
10
45.868037
20
92.383724
11
43.283900
21
92.551192
0
LINE
8
Layer 1
10
43.283900
20
92.551192
11
40.699763
21
92.383724
0
LINE
8
Layer 1
10
40.699763
20
92.383724
11
38.149281
21
91.881319
0
LINE
8
Layer 1
10
38.149281
20
91.881319
11
35.666108
21
91.043978
0
LINE
8
Layer 1
10
35.666108
20
91.043978
11
33.283900
21
89.871700
0
LINE
8
Layer 1
10
33.283900
20
89.871700
11
33.283900
21
89.871700
0
LINE
8
Layer 1
10
33.283900
20
89.871700
11
35.666108
21
91.043978
0
LINE
8
Layer 1
10
35.666108
20
91.043978
11
38.149281
21
91.881319
0
LINE
8
Layer 1
10
38.149281
20
91.881319
11
40.699763
21
92.383724
0
LINE
8
Layer 1
10
40.699763
20
92.383724
11
43.283900
21
92.551192
0
LINE
8
Layer 1
10
43.283900
20
92.551192
11
45.868037
21
92.383724
0
LINE
8
Layer 1
10
45.868037
20
92.383724
11
48.418519
21
91.881319
0
LINE
8
Layer 1
10
48.418519
20
91.881319
11
50.901692
21
91.043978
0
LINE
8
Layer 1
10
50.901692
20
91.043978
11
53.283900
21
89.871700
0
LINE
8
Layer 1
10
53.283900
20
89.871700
11
53.283900
21
89.871700
0
LINE
8
Layer 1
10
53.283900
20
89.871700
11
53.283900
21
89.871700
0
LINE
8
Layer 1
10
33.283900
20
3.418700
11
35.666108
21
2.246422
0
LINE
8
Layer 1
10
35.666108
20
2.246422
11
38.149281
21
1.409081
0
LINE
8
Layer 1
10
38.149281
20
1.409081
11
40.699763
21
0.906676
0
LINE
8
Layer 1
10
40.699763
20
0.906676
11
43.283900
21
0.739208
0
LINE
8
Layer 1
10
43.283900
20
0.739208
11
45.868037
21
0.906676
0
LINE
8
Layer 1
10
45.868037
20
0.906676
11
48.418519
21
1.409081
0
LINE
8
Layer 1
10
48.418519
20
1.409081
11
50.901692
21
2.246422
0
LINE
8
Layer 1
10
50.901692
20
2.246422
11
53.283900
21
3.418700
0
LINE
8
Layer 1
10
53.283900
20
3.418700
11
53.283900
21
3.418700
0
LINE
8
Layer 1
10
53.283900
20
3.418700
11
50.901692
21
2.246422
0
LINE
8
Layer 1
10
50.901692
20
2.246422
11
48.418519
21
1.409081
0
LINE
8
Layer 1
10
48.418519
20
1.409081
11
45.868037
21
0.906676
0
LINE
8
Layer 1
10
45.868037
20
0.906676
11
43.283900
21
0.739208
0
LINE
8
Layer 1
10
43.283900
20
0.739208
11
40.699763
21
0.906676
0
LINE
8
Layer 1
10
40.699763
20
0.906676
11
38.149281
21
1.409081
0
LINE
8
Layer 1
10
38.149281
20
1.409081
11
35.666108
21
2.246422
0
LINE
8
Layer 1
10
35.666108
20
2.246422
11
33.283900
21
3.418700
0
LINE
8
Layer 1
10
33.283900
20
3.418700
11
33.283900
21
3.418700
0
LINE
8
Layer 1
10
33.283900
20
3.418700
11
33.283900
21
3.418700
0
LINE
8
Layer 1
10
53.283900
20
89.871700
11
75.719100
21
76.918700
0
LINE
8
Layer 1
10
75.719100
20
76.918700
11
75.719100
21
76.918700
0
LINE
8
Layer 1
10
75.719100
20
76.918700
11
53.283900
21
89.871700
0
LINE
8
Layer 1
10
53.283900
20
89.871700
11
53.283900
21
89.871700
0
LINE
8
Layer 1
10
53.283900
20
89.871700
11
53.283900
21
89.871700
0
LINE
8
Layer 1
10
75.719100
20
16.371700
11
53.283900
21
3.418700
0
LINE
8
Layer 1
10
53.283900
20
3.418700
11
53.283900
21
3.418700
0
LINE
8
Layer 1
10
53.283900
20
3.418700
11
75.719100
21
16.371700
0
LINE
8
Layer 1
10
75.719100
20
16.371700
11
75.719100
21
16.371700
0
LINE
8
Layer 1
10
75.719100
20
16.371700
11
75.719100
21
16.371700
0
LINE
8
Layer 1
10
85.719100
20
59.598200
11
85.543217
21
62.247391
0
LINE
8
Layer 1
10
85.543217
20
62.247391
11
85.026789
21
64.816551
0
LINE
8
Layer 1
10
85.026789
20
64.816551
11
84.186643
21
67.276534
0
LINE
8
Layer 1
10
84.186643
20
67.276534
11
83.039606
21
69.598195
0
LINE
8
Layer 1
10
83.039606
20
69.598195
11
81.602506
21
71.752388
0
LINE
8
Layer 1
10
81.602506
20
71.752388
11
79.892170
21
73.709967
0
LINE
8
Layer 1
10
79.892170
20
73.709967
11
77.925426
21
75.441786
0
LINE
8
Layer 1
10
77.925426
20
75.441786
11
75.719100
21
76.918700
0
LINE
8
Layer 1
10
75.719100
20
76.918700
11
75.719100
21
76.918700
0
LINE
8
Layer 1
10
75.719100
20
76.918700
11
77.925426
21
75.441786
0
LINE
8
Layer 1
10
77.925426
20
75.441786
11
79.892170
21
73.709967
0
LINE
8
Layer 1
10
79.892170
20
73.709967
11
81.602506
21
71.752388
0
LINE
8
Layer 1
10
81.602506
20
71.752388
11
83.039606
21
69.598195
0
LINE
8
Layer 1
10
83.039606
20
69.598195
11
84.186643
21
67.276534
0
LINE
8
Layer 1
10
84.186643
20
67.276534
11
85.026789
21
64.816551
0
LINE
8
Layer 1
10
85.026789
20
64.816551
11
85.543217
21
62.247391
0
LINE
8
Layer 1
10
85.543217
20
62.247391
11
85.719100
21
59.598200
0
LINE
8
Layer 1
10
85.719100
20
59.598200
11
85.719100
21
59.598200
0
LINE
8
Layer 1
10
85.719100
20
59.598200
11
85.719100
21
59.598200
0
LINE
8
Layer 1
10
75.719100
20
16.371700
11
77.925426
21
17.848614
0
LINE
8
Layer 1
10
77.925426
20
17.848614
11
79.892170
21
19.580433
0
LINE
8
Layer 1
10
79.892170
20
19.580433
11
81.602506
21
21.538012
0
LINE
8
Layer 1
10
81.602506
20
21.538012
11
83.039606
21
23.692205
0
LINE
8
Layer 1
10
83.039606
20
23.692205
11
84.186643
21
26.013866
0
LINE
8
Layer 1
10
84.186643
20
26.013866
11
85.026789
21
28.473849
0
LINE
8
Layer 1
10
85.026789
20
28.473849
11
85.543217
21
31.043009
0
LINE
8
Layer 1
10
85.543217
20
31.043009
11
85.719100
21
33.692200
0
LINE
8
Layer 1
10
85.719100
20
33.692200
11
85.719100
21
33.692200
0
LINE
8
Layer 1
10
85.719100
20
33.692200
11
85.543217
21
31.043009
0
LINE
8
Layer 1
10
85.543217
20
31.043009
11
85.026789
21
28.473849
0
LINE
8
Layer 1
10
85.026789
20
28.473849
11
84.186643
21
26.013866
0
LINE
8
Layer 1
10
84.186643
20
26.013866
11
83.039606
21
23.692205
0
LINE
8
Layer 1
10
83.039606
20
23.692205
11
81.602506
21
21.538012
0
LINE
8
Layer 1
10
81.602506
20
21.538012
11
79.892170
21
19.580433
0
LINE
8
Layer 1
10
79.892170
20
19.580433
11
77.925426
21
17.848614
0
LINE
8
Layer 1
10
77.925426
20
17.848614
11
75.719100
21
16.371700
0
LINE
8
Layer 1
10
75.719100
20
16.371700
11
75.719100
21
16.371700
0
LINE
8
Layer 1
10
75.719100
20
16.371700
11
75.719100
21
16.371700
0
LINE
8
Layer 1
10
85.719100
20
59.598200
11
85.719100
21
33.692200
0
LINE
8
Layer 1
10
85.719100
20
33.692200
11
85.719100
21
33.692200
0
LINE
8
Layer 1
10
85.719100
20
33.692200
11
85.719100
21
59.598200
0
LINE
8
Layer 1
10
85.719100
20
59.598200
11
85.719100
21
59.598200
0
LINE
8
Layer 1
10
85.719100
20
59.598200
11
85.719100
21
59.598200
 0 
ENDSEC
 0 
EOF