  0
SECTION
  2
HEADER
  9
$ACADVER
  1
AC1009
  9
$INSBASE
 10
0.0
 20
0.0
 30
0.0
  9
$EXTMIN
 10
0.0
 20
0.0
 30
0.0
  9
$EXTMAX
 10
0.0
 20
0.0
 30
0.0
  0
ENDSEC
  0
SECTION
  2
TABLES
  0
TABLE
  2
VPORT
 70
0
  0
ENDTAB
  0
TABLE
  2
LTYPE
 70
1
  0
LTYPE
  2
CONTINUOUS
 70
0
  3
Solid line
 72
65
 73
0
 40
0.0
  0
ENDTAB
  0
TABLE
  2
LAYER
 70
1
  0
LAYER
  2
0
 70
64
 62
7
  6
continuous
  0
ENDTAB
  0
TABLE
  2
STYLE
 70
1
  0
STYLE
  2
STANDARD
 70
0
 40
0
 41
1.0
 50
0.0
 71
0
 42
1
 3
ARIAL.TTF
 4

  0
ENDTAB
  0
TABLE
  2
VIEW
 70
0
  0
ENDTAB
  0
ENDSEC
  0
SECTION
  2
BLOCKS
  0
BLOCK
  8
0
  2
B_OMNI_WHEEL_BRACKET_001_002
 70
0
 10
0.0
 20
0.0
 30
0.0
  3
B_OMNI_WHEEL_BRACKET_001_002
  0
LINE
  8
0
 62
0
 10
27.071534351706774
 20
12.689272984436524
 30
0.0
 11
34.32153439265999
 21
25.246641315666537
 31
0.0
  0
POLYLINE
  8
0
 62
0
 70
0
 66
1
 10
0.0
 20
0.0
 30
0.0
  0
VERTEX
  8
0
 10
27.07153435170677
 20
12.689272984436519
 30
0.0
  0
VERTEX
  8
0
 10
26.638521650629876
 20
12.939272985848698
 30
0.0
  0
SEQEND
  8
0
  0
LINE
  8
0
 62
0
 10
26.638521650629883
 20
12.939272985848707
 30
0.0
 11
18.41128033016884
 21
17.68927301268011
 31
0.0
  0
POLYLINE
  8
0
 62
0
 70
0
 66
1
 10
0.0
 20
0.0
 30
0.0
  0
VERTEX
  8
0
 10
18.411280330168818
 20
17.689273012680108
 30
0.0
  0
VERTEX
  8
0
 10
17.978267629091924
 20
17.939273014092286
 30
0.0
  0
SEQEND
  8
0
  0
LINE
  8
0
 62
0
 10
17.97826762909193
 20
17.93927301409229
 30
0.0
 11
6.546732320661846
 21
24.539273051373826
 31
0.0
  0
POLYLINE
  8
0
 62
0
 70
0
 66
1
 10
0.0
 20
0.0
 30
0.0
  0
VERTEX
  8
0
 10
6.54673232066183
 20
24.539273051373836
 30
0.0
  0
VERTEX
  8
0
 10
6.113719619584935
 20
24.789273052786015
 30
0.0
  0
SEQEND
  8
0
  0
LINE
  8
0
 62
0
 10
6.113719619584937
 20
24.78927305278602
 30
0.0
 11
-2.1135217008761122
 21
29.539273079617427
 31
0.0
  0
POLYLINE
  8
0
 62
0
 70
0
 66
1
 10
0.0
 20
0.0
 30
0.0
  0
VERTEX
  8
0
 10
-2.113521700876113
 20
29.539273079617438
 30
0.0
  0
VERTEX
  8
0
 10
-2.546534401953009
 20
29.78927308102962
 30
0.0
  0
SEQEND
  8
0
  0
POLYLINE
  8
0
 62
0
 70
0
 66
1
 10
0.0
 20
0.0
 30
0.0
  0
VERTEX
  8
0
 10
34.32153439265999
 20
25.246641315666537
 30
0.0
  0
VERTEX
  8
0
 10
33.888521691583094
 20
25.49664131707872
 30
0.0
  0
SEQEND
  8
0
  0
LINE
  8
0
 62
0
 10
33.888521691583094
 20
25.496641317078737
 30
0.0
 11
25.66128037112205
 21
30.24664134391014
 31
0.0
  0
POLYLINE
  8
0
 62
0
 70
0
 66
1
 10
0.0
 20
0.0
 30
0.0
  0
VERTEX
  8
0
 10
25.66128037112204
 20
30.246641343910127
 30
0.0
  0
VERTEX
  8
0
 10
25.228267670045142
 20
30.49664134532231
 30
0.0
  0
SEQEND
  8
0
  0
LINE
  8
0
 62
0
 10
25.228267670045142
 20
30.49664134532232
 30
0.0
 11
13.796732361615057
 21
37.096641382603856
 31
0.0
  0
POLYLINE
  8
0
 62
0
 70
0
 66
1
 10
0.0
 20
0.0
 30
0.0
  0
VERTEX
  8
0
 10
13.79673236161505
 20
37.096641382603856
 30
0.0
  0
VERTEX
  8
0
 10
13.363719660538155
 20
37.34664138401604
 30
0.0
  0
SEQEND
  8
0
  0
LINE
  8
0
 62
0
 10
13.363719660538145
 20
37.346641384016046
 30
0.0
 11
5.136478340077096
 21
42.096641410847454
 31
0.0
  0
POLYLINE
  8
0
 62
0
 70
0
 66
1
 10
0.0
 20
0.0
 30
0.0
  0
VERTEX
  8
0
 10
5.136478340077106
 20
42.096641410847454
 30
0.0
  0
VERTEX
  8
0
 10
4.703465639000209
 20
42.34664141225964
 30
0.0
  0
SEQEND
  8
0
  0
CIRCLE
  8
0
 62
0
 10
26.392304821834504
 20
21.712812879940365
 30
0.0
 40
1.55
  0
LINE
  8
0
 62
0
 10
18.41128033016882
 20
17.689273012680108
 30
0.0
 11
25.661280371122036
 21
30.24664134391012
 31
0.0
  0
LINE
  8
0
 62
0
 10
6.113719619584933
 20
24.789273052786015
 30
0.0
 11
13.363719660538148
 21
37.346641384016024
 31
0.0
  0
CIRCLE
  8
0
 62
0
 10
5.6076951701434385
 20
33.712812947725
 30
0.0
 40
1.55
  0
LINE
  8
0
 62
0
 10
-2.5465344019530107
 20
29.789273081029616
 30
0.0
 11
4.703465639000204
 21
42.34664141225963
 31
0.0
  0
LINE
  8
0
 62
0
 10
26.638521650629876
 20
12.939272985848703
 30
0.0
 11
33.888521691583094
 21
25.496641317078712
 31
0.0
  0
LINE
  8
0
 62
0
 10
17.978267629091924
 20
17.939273014092286
 30
0.0
 11
25.22826767004514
 21
30.496641345322296
 31
0.0
  0
LINE
  8
0
 62
0
 10
6.546732320661831
 20
24.539273051373833
 30
0.0
 11
13.796732361615046
 21
37.09664138260384
 31
0.0
  0
LINE
  8
0
 62
0
 10
-2.113521700876115
 20
29.539273079617438
 30
0.0
 11
5.1364783400771
 21
42.09664141084745
 31
0.0
  0
ENDBLK
  0
ENDSEC
  0
SECTION
  2
ENTITIES
  0
INSERT
  2
B_OMNI_WHEEL_BRACKET_001_002
  8
0
 62
0
 10
0.0
 20
0.0
 30
0.0
  0
ENDSEC
  0
EOF
