G04 #@! TF.GenerationSoftware,KiCad,Pcbnew,6.0.2+dfsg-1*
G04 #@! TF.CreationDate,2024-11-30T20:51:58+09:00*
G04 #@! TF.ProjectId,omni_wheel,6f6d6e69-5f77-4686-9565-6c2e6b696361,rev?*
G04 #@! TF.SameCoordinates,Original*
G04 #@! TF.FileFunction,Legend,Bot*
G04 #@! TF.FilePolarity,Positive*
%FSLAX46Y46*%
G04 Gerber Fmt 4.6, Leading zero omitted, Abs format (unit mm)*
G04 Created by KiCad (PCBNEW 6.0.2+dfsg-1) date 2024-11-30 20:51:58*
%MOMM*%
%LPD*%
G01*
G04 APERTURE LIST*
%ADD10C,0.150000*%
%ADD11C,0.120000*%
G04 APERTURE END LIST*
D10*
X85844291Y-94759513D02*
X85891910Y-94807132D01*
X86034767Y-94854751D01*
X86130005Y-94854751D01*
X86272862Y-94807132D01*
X86368100Y-94711894D01*
X86415719Y-94616656D01*
X86463338Y-94426180D01*
X86463338Y-94283323D01*
X86415719Y-94092847D01*
X86368100Y-93997609D01*
X86272862Y-93902371D01*
X86130005Y-93854751D01*
X86034767Y-93854751D01*
X85891910Y-93902371D01*
X85844291Y-93949990D01*
X84891910Y-94854751D02*
X85463338Y-94854751D01*
X85177624Y-94854751D02*
X85177624Y-93854751D01*
X85272862Y-93997609D01*
X85368100Y-94092847D01*
X85463338Y-94140466D01*
X84558576Y-93854751D02*
X83891910Y-93854751D01*
X84320481Y-94854751D01*
X99367464Y-117045345D02*
X99415083Y-117092964D01*
X99557940Y-117140583D01*
X99653178Y-117140583D01*
X99796035Y-117092964D01*
X99891273Y-116997726D01*
X99938892Y-116902488D01*
X99986511Y-116712012D01*
X99986511Y-116569155D01*
X99938892Y-116378679D01*
X99891273Y-116283441D01*
X99796035Y-116188203D01*
X99653178Y-116140583D01*
X99557940Y-116140583D01*
X99415083Y-116188203D01*
X99367464Y-116235822D01*
X98415083Y-117140583D02*
X98986511Y-117140583D01*
X98700797Y-117140583D02*
X98700797Y-116140583D01*
X98796035Y-116283441D01*
X98891273Y-116378679D01*
X98986511Y-116426298D01*
X97557940Y-116473917D02*
X97557940Y-117140583D01*
X97796035Y-116092964D02*
X98034130Y-116807250D01*
X97415083Y-116807250D01*
X123477098Y-90456954D02*
X123477098Y-91266478D01*
X123429479Y-91361716D01*
X123381860Y-91409335D01*
X123286622Y-91456954D01*
X123096146Y-91456954D01*
X123000908Y-91409335D01*
X122953289Y-91361716D01*
X122905670Y-91266478D01*
X122905670Y-90456954D01*
X121953289Y-90456954D02*
X122429479Y-90456954D01*
X122477098Y-90933145D01*
X122429479Y-90885526D01*
X122334241Y-90837907D01*
X122096146Y-90837907D01*
X122000908Y-90885526D01*
X121953289Y-90933145D01*
X121905670Y-91028383D01*
X121905670Y-91266478D01*
X121953289Y-91361716D01*
X122000908Y-91409335D01*
X122096146Y-91456954D01*
X122334241Y-91456954D01*
X122429479Y-91409335D01*
X122477098Y-91361716D01*
X91084286Y-86349511D02*
X91131905Y-86397130D01*
X91274762Y-86444749D01*
X91370000Y-86444749D01*
X91512857Y-86397130D01*
X91608095Y-86301892D01*
X91655714Y-86206654D01*
X91703333Y-86016178D01*
X91703333Y-85873321D01*
X91655714Y-85682845D01*
X91608095Y-85587607D01*
X91512857Y-85492369D01*
X91370000Y-85444749D01*
X91274762Y-85444749D01*
X91131905Y-85492369D01*
X91084286Y-85539988D01*
X90131905Y-86444749D02*
X90703333Y-86444749D01*
X90417619Y-86444749D02*
X90417619Y-85444749D01*
X90512857Y-85587607D01*
X90608095Y-85682845D01*
X90703333Y-85730464D01*
X89274762Y-85444749D02*
X89465238Y-85444749D01*
X89560476Y-85492369D01*
X89608095Y-85539988D01*
X89703333Y-85682845D01*
X89750952Y-85873321D01*
X89750952Y-86254273D01*
X89703333Y-86349511D01*
X89655714Y-86397130D01*
X89560476Y-86444749D01*
X89370000Y-86444749D01*
X89274762Y-86397130D01*
X89227143Y-86349511D01*
X89179524Y-86254273D01*
X89179524Y-86016178D01*
X89227143Y-85920940D01*
X89274762Y-85873321D01*
X89370000Y-85825702D01*
X89560476Y-85825702D01*
X89655714Y-85873321D01*
X89703333Y-85920940D01*
X89750952Y-86016178D01*
X120828050Y-85291715D02*
X120875669Y-85339334D01*
X121018526Y-85386953D01*
X121113764Y-85386953D01*
X121256621Y-85339334D01*
X121351859Y-85244096D01*
X121399478Y-85148858D01*
X121447097Y-84958382D01*
X121447097Y-84815525D01*
X121399478Y-84625049D01*
X121351859Y-84529811D01*
X121256621Y-84434573D01*
X121113764Y-84386953D01*
X121018526Y-84386953D01*
X120875669Y-84434573D01*
X120828050Y-84482192D01*
X119875669Y-85386953D02*
X120447097Y-85386953D01*
X120161383Y-85386953D02*
X120161383Y-84386953D01*
X120256621Y-84529811D01*
X120351859Y-84625049D01*
X120447097Y-84672668D01*
X119494716Y-84482192D02*
X119447097Y-84434573D01*
X119351859Y-84386953D01*
X119113764Y-84386953D01*
X119018526Y-84434573D01*
X118970907Y-84482192D01*
X118923288Y-84577430D01*
X118923288Y-84672668D01*
X118970907Y-84815525D01*
X119542335Y-85386953D01*
X118923288Y-85386953D01*
X127628049Y-97211716D02*
X127675668Y-97259335D01*
X127818525Y-97306954D01*
X127913763Y-97306954D01*
X128056620Y-97259335D01*
X128151858Y-97164097D01*
X128199477Y-97068859D01*
X128247096Y-96878383D01*
X128247096Y-96735526D01*
X128199477Y-96545050D01*
X128151858Y-96449812D01*
X128056620Y-96354574D01*
X127913763Y-96306954D01*
X127818525Y-96306954D01*
X127675668Y-96354574D01*
X127628049Y-96402193D01*
X126675668Y-97306954D02*
X127247096Y-97306954D01*
X126961382Y-97306954D02*
X126961382Y-96306954D01*
X127056620Y-96449812D01*
X127151858Y-96545050D01*
X127247096Y-96592669D01*
X126342334Y-96306954D02*
X125723287Y-96306954D01*
X126056620Y-96687907D01*
X125913763Y-96687907D01*
X125818525Y-96735526D01*
X125770906Y-96783145D01*
X125723287Y-96878383D01*
X125723287Y-97116478D01*
X125770906Y-97211716D01*
X125818525Y-97259335D01*
X125913763Y-97306954D01*
X126199477Y-97306954D01*
X126294715Y-97259335D01*
X126342334Y-97211716D01*
X106426512Y-115870582D02*
X106426512Y-116680106D01*
X106378893Y-116775344D01*
X106331274Y-116822963D01*
X106236036Y-116870582D01*
X106045560Y-116870582D01*
X105950322Y-116822963D01*
X105902703Y-116775344D01*
X105855084Y-116680106D01*
X105855084Y-115870582D01*
X104950322Y-115870582D02*
X105140798Y-115870582D01*
X105236036Y-115918202D01*
X105283655Y-115965821D01*
X105378893Y-116108678D01*
X105426512Y-116299154D01*
X105426512Y-116680106D01*
X105378893Y-116775344D01*
X105331274Y-116822963D01*
X105236036Y-116870582D01*
X105045560Y-116870582D01*
X104950322Y-116822963D01*
X104902703Y-116775344D01*
X104855084Y-116680106D01*
X104855084Y-116442011D01*
X104902703Y-116346773D01*
X104950322Y-116299154D01*
X105045560Y-116251535D01*
X105236036Y-116251535D01*
X105331274Y-116299154D01*
X105378893Y-116346773D01*
X105426512Y-116442011D01*
X89270917Y-89662248D02*
X89270917Y-90471772D01*
X89223298Y-90567010D01*
X89175679Y-90614629D01*
X89080441Y-90662248D01*
X88889965Y-90662248D01*
X88794727Y-90614629D01*
X88747108Y-90567010D01*
X88699489Y-90471772D01*
X88699489Y-89662248D01*
X88318536Y-89662248D02*
X87651870Y-89662248D01*
X88080441Y-90662248D01*
X113117466Y-117045345D02*
X113165085Y-117092964D01*
X113307942Y-117140583D01*
X113403180Y-117140583D01*
X113546037Y-117092964D01*
X113641275Y-116997726D01*
X113688894Y-116902488D01*
X113736513Y-116712012D01*
X113736513Y-116569155D01*
X113688894Y-116378679D01*
X113641275Y-116283441D01*
X113546037Y-116188203D01*
X113403180Y-116140583D01*
X113307942Y-116140583D01*
X113165085Y-116188203D01*
X113117466Y-116235822D01*
X112165085Y-117140583D02*
X112736513Y-117140583D01*
X112450799Y-117140583D02*
X112450799Y-116140583D01*
X112546037Y-116283441D01*
X112641275Y-116378679D01*
X112736513Y-116426298D01*
X111260323Y-116140583D02*
X111736513Y-116140583D01*
X111784132Y-116616774D01*
X111736513Y-116569155D01*
X111641275Y-116521536D01*
X111403180Y-116521536D01*
X111307942Y-116569155D01*
X111260323Y-116616774D01*
X111212704Y-116712012D01*
X111212704Y-116950107D01*
X111260323Y-117045345D01*
X111307942Y-117092964D01*
X111403180Y-117140583D01*
X111641275Y-117140583D01*
X111736513Y-117092964D01*
X111784132Y-117045345D01*
D11*
X88979350Y-94858488D02*
X88735858Y-94717908D01*
X88469350Y-95741834D02*
X88225858Y-95601254D01*
X99324607Y-114187623D02*
X99324607Y-114468783D01*
X98304607Y-114187623D02*
X98304607Y-114468783D01*
X118816986Y-92020990D02*
X119316986Y-92887016D01*
X121756882Y-92633041D02*
X120756882Y-90900990D01*
X93939345Y-86518486D02*
X93695853Y-86377906D01*
X93429345Y-87401832D02*
X93185853Y-87261252D01*
X116448680Y-85397804D02*
X116205188Y-85538384D01*
X116958680Y-86281150D02*
X116715188Y-86421730D01*
X123382338Y-97387257D02*
X123138846Y-97527837D01*
X123892338Y-98270603D02*
X123648846Y-98411183D01*
X107194608Y-113238202D02*
X105194608Y-113238202D01*
X105194608Y-115478202D02*
X106194608Y-115478202D01*
X90302655Y-90066855D02*
X89802655Y-90932881D01*
X91242551Y-92918906D02*
X92242551Y-91186855D01*
X112884609Y-114237623D02*
X112884609Y-114518783D01*
X111864609Y-114237623D02*
X111864609Y-114518783D01*
M02*
