G04 #@! TF.GenerationSoftware,KiCad,Pcbnew,6.0.2+dfsg-1*
G04 #@! TF.CreationDate,2024-11-30T20:51:59+09:00*
G04 #@! TF.ProjectId,omni_wheel,6f6d6e69-5f77-4686-9565-6c2e6b696361,rev?*
G04 #@! TF.SameCoordinates,Original*
G04 #@! TF.FileFunction,Soldermask,Top*
G04 #@! TF.FilePolarity,Negative*
%FSLAX46Y46*%
G04 Gerber Fmt 4.6, Leading zero omitted, Abs format (unit mm)*
G04 Created by KiCad (PCBNEW 6.0.2+dfsg-1) date 2024-11-30 20:51:59*
%MOMM*%
%LPD*%
G01*
G04 APERTURE LIST*
G04 Aperture macros list*
%AMRoundRect*
0 Rectangle with rounded corners*
0 $1 Rounding radius*
0 $2 $3 $4 $5 $6 $7 $8 $9 X,Y pos of 4 corners*
0 Add a 4 corners polygon primitive as box body*
4,1,4,$2,$3,$4,$5,$6,$7,$8,$9,$2,$3,0*
0 Add four circle primitives for the rounded corners*
1,1,$1+$1,$2,$3*
1,1,$1+$1,$4,$5*
1,1,$1+$1,$6,$7*
1,1,$1+$1,$8,$9*
0 Add four rect primitives between the rounded corners*
20,1,$1+$1,$2,$3,$4,$5,0*
20,1,$1+$1,$4,$5,$6,$7,0*
20,1,$1+$1,$6,$7,$8,$9,0*
20,1,$1+$1,$8,$9,$2,$3,0*%
%AMHorizOval*
0 Thick line with rounded ends*
0 $1 width*
0 $2 $3 position (X,Y) of the first rounded end (center of the circle)*
0 $4 $5 position (X,Y) of the second rounded end (center of the circle)*
0 Add line between two ends*
20,1,$1,$2,$3,$4,$5,0*
0 Add two circle primitives to create the rounded ends*
1,1,$1,$2,$3*
1,1,$1,$4,$5*%
%AMRotRect*
0 Rectangle, with rotation*
0 The origin of the aperture is its center*
0 $1 length*
0 $2 width*
0 $3 Rotation angle, in degrees counterclockwise*
0 Add horizontal line*
21,1,$1,$2,0,0,$3*%
G04 Aperture macros list end*
%ADD10R,1.700000X1.700000*%
%ADD11O,1.700000X1.700000*%
%ADD12RoundRect,0.150000X-0.587500X-0.150000X0.587500X-0.150000X0.587500X0.150000X-0.587500X0.150000X0*%
%ADD13RoundRect,0.200000X0.035705X0.338157X-0.310705X0.138157X-0.035705X-0.338157X0.310705X-0.138157X0*%
%ADD14RoundRect,0.218750X0.218750X0.256250X-0.218750X0.256250X-0.218750X-0.256250X0.218750X-0.256250X0*%
%ADD15RoundRect,0.200000X0.275000X-0.200000X0.275000X0.200000X-0.275000X0.200000X-0.275000X-0.200000X0*%
%ADD16RoundRect,0.225000X-0.250000X0.225000X-0.250000X-0.225000X0.250000X-0.225000X0.250000X0.225000X0*%
%ADD17RoundRect,0.200000X-0.275000X0.200000X-0.275000X-0.200000X0.275000X-0.200000X0.275000X0.200000X0*%
%ADD18RoundRect,0.200000X-0.200000X-0.275000X0.200000X-0.275000X0.200000X0.275000X-0.200000X0.275000X0*%
%ADD19RoundRect,0.062500X-0.261034X-0.222877X0.323534X0.114623X0.261034X0.222877X-0.323534X-0.114623X0*%
%ADD20RoundRect,0.062500X0.114623X-0.323534X0.222877X-0.261034X-0.114623X0.323534X-0.222877X0.261034X0*%
%ADD21RotRect,3.350000X3.350000X30.000000*%
%ADD22RoundRect,0.218750X-0.061318X-0.331294X0.317568X-0.112544X0.061318X0.331294X-0.317568X0.112544X0*%
%ADD23RoundRect,0.200000X0.338157X-0.035705X0.138157X0.310705X-0.338157X0.035705X-0.138157X-0.310705X0*%
%ADD24RoundRect,0.225000X0.250000X-0.225000X0.250000X0.225000X-0.250000X0.225000X-0.250000X-0.225000X0*%
%ADD25RoundRect,0.225000X0.225000X0.250000X-0.225000X0.250000X-0.225000X-0.250000X0.225000X-0.250000X0*%
%ADD26R,1.300000X1.550000*%
%ADD27R,0.900000X1.000000*%
%ADD28RotRect,0.700000X1.000000X30.000000*%
%ADD29RotRect,0.700000X0.600000X30.000000*%
%ADD30RoundRect,0.225000X-0.225000X-0.250000X0.225000X-0.250000X0.225000X0.250000X-0.225000X0.250000X0*%
%ADD31R,2.000000X1.500000*%
%ADD32R,2.000000X3.800000*%
%ADD33RoundRect,0.225000X0.329006X-0.069856X0.104006X0.319856X-0.329006X0.069856X-0.104006X-0.319856X0*%
%ADD34RoundRect,0.200000X-0.035705X-0.338157X0.310705X-0.138157X0.035705X0.338157X-0.310705X0.138157X0*%
%ADD35RotRect,1.700000X1.700000X30.000000*%
%ADD36HorizOval,1.700000X0.000000X0.000000X0.000000X0.000000X0*%
%ADD37RoundRect,0.102000X-0.750000X-0.450000X0.750000X-0.450000X0.750000X0.450000X-0.750000X0.450000X0*%
%ADD38RoundRect,0.102000X-0.450000X-0.450000X0.450000X-0.450000X0.450000X0.450000X-0.450000X0.450000X0*%
%ADD39C,0.504000*%
%ADD40RotRect,1.700000X1.700000X150.000000*%
%ADD41HorizOval,1.700000X0.000000X0.000000X0.000000X0.000000X0*%
%ADD42R,0.254000X0.675000*%
%ADD43R,0.675000X0.254000*%
%ADD44HorizOval,0.650000X0.075000X-0.129904X-0.075000X0.129904X0*%
%ADD45C,0.650000*%
%ADD46RotRect,0.300000X0.700000X300.000000*%
%ADD47HorizOval,0.800000X-0.259808X-0.150000X0.259808X0.150000X0*%
%ADD48RoundRect,0.200000X-0.338157X0.035705X-0.138157X-0.310705X0.338157X-0.035705X0.138157X0.310705X0*%
G04 APERTURE END LIST*
D10*
X112102565Y-110430309D03*
D11*
X109562565Y-110430309D03*
X107022565Y-110430309D03*
X104482565Y-110430309D03*
X101942565Y-110430309D03*
X99402565Y-110430309D03*
D12*
X128835105Y-123589870D03*
X128835105Y-125489870D03*
X130710105Y-124539870D03*
D13*
X83476795Y-122507374D03*
X82047853Y-123332374D03*
D14*
X133872601Y-106749870D03*
X132297601Y-106749870D03*
D15*
X106232603Y-96034871D03*
X106232603Y-94384871D03*
D16*
X106872581Y-104943749D03*
X106872581Y-106493749D03*
D17*
X121792604Y-119634870D03*
X121792604Y-121284870D03*
D18*
X117020333Y-79559685D03*
X118670333Y-79559685D03*
D19*
X83230820Y-110721331D03*
X83480820Y-111154344D03*
X83730820Y-111587356D03*
X83980820Y-112020369D03*
X84230820Y-112453382D03*
X84480820Y-112886394D03*
X84730820Y-113319407D03*
D20*
X86028544Y-113667131D03*
X86461557Y-113417131D03*
X86894569Y-113167131D03*
X87327582Y-112917131D03*
X87760595Y-112667131D03*
X88193607Y-112417131D03*
X88626620Y-112167131D03*
D19*
X88974344Y-110869407D03*
X88724344Y-110436394D03*
X88474344Y-110003382D03*
X88224344Y-109570369D03*
X87974344Y-109137356D03*
X87724344Y-108704344D03*
X87474344Y-108271331D03*
D20*
X86176620Y-107923607D03*
X85743607Y-108173607D03*
X85310595Y-108423607D03*
X84877582Y-108673607D03*
X84444569Y-108923607D03*
X84011557Y-109173607D03*
X83578544Y-109423607D03*
D21*
X86102582Y-110795369D03*
D22*
X75793443Y-129414419D03*
X77157433Y-128626919D03*
D23*
X89570965Y-116442789D03*
X88745965Y-115013847D03*
D24*
X103312601Y-95994869D03*
X103312601Y-94444869D03*
D25*
X130607602Y-121299868D03*
X129057602Y-121299868D03*
D26*
X89092566Y-68035305D03*
X89092566Y-60085305D03*
X93592566Y-60085305D03*
X93592566Y-68035305D03*
D27*
X133205335Y-118639687D03*
X137305335Y-118639687D03*
X137305335Y-120239687D03*
X133205335Y-120239687D03*
D17*
X103932580Y-104883750D03*
X103932580Y-106533750D03*
D23*
X82409248Y-106998329D03*
X81584248Y-105569387D03*
D17*
X113392604Y-97674871D03*
X113392604Y-99324871D03*
D18*
X92247562Y-70160306D03*
X93897562Y-70160306D03*
D13*
X81243100Y-111268500D03*
X79814158Y-112093500D03*
D28*
X80895904Y-114217141D03*
D29*
X81745904Y-115689384D03*
X83477954Y-114689384D03*
X82527954Y-113043936D03*
D12*
X128925104Y-117619870D03*
X128925104Y-119519870D03*
X130800104Y-118569870D03*
D30*
X132260105Y-104499868D03*
X133810105Y-104499868D03*
D15*
X135855334Y-114665659D03*
X135855334Y-113015659D03*
D30*
X139627602Y-114519872D03*
X141177602Y-114519872D03*
D31*
X138995331Y-105149683D03*
D32*
X145295331Y-107449683D03*
D31*
X138995331Y-107449683D03*
X138995331Y-109749683D03*
D14*
X118632833Y-76559686D03*
X117057833Y-76559686D03*
D33*
X88658610Y-121022538D03*
X87883610Y-119680198D03*
D34*
X74434988Y-127196504D03*
X75863930Y-126371504D03*
D13*
X86577400Y-117287780D03*
X85148458Y-118112780D03*
D15*
X124752602Y-121284871D03*
X124752602Y-119634871D03*
D23*
X85345075Y-105303330D03*
X84520075Y-103874388D03*
D35*
X113227562Y-88551049D03*
D36*
X114497562Y-90750754D03*
X115767562Y-92950458D03*
X117037562Y-95150163D03*
X118307562Y-97349867D03*
X119577562Y-99549572D03*
D37*
X97105329Y-58789685D03*
X97105329Y-60059685D03*
X97105329Y-61329685D03*
X97105329Y-62599685D03*
X97105329Y-63869685D03*
X97105329Y-65139685D03*
X97105329Y-66409685D03*
X97105329Y-67679685D03*
X97105329Y-68949685D03*
X97105329Y-70219685D03*
X97105329Y-71489685D03*
X97105329Y-72759685D03*
X97105329Y-74029685D03*
X97105329Y-75299685D03*
X97105329Y-76569685D03*
X97105329Y-77839685D03*
X97105329Y-79109685D03*
X97105329Y-80379685D03*
X97105329Y-81649685D03*
X114605329Y-81649685D03*
X114605329Y-80379685D03*
X114605329Y-79109685D03*
X114605329Y-77839685D03*
X114605329Y-76569685D03*
X114605329Y-75299685D03*
X114605329Y-74029685D03*
X114605329Y-72759685D03*
X114605329Y-71489685D03*
X114605329Y-70219685D03*
X114605329Y-68949685D03*
X114605329Y-67679685D03*
X114605329Y-66409685D03*
X114605329Y-65139685D03*
X114605329Y-63869685D03*
X114605329Y-62599685D03*
X114605329Y-61329685D03*
X114605329Y-60059685D03*
X114605329Y-58789685D03*
D38*
X102955329Y-66589685D03*
X104355329Y-66589685D03*
X105755329Y-66589685D03*
X102955329Y-65189685D03*
X104355329Y-65189685D03*
X105755329Y-65189685D03*
X102955329Y-67989685D03*
X104355329Y-67989685D03*
X105755329Y-67989685D03*
D39*
X105755329Y-65889685D03*
X104355329Y-65889685D03*
X102955329Y-65889685D03*
X102955329Y-67289685D03*
X104355329Y-67289685D03*
X105755329Y-67289685D03*
X105055329Y-65189685D03*
X103655329Y-65189685D03*
X105055329Y-66589685D03*
X103655329Y-66589685D03*
X103655329Y-67989685D03*
X105055329Y-67989685D03*
D30*
X128957602Y-127239872D03*
X130507602Y-127239872D03*
D16*
X129855328Y-113065659D03*
X129855328Y-114615659D03*
D40*
X93047565Y-99869565D03*
D41*
X94317565Y-97669860D03*
X95587565Y-95470156D03*
X96857565Y-93270451D03*
X98127565Y-91070747D03*
X99397565Y-88871042D03*
D17*
X109572584Y-104913750D03*
X109572584Y-106563750D03*
D33*
X91308647Y-119492537D03*
X90533647Y-118150197D03*
D24*
X109242605Y-95934868D03*
X109242605Y-94384868D03*
D15*
X110802602Y-101864869D03*
X110802602Y-100214869D03*
D18*
X132280099Y-108909869D03*
X133930099Y-108909869D03*
D27*
X137305331Y-124530660D03*
X133205331Y-124530660D03*
X133205331Y-126130660D03*
X137305331Y-126130660D03*
D42*
X103605331Y-98387183D03*
D43*
X103467831Y-99299683D03*
X103467831Y-99799683D03*
X103467831Y-100299683D03*
X103467831Y-100799683D03*
D42*
X103605331Y-101712183D03*
X104105331Y-101712183D03*
X104605331Y-101712183D03*
X105105331Y-101712183D03*
X105605331Y-101712183D03*
X106105331Y-101712183D03*
X106605331Y-101712183D03*
X107105331Y-101712183D03*
X107605331Y-101712183D03*
X108105331Y-101712183D03*
D43*
X108242831Y-100799683D03*
X108242831Y-100299683D03*
X108242831Y-99799683D03*
X108242831Y-99299683D03*
D42*
X108105331Y-98387183D03*
X107605331Y-98387183D03*
X107105331Y-98387183D03*
X106605331Y-98387183D03*
X106105331Y-98387183D03*
X105605331Y-98387183D03*
X105105331Y-98387183D03*
X104605331Y-98387183D03*
X104105331Y-98387183D03*
D16*
X132855330Y-113065656D03*
X132855330Y-114615656D03*
D40*
X141055334Y-120449688D03*
D41*
X142325334Y-118249983D03*
D44*
X79555996Y-119987377D03*
D45*
X75955996Y-113751995D03*
D46*
X76952573Y-114158116D03*
X77202573Y-114591129D03*
X77452573Y-115024142D03*
X77702573Y-115457154D03*
X77952573Y-115890167D03*
X78202573Y-116323180D03*
X78452573Y-116756192D03*
X78702573Y-117189205D03*
X78952573Y-117622218D03*
X79202573Y-118055230D03*
X79452573Y-118488243D03*
X79702573Y-118921256D03*
X78105329Y-119554750D03*
X77855329Y-119121737D03*
X77605329Y-118688724D03*
X77355329Y-118255711D03*
X77105329Y-117822699D03*
X76855329Y-117389686D03*
X76605329Y-116956673D03*
X76355329Y-116523661D03*
X76105329Y-116090648D03*
X75855329Y-115657635D03*
X75605329Y-115224622D03*
X75355329Y-114791610D03*
D47*
X73765613Y-124358140D03*
X78738464Y-121071371D03*
X69275613Y-116581232D03*
X74608464Y-113918001D03*
D17*
X101252583Y-104883750D03*
X101252583Y-106533750D03*
D48*
X91544750Y-113461476D03*
X92369750Y-114890418D03*
M02*
