G04 #@! TF.GenerationSoftware,KiCad,Pcbnew,6.0.2+dfsg-1*
G04 #@! TF.CreationDate,2024-12-02T22:35:52+09:00*
G04 #@! TF.ProjectId,omni_wheel,6f6d6e69-5f77-4686-9565-6c2e6b696361,rev?*
G04 #@! TF.SameCoordinates,Original*
G04 #@! TF.FileFunction,Legend,Bot*
G04 #@! TF.FilePolarity,Positive*
%FSLAX46Y46*%
G04 Gerber Fmt 4.6, Leading zero omitted, Abs format (unit mm)*
G04 Created by KiCad (PCBNEW 6.0.2+dfsg-1) date 2024-12-02 22:35:52*
%MOMM*%
%LPD*%
G01*
G04 APERTURE LIST*
%ADD10C,0.150000*%
%ADD11C,0.120000*%
G04 APERTURE END LIST*
D10*
X83013963Y-95747576D02*
X83061582Y-95795195D01*
X83204439Y-95842814D01*
X83299677Y-95842814D01*
X83442534Y-95795195D01*
X83537772Y-95699957D01*
X83585391Y-95604719D01*
X83633010Y-95414243D01*
X83633010Y-95271386D01*
X83585391Y-95080910D01*
X83537772Y-94985672D01*
X83442534Y-94890434D01*
X83299677Y-94842814D01*
X83204439Y-94842814D01*
X83061582Y-94890434D01*
X83013963Y-94938053D01*
X82061582Y-95842814D02*
X82633010Y-95842814D01*
X82347296Y-95842814D02*
X82347296Y-94842814D01*
X82442534Y-94985672D01*
X82537772Y-95080910D01*
X82633010Y-95128529D01*
X81728248Y-94842814D02*
X81061582Y-94842814D01*
X81490153Y-95842814D01*
X96537137Y-118033406D02*
X96584756Y-118081025D01*
X96727613Y-118128644D01*
X96822851Y-118128644D01*
X96965708Y-118081025D01*
X97060946Y-117985787D01*
X97108565Y-117890549D01*
X97156184Y-117700073D01*
X97156184Y-117557216D01*
X97108565Y-117366740D01*
X97060946Y-117271502D01*
X96965708Y-117176264D01*
X96822851Y-117128644D01*
X96727613Y-117128644D01*
X96584756Y-117176264D01*
X96537137Y-117223883D01*
X95584756Y-118128644D02*
X96156184Y-118128644D01*
X95870470Y-118128644D02*
X95870470Y-117128644D01*
X95965708Y-117271502D01*
X96060946Y-117366740D01*
X96156184Y-117414359D01*
X94727613Y-117461978D02*
X94727613Y-118128644D01*
X94965708Y-117081025D02*
X95203803Y-117795311D01*
X94584756Y-117795311D01*
X120646768Y-91445013D02*
X120646768Y-92254537D01*
X120599149Y-92349775D01*
X120551530Y-92397394D01*
X120456292Y-92445013D01*
X120265816Y-92445013D01*
X120170578Y-92397394D01*
X120122959Y-92349775D01*
X120075340Y-92254537D01*
X120075340Y-91445013D01*
X119122959Y-91445013D02*
X119599149Y-91445013D01*
X119646768Y-91921204D01*
X119599149Y-91873585D01*
X119503911Y-91825966D01*
X119265816Y-91825966D01*
X119170578Y-91873585D01*
X119122959Y-91921204D01*
X119075340Y-92016442D01*
X119075340Y-92254537D01*
X119122959Y-92349775D01*
X119170578Y-92397394D01*
X119265816Y-92445013D01*
X119503911Y-92445013D01*
X119599149Y-92397394D01*
X119646768Y-92349775D01*
X88253958Y-87337572D02*
X88301577Y-87385191D01*
X88444434Y-87432810D01*
X88539672Y-87432810D01*
X88682529Y-87385191D01*
X88777767Y-87289953D01*
X88825386Y-87194715D01*
X88873005Y-87004239D01*
X88873005Y-86861382D01*
X88825386Y-86670906D01*
X88777767Y-86575668D01*
X88682529Y-86480430D01*
X88539672Y-86432810D01*
X88444434Y-86432810D01*
X88301577Y-86480430D01*
X88253958Y-86528049D01*
X87301577Y-87432810D02*
X87873005Y-87432810D01*
X87587291Y-87432810D02*
X87587291Y-86432810D01*
X87682529Y-86575668D01*
X87777767Y-86670906D01*
X87873005Y-86718525D01*
X86444434Y-86432810D02*
X86634910Y-86432810D01*
X86730148Y-86480430D01*
X86777767Y-86528049D01*
X86873005Y-86670906D01*
X86920624Y-86861382D01*
X86920624Y-87242334D01*
X86873005Y-87337572D01*
X86825386Y-87385191D01*
X86730148Y-87432810D01*
X86539672Y-87432810D01*
X86444434Y-87385191D01*
X86396815Y-87337572D01*
X86349196Y-87242334D01*
X86349196Y-87004239D01*
X86396815Y-86909001D01*
X86444434Y-86861382D01*
X86539672Y-86813763D01*
X86730148Y-86813763D01*
X86825386Y-86861382D01*
X86873005Y-86909001D01*
X86920624Y-87004239D01*
X117997724Y-86279774D02*
X118045343Y-86327393D01*
X118188200Y-86375012D01*
X118283438Y-86375012D01*
X118426295Y-86327393D01*
X118521533Y-86232155D01*
X118569152Y-86136917D01*
X118616771Y-85946441D01*
X118616771Y-85803584D01*
X118569152Y-85613108D01*
X118521533Y-85517870D01*
X118426295Y-85422632D01*
X118283438Y-85375012D01*
X118188200Y-85375012D01*
X118045343Y-85422632D01*
X117997724Y-85470251D01*
X117045343Y-86375012D02*
X117616771Y-86375012D01*
X117331057Y-86375012D02*
X117331057Y-85375012D01*
X117426295Y-85517870D01*
X117521533Y-85613108D01*
X117616771Y-85660727D01*
X116664390Y-85470251D02*
X116616771Y-85422632D01*
X116521533Y-85375012D01*
X116283438Y-85375012D01*
X116188200Y-85422632D01*
X116140581Y-85470251D01*
X116092962Y-85565489D01*
X116092962Y-85660727D01*
X116140581Y-85803584D01*
X116712009Y-86375012D01*
X116092962Y-86375012D01*
X124797721Y-98199779D02*
X124845340Y-98247398D01*
X124988197Y-98295017D01*
X125083435Y-98295017D01*
X125226292Y-98247398D01*
X125321530Y-98152160D01*
X125369149Y-98056922D01*
X125416768Y-97866446D01*
X125416768Y-97723589D01*
X125369149Y-97533113D01*
X125321530Y-97437875D01*
X125226292Y-97342637D01*
X125083435Y-97295017D01*
X124988197Y-97295017D01*
X124845340Y-97342637D01*
X124797721Y-97390256D01*
X123845340Y-98295017D02*
X124416768Y-98295017D01*
X124131054Y-98295017D02*
X124131054Y-97295017D01*
X124226292Y-97437875D01*
X124321530Y-97533113D01*
X124416768Y-97580732D01*
X123512006Y-97295017D02*
X122892959Y-97295017D01*
X123226292Y-97675970D01*
X123083435Y-97675970D01*
X122988197Y-97723589D01*
X122940578Y-97771208D01*
X122892959Y-97866446D01*
X122892959Y-98104541D01*
X122940578Y-98199779D01*
X122988197Y-98247398D01*
X123083435Y-98295017D01*
X123369149Y-98295017D01*
X123464387Y-98247398D01*
X123512006Y-98199779D01*
X103596181Y-116858644D02*
X103596181Y-117668168D01*
X103548562Y-117763406D01*
X103500943Y-117811025D01*
X103405705Y-117858644D01*
X103215229Y-117858644D01*
X103119991Y-117811025D01*
X103072372Y-117763406D01*
X103024753Y-117668168D01*
X103024753Y-116858644D01*
X102119991Y-116858644D02*
X102310467Y-116858644D01*
X102405705Y-116906264D01*
X102453324Y-116953883D01*
X102548562Y-117096740D01*
X102596181Y-117287216D01*
X102596181Y-117668168D01*
X102548562Y-117763406D01*
X102500943Y-117811025D01*
X102405705Y-117858644D01*
X102215229Y-117858644D01*
X102119991Y-117811025D01*
X102072372Y-117763406D01*
X102024753Y-117668168D01*
X102024753Y-117430073D01*
X102072372Y-117334835D01*
X102119991Y-117287216D01*
X102215229Y-117239597D01*
X102405705Y-117239597D01*
X102500943Y-117287216D01*
X102548562Y-117334835D01*
X102596181Y-117430073D01*
X86440589Y-90650310D02*
X86440589Y-91459834D01*
X86392970Y-91555072D01*
X86345351Y-91602691D01*
X86250113Y-91650310D01*
X86059637Y-91650310D01*
X85964399Y-91602691D01*
X85916780Y-91555072D01*
X85869161Y-91459834D01*
X85869161Y-90650310D01*
X85488208Y-90650310D02*
X84821542Y-90650310D01*
X85250113Y-91650310D01*
X110287138Y-118033408D02*
X110334757Y-118081027D01*
X110477614Y-118128646D01*
X110572852Y-118128646D01*
X110715709Y-118081027D01*
X110810947Y-117985789D01*
X110858566Y-117890551D01*
X110906185Y-117700075D01*
X110906185Y-117557218D01*
X110858566Y-117366742D01*
X110810947Y-117271504D01*
X110715709Y-117176266D01*
X110572852Y-117128646D01*
X110477614Y-117128646D01*
X110334757Y-117176266D01*
X110287138Y-117223885D01*
X109334757Y-118128646D02*
X109906185Y-118128646D01*
X109620471Y-118128646D02*
X109620471Y-117128646D01*
X109715709Y-117271504D01*
X109810947Y-117366742D01*
X109906185Y-117414361D01*
X108429995Y-117128646D02*
X108906185Y-117128646D01*
X108953804Y-117604837D01*
X108906185Y-117557218D01*
X108810947Y-117509599D01*
X108572852Y-117509599D01*
X108477614Y-117557218D01*
X108429995Y-117604837D01*
X108382376Y-117700075D01*
X108382376Y-117938170D01*
X108429995Y-118033408D01*
X108477614Y-118081027D01*
X108572852Y-118128646D01*
X108810947Y-118128646D01*
X108906185Y-118081027D01*
X108953804Y-118033408D01*
D11*
X86149022Y-95846551D02*
X85905530Y-95705971D01*
X85639022Y-96729897D02*
X85395530Y-96589317D01*
X96494280Y-115175684D02*
X96494280Y-115456844D01*
X95474280Y-115175684D02*
X95474280Y-115456844D01*
X115986656Y-93009049D02*
X116486656Y-93875075D01*
X118926552Y-93621100D02*
X117926552Y-91889049D01*
X91109017Y-87506547D02*
X90865525Y-87365967D01*
X90599017Y-88389893D02*
X90355525Y-88249313D01*
X113618354Y-86385863D02*
X113374862Y-86526443D01*
X114128354Y-87269209D02*
X113884862Y-87409789D01*
X120552010Y-98375320D02*
X120308518Y-98515900D01*
X121062010Y-99258666D02*
X120818518Y-99399246D01*
X104364277Y-114226264D02*
X102364277Y-114226264D01*
X102364277Y-116466264D02*
X103364277Y-116466264D01*
X87472327Y-91054917D02*
X86972327Y-91920943D01*
X88412223Y-93906968D02*
X89412223Y-92174917D01*
X110054281Y-115225686D02*
X110054281Y-115506846D01*
X109034281Y-115225686D02*
X109034281Y-115506846D01*
M02*
