G04 #@! TF.GenerationSoftware,KiCad,Pcbnew,6.0.2+dfsg-1*
G04 #@! TF.CreationDate,2024-11-30T20:51:59+09:00*
G04 #@! TF.ProjectId,omni_wheel,6f6d6e69-5f77-4686-9565-6c2e6b696361,rev?*
G04 #@! TF.SameCoordinates,Original*
G04 #@! TF.FileFunction,Profile,NP*
%FSLAX46Y46*%
G04 Gerber Fmt 4.6, Leading zero omitted, Abs format (unit mm)*
G04 Created by KiCad (PCBNEW 6.0.2+dfsg-1) date 2024-11-30 20:51:59*
%MOMM*%
%LPD*%
G01*
G04 APERTURE LIST*
G04 #@! TA.AperFunction,Profile*
%ADD10C,0.200000*%
G04 #@! TD*
G04 APERTURE END LIST*
D10*
X62693073Y-110076061D02*
X75646066Y-132511303D01*
X75646066Y-67640811D02*
X62693075Y-90076060D01*
X95469567Y-132076058D02*
G75*
G03*
X95469567Y-132076058I-1549997J0D01*
G01*
X118723740Y-106568847D02*
G75*
G03*
X118723740Y-106568847I-1550004J0D01*
G01*
X141182387Y-94468364D02*
G75*
G03*
X141182387Y-94468364I-1550003J0D01*
G01*
X73756761Y-94468364D02*
G75*
G03*
X73756761Y-94468364I-1550003J0D01*
G01*
X85756758Y-73683755D02*
G75*
G03*
X85756758Y-73683755I-1550002J0D01*
G01*
X62693075Y-90076060D02*
G75*
G03*
X62693073Y-110076061I17320479J-10000002D01*
G01*
X129182379Y-73683753D02*
G75*
G03*
X129182379Y-73683753I-1549996J0D01*
G01*
X96219572Y-106576059D02*
G75*
G03*
X96219572Y-106576059I-1550002J0D01*
G01*
X136193073Y-67640815D02*
G75*
G03*
X118872564Y-57640815I-17320505J-9999995D01*
G01*
X92966575Y-142511302D02*
X118872565Y-142511305D01*
X107465403Y-87083273D02*
G75*
G03*
X107465403Y-87083273I-1549999J0D01*
G01*
X118872565Y-142511305D02*
G75*
G03*
X136193073Y-132511305I3J19999995D01*
G01*
X136193073Y-132511305D02*
X149146069Y-110076061D01*
X75646066Y-132511303D02*
G75*
G03*
X92966575Y-142511302I17320516J10000015D01*
G01*
X149146069Y-90076060D02*
X136193073Y-67640815D01*
X118872564Y-57640815D02*
X92966576Y-57640812D01*
X149146069Y-110076061D02*
G75*
G03*
X149146069Y-90076060I-17320509J10000000D01*
G01*
X119469570Y-132076060D02*
G75*
G03*
X119469570Y-132076060I-1550001J0D01*
G01*
X92966576Y-57640812D02*
G75*
G03*
X75646066Y-67640811I-6J-19999994D01*
G01*
M02*
