M48
METRIC,TZ
T1C0.200
T2C0.400
T3C0.500
T4C1.000
%
G90
G05
T1
X102955Y-65890
X102955Y-67290
X103655Y-65190
X103655Y-66590
X103655Y-67990
X104355Y-65890
X104355Y-67290
X105055Y-65190
X105055Y-66590
X105055Y-67990
X105755Y-65890
X105755Y-67290
T2
X75144Y-116614
X75380Y-117644
X75652Y-120074
X79106Y-111197
X79585Y-108875
X79884Y-115945
X80909Y-114279
X80930Y-118216
X81365Y-126135
X85816Y-114751
X86555Y-63855
X86577Y-117288
X87315Y-65615
X87931Y-94842
X89245Y-91433
X89274Y-95617
X89447Y-82781
X89954Y-86796
X90023Y-120235
X90534Y-118150
X91035Y-65235
X91529Y-92808
X91548Y-87716
X91865Y-62505
X92370Y-114890
X92787Y-61481
X92889Y-92183
X92891Y-86502
X92897Y-88379
X94007Y-93451
X94117Y-74391
X94327Y-84891
X94815Y-117195
X94885Y-110465
X95479Y-87826
X95865Y-117165
X96544Y-85982
X96875Y-114348
X97105Y-58790
X97105Y-61330
X97105Y-66410
X97105Y-68950
X97105Y-71490
X97105Y-72760
X97885Y-119185
X99227Y-74575
X99853Y-91361
X100747Y-72601
X100795Y-115148
X101067Y-66651
X101895Y-113808
X102013Y-94956
X102045Y-98885
X102197Y-79941
X102287Y-71091
X104645Y-113608
X105017Y-70076
X105237Y-71621
X105237Y-107761
X105657Y-83631
X105695Y-114358
X106527Y-78731
X106595Y-62275
X107215Y-63805
X107267Y-70821
X107395Y-95435
X108304Y-105584
X108332Y-101575
X108385Y-115008
X109085Y-65155
X110025Y-62405
X110227Y-112921
X110745Y-76655
X110777Y-90171
X110803Y-101865
X111447Y-72611
X111785Y-77885
X111977Y-85471
X112215Y-96695
X112375Y-113603
X112607Y-76091
X113393Y-97675
X115507Y-98541
X115538Y-84668
X116255Y-121055
X116364Y-113603
X116750Y-89150
X117020Y-79560
X117253Y-85522
X120037Y-91894
X121247Y-98161
X121415Y-64225
X121561Y-94945
X122417Y-96001
X122844Y-98287
X123247Y-61271
X124187Y-97512
X126931Y-122439
X126945Y-98725
X126955Y-92045
X127045Y-110835
X128163Y-109390
X129025Y-92205
X130765Y-123505
X132260Y-104500
X132595Y-110505
X134097Y-94261
X134435Y-114185
X135252Y-126131
X135283Y-123740
X135333Y-117780
X138875Y-120235
X138995Y-107450
X145295Y-107450
T4
X93048Y-99870
X94318Y-97670
X95588Y-95470
X96858Y-93270
X98128Y-91071
X99398Y-88871
X99403Y-110430
X101943Y-110430
X104483Y-110430
X107023Y-110430
X109563Y-110430
X112103Y-110430
X113228Y-88551
X114498Y-90751
X115768Y-92950
X117038Y-95150
X118308Y-97350
X119578Y-99550
X141055Y-120450
X142325Y-118250
T3
G00X69535Y-116431
M15
G01X69016Y-116731
M16
G05
G00X74025Y-124208
M15
G01X73506Y-124508
M16
G05
G00X74868Y-113768
M15
G01X74349Y-114068
M16
G05
G00X78998Y-120921
M15
G01X78479Y-121221
M16
G05
T0
M30
