M48
METRIC,TZ
T1C0.200
T2C0.400
T3C0.500
T4C0.800
T5C1.000
T6C1.500
%
G90
G05
T1
X97553Y-65669
X97553Y-67069
X98253Y-64969
X98253Y-66369
X98253Y-67769
X98953Y-65669
X98953Y-67069
X99653Y-64969
X99653Y-66369
X99653Y-67769
X100353Y-65669
X100353Y-67069
T2
X68618Y-118298
X68634Y-117179
X68690Y-120395
X69698Y-116643
X72828Y-119551
X72933Y-122924
X73221Y-114691
X74722Y-117464
X74821Y-116123
X76107Y-114035
X76553Y-108629
X76905Y-113103
X77380Y-117475
X77832Y-112310
X78728Y-119224
X78853Y-106199
X79015Y-111063
X79390Y-113827
X81334Y-109071
X83658Y-105287
X83735Y-103233
X84015Y-111903
X84053Y-114529
X85655Y-112063
X86699Y-87325
X87515Y-92143
X87755Y-83503
X87755Y-89453
X88063Y-94719
X88363Y-59324
X88565Y-90963
X89945Y-69953
X90130Y-61450
X91703Y-61109
X91703Y-66189
X92775Y-95513
X92873Y-104179
X93835Y-93753
X94445Y-70323
X94915Y-103533
X95653Y-100979
X95845Y-104773
X96395Y-71983
X96625Y-92793
X97915Y-73543
X97955Y-92013
X100128Y-95839
X100703Y-99839
X100783Y-113629
X101115Y-62343
X101815Y-63653
X102270Y-91725
X102703Y-115089
X102795Y-70293
X102816Y-67473
X102903Y-95764
X103103Y-98179
X103540Y-62217
X104265Y-72833
X105115Y-113513
X105225Y-74193
X105975Y-76895
X106275Y-71323
X106295Y-68343
X106680Y-95385
X106905Y-77693
X107840Y-85465
X109203Y-75079
X109203Y-68729
X109400Y-83065
X109483Y-87145
X112645Y-92703
X113848Y-95015
X114573Y-90399
X115345Y-127173
X118035Y-87353
X118035Y-90793
X118905Y-106103
X121990Y-126139
X124225Y-117563
X124453Y-107299
X129253Y-124310
X130453Y-114445
X131903Y-120019
T4
X61351Y-110209
X63083Y-109209
X64815Y-108209
T5
X87648Y-99849
X88918Y-97649
X90188Y-95449
X91458Y-93250
X92728Y-91050
X93998Y-88850
X94173Y-110239
X96713Y-110239
X99253Y-110239
X101793Y-110239
X104333Y-110239
X106873Y-110239
X107668Y-88720
X108938Y-90920
X110208Y-93120
X111478Y-95319
X112748Y-97519
X114018Y-99719
X135653Y-120229
X136923Y-118030
T6
X59532Y-111259
X66633Y-107159
T3
G00X64133Y-116211
M15
G01X63613Y-116511
M16
G05
G00X68623Y-123988
M15
G01X68103Y-124288
M16
G05
G00X69466Y-113548
M15
G01X68946Y-113848
M16
G05
G00X73596Y-120701
M15
G01X73076Y-121001
M16
G05
T0
M30
