G04 #@! TF.GenerationSoftware,KiCad,Pcbnew,6.0.2+dfsg-1*
G04 #@! TF.CreationDate,2024-09-01T09:28:51+09:00*
G04 #@! TF.ProjectId,omni_wheel,6f6d6e69-5f77-4686-9565-6c2e6b696361,rev?*
G04 #@! TF.SameCoordinates,Original*
G04 #@! TF.FileFunction,Legend,Top*
G04 #@! TF.FilePolarity,Positive*
%FSLAX46Y46*%
G04 Gerber Fmt 4.6, Leading zero omitted, Abs format (unit mm)*
G04 Created by KiCad (PCBNEW 6.0.2+dfsg-1) date 2024-09-01 09:28:51*
%MOMM*%
%LPD*%
G01*
G04 APERTURE LIST*
%ADD10C,0.075000*%
%ADD11C,0.300000*%
%ADD12C,0.150000*%
%ADD13C,0.120000*%
%ADD14C,0.127000*%
%ADD15C,0.200000*%
G04 APERTURE END LIST*
D10*
X92765238Y-96766190D02*
X92765238Y-96266190D01*
X93050952Y-96766190D02*
X92836666Y-96480476D01*
X93050952Y-96266190D02*
X92765238Y-96551904D01*
X93265238Y-96575714D02*
X93646190Y-96575714D01*
X93860476Y-96623333D02*
X94098571Y-96623333D01*
X93812857Y-96766190D02*
X93979523Y-96266190D01*
X94146190Y-96766190D01*
D11*
X125485408Y-85991231D02*
X124985408Y-85125206D01*
X125056836Y-85248924D02*
X125082981Y-85151350D01*
X125170985Y-85018063D01*
X125356562Y-84910920D01*
X125515994Y-84901350D01*
X125649281Y-84989354D01*
X126042138Y-85669802D01*
X125649281Y-84989354D02*
X125639712Y-84829922D01*
X125727715Y-84696634D01*
X125913292Y-84589491D01*
X126072724Y-84579922D01*
X126206012Y-84667925D01*
X126598869Y-85348374D01*
X127403036Y-84884088D02*
X127243603Y-84893658D01*
X127146030Y-84867513D01*
X127012743Y-84779509D01*
X126798457Y-84408356D01*
X126788887Y-84248924D01*
X126815032Y-84151350D01*
X126903036Y-84018063D01*
X127088612Y-83910920D01*
X127248045Y-83901350D01*
X127345618Y-83927495D01*
X127478905Y-84015499D01*
X127693191Y-84386652D01*
X127702761Y-84546085D01*
X127676616Y-84643658D01*
X127588612Y-84776945D01*
X127403036Y-84884088D01*
X127707202Y-83553777D02*
X128202074Y-83268063D01*
X127642779Y-83013621D02*
X128285636Y-84127083D01*
X128418924Y-84215086D01*
X128578356Y-84205517D01*
X128702074Y-84134088D01*
X129320663Y-83776945D02*
X129161231Y-83786515D01*
X129063658Y-83760370D01*
X128930370Y-83672367D01*
X128716085Y-83301213D01*
X128706515Y-83141781D01*
X128732660Y-83044207D01*
X128820663Y-82910920D01*
X129006240Y-82803777D01*
X129165672Y-82794207D01*
X129263246Y-82820352D01*
X129396533Y-82908356D01*
X129610819Y-83279509D01*
X129620388Y-83438942D01*
X129594244Y-83536515D01*
X129506240Y-83669802D01*
X129320663Y-83776945D01*
X130310407Y-83205517D02*
X129810407Y-82339491D01*
X129953264Y-82586927D02*
X129943694Y-82427495D01*
X129969839Y-82329922D01*
X130057842Y-82196634D01*
X130181560Y-82125206D01*
X131795022Y-82348374D02*
X131052714Y-82776945D01*
X131423868Y-82562660D02*
X130673868Y-81263621D01*
X130657293Y-81520627D01*
X130605003Y-81715773D01*
X130517000Y-81849061D01*
D12*
X131965953Y-116724938D02*
X132299287Y-116724938D01*
X132442144Y-117248747D02*
X131965953Y-117248747D01*
X131965953Y-116248747D01*
X132442144Y-116248747D01*
X132870715Y-117248747D02*
X132870715Y-116248747D01*
X133442144Y-117248747D01*
X133442144Y-116248747D01*
D10*
X77666666Y-124851428D02*
X77666666Y-125089523D01*
X77523809Y-124803809D02*
X78023809Y-124970476D01*
X77523809Y-125137142D01*
X77714285Y-125303809D02*
X77714285Y-125684761D01*
X77523809Y-125922857D02*
X78023809Y-125922857D01*
X77523809Y-126208571D02*
X77809523Y-125994285D01*
X78023809Y-126208571D02*
X77738095Y-125922857D01*
D11*
X96902857Y-132258571D02*
X96902857Y-131258571D01*
X96902857Y-131401428D02*
X96974285Y-131330000D01*
X97117142Y-131258571D01*
X97331428Y-131258571D01*
X97474285Y-131330000D01*
X97545714Y-131472857D01*
X97545714Y-132258571D01*
X97545714Y-131472857D02*
X97617142Y-131330000D01*
X97760000Y-131258571D01*
X97974285Y-131258571D01*
X98117142Y-131330000D01*
X98188571Y-131472857D01*
X98188571Y-132258571D01*
X99117142Y-132258571D02*
X98974285Y-132187142D01*
X98902857Y-132115714D01*
X98831428Y-131972857D01*
X98831428Y-131544285D01*
X98902857Y-131401428D01*
X98974285Y-131330000D01*
X99117142Y-131258571D01*
X99331428Y-131258571D01*
X99474285Y-131330000D01*
X99545714Y-131401428D01*
X99617142Y-131544285D01*
X99617142Y-131972857D01*
X99545714Y-132115714D01*
X99474285Y-132187142D01*
X99331428Y-132258571D01*
X99117142Y-132258571D01*
X100045714Y-131258571D02*
X100617142Y-131258571D01*
X100260000Y-130758571D02*
X100260000Y-132044285D01*
X100331428Y-132187142D01*
X100474285Y-132258571D01*
X100617142Y-132258571D01*
X101331428Y-132258571D02*
X101188571Y-132187142D01*
X101117142Y-132115714D01*
X101045714Y-131972857D01*
X101045714Y-131544285D01*
X101117142Y-131401428D01*
X101188571Y-131330000D01*
X101331428Y-131258571D01*
X101545714Y-131258571D01*
X101688571Y-131330000D01*
X101760000Y-131401428D01*
X101831428Y-131544285D01*
X101831428Y-131972857D01*
X101760000Y-132115714D01*
X101688571Y-132187142D01*
X101545714Y-132258571D01*
X101331428Y-132258571D01*
X102474285Y-132258571D02*
X102474285Y-131258571D01*
X102474285Y-131544285D02*
X102545714Y-131401428D01*
X102617142Y-131330000D01*
X102760000Y-131258571D01*
X102902857Y-131258571D01*
X103331428Y-130901428D02*
X103402857Y-130830000D01*
X103545714Y-130758571D01*
X103902857Y-130758571D01*
X104045714Y-130830000D01*
X104117142Y-130901428D01*
X104188571Y-131044285D01*
X104188571Y-131187142D01*
X104117142Y-131401428D01*
X103260000Y-132258571D01*
X104188571Y-132258571D01*
X69356836Y-82714088D02*
X69856836Y-81848063D01*
X69785408Y-81971781D02*
X69882981Y-81945636D01*
X70042413Y-81955206D01*
X70227990Y-82062348D01*
X70315994Y-82195636D01*
X70306424Y-82355068D01*
X69913567Y-83035517D01*
X70306424Y-82355068D02*
X70439712Y-82267065D01*
X70599144Y-82276634D01*
X70784721Y-82383777D01*
X70872724Y-82517065D01*
X70863155Y-82676497D01*
X70470298Y-83356945D01*
X71274464Y-83821231D02*
X71186460Y-83687943D01*
X71160316Y-83590370D01*
X71169885Y-83430938D01*
X71384171Y-83059784D01*
X71517459Y-82971781D01*
X71615032Y-82945636D01*
X71774464Y-82955206D01*
X71960041Y-83062348D01*
X72048045Y-83195636D01*
X72074189Y-83293209D01*
X72064620Y-83452641D01*
X71850334Y-83823795D01*
X71717046Y-83911799D01*
X71619473Y-83937943D01*
X71460041Y-83928374D01*
X71274464Y-83821231D01*
X72578631Y-83419491D02*
X73073502Y-83705206D01*
X73014207Y-83093621D02*
X72371350Y-84207083D01*
X72361781Y-84366515D01*
X72449784Y-84499802D01*
X72573502Y-84571231D01*
X73192092Y-84928374D02*
X73104088Y-84795086D01*
X73077943Y-84697513D01*
X73087513Y-84538081D01*
X73301799Y-84166927D01*
X73435086Y-84078924D01*
X73532660Y-84052779D01*
X73692092Y-84062348D01*
X73877669Y-84169491D01*
X73965672Y-84302779D01*
X73991817Y-84400352D01*
X73982247Y-84559784D01*
X73767962Y-84930938D01*
X73634674Y-85018942D01*
X73537101Y-85045086D01*
X73377669Y-85035517D01*
X73192092Y-84928374D01*
X74181835Y-85499802D02*
X74681835Y-84633777D01*
X74538978Y-84881213D02*
X74672266Y-84793209D01*
X74769839Y-84767065D01*
X74929271Y-84776634D01*
X75052989Y-84848063D01*
X75612284Y-84593621D02*
X76416450Y-85057907D01*
X75697723Y-85302779D01*
X75883300Y-85409922D01*
X75971304Y-85543209D01*
X75997448Y-85640782D01*
X75987879Y-85800215D01*
X75809307Y-86109509D01*
X75676020Y-86197513D01*
X75578446Y-86223658D01*
X75419014Y-86214088D01*
X75047861Y-85999802D01*
X74959857Y-85866515D01*
X74933712Y-85768942D01*
D12*
X131766870Y-123139717D02*
X131766870Y-122139717D01*
X132433536Y-122139717D02*
X132624012Y-122139717D01*
X132719250Y-122187337D01*
X132814489Y-122282575D01*
X132862108Y-122473051D01*
X132862108Y-122806384D01*
X132814489Y-122996860D01*
X132719250Y-123092098D01*
X132624012Y-123139717D01*
X132433536Y-123139717D01*
X132338298Y-123092098D01*
X132243060Y-122996860D01*
X132195441Y-122806384D01*
X132195441Y-122473051D01*
X132243060Y-122282575D01*
X132338298Y-122187337D01*
X132433536Y-122139717D01*
X133481155Y-122139717D02*
X133576393Y-122139717D01*
X133671631Y-122187337D01*
X133719250Y-122234956D01*
X133766870Y-122330194D01*
X133814489Y-122520670D01*
X133814489Y-122758765D01*
X133766870Y-122949241D01*
X133719250Y-123044479D01*
X133671631Y-123092098D01*
X133576393Y-123139717D01*
X133481155Y-123139717D01*
X133385917Y-123092098D01*
X133338298Y-123044479D01*
X133290679Y-122949241D01*
X133243060Y-122758765D01*
X133243060Y-122520670D01*
X133290679Y-122330194D01*
X133338298Y-122234956D01*
X133385917Y-122187337D01*
X133481155Y-122139717D01*
D10*
X111691428Y-73553333D02*
X111929523Y-73553333D01*
X111643809Y-73696190D02*
X111810476Y-73196190D01*
X111977142Y-73696190D01*
X112143809Y-73505714D02*
X112524761Y-73505714D01*
X112762857Y-73696190D02*
X112762857Y-73196190D01*
X113048571Y-73696190D02*
X112834285Y-73410476D01*
X113048571Y-73196190D02*
X112762857Y-73481904D01*
X124451428Y-105443333D02*
X124689523Y-105443333D01*
X124403809Y-105586190D02*
X124570476Y-105086190D01*
X124737142Y-105586190D01*
X124903809Y-105395714D02*
X125284761Y-105395714D01*
X125522857Y-105586190D02*
X125522857Y-105086190D01*
X125808571Y-105586190D02*
X125594285Y-105300476D01*
X125808571Y-105086190D02*
X125522857Y-105371904D01*
D12*
X59809802Y-106845106D02*
X59930101Y-106005851D01*
X59476468Y-106267756D02*
X60263434Y-106583201D01*
X61230619Y-104925082D02*
X61124331Y-104931462D01*
X61000613Y-105002890D01*
X60900705Y-105115558D01*
X60865845Y-105245656D01*
X60872225Y-105351944D01*
X60926224Y-105540711D01*
X60997652Y-105664429D01*
X61134130Y-105805576D01*
X61222988Y-105864245D01*
X61353086Y-105899105D01*
X61500613Y-105868916D01*
X61583092Y-105821297D01*
X61683000Y-105708629D01*
X61700430Y-105643580D01*
X61533763Y-105354905D01*
X61368806Y-105450143D01*
X62119203Y-105511773D02*
X61619203Y-104645747D01*
X62614074Y-105226059D01*
X62114074Y-104360033D01*
X63026467Y-104987963D02*
X62526467Y-104121938D01*
X62732664Y-104002890D01*
X62880191Y-103972701D01*
X63010289Y-104007561D01*
X63099147Y-104066230D01*
X63235625Y-104207377D01*
X63307053Y-104331095D01*
X63361052Y-104519862D01*
X63367432Y-104626150D01*
X63332572Y-104756248D01*
X63232664Y-104868916D01*
X63026467Y-104987963D01*
X91295146Y-110572709D02*
X92009432Y-110572709D01*
X92152289Y-110620328D01*
X92247527Y-110715566D01*
X92295146Y-110858423D01*
X92295146Y-110953661D01*
X91628480Y-109667947D02*
X92295146Y-109667947D01*
X91247527Y-109906042D02*
X91961813Y-110144137D01*
X91961813Y-109525090D01*
X120957530Y-123357971D02*
X120862292Y-123310352D01*
X120767054Y-123215113D01*
X120624197Y-123072256D01*
X120528959Y-123024637D01*
X120433721Y-123024637D01*
X120481340Y-123262732D02*
X120386102Y-123215113D01*
X120290864Y-123119875D01*
X120243245Y-122929399D01*
X120243245Y-122596066D01*
X120290864Y-122405590D01*
X120386102Y-122310352D01*
X120481340Y-122262732D01*
X120671816Y-122262732D01*
X120767054Y-122310352D01*
X120862292Y-122405590D01*
X120909911Y-122596066D01*
X120909911Y-122929399D01*
X120862292Y-123119875D01*
X120767054Y-123215113D01*
X120671816Y-123262732D01*
X120481340Y-123262732D01*
X121290864Y-122357971D02*
X121338483Y-122310352D01*
X121433721Y-122262732D01*
X121671816Y-122262732D01*
X121767054Y-122310352D01*
X121814673Y-122357971D01*
X121862292Y-122453209D01*
X121862292Y-122548447D01*
X121814673Y-122691304D01*
X121243245Y-123262732D01*
X121862292Y-123262732D01*
X79386100Y-116781759D02*
X79052767Y-116305569D01*
X78814671Y-116781759D02*
X78814671Y-115781759D01*
X79195624Y-115781759D01*
X79290862Y-115829379D01*
X79338481Y-115876998D01*
X79386100Y-115972236D01*
X79386100Y-116115093D01*
X79338481Y-116210331D01*
X79290862Y-116257950D01*
X79195624Y-116305569D01*
X78814671Y-116305569D01*
X79719433Y-115781759D02*
X80386100Y-115781759D01*
X79957528Y-116781759D01*
X83849908Y-98556520D02*
X83802289Y-98604139D01*
X83659432Y-98651758D01*
X83564194Y-98651758D01*
X83421337Y-98604139D01*
X83326099Y-98508901D01*
X83278480Y-98413663D01*
X83230861Y-98223187D01*
X83230861Y-98080330D01*
X83278480Y-97889854D01*
X83326099Y-97794616D01*
X83421337Y-97699378D01*
X83564194Y-97651758D01*
X83659432Y-97651758D01*
X83802289Y-97699378D01*
X83849908Y-97746997D01*
X84802289Y-98651758D02*
X84230861Y-98651758D01*
X84516575Y-98651758D02*
X84516575Y-97651758D01*
X84421337Y-97794616D01*
X84326099Y-97889854D01*
X84230861Y-97937473D01*
X85135623Y-97651758D02*
X85802289Y-97651758D01*
X85373718Y-98651758D01*
X126839672Y-105514927D02*
X126839672Y-104514927D01*
X127077768Y-104514927D01*
X127220625Y-104562547D01*
X127315863Y-104657785D01*
X127363482Y-104753023D01*
X127411101Y-104943499D01*
X127411101Y-105086356D01*
X127363482Y-105276832D01*
X127315863Y-105372070D01*
X127220625Y-105467308D01*
X127077768Y-105514927D01*
X126839672Y-105514927D01*
X128363482Y-105514927D02*
X127792053Y-105514927D01*
X128077768Y-105514927D02*
X128077768Y-104514927D01*
X127982529Y-104657785D01*
X127887291Y-104753023D01*
X127792053Y-104800642D01*
X94479909Y-98396759D02*
X94146576Y-97920569D01*
X93908481Y-98396759D02*
X93908481Y-97396759D01*
X94289433Y-97396759D01*
X94384671Y-97444379D01*
X94432290Y-97491998D01*
X94479909Y-97587236D01*
X94479909Y-97730093D01*
X94432290Y-97825331D01*
X94384671Y-97872950D01*
X94289433Y-97920569D01*
X93908481Y-97920569D01*
X95432290Y-98396759D02*
X94860862Y-98396759D01*
X95146576Y-98396759D02*
X95146576Y-97396759D01*
X95051338Y-97539617D01*
X94956100Y-97634855D01*
X94860862Y-97682474D01*
X96289433Y-97396759D02*
X96098957Y-97396759D01*
X96003719Y-97444379D01*
X95956100Y-97491998D01*
X95860862Y-97634855D01*
X95813243Y-97825331D01*
X95813243Y-98206283D01*
X95860862Y-98301521D01*
X95908481Y-98349140D01*
X96003719Y-98396759D01*
X96194195Y-98396759D01*
X96289433Y-98349140D01*
X96337052Y-98301521D01*
X96384671Y-98206283D01*
X96384671Y-97968188D01*
X96337052Y-97872950D01*
X96289433Y-97825331D01*
X96194195Y-97777712D01*
X96003719Y-97777712D01*
X95908481Y-97825331D01*
X95860862Y-97872950D01*
X95813243Y-97968188D01*
X103079909Y-103636521D02*
X103032290Y-103684140D01*
X102889433Y-103731759D01*
X102794195Y-103731759D01*
X102651338Y-103684140D01*
X102556100Y-103588902D01*
X102508481Y-103493664D01*
X102460862Y-103303188D01*
X102460862Y-103160331D01*
X102508481Y-102969855D01*
X102556100Y-102874617D01*
X102651338Y-102779379D01*
X102794195Y-102731759D01*
X102889433Y-102731759D01*
X103032290Y-102779379D01*
X103079909Y-102826998D01*
X104032290Y-103731759D02*
X103460862Y-103731759D01*
X103746576Y-103731759D02*
X103746576Y-102731759D01*
X103651338Y-102874617D01*
X103556100Y-102969855D01*
X103460862Y-103017474D01*
X104984671Y-103731759D02*
X104413243Y-103731759D01*
X104698957Y-103731759D02*
X104698957Y-102731759D01*
X104603719Y-102874617D01*
X104508481Y-102969855D01*
X104413243Y-103017474D01*
X124886098Y-122750603D02*
X124552765Y-122274413D01*
X124314669Y-122750603D02*
X124314669Y-121750603D01*
X124695622Y-121750603D01*
X124790860Y-121798223D01*
X124838479Y-121845842D01*
X124886098Y-121941080D01*
X124886098Y-122083937D01*
X124838479Y-122179175D01*
X124790860Y-122226794D01*
X124695622Y-122274413D01*
X124314669Y-122274413D01*
X125267050Y-121845842D02*
X125314669Y-121798223D01*
X125409907Y-121750603D01*
X125648003Y-121750603D01*
X125743241Y-121798223D01*
X125790860Y-121845842D01*
X125838479Y-121941080D01*
X125838479Y-122036318D01*
X125790860Y-122179175D01*
X125219431Y-122750603D01*
X125838479Y-122750603D01*
X112276100Y-78361757D02*
X111942767Y-77885567D01*
X111704671Y-78361757D02*
X111704671Y-77361757D01*
X112085624Y-77361757D01*
X112180862Y-77409377D01*
X112228481Y-77456996D01*
X112276100Y-77552234D01*
X112276100Y-77695091D01*
X112228481Y-77790329D01*
X112180862Y-77837948D01*
X112085624Y-77885567D01*
X111704671Y-77885567D01*
X113133243Y-77361757D02*
X112942767Y-77361757D01*
X112847528Y-77409377D01*
X112799909Y-77456996D01*
X112704671Y-77599853D01*
X112657052Y-77790329D01*
X112657052Y-78171281D01*
X112704671Y-78266519D01*
X112752290Y-78314138D01*
X112847528Y-78361757D01*
X113038005Y-78361757D01*
X113133243Y-78314138D01*
X113180862Y-78266519D01*
X113228481Y-78171281D01*
X113228481Y-77933186D01*
X113180862Y-77837948D01*
X113133243Y-77790329D01*
X113038005Y-77742710D01*
X112847528Y-77742710D01*
X112752290Y-77790329D01*
X112704671Y-77837948D01*
X112657052Y-77933186D01*
X93234908Y-113956520D02*
X93187289Y-114004139D01*
X93044432Y-114051758D01*
X92949194Y-114051758D01*
X92806337Y-114004139D01*
X92711099Y-113908901D01*
X92663480Y-113813663D01*
X92615861Y-113623187D01*
X92615861Y-113480330D01*
X92663480Y-113289854D01*
X92711099Y-113194616D01*
X92806337Y-113099378D01*
X92949194Y-113051758D01*
X93044432Y-113051758D01*
X93187289Y-113099378D01*
X93234908Y-113146997D01*
X94187289Y-114051758D02*
X93615861Y-114051758D01*
X93901575Y-114051758D02*
X93901575Y-113051758D01*
X93806337Y-113194616D01*
X93711099Y-113289854D01*
X93615861Y-113337473D01*
X95044432Y-113385092D02*
X95044432Y-114051758D01*
X94806337Y-113004139D02*
X94568242Y-113718425D01*
X95187289Y-113718425D01*
X116000861Y-90731759D02*
X116000861Y-91541283D01*
X116048480Y-91636521D01*
X116096099Y-91684140D01*
X116191337Y-91731759D01*
X116381813Y-91731759D01*
X116477051Y-91684140D01*
X116524670Y-91636521D01*
X116572289Y-91541283D01*
X116572289Y-90731759D01*
X117524670Y-90731759D02*
X117048480Y-90731759D01*
X117000861Y-91207950D01*
X117048480Y-91160331D01*
X117143718Y-91112712D01*
X117381813Y-91112712D01*
X117477051Y-91160331D01*
X117524670Y-91207950D01*
X117572289Y-91303188D01*
X117572289Y-91541283D01*
X117524670Y-91636521D01*
X117477051Y-91684140D01*
X117381813Y-91731759D01*
X117143718Y-91731759D01*
X117048480Y-91684140D01*
X117000861Y-91636521D01*
X75790858Y-111881758D02*
X75790858Y-112691282D01*
X75838477Y-112786520D01*
X75886096Y-112834139D01*
X75981334Y-112881758D01*
X76171810Y-112881758D01*
X76267048Y-112834139D01*
X76314667Y-112786520D01*
X76362286Y-112691282D01*
X76362286Y-111881758D01*
X76743239Y-111881758D02*
X77362286Y-111881758D01*
X77028953Y-112262711D01*
X77171810Y-112262711D01*
X77267048Y-112310330D01*
X77314667Y-112357949D01*
X77362286Y-112453187D01*
X77362286Y-112691282D01*
X77314667Y-112786520D01*
X77267048Y-112834139D01*
X77171810Y-112881758D01*
X76886096Y-112881758D01*
X76790858Y-112834139D01*
X76743239Y-112786520D01*
X78844670Y-128221759D02*
X78844670Y-127221759D01*
X79082766Y-127221759D01*
X79225623Y-127269379D01*
X79320861Y-127364617D01*
X79368480Y-127459855D01*
X79416099Y-127650331D01*
X79416099Y-127793188D01*
X79368480Y-127983664D01*
X79320861Y-128078902D01*
X79225623Y-128174140D01*
X79082766Y-128221759D01*
X78844670Y-128221759D01*
X80273242Y-127555093D02*
X80273242Y-128221759D01*
X80035146Y-127174140D02*
X79797051Y-127888426D01*
X80416099Y-127888426D01*
X78109909Y-102181760D02*
X77776576Y-101705570D01*
X77538481Y-102181760D02*
X77538481Y-101181760D01*
X77919433Y-101181760D01*
X78014671Y-101229380D01*
X78062290Y-101276999D01*
X78109909Y-101372237D01*
X78109909Y-101515094D01*
X78062290Y-101610332D01*
X78014671Y-101657951D01*
X77919433Y-101705570D01*
X77538481Y-101705570D01*
X79062290Y-102181760D02*
X78490862Y-102181760D01*
X78776576Y-102181760D02*
X78776576Y-101181760D01*
X78681338Y-101324618D01*
X78586100Y-101419856D01*
X78490862Y-101467475D01*
X80014671Y-102181760D02*
X79443243Y-102181760D01*
X79728957Y-102181760D02*
X79728957Y-101181760D01*
X79633719Y-101324618D01*
X79538481Y-101419856D01*
X79443243Y-101467475D01*
X102736101Y-93221517D02*
X102688482Y-93269136D01*
X102545625Y-93316755D01*
X102450387Y-93316755D01*
X102307529Y-93269136D01*
X102212291Y-93173898D01*
X102164672Y-93078660D01*
X102117053Y-92888184D01*
X102117053Y-92745327D01*
X102164672Y-92554851D01*
X102212291Y-92459613D01*
X102307529Y-92364375D01*
X102450387Y-92316755D01*
X102545625Y-92316755D01*
X102688482Y-92364375D01*
X102736101Y-92411994D01*
X103212291Y-93316755D02*
X103402768Y-93316755D01*
X103498006Y-93269136D01*
X103545625Y-93221517D01*
X103640863Y-93078660D01*
X103688482Y-92888184D01*
X103688482Y-92507232D01*
X103640863Y-92411994D01*
X103593244Y-92364375D01*
X103498006Y-92316755D01*
X103307529Y-92316755D01*
X103212291Y-92364375D01*
X103164672Y-92411994D01*
X103117053Y-92507232D01*
X103117053Y-92745327D01*
X103164672Y-92840565D01*
X103212291Y-92888184D01*
X103307529Y-92935803D01*
X103498006Y-92935803D01*
X103593244Y-92888184D01*
X103640863Y-92840565D01*
X103688482Y-92745327D01*
X124886100Y-119567095D02*
X124838481Y-119614714D01*
X124695624Y-119662333D01*
X124600386Y-119662333D01*
X124457528Y-119614714D01*
X124362290Y-119519476D01*
X124314671Y-119424238D01*
X124267052Y-119233762D01*
X124267052Y-119090905D01*
X124314671Y-118900429D01*
X124362290Y-118805191D01*
X124457528Y-118709953D01*
X124600386Y-118662333D01*
X124695624Y-118662333D01*
X124838481Y-118709953D01*
X124886100Y-118757572D01*
X125743243Y-118995667D02*
X125743243Y-119662333D01*
X125505147Y-118614714D02*
X125267052Y-119329000D01*
X125886100Y-119329000D01*
X90622408Y-87247690D02*
X90574789Y-87295309D01*
X90431932Y-87342928D01*
X90336694Y-87342928D01*
X90193837Y-87295309D01*
X90098599Y-87200071D01*
X90050980Y-87104833D01*
X90003361Y-86914357D01*
X90003361Y-86771500D01*
X90050980Y-86581024D01*
X90098599Y-86485786D01*
X90193837Y-86390548D01*
X90336694Y-86342928D01*
X90431932Y-86342928D01*
X90574789Y-86390548D01*
X90622408Y-86438167D01*
X91574789Y-87342928D02*
X91003361Y-87342928D01*
X91289075Y-87342928D02*
X91289075Y-86342928D01*
X91193837Y-86485786D01*
X91098599Y-86581024D01*
X91003361Y-86628643D01*
X92431932Y-86342928D02*
X92241456Y-86342928D01*
X92146218Y-86390548D01*
X92098599Y-86438167D01*
X92003361Y-86581024D01*
X91955742Y-86771500D01*
X91955742Y-87152452D01*
X92003361Y-87247690D01*
X92050980Y-87295309D01*
X92146218Y-87342928D01*
X92336694Y-87342928D01*
X92431932Y-87295309D01*
X92479551Y-87247690D01*
X92527170Y-87152452D01*
X92527170Y-86914357D01*
X92479551Y-86819119D01*
X92431932Y-86771500D01*
X92336694Y-86723881D01*
X92146218Y-86723881D01*
X92050980Y-86771500D01*
X92003361Y-86819119D01*
X91955742Y-86914357D01*
X79149437Y-63974140D02*
X79292294Y-64021759D01*
X79530390Y-64021759D01*
X79625628Y-63974140D01*
X79673247Y-63926521D01*
X79720866Y-63831283D01*
X79720866Y-63736045D01*
X79673247Y-63640807D01*
X79625628Y-63593188D01*
X79530390Y-63545569D01*
X79339913Y-63497950D01*
X79244675Y-63450331D01*
X79197056Y-63402712D01*
X79149437Y-63307474D01*
X79149437Y-63212236D01*
X79197056Y-63116998D01*
X79244675Y-63069379D01*
X79339913Y-63021759D01*
X79578009Y-63021759D01*
X79720866Y-63069379D01*
X80054199Y-63021759D02*
X80292294Y-64021759D01*
X80482771Y-63307474D01*
X80673247Y-64021759D01*
X80911342Y-63021759D01*
X81197056Y-63021759D02*
X81816104Y-63021759D01*
X81482771Y-63402712D01*
X81625628Y-63402712D01*
X81720866Y-63450331D01*
X81768485Y-63497950D01*
X81816104Y-63593188D01*
X81816104Y-63831283D01*
X81768485Y-63926521D01*
X81720866Y-63974140D01*
X81625628Y-64021759D01*
X81339913Y-64021759D01*
X81244675Y-63974140D01*
X81197056Y-63926521D01*
X128519437Y-117174142D02*
X128662294Y-117221761D01*
X128900390Y-117221761D01*
X128995628Y-117174142D01*
X129043247Y-117126523D01*
X129090866Y-117031285D01*
X129090866Y-116936047D01*
X129043247Y-116840809D01*
X128995628Y-116793190D01*
X128900390Y-116745571D01*
X128709913Y-116697952D01*
X128614675Y-116650333D01*
X128567056Y-116602714D01*
X128519437Y-116507476D01*
X128519437Y-116412238D01*
X128567056Y-116317000D01*
X128614675Y-116269381D01*
X128709913Y-116221761D01*
X128948009Y-116221761D01*
X129090866Y-116269381D01*
X129424199Y-116221761D02*
X129662294Y-117221761D01*
X129852771Y-116507476D01*
X130043247Y-117221761D01*
X130281342Y-116221761D01*
X131186104Y-117221761D02*
X130614675Y-117221761D01*
X130900390Y-117221761D02*
X130900390Y-116221761D01*
X130805151Y-116364619D01*
X130709913Y-116459857D01*
X130614675Y-116507476D01*
X99909909Y-103706759D02*
X99576576Y-103230569D01*
X99338481Y-103706759D02*
X99338481Y-102706759D01*
X99719433Y-102706759D01*
X99814671Y-102754379D01*
X99862290Y-102801998D01*
X99909909Y-102897236D01*
X99909909Y-103040093D01*
X99862290Y-103135331D01*
X99814671Y-103182950D01*
X99719433Y-103230569D01*
X99338481Y-103230569D01*
X100862290Y-103706759D02*
X100290862Y-103706759D01*
X100576576Y-103706759D02*
X100576576Y-102706759D01*
X100481338Y-102849617D01*
X100386100Y-102944855D01*
X100290862Y-102992474D01*
X101338481Y-103706759D02*
X101528957Y-103706759D01*
X101624195Y-103659140D01*
X101671814Y-103611521D01*
X101767052Y-103468664D01*
X101814671Y-103278188D01*
X101814671Y-102897236D01*
X101767052Y-102801998D01*
X101719433Y-102754379D01*
X101624195Y-102706759D01*
X101433719Y-102706759D01*
X101338481Y-102754379D01*
X101290862Y-102801998D01*
X101243243Y-102897236D01*
X101243243Y-103135331D01*
X101290862Y-103230569D01*
X101338481Y-103278188D01*
X101433719Y-103325807D01*
X101624195Y-103325807D01*
X101719433Y-103278188D01*
X101767052Y-103230569D01*
X101814671Y-103135331D01*
X82189908Y-105251758D02*
X81856575Y-104775568D01*
X81618480Y-105251758D02*
X81618480Y-104251758D01*
X81999432Y-104251758D01*
X82094670Y-104299378D01*
X82142289Y-104346997D01*
X82189908Y-104442235D01*
X82189908Y-104585092D01*
X82142289Y-104680330D01*
X82094670Y-104727949D01*
X81999432Y-104775568D01*
X81618480Y-104775568D01*
X83142289Y-105251758D02*
X82570861Y-105251758D01*
X82856575Y-105251758D02*
X82856575Y-104251758D01*
X82761337Y-104394616D01*
X82666099Y-104489854D01*
X82570861Y-104537473D01*
X83475623Y-104251758D02*
X84094670Y-104251758D01*
X83761337Y-104632711D01*
X83904194Y-104632711D01*
X83999432Y-104680330D01*
X84047051Y-104727949D01*
X84094670Y-104823187D01*
X84094670Y-105061282D01*
X84047051Y-105156520D01*
X83999432Y-105204139D01*
X83904194Y-105251758D01*
X83618480Y-105251758D01*
X83523242Y-105204139D01*
X83475623Y-105156520D01*
X116609908Y-98336519D02*
X116562289Y-98384138D01*
X116419432Y-98431757D01*
X116324194Y-98431757D01*
X116181337Y-98384138D01*
X116086099Y-98288900D01*
X116038480Y-98193662D01*
X115990861Y-98003186D01*
X115990861Y-97860329D01*
X116038480Y-97669853D01*
X116086099Y-97574615D01*
X116181337Y-97479377D01*
X116324194Y-97431757D01*
X116419432Y-97431757D01*
X116562289Y-97479377D01*
X116609908Y-97526996D01*
X117562289Y-98431757D02*
X116990861Y-98431757D01*
X117276575Y-98431757D02*
X117276575Y-97431757D01*
X117181337Y-97574615D01*
X117086099Y-97669853D01*
X116990861Y-97717472D01*
X117943242Y-97526996D02*
X117990861Y-97479377D01*
X118086099Y-97431757D01*
X118324194Y-97431757D01*
X118419432Y-97479377D01*
X118467051Y-97526996D01*
X118514670Y-97622234D01*
X118514670Y-97717472D01*
X118467051Y-97860329D01*
X117895623Y-98431757D01*
X118514670Y-98431757D01*
X106969910Y-98271760D02*
X106636577Y-97795570D01*
X106398482Y-98271760D02*
X106398482Y-97271760D01*
X106779434Y-97271760D01*
X106874672Y-97319380D01*
X106922291Y-97366999D01*
X106969910Y-97462237D01*
X106969910Y-97605094D01*
X106922291Y-97700332D01*
X106874672Y-97747951D01*
X106779434Y-97795570D01*
X106398482Y-97795570D01*
X107922291Y-98271760D02*
X107350863Y-98271760D01*
X107636577Y-98271760D02*
X107636577Y-97271760D01*
X107541339Y-97414618D01*
X107446101Y-97509856D01*
X107350863Y-97557475D01*
X108827053Y-97271760D02*
X108350863Y-97271760D01*
X108303244Y-97747951D01*
X108350863Y-97700332D01*
X108446101Y-97652713D01*
X108684196Y-97652713D01*
X108779434Y-97700332D01*
X108827053Y-97747951D01*
X108874672Y-97843189D01*
X108874672Y-98081284D01*
X108827053Y-98176522D01*
X108779434Y-98224141D01*
X108684196Y-98271760D01*
X108446101Y-98271760D01*
X108350863Y-98224141D01*
X108303244Y-98176522D01*
X88346101Y-71451757D02*
X88012768Y-70975567D01*
X87774672Y-71451757D02*
X87774672Y-70451757D01*
X88155625Y-70451757D01*
X88250863Y-70499377D01*
X88298482Y-70546996D01*
X88346101Y-70642234D01*
X88346101Y-70785091D01*
X88298482Y-70880329D01*
X88250863Y-70927948D01*
X88155625Y-70975567D01*
X87774672Y-70975567D01*
X89250863Y-70451757D02*
X88774672Y-70451757D01*
X88727053Y-70927948D01*
X88774672Y-70880329D01*
X88869910Y-70832710D01*
X89108006Y-70832710D01*
X89203244Y-70880329D01*
X89250863Y-70927948D01*
X89298482Y-71023186D01*
X89298482Y-71261281D01*
X89250863Y-71356519D01*
X89203244Y-71404138D01*
X89108006Y-71451757D01*
X88869910Y-71451757D01*
X88774672Y-71404138D01*
X88727053Y-71356519D01*
X110039906Y-87116519D02*
X109992287Y-87164138D01*
X109849430Y-87211757D01*
X109754192Y-87211757D01*
X109611335Y-87164138D01*
X109516097Y-87068900D01*
X109468478Y-86973662D01*
X109420859Y-86783186D01*
X109420859Y-86640329D01*
X109468478Y-86449853D01*
X109516097Y-86354615D01*
X109611335Y-86259377D01*
X109754192Y-86211757D01*
X109849430Y-86211757D01*
X109992287Y-86259377D01*
X110039906Y-86306996D01*
X110992287Y-87211757D02*
X110420859Y-87211757D01*
X110706573Y-87211757D02*
X110706573Y-86211757D01*
X110611335Y-86354615D01*
X110516097Y-86449853D01*
X110420859Y-86497472D01*
X111325621Y-86211757D02*
X111944668Y-86211757D01*
X111611335Y-86592710D01*
X111754192Y-86592710D01*
X111849430Y-86640329D01*
X111897049Y-86687948D01*
X111944668Y-86783186D01*
X111944668Y-87021281D01*
X111897049Y-87116519D01*
X111849430Y-87164138D01*
X111754192Y-87211757D01*
X111468478Y-87211757D01*
X111373240Y-87164138D01*
X111325621Y-87116519D01*
X72879908Y-124241758D02*
X72546575Y-123765568D01*
X72308480Y-124241758D02*
X72308480Y-123241758D01*
X72689432Y-123241758D01*
X72784670Y-123289378D01*
X72832289Y-123336997D01*
X72879908Y-123432235D01*
X72879908Y-123575092D01*
X72832289Y-123670330D01*
X72784670Y-123717949D01*
X72689432Y-123765568D01*
X72308480Y-123765568D01*
X73832289Y-124241758D02*
X73260861Y-124241758D01*
X73546575Y-124241758D02*
X73546575Y-123241758D01*
X73451337Y-123384616D01*
X73356099Y-123479854D01*
X73260861Y-123527473D01*
X74451337Y-123241758D02*
X74546575Y-123241758D01*
X74641813Y-123289378D01*
X74689432Y-123336997D01*
X74737051Y-123432235D01*
X74784670Y-123622711D01*
X74784670Y-123860806D01*
X74737051Y-124051282D01*
X74689432Y-124146520D01*
X74641813Y-124194139D01*
X74546575Y-124241758D01*
X74451337Y-124241758D01*
X74356099Y-124194139D01*
X74308480Y-124146520D01*
X74260861Y-124051282D01*
X74213242Y-123860806D01*
X74213242Y-123622711D01*
X74260861Y-123432235D01*
X74308480Y-123336997D01*
X74356099Y-123289378D01*
X74451337Y-123241758D01*
X78894672Y-120011759D02*
X78894672Y-119011759D01*
X79132768Y-119011759D01*
X79275625Y-119059379D01*
X79370863Y-119154617D01*
X79418482Y-119249855D01*
X79466101Y-119440331D01*
X79466101Y-119583188D01*
X79418482Y-119773664D01*
X79370863Y-119868902D01*
X79275625Y-119964140D01*
X79132768Y-120011759D01*
X78894672Y-120011759D01*
X79799434Y-119011759D02*
X80418482Y-119011759D01*
X80085148Y-119392712D01*
X80228006Y-119392712D01*
X80323244Y-119440331D01*
X80370863Y-119487950D01*
X80418482Y-119583188D01*
X80418482Y-119821283D01*
X80370863Y-119916521D01*
X80323244Y-119964140D01*
X80228006Y-120011759D01*
X79942291Y-120011759D01*
X79847053Y-119964140D01*
X79799434Y-119916521D01*
X121057530Y-117257972D02*
X120962292Y-117210353D01*
X120867054Y-117115114D01*
X120724197Y-116972257D01*
X120628959Y-116924638D01*
X120533721Y-116924638D01*
X120581340Y-117162733D02*
X120486102Y-117115114D01*
X120390864Y-117019876D01*
X120343245Y-116829400D01*
X120343245Y-116496067D01*
X120390864Y-116305591D01*
X120486102Y-116210353D01*
X120581340Y-116162733D01*
X120771816Y-116162733D01*
X120867054Y-116210353D01*
X120962292Y-116305591D01*
X121009911Y-116496067D01*
X121009911Y-116829400D01*
X120962292Y-117019876D01*
X120867054Y-117115114D01*
X120771816Y-117162733D01*
X120581340Y-117162733D01*
X121962292Y-117162733D02*
X121390864Y-117162733D01*
X121676578Y-117162733D02*
X121676578Y-116162733D01*
X121581340Y-116305591D01*
X121486102Y-116400829D01*
X121390864Y-116448448D01*
X100000861Y-115191758D02*
X100000861Y-116001282D01*
X100048480Y-116096520D01*
X100096099Y-116144139D01*
X100191337Y-116191758D01*
X100381813Y-116191758D01*
X100477051Y-116144139D01*
X100524670Y-116096520D01*
X100572289Y-116001282D01*
X100572289Y-115191758D01*
X101477051Y-115191758D02*
X101286575Y-115191758D01*
X101191337Y-115239378D01*
X101143718Y-115286997D01*
X101048480Y-115429854D01*
X101000861Y-115620330D01*
X101000861Y-116001282D01*
X101048480Y-116096520D01*
X101096099Y-116144139D01*
X101191337Y-116191758D01*
X101381813Y-116191758D01*
X101477051Y-116144139D01*
X101524670Y-116096520D01*
X101572289Y-116001282D01*
X101572289Y-115763187D01*
X101524670Y-115667949D01*
X101477051Y-115620330D01*
X101381813Y-115572711D01*
X101191337Y-115572711D01*
X101096099Y-115620330D01*
X101048480Y-115667949D01*
X101000861Y-115763187D01*
X127311099Y-102527898D02*
X127263480Y-102575517D01*
X127120623Y-102623136D01*
X127025385Y-102623136D01*
X126882527Y-102575517D01*
X126787289Y-102480279D01*
X126739670Y-102385041D01*
X126692051Y-102194565D01*
X126692051Y-102051708D01*
X126739670Y-101861232D01*
X126787289Y-101765994D01*
X126882527Y-101670756D01*
X127025385Y-101623136D01*
X127120623Y-101623136D01*
X127263480Y-101670756D01*
X127311099Y-101718375D01*
X128168242Y-101623136D02*
X127977766Y-101623136D01*
X127882527Y-101670756D01*
X127834908Y-101718375D01*
X127739670Y-101861232D01*
X127692051Y-102051708D01*
X127692051Y-102432660D01*
X127739670Y-102527898D01*
X127787289Y-102575517D01*
X127882527Y-102623136D01*
X128073004Y-102623136D01*
X128168242Y-102575517D01*
X128215861Y-102527898D01*
X128263480Y-102432660D01*
X128263480Y-102194565D01*
X128215861Y-102099327D01*
X128168242Y-102051708D01*
X128073004Y-102004089D01*
X127882527Y-102004089D01*
X127787289Y-102051708D01*
X127739670Y-102099327D01*
X127692051Y-102194565D01*
X130361934Y-111604077D02*
X130028601Y-111127887D01*
X129790505Y-111604077D02*
X129790505Y-110604077D01*
X130171458Y-110604077D01*
X130266696Y-110651697D01*
X130314315Y-110699316D01*
X130361934Y-110794554D01*
X130361934Y-110937411D01*
X130314315Y-111032649D01*
X130266696Y-111080268D01*
X130171458Y-111127887D01*
X129790505Y-111127887D01*
X131219077Y-110937411D02*
X131219077Y-111604077D01*
X130980981Y-110556458D02*
X130742886Y-111270744D01*
X131361934Y-111270744D01*
X135046098Y-112506521D02*
X134998479Y-112554140D01*
X134855622Y-112601759D01*
X134760384Y-112601759D01*
X134617526Y-112554140D01*
X134522288Y-112458902D01*
X134474669Y-112363664D01*
X134427050Y-112173188D01*
X134427050Y-112030331D01*
X134474669Y-111839855D01*
X134522288Y-111744617D01*
X134617526Y-111649379D01*
X134760384Y-111601759D01*
X134855622Y-111601759D01*
X134998479Y-111649379D01*
X135046098Y-111696998D01*
X135998479Y-112601759D02*
X135427050Y-112601759D01*
X135712765Y-112601759D02*
X135712765Y-111601759D01*
X135617526Y-111744617D01*
X135522288Y-111839855D01*
X135427050Y-111887474D01*
X135580861Y-102381758D02*
X135580861Y-103191282D01*
X135628480Y-103286520D01*
X135676099Y-103334139D01*
X135771337Y-103381758D01*
X135961813Y-103381758D01*
X136057051Y-103334139D01*
X136104670Y-103286520D01*
X136152289Y-103191282D01*
X136152289Y-102381758D01*
X137152289Y-103381758D02*
X136580861Y-103381758D01*
X136866575Y-103381758D02*
X136866575Y-102381758D01*
X136771337Y-102524616D01*
X136676099Y-102619854D01*
X136580861Y-102667473D01*
X84290863Y-91851762D02*
X84290863Y-92661286D01*
X84338482Y-92756524D01*
X84386101Y-92804143D01*
X84481339Y-92851762D01*
X84671815Y-92851762D01*
X84767053Y-92804143D01*
X84814672Y-92756524D01*
X84862291Y-92661286D01*
X84862291Y-91851762D01*
X85243244Y-91851762D02*
X85909910Y-91851762D01*
X85481339Y-92851762D01*
X111661963Y-75307036D02*
X111661963Y-74307036D01*
X111900059Y-74307036D01*
X112042916Y-74354656D01*
X112138154Y-74449894D01*
X112185773Y-74545132D01*
X112233392Y-74735608D01*
X112233392Y-74878465D01*
X112185773Y-75068941D01*
X112138154Y-75164179D01*
X112042916Y-75259417D01*
X111900059Y-75307036D01*
X111661963Y-75307036D01*
X112614344Y-74402275D02*
X112661963Y-74354656D01*
X112757201Y-74307036D01*
X112995297Y-74307036D01*
X113090535Y-74354656D01*
X113138154Y-74402275D01*
X113185773Y-74497513D01*
X113185773Y-74592751D01*
X113138154Y-74735608D01*
X112566725Y-75307036D01*
X113185773Y-75307036D01*
X107019911Y-113866520D02*
X106972292Y-113914139D01*
X106829435Y-113961758D01*
X106734197Y-113961758D01*
X106591340Y-113914139D01*
X106496102Y-113818901D01*
X106448483Y-113723663D01*
X106400864Y-113533187D01*
X106400864Y-113390330D01*
X106448483Y-113199854D01*
X106496102Y-113104616D01*
X106591340Y-113009378D01*
X106734197Y-112961758D01*
X106829435Y-112961758D01*
X106972292Y-113009378D01*
X107019911Y-113056997D01*
X107972292Y-113961758D02*
X107400864Y-113961758D01*
X107686578Y-113961758D02*
X107686578Y-112961758D01*
X107591340Y-113104616D01*
X107496102Y-113199854D01*
X107400864Y-113247473D01*
X108877054Y-112961758D02*
X108400864Y-112961758D01*
X108353245Y-113437949D01*
X108400864Y-113390330D01*
X108496102Y-113342711D01*
X108734197Y-113342711D01*
X108829435Y-113390330D01*
X108877054Y-113437949D01*
X108924673Y-113533187D01*
X108924673Y-113771282D01*
X108877054Y-113866520D01*
X108829435Y-113914139D01*
X108734197Y-113961758D01*
X108496102Y-113961758D01*
X108400864Y-113914139D01*
X108353245Y-113866520D01*
X68896666Y-105874761D02*
X69039523Y-105922380D01*
X69277619Y-105922380D01*
X69372857Y-105874761D01*
X69420476Y-105827142D01*
X69468095Y-105731904D01*
X69468095Y-105636666D01*
X69420476Y-105541428D01*
X69372857Y-105493809D01*
X69277619Y-105446190D01*
X69087142Y-105398571D01*
X68991904Y-105350952D01*
X68944285Y-105303333D01*
X68896666Y-105208095D01*
X68896666Y-105112857D01*
X68944285Y-105017619D01*
X68991904Y-104970000D01*
X69087142Y-104922380D01*
X69325238Y-104922380D01*
X69468095Y-104970000D01*
X69801428Y-104922380D02*
X70039523Y-105922380D01*
X70230000Y-105208095D01*
X70420476Y-105922380D01*
X70658571Y-104922380D01*
X71468095Y-105255714D02*
X71468095Y-105922380D01*
X71230000Y-104874761D02*
X70991904Y-105589047D01*
X71610952Y-105589047D01*
X83111103Y-113456516D02*
X83063484Y-113504135D01*
X82920627Y-113551754D01*
X82825389Y-113551754D01*
X82682531Y-113504135D01*
X82587293Y-113408897D01*
X82539674Y-113313659D01*
X82492055Y-113123183D01*
X82492055Y-112980326D01*
X82539674Y-112789850D01*
X82587293Y-112694612D01*
X82682531Y-112599374D01*
X82825389Y-112551754D01*
X82920627Y-112551754D01*
X83063484Y-112599374D01*
X83111103Y-112646993D01*
X83682531Y-112980326D02*
X83587293Y-112932707D01*
X83539674Y-112885088D01*
X83492055Y-112789850D01*
X83492055Y-112742231D01*
X83539674Y-112646993D01*
X83587293Y-112599374D01*
X83682531Y-112551754D01*
X83873008Y-112551754D01*
X83968246Y-112599374D01*
X84015865Y-112646993D01*
X84063484Y-112742231D01*
X84063484Y-112789850D01*
X84015865Y-112885088D01*
X83968246Y-112932707D01*
X83873008Y-112980326D01*
X83682531Y-112980326D01*
X83587293Y-113027945D01*
X83539674Y-113075564D01*
X83492055Y-113170802D01*
X83492055Y-113361278D01*
X83539674Y-113456516D01*
X83587293Y-113504135D01*
X83682531Y-113551754D01*
X83873008Y-113551754D01*
X83968246Y-113504135D01*
X84015865Y-113456516D01*
X84063484Y-113361278D01*
X84063484Y-113170802D01*
X84015865Y-113075564D01*
X83968246Y-113027945D01*
X83873008Y-112980326D01*
X70196099Y-126501756D02*
X69862766Y-126025566D01*
X69624670Y-126501756D02*
X69624670Y-125501756D01*
X70005623Y-125501756D01*
X70100861Y-125549376D01*
X70148480Y-125596995D01*
X70196099Y-125692233D01*
X70196099Y-125835090D01*
X70148480Y-125930328D01*
X70100861Y-125977947D01*
X70005623Y-126025566D01*
X69624670Y-126025566D01*
X70767527Y-125930328D02*
X70672289Y-125882709D01*
X70624670Y-125835090D01*
X70577051Y-125739852D01*
X70577051Y-125692233D01*
X70624670Y-125596995D01*
X70672289Y-125549376D01*
X70767527Y-125501756D01*
X70958004Y-125501756D01*
X71053242Y-125549376D01*
X71100861Y-125596995D01*
X71148480Y-125692233D01*
X71148480Y-125739852D01*
X71100861Y-125835090D01*
X71053242Y-125882709D01*
X70958004Y-125930328D01*
X70767527Y-125930328D01*
X70672289Y-125977947D01*
X70624670Y-126025566D01*
X70577051Y-126120804D01*
X70577051Y-126311280D01*
X70624670Y-126406518D01*
X70672289Y-126454137D01*
X70767527Y-126501756D01*
X70958004Y-126501756D01*
X71053242Y-126454137D01*
X71100861Y-126406518D01*
X71148480Y-126311280D01*
X71148480Y-126120804D01*
X71100861Y-126025566D01*
X71053242Y-125977947D01*
X70958004Y-125930328D01*
X79286102Y-113551758D02*
X78952769Y-113075568D01*
X78714673Y-113551758D02*
X78714673Y-112551758D01*
X79095626Y-112551758D01*
X79190864Y-112599378D01*
X79238483Y-112646997D01*
X79286102Y-112742235D01*
X79286102Y-112885092D01*
X79238483Y-112980330D01*
X79190864Y-113027949D01*
X79095626Y-113075568D01*
X78714673Y-113075568D01*
X79762292Y-113551758D02*
X79952769Y-113551758D01*
X80048007Y-113504139D01*
X80095626Y-113456520D01*
X80190864Y-113313663D01*
X80238483Y-113123187D01*
X80238483Y-112742235D01*
X80190864Y-112646997D01*
X80143245Y-112599378D01*
X80048007Y-112551758D01*
X79857530Y-112551758D01*
X79762292Y-112599378D01*
X79714673Y-112646997D01*
X79667054Y-112742235D01*
X79667054Y-112980330D01*
X79714673Y-113075568D01*
X79762292Y-113123187D01*
X79857530Y-113170806D01*
X80048007Y-113170806D01*
X80143245Y-113123187D01*
X80190864Y-113075568D01*
X80238483Y-112980330D01*
X124886101Y-116577658D02*
X124552768Y-116101468D01*
X124314672Y-116577658D02*
X124314672Y-115577658D01*
X124695625Y-115577658D01*
X124790863Y-115625278D01*
X124838482Y-115672897D01*
X124886101Y-115768135D01*
X124886101Y-115910992D01*
X124838482Y-116006230D01*
X124790863Y-116053849D01*
X124695625Y-116101468D01*
X124314672Y-116101468D01*
X125838482Y-116577658D02*
X125267053Y-116577658D01*
X125552768Y-116577658D02*
X125552768Y-115577658D01*
X125457529Y-115720516D01*
X125362291Y-115815754D01*
X125267053Y-115863373D01*
X82229909Y-102261759D02*
X81896576Y-101785569D01*
X81658481Y-102261759D02*
X81658481Y-101261759D01*
X82039433Y-101261759D01*
X82134671Y-101309379D01*
X82182290Y-101356998D01*
X82229909Y-101452236D01*
X82229909Y-101595093D01*
X82182290Y-101690331D01*
X82134671Y-101737950D01*
X82039433Y-101785569D01*
X81658481Y-101785569D01*
X83182290Y-102261759D02*
X82610862Y-102261759D01*
X82896576Y-102261759D02*
X82896576Y-101261759D01*
X82801338Y-101404617D01*
X82706100Y-101499855D01*
X82610862Y-101547474D01*
X84039433Y-101595093D02*
X84039433Y-102261759D01*
X83801338Y-101214140D02*
X83563243Y-101928426D01*
X84182290Y-101928426D01*
X105729434Y-85661020D02*
X105729434Y-86375306D01*
X105681815Y-86518163D01*
X105586577Y-86613401D01*
X105443720Y-86661020D01*
X105348482Y-86661020D01*
X106110387Y-85661020D02*
X106729434Y-85661020D01*
X106396101Y-86041973D01*
X106538958Y-86041973D01*
X106634196Y-86089592D01*
X106681815Y-86137211D01*
X106729434Y-86232449D01*
X106729434Y-86470544D01*
X106681815Y-86565782D01*
X106634196Y-86613401D01*
X106538958Y-86661020D01*
X106253244Y-86661020D01*
X106158006Y-86613401D01*
X106110387Y-86565782D01*
X96214672Y-94281760D02*
X96214672Y-93281760D01*
X96452768Y-93281760D01*
X96595625Y-93329380D01*
X96690863Y-93424618D01*
X96738482Y-93519856D01*
X96786101Y-93710332D01*
X96786101Y-93853189D01*
X96738482Y-94043665D01*
X96690863Y-94138903D01*
X96595625Y-94234141D01*
X96452768Y-94281760D01*
X96214672Y-94281760D01*
X97690863Y-93281760D02*
X97214672Y-93281760D01*
X97167053Y-93757951D01*
X97214672Y-93710332D01*
X97309910Y-93662713D01*
X97548006Y-93662713D01*
X97643244Y-93710332D01*
X97690863Y-93757951D01*
X97738482Y-93853189D01*
X97738482Y-94091284D01*
X97690863Y-94186522D01*
X97643244Y-94234141D01*
X97548006Y-94281760D01*
X97309910Y-94281760D01*
X97214672Y-94234141D01*
X97167053Y-94186522D01*
X111188154Y-58207037D02*
X111188154Y-59016561D01*
X111235773Y-59111799D01*
X111283392Y-59159418D01*
X111378630Y-59207037D01*
X111569106Y-59207037D01*
X111664344Y-59159418D01*
X111711963Y-59111799D01*
X111759582Y-59016561D01*
X111759582Y-58207037D01*
X112188154Y-58302276D02*
X112235773Y-58254657D01*
X112331011Y-58207037D01*
X112569106Y-58207037D01*
X112664344Y-58254657D01*
X112711963Y-58302276D01*
X112759582Y-58397514D01*
X112759582Y-58492752D01*
X112711963Y-58635609D01*
X112140535Y-59207037D01*
X112759582Y-59207037D01*
X124886100Y-125737493D02*
X124838481Y-125785112D01*
X124695624Y-125832731D01*
X124600386Y-125832731D01*
X124457528Y-125785112D01*
X124362290Y-125689874D01*
X124314671Y-125594636D01*
X124267052Y-125404160D01*
X124267052Y-125261303D01*
X124314671Y-125070827D01*
X124362290Y-124975589D01*
X124457528Y-124880351D01*
X124600386Y-124832731D01*
X124695624Y-124832731D01*
X124838481Y-124880351D01*
X124886100Y-124927970D01*
X125790862Y-124832731D02*
X125314671Y-124832731D01*
X125267052Y-125308922D01*
X125314671Y-125261303D01*
X125409909Y-125213684D01*
X125648005Y-125213684D01*
X125743243Y-125261303D01*
X125790862Y-125308922D01*
X125838481Y-125404160D01*
X125838481Y-125642255D01*
X125790862Y-125737493D01*
X125743243Y-125785112D01*
X125648005Y-125832731D01*
X125409909Y-125832731D01*
X125314671Y-125785112D01*
X125267052Y-125737493D01*
X124225328Y-111472237D02*
X124177709Y-111519856D01*
X124034852Y-111567475D01*
X123939614Y-111567475D01*
X123796756Y-111519856D01*
X123701518Y-111424618D01*
X123653899Y-111329380D01*
X123606280Y-111138904D01*
X123606280Y-110996047D01*
X123653899Y-110805571D01*
X123701518Y-110710333D01*
X123796756Y-110615095D01*
X123939614Y-110567475D01*
X124034852Y-110567475D01*
X124177709Y-110615095D01*
X124225328Y-110662714D01*
X124606280Y-110662714D02*
X124653899Y-110615095D01*
X124749137Y-110567475D01*
X124987233Y-110567475D01*
X125082471Y-110615095D01*
X125130090Y-110662714D01*
X125177709Y-110757952D01*
X125177709Y-110853190D01*
X125130090Y-110996047D01*
X124558661Y-111567475D01*
X125177709Y-111567475D01*
X95369432Y-85882497D02*
X95369432Y-86596783D01*
X95321813Y-86739640D01*
X95226575Y-86834878D01*
X95083718Y-86882497D01*
X94988480Y-86882497D01*
X96321813Y-85882497D02*
X95845623Y-85882497D01*
X95798004Y-86358688D01*
X95845623Y-86311069D01*
X95940861Y-86263450D01*
X96178956Y-86263450D01*
X96274194Y-86311069D01*
X96321813Y-86358688D01*
X96369432Y-86453926D01*
X96369432Y-86692021D01*
X96321813Y-86787259D01*
X96274194Y-86834878D01*
X96178956Y-86882497D01*
X95940861Y-86882497D01*
X95845623Y-86834878D01*
X95798004Y-86787259D01*
X99509908Y-92551757D02*
X99176575Y-92075567D01*
X98938480Y-92551757D02*
X98938480Y-91551757D01*
X99319432Y-91551757D01*
X99414670Y-91599377D01*
X99462289Y-91646996D01*
X99509908Y-91742234D01*
X99509908Y-91885091D01*
X99462289Y-91980329D01*
X99414670Y-92027948D01*
X99319432Y-92075567D01*
X98938480Y-92075567D01*
X100462289Y-92551757D02*
X99890861Y-92551757D01*
X100176575Y-92551757D02*
X100176575Y-91551757D01*
X100081337Y-91694615D01*
X99986099Y-91789853D01*
X99890861Y-91837472D01*
X100795623Y-91551757D02*
X101462289Y-91551757D01*
X101033718Y-92551757D01*
X83086100Y-116686521D02*
X83038481Y-116734140D01*
X82895624Y-116781759D01*
X82800386Y-116781759D01*
X82657528Y-116734140D01*
X82562290Y-116638902D01*
X82514671Y-116543664D01*
X82467052Y-116353188D01*
X82467052Y-116210331D01*
X82514671Y-116019855D01*
X82562290Y-115924617D01*
X82657528Y-115829379D01*
X82800386Y-115781759D01*
X82895624Y-115781759D01*
X83038481Y-115829379D01*
X83086100Y-115876998D01*
X83419433Y-115781759D02*
X84086100Y-115781759D01*
X83657528Y-116781759D01*
X104589910Y-93136521D02*
X104542291Y-93184140D01*
X104399434Y-93231759D01*
X104304196Y-93231759D01*
X104161339Y-93184140D01*
X104066101Y-93088902D01*
X104018482Y-92993664D01*
X103970863Y-92803188D01*
X103970863Y-92660331D01*
X104018482Y-92469855D01*
X104066101Y-92374617D01*
X104161339Y-92279379D01*
X104304196Y-92231759D01*
X104399434Y-92231759D01*
X104542291Y-92279379D01*
X104589910Y-92326998D01*
X105542291Y-93231759D02*
X104970863Y-93231759D01*
X105256577Y-93231759D02*
X105256577Y-92231759D01*
X105161339Y-92374617D01*
X105066101Y-92469855D01*
X104970863Y-92517474D01*
X106161339Y-92231759D02*
X106256577Y-92231759D01*
X106351815Y-92279379D01*
X106399434Y-92326998D01*
X106447053Y-92422236D01*
X106494672Y-92612712D01*
X106494672Y-92850807D01*
X106447053Y-93041283D01*
X106399434Y-93136521D01*
X106351815Y-93184140D01*
X106256577Y-93231759D01*
X106161339Y-93231759D01*
X106066101Y-93184140D01*
X106018482Y-93136521D01*
X105970863Y-93041283D01*
X105923244Y-92850807D01*
X105923244Y-92612712D01*
X105970863Y-92422236D01*
X106018482Y-92326998D01*
X106066101Y-92279379D01*
X106161339Y-92231759D01*
X104239911Y-98271759D02*
X103906578Y-97795569D01*
X103668483Y-98271759D02*
X103668483Y-97271759D01*
X104049435Y-97271759D01*
X104144673Y-97319379D01*
X104192292Y-97366998D01*
X104239911Y-97462236D01*
X104239911Y-97605093D01*
X104192292Y-97700331D01*
X104144673Y-97747950D01*
X104049435Y-97795569D01*
X103668483Y-97795569D01*
X105192292Y-98271759D02*
X104620864Y-98271759D01*
X104906578Y-98271759D02*
X104906578Y-97271759D01*
X104811340Y-97414617D01*
X104716102Y-97509855D01*
X104620864Y-97557474D01*
X105763721Y-97700331D02*
X105668483Y-97652712D01*
X105620864Y-97605093D01*
X105573245Y-97509855D01*
X105573245Y-97462236D01*
X105620864Y-97366998D01*
X105668483Y-97319379D01*
X105763721Y-97271759D01*
X105954197Y-97271759D01*
X106049435Y-97319379D01*
X106097054Y-97366998D01*
X106144673Y-97462236D01*
X106144673Y-97509855D01*
X106097054Y-97605093D01*
X106049435Y-97652712D01*
X105954197Y-97700331D01*
X105763721Y-97700331D01*
X105668483Y-97747950D01*
X105620864Y-97795569D01*
X105573245Y-97890807D01*
X105573245Y-98081283D01*
X105620864Y-98176521D01*
X105668483Y-98224140D01*
X105763721Y-98271759D01*
X105954197Y-98271759D01*
X106049435Y-98224140D01*
X106097054Y-98176521D01*
X106144673Y-98081283D01*
X106144673Y-97890807D01*
X106097054Y-97795569D01*
X106049435Y-97747950D01*
X105954197Y-97700331D01*
X127271098Y-108554103D02*
X126937765Y-108077913D01*
X126699669Y-108554103D02*
X126699669Y-107554103D01*
X127080622Y-107554103D01*
X127175860Y-107601723D01*
X127223479Y-107649342D01*
X127271098Y-107744580D01*
X127271098Y-107887437D01*
X127223479Y-107982675D01*
X127175860Y-108030294D01*
X127080622Y-108077913D01*
X126699669Y-108077913D01*
X127604431Y-107554103D02*
X128223479Y-107554103D01*
X127890145Y-107935056D01*
X128033003Y-107935056D01*
X128128241Y-107982675D01*
X128175860Y-108030294D01*
X128223479Y-108125532D01*
X128223479Y-108363627D01*
X128175860Y-108458865D01*
X128128241Y-108506484D01*
X128033003Y-108554103D01*
X127747288Y-108554103D01*
X127652050Y-108506484D01*
X127604431Y-108458865D01*
X128519434Y-123065113D02*
X128662291Y-123112732D01*
X128900387Y-123112732D01*
X128995625Y-123065113D01*
X129043244Y-123017494D01*
X129090863Y-122922256D01*
X129090863Y-122827018D01*
X129043244Y-122731780D01*
X128995625Y-122684161D01*
X128900387Y-122636542D01*
X128709910Y-122588923D01*
X128614672Y-122541304D01*
X128567053Y-122493685D01*
X128519434Y-122398447D01*
X128519434Y-122303209D01*
X128567053Y-122207971D01*
X128614672Y-122160352D01*
X128709910Y-122112732D01*
X128948006Y-122112732D01*
X129090863Y-122160352D01*
X129424196Y-122112732D02*
X129662291Y-123112732D01*
X129852768Y-122398447D01*
X130043244Y-123112732D01*
X130281339Y-122112732D01*
X130614672Y-122207971D02*
X130662291Y-122160352D01*
X130757529Y-122112732D01*
X130995625Y-122112732D01*
X131090863Y-122160352D01*
X131138482Y-122207971D01*
X131186101Y-122303209D01*
X131186101Y-122398447D01*
X131138482Y-122541304D01*
X130567053Y-123112732D01*
X131186101Y-123112732D01*
X99690863Y-96031760D02*
X99690863Y-96841284D01*
X99738482Y-96936522D01*
X99786101Y-96984141D01*
X99881339Y-97031760D01*
X100071815Y-97031760D01*
X100167053Y-96984141D01*
X100214672Y-96936522D01*
X100262291Y-96841284D01*
X100262291Y-96031760D01*
X101167053Y-96365094D02*
X101167053Y-97031760D01*
X100928958Y-95984141D02*
X100690863Y-96698427D01*
X101309910Y-96698427D01*
X127225329Y-111472236D02*
X127177710Y-111519855D01*
X127034853Y-111567474D01*
X126939615Y-111567474D01*
X126796757Y-111519855D01*
X126701519Y-111424617D01*
X126653900Y-111329379D01*
X126606281Y-111138903D01*
X126606281Y-110996046D01*
X126653900Y-110805570D01*
X126701519Y-110710332D01*
X126796757Y-110615094D01*
X126939615Y-110567474D01*
X127034853Y-110567474D01*
X127177710Y-110615094D01*
X127225329Y-110662713D01*
X127558662Y-110567474D02*
X128177710Y-110567474D01*
X127844376Y-110948427D01*
X127987234Y-110948427D01*
X128082472Y-110996046D01*
X128130091Y-111043665D01*
X128177710Y-111138903D01*
X128177710Y-111376998D01*
X128130091Y-111472236D01*
X128082472Y-111519855D01*
X127987234Y-111567474D01*
X127701519Y-111567474D01*
X127606281Y-111519855D01*
X127558662Y-111472236D01*
X138219433Y-115081760D02*
X138219433Y-115796046D01*
X138171814Y-115938903D01*
X138076576Y-116034141D01*
X137933719Y-116081760D01*
X137838481Y-116081760D01*
X139219433Y-116081760D02*
X138648005Y-116081760D01*
X138933719Y-116081760D02*
X138933719Y-115081760D01*
X138838481Y-115224618D01*
X138743243Y-115319856D01*
X138648005Y-115367475D01*
X69029432Y-110091758D02*
X69029432Y-110806044D01*
X68981813Y-110948901D01*
X68886575Y-111044139D01*
X68743718Y-111091758D01*
X68648480Y-111091758D01*
X69458004Y-110186997D02*
X69505623Y-110139378D01*
X69600861Y-110091758D01*
X69838956Y-110091758D01*
X69934194Y-110139378D01*
X69981813Y-110186997D01*
X70029432Y-110282235D01*
X70029432Y-110377473D01*
X69981813Y-110520330D01*
X69410385Y-111091758D01*
X70029432Y-111091758D01*
X96809912Y-103681763D02*
X96476579Y-103205573D01*
X96238484Y-103681763D02*
X96238484Y-102681763D01*
X96619436Y-102681763D01*
X96714674Y-102729383D01*
X96762293Y-102777002D01*
X96809912Y-102872240D01*
X96809912Y-103015097D01*
X96762293Y-103110335D01*
X96714674Y-103157954D01*
X96619436Y-103205573D01*
X96238484Y-103205573D01*
X97190865Y-102777002D02*
X97238484Y-102729383D01*
X97333722Y-102681763D01*
X97571817Y-102681763D01*
X97667055Y-102729383D01*
X97714674Y-102777002D01*
X97762293Y-102872240D01*
X97762293Y-102967478D01*
X97714674Y-103110335D01*
X97143246Y-103681763D01*
X97762293Y-103681763D01*
X98381341Y-102681763D02*
X98476579Y-102681763D01*
X98571817Y-102729383D01*
X98619436Y-102777002D01*
X98667055Y-102872240D01*
X98714674Y-103062716D01*
X98714674Y-103300811D01*
X98667055Y-103491287D01*
X98619436Y-103586525D01*
X98571817Y-103634144D01*
X98476579Y-103681763D01*
X98381341Y-103681763D01*
X98286103Y-103634144D01*
X98238484Y-103586525D01*
X98190865Y-103491287D01*
X98143246Y-103300811D01*
X98143246Y-103062716D01*
X98190865Y-102872240D01*
X98238484Y-102777002D01*
X98286103Y-102729383D01*
X98381341Y-102681763D01*
X73909906Y-102181758D02*
X73576573Y-101705568D01*
X73338478Y-102181758D02*
X73338478Y-101181758D01*
X73719430Y-101181758D01*
X73814668Y-101229378D01*
X73862287Y-101276997D01*
X73909906Y-101372235D01*
X73909906Y-101515092D01*
X73862287Y-101610330D01*
X73814668Y-101657949D01*
X73719430Y-101705568D01*
X73338478Y-101705568D01*
X74862287Y-102181758D02*
X74290859Y-102181758D01*
X74576573Y-102181758D02*
X74576573Y-101181758D01*
X74481335Y-101324616D01*
X74386097Y-101419854D01*
X74290859Y-101467473D01*
X75243240Y-101276997D02*
X75290859Y-101229378D01*
X75386097Y-101181758D01*
X75624192Y-101181758D01*
X75719430Y-101229378D01*
X75767049Y-101276997D01*
X75814668Y-101372235D01*
X75814668Y-101467473D01*
X75767049Y-101610330D01*
X75195621Y-102181758D01*
X75814668Y-102181758D01*
D13*
X108202766Y-111569376D02*
X108202766Y-108909376D01*
X94172766Y-111569376D02*
X92842766Y-111569376D01*
X95442766Y-108909376D02*
X108202766Y-108909376D01*
X95442766Y-111569376D02*
X95442766Y-108909376D01*
X92842766Y-111569376D02*
X92842766Y-110239376D01*
X95442766Y-111569376D02*
X108202766Y-111569376D01*
X121052769Y-126748995D02*
X120402769Y-126748995D01*
X121052769Y-126748995D02*
X122727769Y-126748995D01*
X121052769Y-123628995D02*
X121702769Y-123628995D01*
X121052769Y-123628995D02*
X120402769Y-123628995D01*
X79790025Y-117306879D02*
X79315509Y-117306879D01*
X79790025Y-118351879D02*
X79315509Y-118351879D01*
X86654729Y-95832632D02*
X86514149Y-96076124D01*
X85771383Y-95322632D02*
X85630803Y-95566124D01*
X126677768Y-107265753D02*
X128962768Y-107265753D01*
X128962768Y-105795753D02*
X126677768Y-105795753D01*
X128962768Y-107265753D02*
X128962768Y-105795753D01*
X96175267Y-100391637D02*
X96175267Y-99917121D01*
X95130267Y-100391637D02*
X95130267Y-99917121D01*
X104232767Y-105338799D02*
X104232767Y-105619959D01*
X103212767Y-105338799D02*
X103212767Y-105619959D01*
X124815507Y-124250723D02*
X125290023Y-124250723D01*
X124815507Y-123205723D02*
X125290023Y-123205723D01*
X112205509Y-78816877D02*
X112680025Y-78816877D01*
X112205509Y-79861877D02*
X112680025Y-79861877D01*
X97243346Y-113059378D02*
X96962186Y-113059378D01*
X97243346Y-114079378D02*
X96962186Y-114079378D01*
X113202766Y-92739379D02*
X113202766Y-91739379D01*
X115442766Y-90739379D02*
X115442766Y-92739379D01*
X73942763Y-111239378D02*
X73942763Y-110514378D01*
X78437763Y-106019378D02*
X79162763Y-106019378D01*
X74667763Y-111239378D02*
X73942763Y-111239378D01*
X78437763Y-111239378D02*
X79162763Y-111239378D01*
X73942763Y-106019378D02*
X73942763Y-106744378D01*
X74667763Y-106019378D02*
X73942763Y-106019378D01*
X79162763Y-106019378D02*
X79162763Y-106744378D01*
X78847766Y-124639379D02*
X78847766Y-126924379D01*
X78847766Y-126924379D02*
X80317766Y-126924379D01*
X80317766Y-126924379D02*
X80317766Y-124639379D01*
X78990025Y-103751880D02*
X78515509Y-103751880D01*
X78990025Y-102706880D02*
X78515509Y-102706880D01*
X102392768Y-95129955D02*
X102392768Y-94848795D01*
X103412768Y-95129955D02*
X103412768Y-94848795D01*
X124912187Y-120129953D02*
X125193347Y-120129953D01*
X124912187Y-121149953D02*
X125193347Y-121149953D01*
X89460803Y-89186124D02*
X89601383Y-88942632D01*
X90344149Y-89696124D02*
X90484729Y-89452632D01*
X89342771Y-66529379D02*
X89312771Y-66529379D01*
X82882771Y-66529379D02*
X82882771Y-60069379D01*
X89342771Y-66529379D02*
X89342771Y-60069379D01*
X84812771Y-60069379D02*
X87412771Y-60069379D01*
X82912771Y-66529379D02*
X82882771Y-66529379D01*
X89342771Y-60069379D02*
X89312771Y-60069379D01*
X82882771Y-60069379D02*
X82912771Y-60069379D01*
X84812771Y-66529379D02*
X87412771Y-66529379D01*
X132052771Y-119269381D02*
X132052771Y-119169381D01*
X127652771Y-120769381D02*
X132052771Y-120769381D01*
X132052771Y-117669381D02*
X127652771Y-117669381D01*
X127652771Y-119269381D02*
X127652771Y-119169381D01*
X100975267Y-105192121D02*
X100975267Y-105666637D01*
X99930267Y-105192121D02*
X99930267Y-105666637D01*
X82595508Y-105706878D02*
X83070024Y-105706878D01*
X82595508Y-106751878D02*
X83070024Y-106751878D01*
X115914149Y-95232631D02*
X116054729Y-95476123D01*
X115030803Y-95742631D02*
X115171383Y-95986123D01*
X108135268Y-99682122D02*
X108135268Y-100156638D01*
X107090268Y-99682122D02*
X107090268Y-100156638D01*
X87605510Y-68876877D02*
X88080026Y-68876877D01*
X87605510Y-69921877D02*
X88080026Y-69921877D01*
X111571381Y-89676123D02*
X111430801Y-89432631D01*
X112454727Y-89166123D02*
X112314147Y-88922631D01*
X73285508Y-124696878D02*
X73760024Y-124696878D01*
X73285508Y-125741878D02*
X73760024Y-125741878D01*
X80182768Y-120399379D02*
X78882768Y-120399379D01*
X78882768Y-123519379D02*
X80882768Y-123519379D01*
X121052769Y-117639061D02*
X120402769Y-117639061D01*
X121052769Y-120759061D02*
X122727769Y-120759061D01*
X121052769Y-120759061D02*
X120402769Y-120759061D01*
X121052769Y-117639061D02*
X121702769Y-117639061D01*
X102282766Y-114749378D02*
X100282766Y-114749378D01*
X100282766Y-112509378D02*
X101282766Y-112509378D01*
X127337186Y-104110756D02*
X127618346Y-104110756D01*
X127337186Y-103090756D02*
X127618346Y-103090756D01*
X129930268Y-113857608D02*
X129930268Y-113383092D01*
X130975268Y-113857608D02*
X130975268Y-113383092D01*
X135072185Y-113069379D02*
X135353345Y-113069379D01*
X135072185Y-114089379D02*
X135353345Y-114089379D01*
X132642766Y-103819378D02*
X138652766Y-103819378D01*
X134892766Y-110639378D02*
X138652766Y-110639378D01*
X138652766Y-103819378D02*
X138652766Y-105079378D01*
X138652766Y-110639378D02*
X138652766Y-109379378D01*
X88622768Y-91699382D02*
X88622768Y-92699382D01*
X86382768Y-93699382D02*
X86382768Y-91699382D01*
X111642769Y-77074379D02*
X113927769Y-77074379D01*
X113927769Y-77074379D02*
X113927769Y-75604379D01*
X113927769Y-75604379D02*
X111642769Y-75604379D01*
X104282189Y-114019378D02*
X104563349Y-114019378D01*
X104282189Y-112999378D02*
X104563349Y-112999378D01*
X68031942Y-108961596D02*
X67876942Y-108693129D01*
X60120719Y-108078957D02*
X60303732Y-107395944D01*
X65771942Y-105047162D02*
X65926942Y-105315629D01*
X60303732Y-107395944D02*
X59437706Y-107895944D01*
X58133598Y-109457162D02*
X65771942Y-105047162D01*
X58288598Y-109725629D02*
X58133598Y-109457162D01*
X59437706Y-107895944D02*
X60120719Y-108078957D01*
X68031942Y-108961596D02*
X60393598Y-113371596D01*
X60393598Y-113371596D02*
X60238598Y-113103129D01*
X83137190Y-114019374D02*
X83418350Y-114019374D01*
X83137190Y-115039374D02*
X83418350Y-115039374D01*
X70125508Y-128001876D02*
X70600024Y-128001876D01*
X70125508Y-126956876D02*
X70600024Y-126956876D01*
X79215511Y-114006878D02*
X79690027Y-114006878D01*
X79215511Y-115051878D02*
X79690027Y-115051878D01*
X124815510Y-118077778D02*
X125290026Y-118077778D01*
X124815510Y-117032778D02*
X125290026Y-117032778D01*
X82635509Y-102716879D02*
X83110025Y-102716879D01*
X82635509Y-103761879D02*
X83110025Y-103761879D01*
X114534582Y-97953788D02*
X108154582Y-86903304D01*
X112230954Y-99283788D02*
X105850954Y-88233304D01*
X115169582Y-99053640D02*
X115834582Y-100205454D01*
X114534582Y-97953788D02*
X112230954Y-99283788D01*
X115834582Y-100205454D02*
X114682768Y-100870454D01*
X108154582Y-86903304D02*
X105850954Y-88233304D01*
X94702768Y-96829380D02*
X98602768Y-96829380D01*
X94702768Y-94829380D02*
X98602768Y-94829380D01*
X94702768Y-94829380D02*
X94702768Y-96829380D01*
D14*
X109452765Y-51129381D02*
X91452765Y-51129381D01*
X109452765Y-57679381D02*
X109452765Y-51129381D01*
X91452765Y-51129381D02*
X91452765Y-57679381D01*
X91452765Y-82529381D02*
X109452765Y-82529381D01*
D15*
X90392765Y-57939381D02*
G75*
G03*
X90392765Y-57939381I-100000J0D01*
G01*
D13*
X124912187Y-126300351D02*
X125193347Y-126300351D01*
X124912187Y-127320351D02*
X125193347Y-127320351D01*
X124962765Y-113479771D02*
X124962765Y-113760931D01*
X123942765Y-113479771D02*
X123942765Y-113760931D01*
X85830953Y-100335453D02*
X88134581Y-101665453D01*
X94514581Y-90614969D02*
X88134581Y-101665453D01*
X92845953Y-88185117D02*
X93510953Y-87033303D01*
X93510953Y-87033303D02*
X94662767Y-87698303D01*
X92210953Y-89284969D02*
X85830953Y-100335453D01*
X92210953Y-89284969D02*
X94514581Y-90614969D01*
X99915508Y-94051877D02*
X100390024Y-94051877D01*
X99915508Y-93006877D02*
X100390024Y-93006877D01*
X83112187Y-117319379D02*
X83393347Y-117319379D01*
X83112187Y-118339379D02*
X83393347Y-118339379D01*
X105742768Y-95119959D02*
X105742768Y-94838799D01*
X104722768Y-95119959D02*
X104722768Y-94838799D01*
X104360269Y-100156637D02*
X104360269Y-99682121D01*
X105405269Y-100156637D02*
X105405269Y-99682121D01*
X127675023Y-109991876D02*
X127200507Y-109991876D01*
X127675023Y-108946876D02*
X127200507Y-108946876D01*
X132052768Y-123560352D02*
X127652768Y-123560352D01*
X127652768Y-125160352D02*
X127652768Y-125060352D01*
X132052768Y-125160352D02*
X132052768Y-125060352D01*
X127652768Y-126660352D02*
X132052768Y-126660352D01*
X103162768Y-101839380D02*
X102902768Y-101839380D01*
X97742768Y-101839380D02*
X98002768Y-101839380D01*
X103162768Y-97819380D02*
X102902768Y-97819380D01*
X97742768Y-97819380D02*
X98002768Y-97819380D01*
X103162768Y-97819380D02*
X103162768Y-98079380D01*
X103162768Y-101839380D02*
X103162768Y-101579380D01*
X97742768Y-101839380D02*
X97742768Y-101579380D01*
X126942766Y-113479770D02*
X126942766Y-113760930D01*
X127962766Y-113479770D02*
X127962766Y-113760930D01*
X137439581Y-119794528D02*
X138739581Y-117542862D01*
X137439581Y-119794528D02*
X135135953Y-118464528D01*
X138739581Y-117542862D02*
X136435953Y-116212862D01*
X135135953Y-118464528D02*
X136435953Y-116212862D01*
X134987767Y-121381194D02*
X133835953Y-120716194D01*
X133835953Y-120716194D02*
X134500953Y-119564380D01*
X70853118Y-112030757D02*
X71603118Y-113329795D01*
X74853118Y-118958961D02*
X75603118Y-120257999D01*
X75603118Y-120257999D02*
X69315774Y-123887999D01*
X70853118Y-112030757D02*
X64565774Y-115660757D01*
X97975270Y-105192125D02*
X97975270Y-105666641D01*
X96930270Y-105192125D02*
X96930270Y-105666641D01*
X74790022Y-102706878D02*
X74315506Y-102706878D01*
X74790022Y-103751878D02*
X74315506Y-103751878D01*
M02*
