M48
METRIC,TZ
T1C0.200
T2C0.400
T3C0.500
T4C1.000
%
G90
G05
T1
X100125Y-66878
X100125Y-68278
X100825Y-66178
X100825Y-67578
X100825Y-68978
X101525Y-66878
X101525Y-68278
X102225Y-66178
X102225Y-67578
X102225Y-68978
X102925Y-66878
X102925Y-68278
T2
X72314Y-117602
X72550Y-118632
X72821Y-121062
X76276Y-112185
X76755Y-109863
X77054Y-116933
X78100Y-119204
X78535Y-127123
X78939Y-114695
X82986Y-115739
X83725Y-64843
X84421Y-119444
X84485Y-66603
X85419Y-118152
X85770Y-94635
X86415Y-92421
X86616Y-83769
X87124Y-87784
X87188Y-95419
X87192Y-121223
X88205Y-66223
X88625Y-86630
X88698Y-93797
X88717Y-88704
X89035Y-63493
X89956Y-62469
X90059Y-93171
X90066Y-89367
X90174Y-116978
X91176Y-94439
X91286Y-75379
X91496Y-85879
X91985Y-118183
X92055Y-111453
X92649Y-88814
X93035Y-118153
X93714Y-86970
X94044Y-115336
X95055Y-120173
X96390Y-69948
X96396Y-75563
X96420Y-66915
X96680Y-73798
X96700Y-72488
X97022Y-92349
X97549Y-59778
X97570Y-62308
X97916Y-73589
X97964Y-116136
X98236Y-67639
X99065Y-114796
X99183Y-95945
X99215Y-99873
X99366Y-80929
X99456Y-72079
X102294Y-71426
X102406Y-72609
X102406Y-108749
X102826Y-84619
X102919Y-113216
X103696Y-79719
X103765Y-63263
X104385Y-64793
X104436Y-71809
X104565Y-96423
X105474Y-104153
X105474Y-106572
X105554Y-115996
X106255Y-66143
X107195Y-63393
X107396Y-113909
X107915Y-77643
X107946Y-91159
X107980Y-104438
X108616Y-73599
X108955Y-78873
X109146Y-86459
X109385Y-97683
X109776Y-77079
X110550Y-97208
X112676Y-99529
X112708Y-85656
X113425Y-122043
X113533Y-114591
X113920Y-90138
X114190Y-82328
X115391Y-88237
X118416Y-99149
X118585Y-65213
X118680Y-92409
X118731Y-95933
X119586Y-96989
X120014Y-102182
X120416Y-62259
X121356Y-102151
X124101Y-123427
X124115Y-99713
X124125Y-93033
X124215Y-111823
X125332Y-110378
X126195Y-93193
X127935Y-124493
X129390Y-102128
X129765Y-111493
X131266Y-95249
X131605Y-115173
X132421Y-127119
X132452Y-124728
X132502Y-118768
X134570Y-108438
X136045Y-121223
X140460Y-108458
T4
X90217Y-100858
X91487Y-98658
X92757Y-96458
X94027Y-94259
X95297Y-92059
X96567Y-89859
X96572Y-111418
X99112Y-111418
X101652Y-111418
X104192Y-111418
X106732Y-111418
X109272Y-111418
X110397Y-89539
X111667Y-91739
X112937Y-93939
X114207Y-96138
X115477Y-98338
X116747Y-100538
X138225Y-121438
X139495Y-119238
T3
G00X66705Y-117419
M15
G01X66185Y-117719
M16
G05
G00X71195Y-125196
M15
G01X70675Y-125496
M16
G05
G00X72038Y-114756
M15
G01X71518Y-115056
M16
G05
G00X76168Y-121909
M15
G01X75648Y-122209
M16
G05
T0
M30
