G04 #@! TF.GenerationSoftware,KiCad,Pcbnew,6.0.2+dfsg-1*
G04 #@! TF.CreationDate,2024-11-30T20:51:58+09:00*
G04 #@! TF.ProjectId,omni_wheel,6f6d6e69-5f77-4686-9565-6c2e6b696361,rev?*
G04 #@! TF.SameCoordinates,Original*
G04 #@! TF.FileFunction,Legend,Top*
G04 #@! TF.FilePolarity,Positive*
%FSLAX46Y46*%
G04 Gerber Fmt 4.6, Leading zero omitted, Abs format (unit mm)*
G04 Created by KiCad (PCBNEW 6.0.2+dfsg-1) date 2024-11-30 20:51:58*
%MOMM*%
%LPD*%
G01*
G04 APERTURE LIST*
%ADD10C,0.300000*%
%ADD11C,0.150000*%
%ADD12C,0.075000*%
%ADD13C,0.120000*%
%ADD14C,0.127000*%
%ADD15C,0.200000*%
G04 APERTURE END LIST*
D10*
X144541067Y-115679004D02*
X143969639Y-116668748D01*
X130887973Y-86211539D02*
X130387973Y-85345514D01*
X130459401Y-85469232D02*
X130485546Y-85371658D01*
X130573550Y-85238371D01*
X130759127Y-85131228D01*
X130918559Y-85121658D01*
X131051846Y-85209662D01*
X131444703Y-85890110D01*
X131051846Y-85209662D02*
X131042277Y-85050230D01*
X131130280Y-84916942D01*
X131315857Y-84809799D01*
X131475289Y-84800230D01*
X131608577Y-84888233D01*
X132001434Y-85568682D01*
X132805601Y-85104396D02*
X132646168Y-85113966D01*
X132548595Y-85087821D01*
X132415308Y-84999817D01*
X132201022Y-84628664D01*
X132191452Y-84469232D01*
X132217597Y-84371658D01*
X132305601Y-84238371D01*
X132491177Y-84131228D01*
X132650610Y-84121658D01*
X132748183Y-84147803D01*
X132881470Y-84235807D01*
X133095756Y-84606960D01*
X133105326Y-84766393D01*
X133079181Y-84863966D01*
X132991177Y-84997253D01*
X132805601Y-85104396D01*
X133109767Y-83774085D02*
X133604639Y-83488371D01*
X133045344Y-83233929D02*
X133688201Y-84347391D01*
X133821489Y-84435394D01*
X133980921Y-84425825D01*
X134104639Y-84354396D01*
X134723228Y-83997253D02*
X134563796Y-84006823D01*
X134466223Y-83980678D01*
X134332935Y-83892675D01*
X134118650Y-83521521D01*
X134109080Y-83362089D01*
X134135225Y-83264515D01*
X134223228Y-83131228D01*
X134408805Y-83024085D01*
X134568237Y-83014515D01*
X134665811Y-83040660D01*
X134799098Y-83128664D01*
X135013384Y-83499817D01*
X135022953Y-83659250D01*
X134996809Y-83756823D01*
X134908805Y-83890110D01*
X134723228Y-83997253D01*
X135712972Y-83425825D02*
X135212972Y-82559799D01*
X135355829Y-82807235D02*
X135346259Y-82647803D01*
X135372404Y-82550230D01*
X135460407Y-82416942D01*
X135584125Y-82345514D01*
X137197587Y-82568682D02*
X136455279Y-82997253D01*
X136826433Y-82782968D02*
X136076433Y-81483929D01*
X136059858Y-81740935D01*
X136007568Y-81936081D01*
X135919565Y-82069369D01*
X140453865Y-123358808D02*
X139464121Y-122787380D01*
X139673279Y-123567966D02*
X140244707Y-122578222D01*
D11*
X136404466Y-116838877D02*
X136737800Y-116838877D01*
X136880657Y-117362686D02*
X136404466Y-117362686D01*
X136404466Y-116362686D01*
X136880657Y-116362686D01*
X137309228Y-117362686D02*
X137309228Y-116362686D01*
X137880657Y-117362686D01*
X137880657Y-116362686D01*
D12*
X78535993Y-129348545D02*
X78329796Y-129467593D01*
X78505804Y-129201018D02*
X78611466Y-129717364D01*
X78217129Y-129367684D01*
X78168029Y-129615975D02*
X77838115Y-129806451D01*
X77536680Y-129760541D02*
X77786680Y-130193554D01*
X77289244Y-129903399D02*
X77617678Y-130043691D01*
X77539244Y-130336411D02*
X77643823Y-129946118D01*
D10*
X102305424Y-132478877D02*
X102305424Y-131478877D01*
X102305424Y-131621734D02*
X102376852Y-131550306D01*
X102519709Y-131478877D01*
X102733995Y-131478877D01*
X102876852Y-131550306D01*
X102948281Y-131693163D01*
X102948281Y-132478877D01*
X102948281Y-131693163D02*
X103019709Y-131550306D01*
X103162567Y-131478877D01*
X103376852Y-131478877D01*
X103519709Y-131550306D01*
X103591138Y-131693163D01*
X103591138Y-132478877D01*
X104519709Y-132478877D02*
X104376852Y-132407448D01*
X104305424Y-132336020D01*
X104233995Y-132193163D01*
X104233995Y-131764591D01*
X104305424Y-131621734D01*
X104376852Y-131550306D01*
X104519709Y-131478877D01*
X104733995Y-131478877D01*
X104876852Y-131550306D01*
X104948281Y-131621734D01*
X105019709Y-131764591D01*
X105019709Y-132193163D01*
X104948281Y-132336020D01*
X104876852Y-132407448D01*
X104733995Y-132478877D01*
X104519709Y-132478877D01*
X105448281Y-131478877D02*
X106019709Y-131478877D01*
X105662567Y-130978877D02*
X105662567Y-132264591D01*
X105733995Y-132407448D01*
X105876852Y-132478877D01*
X106019709Y-132478877D01*
X106733995Y-132478877D02*
X106591138Y-132407448D01*
X106519709Y-132336020D01*
X106448281Y-132193163D01*
X106448281Y-131764591D01*
X106519709Y-131621734D01*
X106591138Y-131550306D01*
X106733995Y-131478877D01*
X106948281Y-131478877D01*
X107091138Y-131550306D01*
X107162567Y-131621734D01*
X107233995Y-131764591D01*
X107233995Y-132193163D01*
X107162567Y-132336020D01*
X107091138Y-132407448D01*
X106948281Y-132478877D01*
X106733995Y-132478877D01*
X107876852Y-132478877D02*
X107876852Y-131478877D01*
X107876852Y-131764591D02*
X107948281Y-131621734D01*
X108019709Y-131550306D01*
X108162567Y-131478877D01*
X108305424Y-131478877D01*
X108733995Y-131121734D02*
X108805424Y-131050306D01*
X108948281Y-130978877D01*
X109305424Y-130978877D01*
X109448281Y-131050306D01*
X109519709Y-131121734D01*
X109591138Y-131264591D01*
X109591138Y-131407448D01*
X109519709Y-131621734D01*
X108662567Y-132478877D01*
X109591138Y-132478877D01*
X74759399Y-82934391D02*
X75259399Y-82068366D01*
X75187971Y-82192084D02*
X75285544Y-82165939D01*
X75444976Y-82175509D01*
X75630553Y-82282651D01*
X75718557Y-82415939D01*
X75708987Y-82575371D01*
X75316130Y-83255820D01*
X75708987Y-82575371D02*
X75842275Y-82487368D01*
X76001707Y-82496937D01*
X76187284Y-82604080D01*
X76275287Y-82737368D01*
X76265718Y-82896800D01*
X75872861Y-83577248D01*
X76677027Y-84041534D02*
X76589023Y-83908246D01*
X76562879Y-83810673D01*
X76572448Y-83651241D01*
X76786734Y-83280087D01*
X76920022Y-83192084D01*
X77017595Y-83165939D01*
X77177027Y-83175509D01*
X77362604Y-83282651D01*
X77450608Y-83415939D01*
X77476752Y-83513512D01*
X77467183Y-83672944D01*
X77252897Y-84044098D01*
X77119609Y-84132102D01*
X77022036Y-84158246D01*
X76862604Y-84148677D01*
X76677027Y-84041534D01*
X77981194Y-83639794D02*
X78476065Y-83925509D01*
X78416770Y-83313924D02*
X77773913Y-84427386D01*
X77764344Y-84586818D01*
X77852347Y-84720105D01*
X77976065Y-84791534D01*
X78594655Y-85148677D02*
X78506651Y-85015389D01*
X78480506Y-84917816D01*
X78490076Y-84758384D01*
X78704362Y-84387230D01*
X78837649Y-84299227D01*
X78935223Y-84273082D01*
X79094655Y-84282651D01*
X79280232Y-84389794D01*
X79368235Y-84523082D01*
X79394380Y-84620655D01*
X79384810Y-84780087D01*
X79170525Y-85151241D01*
X79037237Y-85239245D01*
X78939664Y-85265389D01*
X78780232Y-85255820D01*
X78594655Y-85148677D01*
X79584398Y-85720105D02*
X80084398Y-84854080D01*
X79941541Y-85101516D02*
X80074829Y-85013512D01*
X80172402Y-84987368D01*
X80331834Y-84996937D01*
X80455552Y-85068366D01*
X81014847Y-84813924D02*
X81819013Y-85278210D01*
X81100286Y-85523082D01*
X81285863Y-85630225D01*
X81373867Y-85763512D01*
X81400011Y-85861085D01*
X81390442Y-86020518D01*
X81211870Y-86329812D01*
X81078583Y-86417816D01*
X80981009Y-86443961D01*
X80821577Y-86434391D01*
X80450424Y-86220105D01*
X80362420Y-86086818D01*
X80336275Y-85989245D01*
D11*
X136392561Y-123312691D02*
X136392561Y-122312691D01*
X137059227Y-122312691D02*
X137249703Y-122312691D01*
X137344941Y-122360311D01*
X137440180Y-122455549D01*
X137487799Y-122646025D01*
X137487799Y-122979358D01*
X137440180Y-123169834D01*
X137344941Y-123265072D01*
X137249703Y-123312691D01*
X137059227Y-123312691D01*
X136963989Y-123265072D01*
X136868751Y-123169834D01*
X136821132Y-122979358D01*
X136821132Y-122646025D01*
X136868751Y-122455549D01*
X136963989Y-122360311D01*
X137059227Y-122312691D01*
X138106846Y-122312691D02*
X138202084Y-122312691D01*
X138297322Y-122360311D01*
X138344941Y-122407930D01*
X138392561Y-122503168D01*
X138440180Y-122693644D01*
X138440180Y-122931739D01*
X138392561Y-123122215D01*
X138344941Y-123217453D01*
X138297322Y-123265072D01*
X138202084Y-123312691D01*
X138106846Y-123312691D01*
X138011608Y-123265072D01*
X137963989Y-123217453D01*
X137916370Y-123122215D01*
X137868751Y-122931739D01*
X137868751Y-122693644D01*
X137916370Y-122503168D01*
X137963989Y-122407930D01*
X138011608Y-122360311D01*
X138106846Y-122312691D01*
D12*
X117093990Y-73773636D02*
X117332085Y-73773636D01*
X117046371Y-73916493D02*
X117213038Y-73416493D01*
X117379704Y-73916493D01*
X117546371Y-73726017D02*
X117927323Y-73726017D01*
X118165419Y-73916493D02*
X118165419Y-73416493D01*
X118451133Y-73916493D02*
X118236847Y-73630779D01*
X118451133Y-73416493D02*
X118165419Y-73702207D01*
X135176530Y-106823200D02*
X135414625Y-106823200D01*
X135128911Y-106966057D02*
X135295578Y-106466057D01*
X135462244Y-106966057D01*
X135628911Y-106775581D02*
X136009863Y-106775581D01*
X136247959Y-106966057D02*
X136247959Y-106466057D01*
X136533673Y-106966057D02*
X136319387Y-106680343D01*
X136533673Y-106466057D02*
X136247959Y-106751771D01*
D11*
X114099231Y-109882689D02*
X114099231Y-110596975D01*
X114051612Y-110739832D01*
X113956374Y-110835070D01*
X113813517Y-110882689D01*
X113718279Y-110882689D01*
X115003993Y-110216023D02*
X115003993Y-110882689D01*
X114765898Y-109835070D02*
X114527803Y-110549356D01*
X115146850Y-110549356D01*
X126537366Y-125207489D02*
X126442128Y-125159870D01*
X126346890Y-125064631D01*
X126204033Y-124921774D01*
X126108795Y-124874155D01*
X126013557Y-124874155D01*
X126061176Y-125112250D02*
X125965938Y-125064631D01*
X125870700Y-124969393D01*
X125823081Y-124778917D01*
X125823081Y-124445584D01*
X125870700Y-124255108D01*
X125965938Y-124159870D01*
X126061176Y-124112250D01*
X126251652Y-124112250D01*
X126346890Y-124159870D01*
X126442128Y-124255108D01*
X126489747Y-124445584D01*
X126489747Y-124778917D01*
X126442128Y-124969393D01*
X126346890Y-125064631D01*
X126251652Y-125112250D01*
X126061176Y-125112250D01*
X126870700Y-124207489D02*
X126918319Y-124159870D01*
X127013557Y-124112250D01*
X127251652Y-124112250D01*
X127346890Y-124159870D01*
X127394509Y-124207489D01*
X127442128Y-124302727D01*
X127442128Y-124397965D01*
X127394509Y-124540822D01*
X126823081Y-125112250D01*
X127442128Y-125112250D01*
X82094176Y-122095942D02*
X81567406Y-121850216D01*
X81599305Y-122381657D02*
X81099305Y-121515631D01*
X81429219Y-121325155D01*
X81535507Y-121318775D01*
X81600556Y-121336205D01*
X81689415Y-121394874D01*
X81760843Y-121518592D01*
X81767223Y-121624880D01*
X81749793Y-121689929D01*
X81691124Y-121778787D01*
X81361210Y-121969263D01*
X81882852Y-121063250D02*
X82460202Y-120729917D01*
X82589048Y-121810228D01*
X129627005Y-107192250D02*
X129627005Y-106192250D01*
X129865101Y-106192250D01*
X130007958Y-106239870D01*
X130103196Y-106335108D01*
X130150815Y-106430346D01*
X130198434Y-106620822D01*
X130198434Y-106763679D01*
X130150815Y-106954155D01*
X130103196Y-107049393D01*
X130007958Y-107144631D01*
X129865101Y-107192250D01*
X129627005Y-107192250D01*
X131150815Y-107192250D02*
X130579386Y-107192250D01*
X130865101Y-107192250D02*
X130865101Y-106192250D01*
X130769862Y-106335108D01*
X130674624Y-106430346D01*
X130579386Y-106477965D01*
X105669745Y-93432251D02*
X105336412Y-92956061D01*
X105098317Y-93432251D02*
X105098317Y-92432251D01*
X105479269Y-92432251D01*
X105574507Y-92479871D01*
X105622126Y-92527490D01*
X105669745Y-92622728D01*
X105669745Y-92765585D01*
X105622126Y-92860823D01*
X105574507Y-92908442D01*
X105479269Y-92956061D01*
X105098317Y-92956061D01*
X106622126Y-93432251D02*
X106050698Y-93432251D01*
X106336412Y-93432251D02*
X106336412Y-92432251D01*
X106241174Y-92575109D01*
X106145936Y-92670347D01*
X106050698Y-92717966D01*
X107479269Y-92432251D02*
X107288793Y-92432251D01*
X107193555Y-92479871D01*
X107145936Y-92527490D01*
X107050698Y-92670347D01*
X107003079Y-92860823D01*
X107003079Y-93241775D01*
X107050698Y-93337013D01*
X107098317Y-93384632D01*
X107193555Y-93432251D01*
X107384031Y-93432251D01*
X107479269Y-93384632D01*
X107526888Y-93337013D01*
X107574507Y-93241775D01*
X107574507Y-93003680D01*
X107526888Y-92908442D01*
X107479269Y-92860823D01*
X107384031Y-92813204D01*
X107193555Y-92813204D01*
X107098317Y-92860823D01*
X107050698Y-92908442D01*
X107003079Y-93003680D01*
X106229723Y-103875891D02*
X106182104Y-103923510D01*
X106039247Y-103971129D01*
X105944009Y-103971129D01*
X105801152Y-103923510D01*
X105705914Y-103828272D01*
X105658295Y-103733034D01*
X105610676Y-103542558D01*
X105610676Y-103399701D01*
X105658295Y-103209225D01*
X105705914Y-103113987D01*
X105801152Y-103018749D01*
X105944009Y-102971129D01*
X106039247Y-102971129D01*
X106182104Y-103018749D01*
X106229723Y-103066368D01*
X107182104Y-103971129D02*
X106610676Y-103971129D01*
X106896390Y-103971129D02*
X106896390Y-102971129D01*
X106801152Y-103113987D01*
X106705914Y-103209225D01*
X106610676Y-103256844D01*
X108134485Y-103971129D02*
X107563057Y-103971129D01*
X107848771Y-103971129D02*
X107848771Y-102971129D01*
X107753533Y-103113987D01*
X107658295Y-103209225D01*
X107563057Y-103256844D01*
X121675937Y-118702250D02*
X121342604Y-118226060D01*
X121104508Y-118702250D02*
X121104508Y-117702250D01*
X121485461Y-117702250D01*
X121580699Y-117749870D01*
X121628318Y-117797489D01*
X121675937Y-117892727D01*
X121675937Y-118035584D01*
X121628318Y-118130822D01*
X121580699Y-118178441D01*
X121485461Y-118226060D01*
X121104508Y-118226060D01*
X122056889Y-117797489D02*
X122104508Y-117749870D01*
X122199746Y-117702250D01*
X122437842Y-117702250D01*
X122533080Y-117749870D01*
X122580699Y-117797489D01*
X122628318Y-117892727D01*
X122628318Y-117987965D01*
X122580699Y-118130822D01*
X122009270Y-118702250D01*
X122628318Y-118702250D01*
X117678666Y-78582065D02*
X117345333Y-78105875D01*
X117107237Y-78582065D02*
X117107237Y-77582065D01*
X117488190Y-77582065D01*
X117583428Y-77629685D01*
X117631047Y-77677304D01*
X117678666Y-77772542D01*
X117678666Y-77915399D01*
X117631047Y-78010637D01*
X117583428Y-78058256D01*
X117488190Y-78105875D01*
X117107237Y-78105875D01*
X118535809Y-77582065D02*
X118345333Y-77582065D01*
X118250094Y-77629685D01*
X118202475Y-77677304D01*
X118107237Y-77820161D01*
X118059618Y-78010637D01*
X118059618Y-78391589D01*
X118107237Y-78486827D01*
X118154856Y-78534446D01*
X118250094Y-78582065D01*
X118440571Y-78582065D01*
X118535809Y-78534446D01*
X118583428Y-78486827D01*
X118631047Y-78391589D01*
X118631047Y-78153494D01*
X118583428Y-78058256D01*
X118535809Y-78010637D01*
X118440571Y-77963018D01*
X118250094Y-77963018D01*
X118154856Y-78010637D01*
X118107237Y-78058256D01*
X118059618Y-78153494D01*
X89496685Y-109669366D02*
X90197753Y-109264604D01*
X90256422Y-109175746D01*
X90273852Y-109110697D01*
X90267472Y-109004409D01*
X90172234Y-108839451D01*
X90083376Y-108780782D01*
X90018327Y-108763353D01*
X89912039Y-108769732D01*
X89210971Y-109174494D01*
X89020494Y-108844580D02*
X88710971Y-108308469D01*
X89207552Y-108406668D01*
X89136123Y-108282950D01*
X89129743Y-108176662D01*
X89147173Y-108111613D01*
X89205842Y-108022755D01*
X89412039Y-107903707D01*
X89518327Y-107897327D01*
X89583376Y-107914757D01*
X89672234Y-107973426D01*
X89815091Y-108220862D01*
X89821471Y-108327150D01*
X89804041Y-108392199D01*
X79213117Y-128257706D02*
X78347091Y-128757706D01*
X78228043Y-128551510D01*
X78197854Y-128403982D01*
X78232714Y-128273885D01*
X78291383Y-128185026D01*
X78432531Y-128048549D01*
X78556248Y-127977120D01*
X78745015Y-127923122D01*
X78851303Y-127916742D01*
X78981401Y-127951601D01*
X79094069Y-128051510D01*
X79213117Y-128257706D01*
X77921481Y-127353860D02*
X78498831Y-127020527D01*
X77710614Y-127750533D02*
X78448251Y-127599587D01*
X78138727Y-127063476D01*
X91170704Y-115308858D02*
X90924978Y-115835628D01*
X91456419Y-115803729D02*
X90590393Y-116303729D01*
X90399917Y-115973815D01*
X90393537Y-115867527D01*
X90410967Y-115802478D01*
X90469636Y-115713620D01*
X90593354Y-115642191D01*
X90699642Y-115635811D01*
X90764691Y-115653241D01*
X90853550Y-115711910D01*
X91044026Y-116041825D01*
X90694514Y-114484072D02*
X90980228Y-114978943D01*
X90837371Y-114731507D02*
X89971346Y-115231507D01*
X90142683Y-115242557D01*
X90272780Y-115277417D01*
X90361639Y-115336086D01*
X90218324Y-113659285D02*
X90504038Y-114154157D01*
X90361181Y-113906721D02*
X89495155Y-114406721D01*
X89666492Y-114417771D01*
X89796590Y-114452631D01*
X89885448Y-114511300D01*
X103145934Y-93452011D02*
X103098315Y-93499630D01*
X102955458Y-93547249D01*
X102860220Y-93547249D01*
X102717362Y-93499630D01*
X102622124Y-93404392D01*
X102574505Y-93309154D01*
X102526886Y-93118678D01*
X102526886Y-92975821D01*
X102574505Y-92785345D01*
X102622124Y-92690107D01*
X102717362Y-92594869D01*
X102860220Y-92547249D01*
X102955458Y-92547249D01*
X103098315Y-92594869D01*
X103145934Y-92642488D01*
X103622124Y-93547249D02*
X103812601Y-93547249D01*
X103907839Y-93499630D01*
X103955458Y-93452011D01*
X104050696Y-93309154D01*
X104098315Y-93118678D01*
X104098315Y-92737726D01*
X104050696Y-92642488D01*
X104003077Y-92594869D01*
X103907839Y-92547249D01*
X103717362Y-92547249D01*
X103622124Y-92594869D01*
X103574505Y-92642488D01*
X103526886Y-92737726D01*
X103526886Y-92975821D01*
X103574505Y-93071059D01*
X103622124Y-93118678D01*
X103717362Y-93166297D01*
X103907839Y-93166297D01*
X104003077Y-93118678D01*
X104050696Y-93071059D01*
X104098315Y-92975821D01*
X126985935Y-121637010D02*
X126938316Y-121684629D01*
X126795459Y-121732248D01*
X126700221Y-121732248D01*
X126557363Y-121684629D01*
X126462125Y-121589391D01*
X126414506Y-121494153D01*
X126366887Y-121303677D01*
X126366887Y-121160820D01*
X126414506Y-120970344D01*
X126462125Y-120875106D01*
X126557363Y-120779868D01*
X126700221Y-120732248D01*
X126795459Y-120732248D01*
X126938316Y-120779868D01*
X126985935Y-120827487D01*
X127843078Y-121065582D02*
X127843078Y-121732248D01*
X127604982Y-120684629D02*
X127366887Y-121398915D01*
X127985935Y-121398915D01*
X84379232Y-64735066D02*
X84522089Y-64782685D01*
X84760185Y-64782685D01*
X84855423Y-64735066D01*
X84903042Y-64687447D01*
X84950661Y-64592209D01*
X84950661Y-64496971D01*
X84903042Y-64401733D01*
X84855423Y-64354114D01*
X84760185Y-64306495D01*
X84569708Y-64258876D01*
X84474470Y-64211257D01*
X84426851Y-64163638D01*
X84379232Y-64068400D01*
X84379232Y-63973162D01*
X84426851Y-63877924D01*
X84474470Y-63830305D01*
X84569708Y-63782685D01*
X84807804Y-63782685D01*
X84950661Y-63830305D01*
X85283994Y-63782685D02*
X85522089Y-64782685D01*
X85712566Y-64068400D01*
X85903042Y-64782685D01*
X86141137Y-63782685D01*
X86426851Y-63782685D02*
X87045899Y-63782685D01*
X86712566Y-64163638D01*
X86855423Y-64163638D01*
X86950661Y-64211257D01*
X86998280Y-64258876D01*
X87045899Y-64354114D01*
X87045899Y-64592209D01*
X86998280Y-64687447D01*
X86950661Y-64735066D01*
X86855423Y-64782685D01*
X86569708Y-64782685D01*
X86474470Y-64735066D01*
X86426851Y-64687447D01*
X132519230Y-117285067D02*
X132662087Y-117332686D01*
X132900183Y-117332686D01*
X132995421Y-117285067D01*
X133043040Y-117237448D01*
X133090659Y-117142210D01*
X133090659Y-117046972D01*
X133043040Y-116951734D01*
X132995421Y-116904115D01*
X132900183Y-116856496D01*
X132709706Y-116808877D01*
X132614468Y-116761258D01*
X132566849Y-116713639D01*
X132519230Y-116618401D01*
X132519230Y-116523163D01*
X132566849Y-116427925D01*
X132614468Y-116380306D01*
X132709706Y-116332686D01*
X132947802Y-116332686D01*
X133090659Y-116380306D01*
X133423992Y-116332686D02*
X133662087Y-117332686D01*
X133852564Y-116618401D01*
X134043040Y-117332686D01*
X134281135Y-116332686D01*
X135185897Y-117332686D02*
X134614468Y-117332686D01*
X134900183Y-117332686D02*
X134900183Y-116332686D01*
X134804944Y-116475544D01*
X134709706Y-116570782D01*
X134614468Y-116618401D01*
X103389722Y-103986130D02*
X103056389Y-103509940D01*
X102818294Y-103986130D02*
X102818294Y-102986130D01*
X103199246Y-102986130D01*
X103294484Y-103033750D01*
X103342103Y-103081369D01*
X103389722Y-103176607D01*
X103389722Y-103319464D01*
X103342103Y-103414702D01*
X103294484Y-103462321D01*
X103199246Y-103509940D01*
X102818294Y-103509940D01*
X104342103Y-103986130D02*
X103770675Y-103986130D01*
X104056389Y-103986130D02*
X104056389Y-102986130D01*
X103961151Y-103128988D01*
X103865913Y-103224226D01*
X103770675Y-103271845D01*
X104818294Y-103986130D02*
X105008770Y-103986130D01*
X105104008Y-103938511D01*
X105151627Y-103890892D01*
X105246865Y-103748035D01*
X105294484Y-103557559D01*
X105294484Y-103176607D01*
X105246865Y-103081369D01*
X105199246Y-103033750D01*
X105104008Y-102986130D01*
X104913532Y-102986130D01*
X104818294Y-103033750D01*
X104770675Y-103081369D01*
X104723056Y-103176607D01*
X104723056Y-103414702D01*
X104770675Y-103509940D01*
X104818294Y-103557559D01*
X104913532Y-103605178D01*
X105104008Y-103605178D01*
X105199246Y-103557559D01*
X105246865Y-103509940D01*
X105294484Y-103414702D01*
X84028987Y-105899039D02*
X83783261Y-106425809D01*
X84314702Y-106393910D02*
X83448676Y-106893910D01*
X83258200Y-106563996D01*
X83251820Y-106457708D01*
X83269250Y-106392659D01*
X83327919Y-106303801D01*
X83451637Y-106232372D01*
X83557925Y-106225992D01*
X83622974Y-106243422D01*
X83711833Y-106302091D01*
X83902309Y-106632006D01*
X83552797Y-105074253D02*
X83838511Y-105569124D01*
X83695654Y-105321688D02*
X82829629Y-105821688D01*
X83000966Y-105832738D01*
X83131063Y-105867598D01*
X83219922Y-105926267D01*
X82520105Y-105285577D02*
X82210581Y-104749466D01*
X82707162Y-104847665D01*
X82635734Y-104723947D01*
X82629354Y-104617659D01*
X82646784Y-104552611D01*
X82705453Y-104463752D01*
X82911649Y-104344705D01*
X83017937Y-104338325D01*
X83082986Y-104355755D01*
X83171845Y-104414424D01*
X83314702Y-104661859D01*
X83321081Y-104768148D01*
X83303652Y-104833196D01*
X112749746Y-96852251D02*
X112416413Y-96376061D01*
X112178318Y-96852251D02*
X112178318Y-95852251D01*
X112559270Y-95852251D01*
X112654508Y-95899871D01*
X112702127Y-95947490D01*
X112749746Y-96042728D01*
X112749746Y-96185585D01*
X112702127Y-96280823D01*
X112654508Y-96328442D01*
X112559270Y-96376061D01*
X112178318Y-96376061D01*
X113702127Y-96852251D02*
X113130699Y-96852251D01*
X113416413Y-96852251D02*
X113416413Y-95852251D01*
X113321175Y-95995109D01*
X113225937Y-96090347D01*
X113130699Y-96137966D01*
X114606889Y-95852251D02*
X114130699Y-95852251D01*
X114083080Y-96328442D01*
X114130699Y-96280823D01*
X114225937Y-96233204D01*
X114464032Y-96233204D01*
X114559270Y-96280823D01*
X114606889Y-96328442D01*
X114654508Y-96423680D01*
X114654508Y-96661775D01*
X114606889Y-96757013D01*
X114559270Y-96804632D01*
X114464032Y-96852251D01*
X114225937Y-96852251D01*
X114130699Y-96804632D01*
X114083080Y-96757013D01*
X93575895Y-72212686D02*
X93242562Y-71736496D01*
X93004466Y-72212686D02*
X93004466Y-71212686D01*
X93385419Y-71212686D01*
X93480657Y-71260306D01*
X93528276Y-71307925D01*
X93575895Y-71403163D01*
X93575895Y-71546020D01*
X93528276Y-71641258D01*
X93480657Y-71688877D01*
X93385419Y-71736496D01*
X93004466Y-71736496D01*
X94480657Y-71212686D02*
X94004466Y-71212686D01*
X93956847Y-71688877D01*
X94004466Y-71641258D01*
X94099704Y-71593639D01*
X94337800Y-71593639D01*
X94433038Y-71641258D01*
X94480657Y-71688877D01*
X94528276Y-71784115D01*
X94528276Y-72022210D01*
X94480657Y-72117448D01*
X94433038Y-72165067D01*
X94337800Y-72212686D01*
X94099704Y-72212686D01*
X94004466Y-72165067D01*
X93956847Y-72117448D01*
X79245952Y-113094578D02*
X79000226Y-113621348D01*
X79531667Y-113589449D02*
X78665641Y-114089449D01*
X78475165Y-113759535D01*
X78468785Y-113653247D01*
X78486215Y-113588198D01*
X78544884Y-113499340D01*
X78668602Y-113427911D01*
X78774890Y-113421531D01*
X78839939Y-113438961D01*
X78928798Y-113497630D01*
X79119274Y-113827545D01*
X78769762Y-112269792D02*
X79055476Y-112764663D01*
X78912619Y-112517227D02*
X78046594Y-113017227D01*
X78217931Y-113028277D01*
X78348028Y-113063137D01*
X78436887Y-113121806D01*
X77594213Y-112233681D02*
X77546594Y-112151202D01*
X77540214Y-112044914D01*
X77557644Y-111979865D01*
X77616313Y-111891007D01*
X77757461Y-111754529D01*
X77963657Y-111635482D01*
X78152424Y-111581483D01*
X78258712Y-111575103D01*
X78323761Y-111592533D01*
X78412619Y-111651202D01*
X78460238Y-111733681D01*
X78466618Y-111839969D01*
X78449188Y-111905018D01*
X78390519Y-111993876D01*
X78249371Y-112130353D01*
X78043175Y-112249401D01*
X77854408Y-112303400D01*
X77748120Y-112309779D01*
X77683071Y-112292350D01*
X77594213Y-112233681D01*
X80801969Y-115989678D02*
X79935943Y-116489678D01*
X79816895Y-116283482D01*
X79786706Y-116135954D01*
X79821566Y-116005857D01*
X79880235Y-115916998D01*
X80021383Y-115780521D01*
X80145100Y-115709092D01*
X80333867Y-115655094D01*
X80440155Y-115648714D01*
X80570253Y-115683573D01*
X80682921Y-115783482D01*
X80801969Y-115989678D01*
X79483562Y-115706131D02*
X79174038Y-115170020D01*
X79670619Y-115268219D01*
X79599191Y-115144502D01*
X79592811Y-115038213D01*
X79610241Y-114973165D01*
X79668910Y-114884306D01*
X79875107Y-114765259D01*
X79981395Y-114758879D01*
X80046443Y-114776309D01*
X80135302Y-114834978D01*
X80278159Y-115082414D01*
X80284539Y-115188702D01*
X80267109Y-115253751D01*
X126717365Y-119117489D02*
X126622127Y-119069870D01*
X126526889Y-118974631D01*
X126384032Y-118831774D01*
X126288794Y-118784155D01*
X126193556Y-118784155D01*
X126241175Y-119022250D02*
X126145937Y-118974631D01*
X126050699Y-118879393D01*
X126003080Y-118688917D01*
X126003080Y-118355584D01*
X126050699Y-118165108D01*
X126145937Y-118069870D01*
X126241175Y-118022250D01*
X126431651Y-118022250D01*
X126526889Y-118069870D01*
X126622127Y-118165108D01*
X126669746Y-118355584D01*
X126669746Y-118688917D01*
X126622127Y-118879393D01*
X126526889Y-118974631D01*
X126431651Y-119022250D01*
X126241175Y-119022250D01*
X127622127Y-119022250D02*
X127050699Y-119022250D01*
X127336413Y-119022250D02*
X127336413Y-118022250D01*
X127241175Y-118165108D01*
X127145937Y-118260346D01*
X127050699Y-118307965D01*
X130080711Y-104945819D02*
X130033092Y-104993438D01*
X129890235Y-105041057D01*
X129794997Y-105041057D01*
X129652139Y-104993438D01*
X129556901Y-104898200D01*
X129509282Y-104802962D01*
X129461663Y-104612486D01*
X129461663Y-104469629D01*
X129509282Y-104279153D01*
X129556901Y-104183915D01*
X129652139Y-104088677D01*
X129794997Y-104041057D01*
X129890235Y-104041057D01*
X130033092Y-104088677D01*
X130080711Y-104136296D01*
X130937854Y-104041057D02*
X130747378Y-104041057D01*
X130652139Y-104088677D01*
X130604520Y-104136296D01*
X130509282Y-104279153D01*
X130461663Y-104469629D01*
X130461663Y-104850581D01*
X130509282Y-104945819D01*
X130556901Y-104993438D01*
X130652139Y-105041057D01*
X130842616Y-105041057D01*
X130937854Y-104993438D01*
X130985473Y-104945819D01*
X131033092Y-104850581D01*
X131033092Y-104612486D01*
X130985473Y-104517248D01*
X130937854Y-104469629D01*
X130842616Y-104422010D01*
X130652139Y-104422010D01*
X130556901Y-104469629D01*
X130509282Y-104517248D01*
X130461663Y-104612486D01*
X135764500Y-111824386D02*
X135431167Y-111348196D01*
X135193071Y-111824386D02*
X135193071Y-110824386D01*
X135574024Y-110824386D01*
X135669262Y-110872006D01*
X135716881Y-110919625D01*
X135764500Y-111014863D01*
X135764500Y-111157720D01*
X135716881Y-111252958D01*
X135669262Y-111300577D01*
X135574024Y-111348196D01*
X135193071Y-111348196D01*
X136621643Y-111157720D02*
X136621643Y-111824386D01*
X136383547Y-110776767D02*
X136145452Y-111491053D01*
X136764500Y-111491053D01*
X140235935Y-113447014D02*
X140188316Y-113494633D01*
X140045459Y-113542252D01*
X139950221Y-113542252D01*
X139807363Y-113494633D01*
X139712125Y-113399395D01*
X139664506Y-113304157D01*
X139616887Y-113113681D01*
X139616887Y-112970824D01*
X139664506Y-112780348D01*
X139712125Y-112685110D01*
X139807363Y-112589872D01*
X139950221Y-112542252D01*
X140045459Y-112542252D01*
X140188316Y-112589872D01*
X140235935Y-112637491D01*
X141188316Y-113542252D02*
X140616887Y-113542252D01*
X140902602Y-113542252D02*
X140902602Y-112542252D01*
X140807363Y-112685110D01*
X140712125Y-112780348D01*
X140616887Y-112827967D01*
X140983426Y-102602063D02*
X140983426Y-103411587D01*
X141031045Y-103506825D01*
X141078664Y-103554444D01*
X141173902Y-103602063D01*
X141364378Y-103602063D01*
X141459616Y-103554444D01*
X141507235Y-103506825D01*
X141554854Y-103411587D01*
X141554854Y-102602063D01*
X142554854Y-103602063D02*
X141983426Y-103602063D01*
X142269140Y-103602063D02*
X142269140Y-102602063D01*
X142173902Y-102744921D01*
X142078664Y-102840159D01*
X141983426Y-102887778D01*
X117064527Y-75527343D02*
X117064527Y-74527343D01*
X117302623Y-74527343D01*
X117445480Y-74574963D01*
X117540718Y-74670201D01*
X117588337Y-74765439D01*
X117635956Y-74955915D01*
X117635956Y-75098772D01*
X117588337Y-75289248D01*
X117540718Y-75384486D01*
X117445480Y-75479724D01*
X117302623Y-75527343D01*
X117064527Y-75527343D01*
X118016908Y-74622582D02*
X118064527Y-74574963D01*
X118159765Y-74527343D01*
X118397861Y-74527343D01*
X118493099Y-74574963D01*
X118540718Y-74622582D01*
X118588337Y-74717820D01*
X118588337Y-74813058D01*
X118540718Y-74955915D01*
X117969289Y-75527343D01*
X118588337Y-75527343D01*
X87425322Y-121032134D02*
X87490370Y-121049563D01*
X87603038Y-121149472D01*
X87650657Y-121231950D01*
X87680847Y-121379478D01*
X87645987Y-121509576D01*
X87587318Y-121598434D01*
X87446170Y-121734911D01*
X87322452Y-121806340D01*
X87133686Y-121860339D01*
X87027398Y-121866718D01*
X86897300Y-121831859D01*
X86784632Y-121731950D01*
X86737013Y-121649472D01*
X86706824Y-121501944D01*
X86724253Y-121436896D01*
X86727214Y-120775357D02*
X86733594Y-120881645D01*
X86716164Y-120946694D01*
X86657495Y-121035553D01*
X86616256Y-121059362D01*
X86509968Y-121065742D01*
X86444919Y-121048312D01*
X86356061Y-120989643D01*
X86260822Y-120824686D01*
X86254443Y-120718398D01*
X86271872Y-120653349D01*
X86330542Y-120564490D01*
X86371781Y-120540681D01*
X86478069Y-120534301D01*
X86543118Y-120551731D01*
X86631976Y-120610400D01*
X86727214Y-120775357D01*
X86816073Y-120834026D01*
X86881121Y-120851456D01*
X86987410Y-120845076D01*
X87152367Y-120749838D01*
X87211036Y-120660980D01*
X87228466Y-120595931D01*
X87222086Y-120489643D01*
X87126848Y-120324686D01*
X87037989Y-120266017D01*
X86972941Y-120248587D01*
X86866653Y-120254967D01*
X86701695Y-120350205D01*
X86643026Y-120439063D01*
X86625596Y-120504112D01*
X86631976Y-120610400D01*
X77580802Y-125630452D02*
X77335076Y-126157222D01*
X77866517Y-126125323D02*
X77000491Y-126625323D01*
X76810015Y-126295409D01*
X76803635Y-126189121D01*
X76821065Y-126124072D01*
X76879734Y-126035213D01*
X77003452Y-125963785D01*
X77109740Y-125957405D01*
X77174789Y-125974835D01*
X77263647Y-126033504D01*
X77454123Y-126363418D01*
X76800216Y-125421294D02*
X76806596Y-125527582D01*
X76789166Y-125592631D01*
X76730497Y-125681490D01*
X76689258Y-125705299D01*
X76582970Y-125711679D01*
X76517921Y-125694249D01*
X76429063Y-125635580D01*
X76333824Y-125470623D01*
X76327445Y-125364335D01*
X76344874Y-125299286D01*
X76403544Y-125210427D01*
X76444783Y-125186618D01*
X76551071Y-125180238D01*
X76616120Y-125197668D01*
X76704978Y-125256337D01*
X76800216Y-125421294D01*
X76889075Y-125479963D01*
X76954123Y-125497393D01*
X77060412Y-125491013D01*
X77225369Y-125395775D01*
X77284038Y-125306917D01*
X77301468Y-125241868D01*
X77295088Y-125135580D01*
X77199850Y-124970623D01*
X77110991Y-124911954D01*
X77045943Y-124894524D01*
X76939655Y-124900904D01*
X76774697Y-124996142D01*
X76716028Y-125085000D01*
X76698598Y-125150049D01*
X76704978Y-125256337D01*
X84329837Y-118720126D02*
X84084111Y-119246896D01*
X84615552Y-119214997D02*
X83749526Y-119714997D01*
X83559050Y-119385083D01*
X83552670Y-119278795D01*
X83570100Y-119213746D01*
X83628769Y-119124887D01*
X83752487Y-119053459D01*
X83858775Y-119047079D01*
X83923824Y-119064509D01*
X84012682Y-119123178D01*
X84203158Y-119453092D01*
X84091742Y-118307733D02*
X83996504Y-118142775D01*
X83907646Y-118084106D01*
X83842597Y-118066676D01*
X83671260Y-118055626D01*
X83482493Y-118109625D01*
X83152579Y-118300101D01*
X83093909Y-118388960D01*
X83076480Y-118454009D01*
X83082859Y-118560297D01*
X83178098Y-118725254D01*
X83266956Y-118783923D01*
X83332005Y-118801353D01*
X83438293Y-118794973D01*
X83644489Y-118675925D01*
X83703158Y-118587067D01*
X83720588Y-118522018D01*
X83714209Y-118415730D01*
X83618970Y-118250773D01*
X83530112Y-118192104D01*
X83465063Y-118174674D01*
X83358775Y-118181054D01*
X124615935Y-118722251D02*
X124282602Y-118246061D01*
X124044506Y-118722251D02*
X124044506Y-117722251D01*
X124425459Y-117722251D01*
X124520697Y-117769871D01*
X124568316Y-117817490D01*
X124615935Y-117912728D01*
X124615935Y-118055585D01*
X124568316Y-118150823D01*
X124520697Y-118198442D01*
X124425459Y-118246061D01*
X124044506Y-118246061D01*
X125568316Y-118722251D02*
X124996887Y-118722251D01*
X125282602Y-118722251D02*
X125282602Y-117722251D01*
X125187363Y-117865109D01*
X125092125Y-117960347D01*
X124996887Y-118007966D01*
X86890173Y-104154758D02*
X86644447Y-104681528D01*
X87175888Y-104649629D02*
X86309862Y-105149629D01*
X86119386Y-104819715D01*
X86113006Y-104713427D01*
X86130436Y-104648378D01*
X86189105Y-104559520D01*
X86312823Y-104488091D01*
X86419111Y-104481711D01*
X86484160Y-104499141D01*
X86573019Y-104557810D01*
X86763495Y-104887725D01*
X86413983Y-103329972D02*
X86699697Y-103824843D01*
X86556840Y-103577407D02*
X85690815Y-104077407D01*
X85862152Y-104088457D01*
X85992249Y-104123317D01*
X86081108Y-104181986D01*
X85408061Y-102920997D02*
X85985412Y-102587664D01*
X85197194Y-103317670D02*
X85934832Y-103166724D01*
X85625308Y-102630613D01*
X120849228Y-101513429D02*
X120849228Y-102227715D01*
X120801609Y-102370572D01*
X120706371Y-102465810D01*
X120563514Y-102513429D01*
X120468276Y-102513429D01*
X121230181Y-101513429D02*
X121849228Y-101513429D01*
X121515895Y-101894382D01*
X121658752Y-101894382D01*
X121753990Y-101942001D01*
X121801609Y-101989620D01*
X121849228Y-102084858D01*
X121849228Y-102322953D01*
X121801609Y-102418191D01*
X121753990Y-102465810D01*
X121658752Y-102513429D01*
X121373038Y-102513429D01*
X121277800Y-102465810D01*
X121230181Y-102418191D01*
X116590718Y-58427341D02*
X116590718Y-59236865D01*
X116638337Y-59332103D01*
X116685956Y-59379722D01*
X116781194Y-59427341D01*
X116971670Y-59427341D01*
X117066908Y-59379722D01*
X117114527Y-59332103D01*
X117162146Y-59236865D01*
X117162146Y-58427341D01*
X117590718Y-58522580D02*
X117638337Y-58474961D01*
X117733575Y-58427341D01*
X117971670Y-58427341D01*
X118066908Y-58474961D01*
X118114527Y-58522580D01*
X118162146Y-58617818D01*
X118162146Y-58713056D01*
X118114527Y-58855913D01*
X117543099Y-59427341D01*
X118162146Y-59427341D01*
X126845935Y-127647014D02*
X126798316Y-127694633D01*
X126655459Y-127742252D01*
X126560221Y-127742252D01*
X126417363Y-127694633D01*
X126322125Y-127599395D01*
X126274506Y-127504157D01*
X126226887Y-127313681D01*
X126226887Y-127170824D01*
X126274506Y-126980348D01*
X126322125Y-126885110D01*
X126417363Y-126789872D01*
X126560221Y-126742252D01*
X126655459Y-126742252D01*
X126798316Y-126789872D01*
X126845935Y-126837491D01*
X127750697Y-126742252D02*
X127274506Y-126742252D01*
X127226887Y-127218443D01*
X127274506Y-127170824D01*
X127369744Y-127123205D01*
X127607840Y-127123205D01*
X127703078Y-127170824D01*
X127750697Y-127218443D01*
X127798316Y-127313681D01*
X127798316Y-127551776D01*
X127750697Y-127647014D01*
X127703078Y-127694633D01*
X127607840Y-127742252D01*
X127369744Y-127742252D01*
X127274506Y-127694633D01*
X127226887Y-127647014D01*
X129627891Y-111692545D02*
X129580272Y-111740164D01*
X129437415Y-111787783D01*
X129342177Y-111787783D01*
X129199319Y-111740164D01*
X129104081Y-111644926D01*
X129056462Y-111549688D01*
X129008843Y-111359212D01*
X129008843Y-111216355D01*
X129056462Y-111025879D01*
X129104081Y-110930641D01*
X129199319Y-110835403D01*
X129342177Y-110787783D01*
X129437415Y-110787783D01*
X129580272Y-110835403D01*
X129627891Y-110883022D01*
X130008843Y-110883022D02*
X130056462Y-110835403D01*
X130151700Y-110787783D01*
X130389796Y-110787783D01*
X130485034Y-110835403D01*
X130532653Y-110883022D01*
X130580272Y-110978260D01*
X130580272Y-111073498D01*
X130532653Y-111216355D01*
X129961224Y-111787783D01*
X130580272Y-111787783D01*
X91009232Y-101741945D02*
X91009232Y-102456231D01*
X90961613Y-102599088D01*
X90866375Y-102694326D01*
X90723518Y-102741945D01*
X90628280Y-102741945D01*
X91961613Y-101741945D02*
X91485423Y-101741945D01*
X91437804Y-102218136D01*
X91485423Y-102170517D01*
X91580661Y-102122898D01*
X91818756Y-102122898D01*
X91913994Y-102170517D01*
X91961613Y-102218136D01*
X92009232Y-102313374D01*
X92009232Y-102551469D01*
X91961613Y-102646707D01*
X91913994Y-102694326D01*
X91818756Y-102741945D01*
X91580661Y-102741945D01*
X91485423Y-102694326D01*
X91437804Y-102646707D01*
X109019726Y-103936130D02*
X108686393Y-103459940D01*
X108448298Y-103936130D02*
X108448298Y-102936130D01*
X108829250Y-102936130D01*
X108924488Y-102983750D01*
X108972107Y-103031369D01*
X109019726Y-103126607D01*
X109019726Y-103269464D01*
X108972107Y-103364702D01*
X108924488Y-103412321D01*
X108829250Y-103459940D01*
X108448298Y-103459940D01*
X109972107Y-103936130D02*
X109400679Y-103936130D01*
X109686393Y-103936130D02*
X109686393Y-102936130D01*
X109591155Y-103078988D01*
X109495917Y-103174226D01*
X109400679Y-103221845D01*
X110305441Y-102936130D02*
X110972107Y-102936130D01*
X110543536Y-103936130D01*
X90014737Y-119537133D02*
X90079785Y-119554562D01*
X90192453Y-119654471D01*
X90240072Y-119736949D01*
X90270262Y-119884477D01*
X90235402Y-120014575D01*
X90176733Y-120103433D01*
X90035585Y-120239910D01*
X89911867Y-120311339D01*
X89723101Y-120365338D01*
X89616813Y-120371717D01*
X89486715Y-120336858D01*
X89374047Y-120236949D01*
X89326428Y-120154471D01*
X89296239Y-120006943D01*
X89313668Y-119941895D01*
X89064523Y-119700838D02*
X88731190Y-119123488D01*
X89811501Y-118994642D01*
X108599747Y-93317010D02*
X108552128Y-93364629D01*
X108409271Y-93412248D01*
X108314033Y-93412248D01*
X108171176Y-93364629D01*
X108075938Y-93269391D01*
X108028319Y-93174153D01*
X107980700Y-92983677D01*
X107980700Y-92840820D01*
X108028319Y-92650344D01*
X108075938Y-92555106D01*
X108171176Y-92459868D01*
X108314033Y-92412248D01*
X108409271Y-92412248D01*
X108552128Y-92459868D01*
X108599747Y-92507487D01*
X109552128Y-93412248D02*
X108980700Y-93412248D01*
X109266414Y-93412248D02*
X109266414Y-92412248D01*
X109171176Y-92555106D01*
X109075938Y-92650344D01*
X108980700Y-92697963D01*
X110171176Y-92412248D02*
X110266414Y-92412248D01*
X110361652Y-92459868D01*
X110409271Y-92507487D01*
X110456890Y-92602725D01*
X110504509Y-92793201D01*
X110504509Y-93031296D01*
X110456890Y-93221772D01*
X110409271Y-93317010D01*
X110361652Y-93364629D01*
X110266414Y-93412248D01*
X110171176Y-93412248D01*
X110075938Y-93364629D01*
X110028319Y-93317010D01*
X109980700Y-93221772D01*
X109933081Y-93031296D01*
X109933081Y-92793201D01*
X109980700Y-92602725D01*
X110028319Y-92507487D01*
X110075938Y-92459868D01*
X110171176Y-92412248D01*
X110159744Y-99392249D02*
X109826411Y-98916059D01*
X109588316Y-99392249D02*
X109588316Y-98392249D01*
X109969268Y-98392249D01*
X110064506Y-98439869D01*
X110112125Y-98487488D01*
X110159744Y-98582726D01*
X110159744Y-98725583D01*
X110112125Y-98820821D01*
X110064506Y-98868440D01*
X109969268Y-98916059D01*
X109588316Y-98916059D01*
X111112125Y-99392249D02*
X110540697Y-99392249D01*
X110826411Y-99392249D02*
X110826411Y-98392249D01*
X110731173Y-98535107D01*
X110635935Y-98630345D01*
X110540697Y-98677964D01*
X111683554Y-98820821D02*
X111588316Y-98773202D01*
X111540697Y-98725583D01*
X111493078Y-98630345D01*
X111493078Y-98582726D01*
X111540697Y-98487488D01*
X111588316Y-98439869D01*
X111683554Y-98392249D01*
X111874030Y-98392249D01*
X111969268Y-98439869D01*
X112016887Y-98487488D01*
X112064506Y-98582726D01*
X112064506Y-98630345D01*
X112016887Y-98725583D01*
X111969268Y-98773202D01*
X111874030Y-98820821D01*
X111683554Y-98820821D01*
X111588316Y-98868440D01*
X111540697Y-98916059D01*
X111493078Y-99011297D01*
X111493078Y-99201773D01*
X111540697Y-99297011D01*
X111588316Y-99344630D01*
X111683554Y-99392249D01*
X111874030Y-99392249D01*
X111969268Y-99344630D01*
X112016887Y-99297011D01*
X112064506Y-99201773D01*
X112064506Y-99011297D01*
X112016887Y-98916059D01*
X111969268Y-98868440D01*
X111874030Y-98820821D01*
X130088432Y-109362249D02*
X129755099Y-108886059D01*
X129517003Y-109362249D02*
X129517003Y-108362249D01*
X129897956Y-108362249D01*
X129993194Y-108409869D01*
X130040813Y-108457488D01*
X130088432Y-108552726D01*
X130088432Y-108695583D01*
X130040813Y-108790821D01*
X129993194Y-108838440D01*
X129897956Y-108886059D01*
X129517003Y-108886059D01*
X130421765Y-108362249D02*
X131040813Y-108362249D01*
X130707479Y-108743202D01*
X130850337Y-108743202D01*
X130945575Y-108790821D01*
X130993194Y-108838440D01*
X131040813Y-108933678D01*
X131040813Y-109171773D01*
X130993194Y-109267011D01*
X130945575Y-109314630D01*
X130850337Y-109362249D01*
X130564622Y-109362249D01*
X130469384Y-109314630D01*
X130421765Y-109267011D01*
X132669229Y-123205069D02*
X132812086Y-123252688D01*
X133050182Y-123252688D01*
X133145420Y-123205069D01*
X133193039Y-123157450D01*
X133240658Y-123062212D01*
X133240658Y-122966974D01*
X133193039Y-122871736D01*
X133145420Y-122824117D01*
X133050182Y-122776498D01*
X132859705Y-122728879D01*
X132764467Y-122681260D01*
X132716848Y-122633641D01*
X132669229Y-122538403D01*
X132669229Y-122443165D01*
X132716848Y-122347927D01*
X132764467Y-122300308D01*
X132859705Y-122252688D01*
X133097801Y-122252688D01*
X133240658Y-122300308D01*
X133573991Y-122252688D02*
X133812086Y-123252688D01*
X134002563Y-122538403D01*
X134193039Y-123252688D01*
X134431134Y-122252688D01*
X134764467Y-122347927D02*
X134812086Y-122300308D01*
X134907324Y-122252688D01*
X135145420Y-122252688D01*
X135240658Y-122300308D01*
X135288277Y-122347927D01*
X135335896Y-122443165D01*
X135335896Y-122538403D01*
X135288277Y-122681260D01*
X134716848Y-123252688D01*
X135335896Y-123252688D01*
X100310678Y-99441126D02*
X100310678Y-100250650D01*
X100358297Y-100345888D01*
X100405916Y-100393507D01*
X100501154Y-100441126D01*
X100691630Y-100441126D01*
X100786868Y-100393507D01*
X100834487Y-100345888D01*
X100882106Y-100250650D01*
X100882106Y-99441126D01*
X101786868Y-99774460D02*
X101786868Y-100441126D01*
X101548773Y-99393507D02*
X101310678Y-100107793D01*
X101929725Y-100107793D01*
X132627893Y-111692542D02*
X132580274Y-111740161D01*
X132437417Y-111787780D01*
X132342179Y-111787780D01*
X132199321Y-111740161D01*
X132104083Y-111644923D01*
X132056464Y-111549685D01*
X132008845Y-111359209D01*
X132008845Y-111216352D01*
X132056464Y-111025876D01*
X132104083Y-110930638D01*
X132199321Y-110835400D01*
X132342179Y-110787780D01*
X132437417Y-110787780D01*
X132580274Y-110835400D01*
X132627893Y-110883019D01*
X132961226Y-110787780D02*
X133580274Y-110787780D01*
X133246940Y-111168733D01*
X133389798Y-111168733D01*
X133485036Y-111216352D01*
X133532655Y-111263971D01*
X133580274Y-111359209D01*
X133580274Y-111597304D01*
X133532655Y-111692542D01*
X133485036Y-111740161D01*
X133389798Y-111787780D01*
X133104083Y-111787780D01*
X133008845Y-111740161D01*
X132961226Y-111692542D01*
X142639232Y-114712688D02*
X142639232Y-115426974D01*
X142591613Y-115569831D01*
X142496375Y-115665069D01*
X142353518Y-115712688D01*
X142258280Y-115712688D01*
X143639232Y-115712688D02*
X143067804Y-115712688D01*
X143353518Y-115712688D02*
X143353518Y-114712688D01*
X143258280Y-114855546D01*
X143163042Y-114950784D01*
X143067804Y-114998403D01*
X70390927Y-113577230D02*
X71009517Y-113220087D01*
X71157044Y-113189898D01*
X71287142Y-113224758D01*
X71399810Y-113324666D01*
X71447429Y-113407145D01*
X70259120Y-113158457D02*
X70194071Y-113141028D01*
X70105213Y-113082358D01*
X69986165Y-112876162D01*
X69979786Y-112769874D01*
X69997215Y-112704825D01*
X70055884Y-112615967D01*
X70138363Y-112568348D01*
X70285890Y-112538158D01*
X71066476Y-112747316D01*
X70756953Y-112211205D01*
X100609725Y-103961130D02*
X100276392Y-103484940D01*
X100038297Y-103961130D02*
X100038297Y-102961130D01*
X100419249Y-102961130D01*
X100514487Y-103008750D01*
X100562106Y-103056369D01*
X100609725Y-103151607D01*
X100609725Y-103294464D01*
X100562106Y-103389702D01*
X100514487Y-103437321D01*
X100419249Y-103484940D01*
X100038297Y-103484940D01*
X100990678Y-103056369D02*
X101038297Y-103008750D01*
X101133535Y-102961130D01*
X101371630Y-102961130D01*
X101466868Y-103008750D01*
X101514487Y-103056369D01*
X101562106Y-103151607D01*
X101562106Y-103246845D01*
X101514487Y-103389702D01*
X100943059Y-103961130D01*
X101562106Y-103961130D01*
X102181154Y-102961130D02*
X102276392Y-102961130D01*
X102371630Y-103008750D01*
X102419249Y-103056369D01*
X102466868Y-103151607D01*
X102514487Y-103342083D01*
X102514487Y-103580178D01*
X102466868Y-103770654D01*
X102419249Y-103865892D01*
X102371630Y-103913511D01*
X102276392Y-103961130D01*
X102181154Y-103961130D01*
X102085916Y-103913511D01*
X102038297Y-103865892D01*
X101990678Y-103770654D01*
X101943059Y-103580178D01*
X101943059Y-103342083D01*
X101990678Y-103151607D01*
X102038297Y-103056369D01*
X102085916Y-103008750D01*
X102181154Y-102961130D01*
X93851188Y-113651583D02*
X93605462Y-114178353D01*
X94136903Y-114146454D02*
X93270877Y-114646454D01*
X93080401Y-114316540D01*
X93074021Y-114210252D01*
X93091451Y-114145203D01*
X93150120Y-114056345D01*
X93273838Y-113984916D01*
X93380126Y-113978536D01*
X93445175Y-113995966D01*
X93534034Y-114054635D01*
X93724510Y-114384550D01*
X93374998Y-112826797D02*
X93660712Y-113321668D01*
X93517855Y-113074232D02*
X92651830Y-113574232D01*
X92823167Y-113585282D01*
X92953264Y-113620142D01*
X93042123Y-113678811D01*
X92400975Y-112949263D02*
X92335926Y-112931833D01*
X92247068Y-112873164D01*
X92128020Y-112666968D01*
X92121640Y-112560680D01*
X92139070Y-112495631D01*
X92197739Y-112406772D01*
X92280218Y-112359153D01*
X92427745Y-112328964D01*
X93208331Y-112538121D01*
X92898808Y-112002010D01*
D13*
X98072565Y-109100309D02*
X98072565Y-111760309D01*
X112102565Y-109100309D02*
X113432565Y-109100309D01*
X110832565Y-111760309D02*
X98072565Y-111760309D01*
X110832565Y-109100309D02*
X110832565Y-111760309D01*
X113432565Y-109100309D02*
X113432565Y-110430309D01*
X110832565Y-109100309D02*
X98072565Y-109100309D01*
X129772605Y-122979870D02*
X130422605Y-122979870D01*
X129772605Y-122979870D02*
X128097605Y-122979870D01*
X129772605Y-126099870D02*
X129122605Y-126099870D01*
X129772605Y-126099870D02*
X130422605Y-126099870D01*
X82706545Y-122348747D02*
X82295603Y-122586005D01*
X83229045Y-123253743D02*
X82818103Y-123491001D01*
X132285101Y-107484870D02*
X134570101Y-107484870D01*
X134570101Y-106014870D02*
X132285101Y-106014870D01*
X134570101Y-107484870D02*
X134570101Y-106014870D01*
X106755103Y-95447129D02*
X106755103Y-94972613D01*
X105710103Y-95447129D02*
X105710103Y-94972613D01*
X107382581Y-105578169D02*
X107382581Y-105859329D01*
X106362581Y-105578169D02*
X106362581Y-105859329D01*
X121270104Y-120222612D02*
X121270104Y-120697128D01*
X122315104Y-120222612D02*
X122315104Y-120697128D01*
X117608075Y-79037185D02*
X118082591Y-79037185D01*
X117608075Y-80082185D02*
X118082591Y-80082185D01*
X87057908Y-107230043D02*
X87420408Y-107857911D01*
X85775124Y-113998195D02*
X85147256Y-114360695D01*
X86430040Y-107592543D02*
X87057908Y-107230043D01*
X83165124Y-109477543D02*
X82537256Y-109840043D01*
X89667908Y-111750695D02*
X89305408Y-111122827D01*
X89040040Y-112113195D02*
X89667908Y-111750695D01*
X85147256Y-114360695D02*
X84784756Y-113732827D01*
X76800758Y-127984140D02*
X74821890Y-129126640D01*
X74821890Y-129126640D02*
X75556890Y-130399698D01*
X75556890Y-130399698D02*
X77535758Y-129257198D01*
X88824596Y-116195039D02*
X88587338Y-115784097D01*
X89729592Y-115672539D02*
X89492334Y-115261597D01*
X102802601Y-95360449D02*
X102802601Y-95079289D01*
X103822601Y-95360449D02*
X103822601Y-95079289D01*
X129973182Y-121809868D02*
X129692022Y-121809868D01*
X129973182Y-120789868D02*
X129692022Y-120789868D01*
X94572566Y-67290305D02*
X94542566Y-67290305D01*
X88112566Y-67290305D02*
X88112566Y-60830305D01*
X94572566Y-67290305D02*
X94572566Y-60830305D01*
X90042566Y-60830305D02*
X92642566Y-60830305D01*
X88142566Y-67290305D02*
X88112566Y-67290305D01*
X94572566Y-60830305D02*
X94542566Y-60830305D01*
X88112566Y-60830305D02*
X88142566Y-60830305D01*
X90042566Y-67290305D02*
X92642566Y-67290305D01*
X137455335Y-119489687D02*
X137455335Y-119389687D01*
X133055335Y-120989687D02*
X137455335Y-120989687D01*
X137455335Y-117889687D02*
X133055335Y-117889687D01*
X133055335Y-119489687D02*
X133055335Y-119389687D01*
X104455080Y-105471492D02*
X104455080Y-105946008D01*
X103410080Y-105471492D02*
X103410080Y-105946008D01*
X81662879Y-106750579D02*
X81425621Y-106339637D01*
X82567875Y-106228079D02*
X82330617Y-105817137D01*
X113915104Y-98262613D02*
X113915104Y-98737129D01*
X112870104Y-98262613D02*
X112870104Y-98737129D01*
X92835304Y-69637806D02*
X93309820Y-69637806D01*
X92835304Y-70682806D02*
X93309820Y-70682806D01*
X80995350Y-112014869D02*
X80584408Y-112252127D01*
X80472850Y-111109873D02*
X80061908Y-111347131D01*
X82354012Y-116042660D02*
X83479846Y-115392660D01*
X81919846Y-112690660D02*
X80187795Y-113690660D01*
X129862604Y-120129870D02*
X130512604Y-120129870D01*
X129862604Y-117009870D02*
X128187604Y-117009870D01*
X129862604Y-117009870D02*
X130512604Y-117009870D01*
X129862604Y-120129870D02*
X129212604Y-120129870D01*
X132894525Y-105009868D02*
X133175685Y-105009868D01*
X132894525Y-103989868D02*
X133175685Y-103989868D01*
X135332834Y-114077917D02*
X135332834Y-113603401D01*
X136377834Y-114077917D02*
X136377834Y-113603401D01*
X140262022Y-114009872D02*
X140543182Y-114009872D01*
X140262022Y-115029872D02*
X140543182Y-115029872D01*
X138045331Y-104039683D02*
X144055331Y-104039683D01*
X140295331Y-110859683D02*
X144055331Y-110859683D01*
X144055331Y-104039683D02*
X144055331Y-105299683D01*
X144055331Y-110859683D02*
X144055331Y-109599683D01*
X117045333Y-77294686D02*
X119330333Y-77294686D01*
X119330333Y-77294686D02*
X119330333Y-75824686D01*
X119330333Y-75824686D02*
X117045333Y-75824686D01*
X87899727Y-120728114D02*
X87759147Y-120484622D01*
X88783073Y-120218114D02*
X88642493Y-119974622D01*
X75205238Y-127355131D02*
X75616180Y-127117873D01*
X74682738Y-126450135D02*
X75093680Y-126212877D01*
X86329650Y-118034149D02*
X85918708Y-118271407D01*
X85807150Y-117129153D02*
X85396208Y-117366411D01*
X125275102Y-120697129D02*
X125275102Y-120222613D01*
X124230102Y-120697129D02*
X124230102Y-120222613D01*
X84598706Y-105055580D02*
X84361448Y-104644638D01*
X85503702Y-104533080D02*
X85266444Y-104122138D01*
X112710748Y-90315901D02*
X119090748Y-101366385D01*
X115014376Y-88985901D02*
X121394376Y-100036385D01*
X112075748Y-89216049D02*
X111410748Y-88064235D01*
X112710748Y-90315901D02*
X115014376Y-88985901D01*
X111410748Y-88064235D02*
X112562562Y-87399235D01*
X119090748Y-101366385D02*
X121394376Y-100036385D01*
D14*
X114855329Y-51349685D02*
X96855329Y-51349685D01*
X114855329Y-57899685D02*
X114855329Y-51349685D01*
X96855329Y-51349685D02*
X96855329Y-57899685D01*
X96855329Y-82749685D02*
X114855329Y-82749685D01*
D15*
X95795329Y-58159685D02*
G75*
G03*
X95795329Y-58159685I-100000J0D01*
G01*
D13*
X129592022Y-126729872D02*
X129873182Y-126729872D01*
X129592022Y-127749872D02*
X129873182Y-127749872D01*
X130365328Y-113700079D02*
X130365328Y-113981239D01*
X129345328Y-113700079D02*
X129345328Y-113981239D01*
X101214379Y-88384229D02*
X98910751Y-87054229D01*
X92530751Y-98104713D02*
X98910751Y-87054229D01*
X94199379Y-100534565D02*
X93534379Y-101686379D01*
X93534379Y-101686379D02*
X92382565Y-101021379D01*
X94834379Y-99434713D02*
X101214379Y-88384229D01*
X94834379Y-99434713D02*
X92530751Y-98104713D01*
X109050084Y-105501492D02*
X109050084Y-105976008D01*
X110095084Y-105501492D02*
X110095084Y-105976008D01*
X90549764Y-119198113D02*
X90409184Y-118954621D01*
X91433110Y-118688113D02*
X91292530Y-118444621D01*
X109752605Y-95300448D02*
X109752605Y-95019288D01*
X108732605Y-95300448D02*
X108732605Y-95019288D01*
X110280102Y-101277127D02*
X110280102Y-100802611D01*
X111325102Y-101277127D02*
X111325102Y-100802611D01*
X132867841Y-108387369D02*
X133342357Y-108387369D01*
X132867841Y-109432369D02*
X133342357Y-109432369D01*
X137455331Y-123780660D02*
X133055331Y-123780660D01*
X133055331Y-125380660D02*
X133055331Y-125280660D01*
X137455331Y-125380660D02*
X137455331Y-125280660D01*
X133055331Y-126880660D02*
X137455331Y-126880660D01*
X108565331Y-102059683D02*
X108305331Y-102059683D01*
X103145331Y-102059683D02*
X103405331Y-102059683D01*
X108565331Y-98039683D02*
X108305331Y-98039683D01*
X103145331Y-98039683D02*
X103405331Y-98039683D01*
X108565331Y-98039683D02*
X108565331Y-98299683D01*
X108565331Y-102059683D02*
X108565331Y-101799683D01*
X103145331Y-102059683D02*
X103145331Y-101799683D01*
X132345330Y-113700076D02*
X132345330Y-113981236D01*
X133365330Y-113700076D02*
X133365330Y-113981236D01*
X142842148Y-120014836D02*
X144142148Y-117763170D01*
X142842148Y-120014836D02*
X140538520Y-118684836D01*
X144142148Y-117763170D02*
X141838520Y-116433170D01*
X140538520Y-118684836D02*
X141838520Y-116433170D01*
X140390334Y-121601502D02*
X139238520Y-120936502D01*
X139238520Y-120936502D02*
X139903520Y-119784688D01*
X76255681Y-112251065D02*
X77005681Y-113550103D01*
X80255681Y-119179269D02*
X81005681Y-120478307D01*
X81005681Y-120478307D02*
X74718337Y-124108307D01*
X76255681Y-112251065D02*
X69968337Y-115881065D01*
X101775083Y-105471492D02*
X101775083Y-105946008D01*
X100730083Y-105471492D02*
X100730083Y-105946008D01*
X91386123Y-114231726D02*
X91623381Y-114642668D01*
X92291119Y-113709226D02*
X92528377Y-114120168D01*
M02*
