G04 #@! TF.GenerationSoftware,KiCad,Pcbnew,6.0.2+dfsg-1*
G04 #@! TF.CreationDate,2024-12-02T22:35:52+09:00*
G04 #@! TF.ProjectId,omni_wheel,6f6d6e69-5f77-4686-9565-6c2e6b696361,rev?*
G04 #@! TF.SameCoordinates,Original*
G04 #@! TF.FileFunction,Legend,Top*
G04 #@! TF.FilePolarity,Positive*
%FSLAX46Y46*%
G04 Gerber Fmt 4.6, Leading zero omitted, Abs format (unit mm)*
G04 Created by KiCad (PCBNEW 6.0.2+dfsg-1) date 2024-12-02 22:35:52*
%MOMM*%
%LPD*%
G01*
G04 APERTURE LIST*
%ADD10C,0.300000*%
%ADD11C,0.150000*%
%ADD12C,0.075000*%
%ADD13C,0.120000*%
%ADD14C,0.127000*%
%ADD15C,0.200000*%
G04 APERTURE END LIST*
D10*
X141710739Y-116667066D02*
X141139311Y-117656810D01*
X128057646Y-87199598D02*
X127557646Y-86333573D01*
X127629074Y-86457291D02*
X127655219Y-86359717D01*
X127743223Y-86226430D01*
X127928800Y-86119287D01*
X128088232Y-86109717D01*
X128221519Y-86197721D01*
X128614376Y-86878169D01*
X128221519Y-86197721D02*
X128211950Y-86038289D01*
X128299953Y-85905001D01*
X128485530Y-85797858D01*
X128644962Y-85788289D01*
X128778250Y-85876292D01*
X129171107Y-86556741D01*
X129975274Y-86092455D02*
X129815841Y-86102025D01*
X129718268Y-86075880D01*
X129584981Y-85987876D01*
X129370695Y-85616723D01*
X129361125Y-85457291D01*
X129387270Y-85359717D01*
X129475274Y-85226430D01*
X129660850Y-85119287D01*
X129820283Y-85109717D01*
X129917856Y-85135862D01*
X130051143Y-85223866D01*
X130265429Y-85595019D01*
X130274999Y-85754452D01*
X130248854Y-85852025D01*
X130160850Y-85985312D01*
X129975274Y-86092455D01*
X130279440Y-84762144D02*
X130774312Y-84476430D01*
X130215017Y-84221988D02*
X130857874Y-85335450D01*
X130991162Y-85423453D01*
X131150594Y-85413884D01*
X131274312Y-85342455D01*
X131892901Y-84985312D02*
X131733469Y-84994882D01*
X131635896Y-84968737D01*
X131502608Y-84880734D01*
X131288323Y-84509580D01*
X131278753Y-84350148D01*
X131304898Y-84252574D01*
X131392901Y-84119287D01*
X131578478Y-84012144D01*
X131737910Y-84002574D01*
X131835484Y-84028719D01*
X131968771Y-84116723D01*
X132183057Y-84487876D01*
X132192626Y-84647309D01*
X132166482Y-84744882D01*
X132078478Y-84878169D01*
X131892901Y-84985312D01*
X132882645Y-84413884D02*
X132382645Y-83547858D01*
X132525502Y-83795294D02*
X132515932Y-83635862D01*
X132542077Y-83538289D01*
X132630080Y-83405001D01*
X132753798Y-83333573D01*
X134367260Y-83556741D02*
X133624952Y-83985312D01*
X133996106Y-83771027D02*
X133246106Y-82471988D01*
X133229531Y-82728994D01*
X133177241Y-82924140D01*
X133089238Y-83057428D01*
X137623538Y-124346867D02*
X136633794Y-123775439D01*
X136842952Y-124556025D02*
X137414380Y-123566281D01*
D11*
X133574138Y-117826940D02*
X133907472Y-117826940D01*
X134050329Y-118350749D02*
X133574138Y-118350749D01*
X133574138Y-117350749D01*
X134050329Y-117350749D01*
X134478900Y-118350749D02*
X134478900Y-117350749D01*
X135050329Y-118350749D01*
X135050329Y-117350749D01*
D12*
X75705664Y-130336604D02*
X75499467Y-130455652D01*
X75675475Y-130189077D02*
X75781137Y-130705423D01*
X75386800Y-130355743D01*
X75337700Y-130604034D02*
X75007786Y-130794510D01*
X74706351Y-130748600D02*
X74956351Y-131181613D01*
X74458915Y-130891458D02*
X74787349Y-131031750D01*
X74708915Y-131324470D02*
X74813494Y-130934177D01*
D10*
X99475096Y-133466936D02*
X99475096Y-132466936D01*
X99475096Y-132609793D02*
X99546524Y-132538365D01*
X99689381Y-132466936D01*
X99903667Y-132466936D01*
X100046524Y-132538365D01*
X100117953Y-132681222D01*
X100117953Y-133466936D01*
X100117953Y-132681222D02*
X100189381Y-132538365D01*
X100332239Y-132466936D01*
X100546524Y-132466936D01*
X100689381Y-132538365D01*
X100760810Y-132681222D01*
X100760810Y-133466936D01*
X101689381Y-133466936D02*
X101546524Y-133395507D01*
X101475096Y-133324079D01*
X101403667Y-133181222D01*
X101403667Y-132752650D01*
X101475096Y-132609793D01*
X101546524Y-132538365D01*
X101689381Y-132466936D01*
X101903667Y-132466936D01*
X102046524Y-132538365D01*
X102117953Y-132609793D01*
X102189381Y-132752650D01*
X102189381Y-133181222D01*
X102117953Y-133324079D01*
X102046524Y-133395507D01*
X101903667Y-133466936D01*
X101689381Y-133466936D01*
X102617953Y-132466936D02*
X103189381Y-132466936D01*
X102832239Y-131966936D02*
X102832239Y-133252650D01*
X102903667Y-133395507D01*
X103046524Y-133466936D01*
X103189381Y-133466936D01*
X103903667Y-133466936D02*
X103760810Y-133395507D01*
X103689381Y-133324079D01*
X103617953Y-133181222D01*
X103617953Y-132752650D01*
X103689381Y-132609793D01*
X103760810Y-132538365D01*
X103903667Y-132466936D01*
X104117953Y-132466936D01*
X104260810Y-132538365D01*
X104332239Y-132609793D01*
X104403667Y-132752650D01*
X104403667Y-133181222D01*
X104332239Y-133324079D01*
X104260810Y-133395507D01*
X104117953Y-133466936D01*
X103903667Y-133466936D01*
X105046524Y-133466936D02*
X105046524Y-132466936D01*
X105046524Y-132752650D02*
X105117953Y-132609793D01*
X105189381Y-132538365D01*
X105332239Y-132466936D01*
X105475096Y-132466936D01*
X105903667Y-132109793D02*
X105975096Y-132038365D01*
X106117953Y-131966936D01*
X106475096Y-131966936D01*
X106617953Y-132038365D01*
X106689381Y-132109793D01*
X106760810Y-132252650D01*
X106760810Y-132395507D01*
X106689381Y-132609793D01*
X105832239Y-133466936D01*
X106760810Y-133466936D01*
X71929070Y-83922453D02*
X72429070Y-83056428D01*
X72357642Y-83180146D02*
X72455215Y-83154001D01*
X72614647Y-83163571D01*
X72800224Y-83270713D01*
X72888228Y-83404001D01*
X72878658Y-83563433D01*
X72485801Y-84243882D01*
X72878658Y-83563433D02*
X73011946Y-83475430D01*
X73171378Y-83484999D01*
X73356955Y-83592142D01*
X73444958Y-83725430D01*
X73435389Y-83884862D01*
X73042532Y-84565310D01*
X73846698Y-85029596D02*
X73758694Y-84896308D01*
X73732550Y-84798735D01*
X73742119Y-84639303D01*
X73956405Y-84268149D01*
X74089693Y-84180146D01*
X74187266Y-84154001D01*
X74346698Y-84163571D01*
X74532275Y-84270713D01*
X74620279Y-84404001D01*
X74646423Y-84501574D01*
X74636854Y-84661006D01*
X74422568Y-85032160D01*
X74289280Y-85120164D01*
X74191707Y-85146308D01*
X74032275Y-85136739D01*
X73846698Y-85029596D01*
X75150865Y-84627856D02*
X75645736Y-84913571D01*
X75586441Y-84301986D02*
X74943584Y-85415448D01*
X74934015Y-85574880D01*
X75022018Y-85708167D01*
X75145736Y-85779596D01*
X75764326Y-86136739D02*
X75676322Y-86003451D01*
X75650177Y-85905878D01*
X75659747Y-85746446D01*
X75874033Y-85375292D01*
X76007320Y-85287289D01*
X76104894Y-85261144D01*
X76264326Y-85270713D01*
X76449903Y-85377856D01*
X76537906Y-85511144D01*
X76564051Y-85608717D01*
X76554481Y-85768149D01*
X76340196Y-86139303D01*
X76206908Y-86227307D01*
X76109335Y-86253451D01*
X75949903Y-86243882D01*
X75764326Y-86136739D01*
X76754069Y-86708167D02*
X77254069Y-85842142D01*
X77111212Y-86089578D02*
X77244500Y-86001574D01*
X77342073Y-85975430D01*
X77501505Y-85984999D01*
X77625223Y-86056428D01*
X78184518Y-85801986D02*
X78988684Y-86266272D01*
X78269957Y-86511144D01*
X78455534Y-86618287D01*
X78543538Y-86751574D01*
X78569682Y-86849147D01*
X78560113Y-87008580D01*
X78381541Y-87317874D01*
X78248254Y-87405878D01*
X78150680Y-87432023D01*
X77991248Y-87422453D01*
X77620095Y-87208167D01*
X77532091Y-87074880D01*
X77505946Y-86977307D01*
D11*
X133562233Y-124300754D02*
X133562233Y-123300754D01*
X134228899Y-123300754D02*
X134419375Y-123300754D01*
X134514613Y-123348374D01*
X134609852Y-123443612D01*
X134657471Y-123634088D01*
X134657471Y-123967421D01*
X134609852Y-124157897D01*
X134514613Y-124253135D01*
X134419375Y-124300754D01*
X134228899Y-124300754D01*
X134133661Y-124253135D01*
X134038423Y-124157897D01*
X133990804Y-123967421D01*
X133990804Y-123634088D01*
X134038423Y-123443612D01*
X134133661Y-123348374D01*
X134228899Y-123300754D01*
X135276518Y-123300754D02*
X135371756Y-123300754D01*
X135466994Y-123348374D01*
X135514613Y-123395993D01*
X135562233Y-123491231D01*
X135609852Y-123681707D01*
X135609852Y-123919802D01*
X135562233Y-124110278D01*
X135514613Y-124205516D01*
X135466994Y-124253135D01*
X135371756Y-124300754D01*
X135276518Y-124300754D01*
X135181280Y-124253135D01*
X135133661Y-124205516D01*
X135086042Y-124110278D01*
X135038423Y-123919802D01*
X135038423Y-123681707D01*
X135086042Y-123491231D01*
X135133661Y-123395993D01*
X135181280Y-123348374D01*
X135276518Y-123300754D01*
D12*
X114263662Y-74761697D02*
X114501757Y-74761697D01*
X114216043Y-74904554D02*
X114382710Y-74404554D01*
X114549376Y-74904554D01*
X114716043Y-74714078D02*
X115096995Y-74714078D01*
X115335091Y-74904554D02*
X115335091Y-74404554D01*
X115620805Y-74904554D02*
X115406519Y-74618840D01*
X115620805Y-74404554D02*
X115335091Y-74690268D01*
X132346202Y-107811261D02*
X132584297Y-107811261D01*
X132298583Y-107954118D02*
X132465250Y-107454118D01*
X132631916Y-107954118D01*
X132798583Y-107763642D02*
X133179535Y-107763642D01*
X133417631Y-107954118D02*
X133417631Y-107454118D01*
X133703345Y-107954118D02*
X133489059Y-107668404D01*
X133703345Y-107454118D02*
X133417631Y-107739832D01*
D11*
X111268904Y-110870747D02*
X111268904Y-111585033D01*
X111221285Y-111727890D01*
X111126047Y-111823128D01*
X110983190Y-111870747D01*
X110887952Y-111870747D01*
X112173666Y-111204081D02*
X112173666Y-111870747D01*
X111935571Y-110823128D02*
X111697476Y-111537414D01*
X112316523Y-111537414D01*
X123707039Y-126195551D02*
X123611801Y-126147932D01*
X123516563Y-126052693D01*
X123373706Y-125909836D01*
X123278468Y-125862217D01*
X123183230Y-125862217D01*
X123230849Y-126100312D02*
X123135611Y-126052693D01*
X123040373Y-125957455D01*
X122992754Y-125766979D01*
X122992754Y-125433646D01*
X123040373Y-125243170D01*
X123135611Y-125147932D01*
X123230849Y-125100312D01*
X123421325Y-125100312D01*
X123516563Y-125147932D01*
X123611801Y-125243170D01*
X123659420Y-125433646D01*
X123659420Y-125766979D01*
X123611801Y-125957455D01*
X123516563Y-126052693D01*
X123421325Y-126100312D01*
X123230849Y-126100312D01*
X124040373Y-125195551D02*
X124087992Y-125147932D01*
X124183230Y-125100312D01*
X124421325Y-125100312D01*
X124516563Y-125147932D01*
X124564182Y-125195551D01*
X124611801Y-125290789D01*
X124611801Y-125386027D01*
X124564182Y-125528884D01*
X123992754Y-126100312D01*
X124611801Y-126100312D01*
X79263848Y-123084004D02*
X78737078Y-122838278D01*
X78768977Y-123369719D02*
X78268977Y-122503693D01*
X78598891Y-122313217D01*
X78705179Y-122306837D01*
X78770228Y-122324267D01*
X78859087Y-122382936D01*
X78930515Y-122506654D01*
X78936895Y-122612942D01*
X78919465Y-122677991D01*
X78860796Y-122766849D01*
X78530882Y-122957325D01*
X79052524Y-122051312D02*
X79629874Y-121717979D01*
X79758720Y-122798290D01*
X126796679Y-108180310D02*
X126796679Y-107180310D01*
X127034775Y-107180310D01*
X127177632Y-107227930D01*
X127272870Y-107323168D01*
X127320489Y-107418406D01*
X127368108Y-107608882D01*
X127368108Y-107751739D01*
X127320489Y-107942215D01*
X127272870Y-108037453D01*
X127177632Y-108132691D01*
X127034775Y-108180310D01*
X126796679Y-108180310D01*
X128320489Y-108180310D02*
X127749060Y-108180310D01*
X128034775Y-108180310D02*
X128034775Y-107180310D01*
X127939536Y-107323168D01*
X127844298Y-107418406D01*
X127749060Y-107466025D01*
X102839417Y-94420314D02*
X102506084Y-93944124D01*
X102267989Y-94420314D02*
X102267989Y-93420314D01*
X102648941Y-93420314D01*
X102744179Y-93467934D01*
X102791798Y-93515553D01*
X102839417Y-93610791D01*
X102839417Y-93753648D01*
X102791798Y-93848886D01*
X102744179Y-93896505D01*
X102648941Y-93944124D01*
X102267989Y-93944124D01*
X103791798Y-94420314D02*
X103220370Y-94420314D01*
X103506084Y-94420314D02*
X103506084Y-93420314D01*
X103410846Y-93563172D01*
X103315608Y-93658410D01*
X103220370Y-93706029D01*
X104648941Y-93420314D02*
X104458465Y-93420314D01*
X104363227Y-93467934D01*
X104315608Y-93515553D01*
X104220370Y-93658410D01*
X104172751Y-93848886D01*
X104172751Y-94229838D01*
X104220370Y-94325076D01*
X104267989Y-94372695D01*
X104363227Y-94420314D01*
X104553703Y-94420314D01*
X104648941Y-94372695D01*
X104696560Y-94325076D01*
X104744179Y-94229838D01*
X104744179Y-93991743D01*
X104696560Y-93896505D01*
X104648941Y-93848886D01*
X104553703Y-93801267D01*
X104363227Y-93801267D01*
X104267989Y-93848886D01*
X104220370Y-93896505D01*
X104172751Y-93991743D01*
X103399396Y-104863952D02*
X103351777Y-104911571D01*
X103208920Y-104959190D01*
X103113682Y-104959190D01*
X102970825Y-104911571D01*
X102875587Y-104816333D01*
X102827968Y-104721095D01*
X102780349Y-104530619D01*
X102780349Y-104387762D01*
X102827968Y-104197286D01*
X102875587Y-104102048D01*
X102970825Y-104006810D01*
X103113682Y-103959190D01*
X103208920Y-103959190D01*
X103351777Y-104006810D01*
X103399396Y-104054429D01*
X104351777Y-104959190D02*
X103780349Y-104959190D01*
X104066063Y-104959190D02*
X104066063Y-103959190D01*
X103970825Y-104102048D01*
X103875587Y-104197286D01*
X103780349Y-104244905D01*
X105304158Y-104959190D02*
X104732730Y-104959190D01*
X105018444Y-104959190D02*
X105018444Y-103959190D01*
X104923206Y-104102048D01*
X104827968Y-104197286D01*
X104732730Y-104244905D01*
X118845610Y-119690310D02*
X118512277Y-119214120D01*
X118274181Y-119690310D02*
X118274181Y-118690310D01*
X118655134Y-118690310D01*
X118750372Y-118737930D01*
X118797991Y-118785549D01*
X118845610Y-118880787D01*
X118845610Y-119023644D01*
X118797991Y-119118882D01*
X118750372Y-119166501D01*
X118655134Y-119214120D01*
X118274181Y-119214120D01*
X119226562Y-118785549D02*
X119274181Y-118737930D01*
X119369419Y-118690310D01*
X119607515Y-118690310D01*
X119702753Y-118737930D01*
X119750372Y-118785549D01*
X119797991Y-118880787D01*
X119797991Y-118976025D01*
X119750372Y-119118882D01*
X119178943Y-119690310D01*
X119797991Y-119690310D01*
X114848339Y-79570125D02*
X114515006Y-79093935D01*
X114276910Y-79570125D02*
X114276910Y-78570125D01*
X114657863Y-78570125D01*
X114753101Y-78617745D01*
X114800720Y-78665364D01*
X114848339Y-78760602D01*
X114848339Y-78903459D01*
X114800720Y-78998697D01*
X114753101Y-79046316D01*
X114657863Y-79093935D01*
X114276910Y-79093935D01*
X115705482Y-78570125D02*
X115515006Y-78570125D01*
X115419767Y-78617745D01*
X115372148Y-78665364D01*
X115276910Y-78808221D01*
X115229291Y-78998697D01*
X115229291Y-79379649D01*
X115276910Y-79474887D01*
X115324529Y-79522506D01*
X115419767Y-79570125D01*
X115610244Y-79570125D01*
X115705482Y-79522506D01*
X115753101Y-79474887D01*
X115800720Y-79379649D01*
X115800720Y-79141554D01*
X115753101Y-79046316D01*
X115705482Y-78998697D01*
X115610244Y-78951078D01*
X115419767Y-78951078D01*
X115324529Y-78998697D01*
X115276910Y-79046316D01*
X115229291Y-79141554D01*
X86666354Y-110657426D02*
X87367422Y-110252664D01*
X87426091Y-110163806D01*
X87443521Y-110098757D01*
X87437141Y-109992469D01*
X87341903Y-109827511D01*
X87253045Y-109768842D01*
X87187996Y-109751413D01*
X87081708Y-109757792D01*
X86380640Y-110162554D01*
X86190163Y-109832640D02*
X85880640Y-109296529D01*
X86377221Y-109394728D01*
X86305792Y-109271010D01*
X86299412Y-109164722D01*
X86316842Y-109099673D01*
X86375511Y-109010815D01*
X86581708Y-108891767D01*
X86687996Y-108885387D01*
X86753045Y-108902817D01*
X86841903Y-108961486D01*
X86984760Y-109208922D01*
X86991140Y-109315210D01*
X86973710Y-109380259D01*
X76382789Y-129245767D02*
X75516763Y-129745767D01*
X75397715Y-129539571D01*
X75367526Y-129392043D01*
X75402386Y-129261946D01*
X75461055Y-129173087D01*
X75602203Y-129036610D01*
X75725920Y-128965181D01*
X75914687Y-128911183D01*
X76020975Y-128904803D01*
X76151073Y-128939662D01*
X76263741Y-129039571D01*
X76382789Y-129245767D01*
X75091153Y-128341921D02*
X75668503Y-128008588D01*
X74880286Y-128738594D02*
X75617923Y-128587648D01*
X75308399Y-128051537D01*
X88340377Y-116296921D02*
X88094651Y-116823691D01*
X88626092Y-116791792D02*
X87760066Y-117291792D01*
X87569590Y-116961878D01*
X87563210Y-116855590D01*
X87580640Y-116790541D01*
X87639309Y-116701683D01*
X87763027Y-116630254D01*
X87869315Y-116623874D01*
X87934364Y-116641304D01*
X88023223Y-116699973D01*
X88213699Y-117029888D01*
X87864187Y-115472135D02*
X88149901Y-115967006D01*
X88007044Y-115719570D02*
X87141019Y-116219570D01*
X87312356Y-116230620D01*
X87442453Y-116265480D01*
X87531312Y-116324149D01*
X87387997Y-114647348D02*
X87673711Y-115142220D01*
X87530854Y-114894784D02*
X86664828Y-115394784D01*
X86836165Y-115405834D01*
X86966263Y-115440694D01*
X87055121Y-115499363D01*
X100315605Y-94440073D02*
X100267986Y-94487692D01*
X100125129Y-94535311D01*
X100029891Y-94535311D01*
X99887033Y-94487692D01*
X99791795Y-94392454D01*
X99744176Y-94297216D01*
X99696557Y-94106740D01*
X99696557Y-93963883D01*
X99744176Y-93773407D01*
X99791795Y-93678169D01*
X99887033Y-93582931D01*
X100029891Y-93535311D01*
X100125129Y-93535311D01*
X100267986Y-93582931D01*
X100315605Y-93630550D01*
X100791795Y-94535311D02*
X100982272Y-94535311D01*
X101077510Y-94487692D01*
X101125129Y-94440073D01*
X101220367Y-94297216D01*
X101267986Y-94106740D01*
X101267986Y-93725788D01*
X101220367Y-93630550D01*
X101172748Y-93582931D01*
X101077510Y-93535311D01*
X100887033Y-93535311D01*
X100791795Y-93582931D01*
X100744176Y-93630550D01*
X100696557Y-93725788D01*
X100696557Y-93963883D01*
X100744176Y-94059121D01*
X100791795Y-94106740D01*
X100887033Y-94154359D01*
X101077510Y-94154359D01*
X101172748Y-94106740D01*
X101220367Y-94059121D01*
X101267986Y-93963883D01*
X124155604Y-122625072D02*
X124107985Y-122672691D01*
X123965128Y-122720310D01*
X123869890Y-122720310D01*
X123727032Y-122672691D01*
X123631794Y-122577453D01*
X123584175Y-122482215D01*
X123536556Y-122291739D01*
X123536556Y-122148882D01*
X123584175Y-121958406D01*
X123631794Y-121863168D01*
X123727032Y-121767930D01*
X123869890Y-121720310D01*
X123965128Y-121720310D01*
X124107985Y-121767930D01*
X124155604Y-121815549D01*
X125012747Y-122053644D02*
X125012747Y-122720310D01*
X124774651Y-121672691D02*
X124536556Y-122386977D01*
X125155604Y-122386977D01*
X81548905Y-65723128D02*
X81691762Y-65770747D01*
X81929858Y-65770747D01*
X82025096Y-65723128D01*
X82072715Y-65675509D01*
X82120334Y-65580271D01*
X82120334Y-65485033D01*
X82072715Y-65389795D01*
X82025096Y-65342176D01*
X81929858Y-65294557D01*
X81739381Y-65246938D01*
X81644143Y-65199319D01*
X81596524Y-65151700D01*
X81548905Y-65056462D01*
X81548905Y-64961224D01*
X81596524Y-64865986D01*
X81644143Y-64818367D01*
X81739381Y-64770747D01*
X81977477Y-64770747D01*
X82120334Y-64818367D01*
X82453667Y-64770747D02*
X82691762Y-65770747D01*
X82882239Y-65056462D01*
X83072715Y-65770747D01*
X83310810Y-64770747D01*
X83596524Y-64770747D02*
X84215572Y-64770747D01*
X83882239Y-65151700D01*
X84025096Y-65151700D01*
X84120334Y-65199319D01*
X84167953Y-65246938D01*
X84215572Y-65342176D01*
X84215572Y-65580271D01*
X84167953Y-65675509D01*
X84120334Y-65723128D01*
X84025096Y-65770747D01*
X83739381Y-65770747D01*
X83644143Y-65723128D01*
X83596524Y-65675509D01*
X129688903Y-118273129D02*
X129831760Y-118320748D01*
X130069856Y-118320748D01*
X130165094Y-118273129D01*
X130212713Y-118225510D01*
X130260332Y-118130272D01*
X130260332Y-118035034D01*
X130212713Y-117939796D01*
X130165094Y-117892177D01*
X130069856Y-117844558D01*
X129879379Y-117796939D01*
X129784141Y-117749320D01*
X129736522Y-117701701D01*
X129688903Y-117606463D01*
X129688903Y-117511225D01*
X129736522Y-117415987D01*
X129784141Y-117368368D01*
X129879379Y-117320748D01*
X130117475Y-117320748D01*
X130260332Y-117368368D01*
X130593665Y-117320748D02*
X130831760Y-118320748D01*
X131022237Y-117606463D01*
X131212713Y-118320748D01*
X131450808Y-117320748D01*
X132355570Y-118320748D02*
X131784141Y-118320748D01*
X132069856Y-118320748D02*
X132069856Y-117320748D01*
X131974617Y-117463606D01*
X131879379Y-117558844D01*
X131784141Y-117606463D01*
X100559394Y-104974191D02*
X100226061Y-104498001D01*
X99987966Y-104974191D02*
X99987966Y-103974191D01*
X100368918Y-103974191D01*
X100464156Y-104021811D01*
X100511775Y-104069430D01*
X100559394Y-104164668D01*
X100559394Y-104307525D01*
X100511775Y-104402763D01*
X100464156Y-104450382D01*
X100368918Y-104498001D01*
X99987966Y-104498001D01*
X101511775Y-104974191D02*
X100940347Y-104974191D01*
X101226061Y-104974191D02*
X101226061Y-103974191D01*
X101130823Y-104117049D01*
X101035585Y-104212287D01*
X100940347Y-104259906D01*
X101987966Y-104974191D02*
X102178442Y-104974191D01*
X102273680Y-104926572D01*
X102321299Y-104878953D01*
X102416537Y-104736096D01*
X102464156Y-104545620D01*
X102464156Y-104164668D01*
X102416537Y-104069430D01*
X102368918Y-104021811D01*
X102273680Y-103974191D01*
X102083204Y-103974191D01*
X101987966Y-104021811D01*
X101940347Y-104069430D01*
X101892728Y-104164668D01*
X101892728Y-104402763D01*
X101940347Y-104498001D01*
X101987966Y-104545620D01*
X102083204Y-104593239D01*
X102273680Y-104593239D01*
X102368918Y-104545620D01*
X102416537Y-104498001D01*
X102464156Y-104402763D01*
X81198657Y-106887098D02*
X80952931Y-107413868D01*
X81484372Y-107381969D02*
X80618346Y-107881969D01*
X80427870Y-107552055D01*
X80421490Y-107445767D01*
X80438920Y-107380718D01*
X80497589Y-107291860D01*
X80621307Y-107220431D01*
X80727595Y-107214051D01*
X80792644Y-107231481D01*
X80881503Y-107290150D01*
X81071979Y-107620065D01*
X80722467Y-106062312D02*
X81008181Y-106557183D01*
X80865324Y-106309747D02*
X79999299Y-106809747D01*
X80170636Y-106820797D01*
X80300733Y-106855657D01*
X80389592Y-106914326D01*
X79689775Y-106273636D02*
X79380251Y-105737525D01*
X79876832Y-105835724D01*
X79805404Y-105712006D01*
X79799024Y-105605718D01*
X79816454Y-105540670D01*
X79875123Y-105451811D01*
X80081319Y-105332764D01*
X80187607Y-105326384D01*
X80252656Y-105343814D01*
X80341515Y-105402483D01*
X80484372Y-105649918D01*
X80490751Y-105756207D01*
X80473322Y-105821255D01*
X109919416Y-97840314D02*
X109586083Y-97364124D01*
X109347988Y-97840314D02*
X109347988Y-96840314D01*
X109728940Y-96840314D01*
X109824178Y-96887934D01*
X109871797Y-96935553D01*
X109919416Y-97030791D01*
X109919416Y-97173648D01*
X109871797Y-97268886D01*
X109824178Y-97316505D01*
X109728940Y-97364124D01*
X109347988Y-97364124D01*
X110871797Y-97840314D02*
X110300369Y-97840314D01*
X110586083Y-97840314D02*
X110586083Y-96840314D01*
X110490845Y-96983172D01*
X110395607Y-97078410D01*
X110300369Y-97126029D01*
X111776559Y-96840314D02*
X111300369Y-96840314D01*
X111252750Y-97316505D01*
X111300369Y-97268886D01*
X111395607Y-97221267D01*
X111633702Y-97221267D01*
X111728940Y-97268886D01*
X111776559Y-97316505D01*
X111824178Y-97411743D01*
X111824178Y-97649838D01*
X111776559Y-97745076D01*
X111728940Y-97792695D01*
X111633702Y-97840314D01*
X111395607Y-97840314D01*
X111300369Y-97792695D01*
X111252750Y-97745076D01*
X90745567Y-73200747D02*
X90412234Y-72724557D01*
X90174138Y-73200747D02*
X90174138Y-72200747D01*
X90555091Y-72200747D01*
X90650329Y-72248367D01*
X90697948Y-72295986D01*
X90745567Y-72391224D01*
X90745567Y-72534081D01*
X90697948Y-72629319D01*
X90650329Y-72676938D01*
X90555091Y-72724557D01*
X90174138Y-72724557D01*
X91650329Y-72200747D02*
X91174138Y-72200747D01*
X91126519Y-72676938D01*
X91174138Y-72629319D01*
X91269376Y-72581700D01*
X91507472Y-72581700D01*
X91602710Y-72629319D01*
X91650329Y-72676938D01*
X91697948Y-72772176D01*
X91697948Y-73010271D01*
X91650329Y-73105509D01*
X91602710Y-73153128D01*
X91507472Y-73200747D01*
X91269376Y-73200747D01*
X91174138Y-73153128D01*
X91126519Y-73105509D01*
X76415624Y-114082639D02*
X76169898Y-114609409D01*
X76701339Y-114577510D02*
X75835313Y-115077510D01*
X75644837Y-114747596D01*
X75638457Y-114641308D01*
X75655887Y-114576259D01*
X75714556Y-114487401D01*
X75838274Y-114415972D01*
X75944562Y-114409592D01*
X76009611Y-114427022D01*
X76098470Y-114485691D01*
X76288946Y-114815606D01*
X75939434Y-113257853D02*
X76225148Y-113752724D01*
X76082291Y-113505288D02*
X75216266Y-114005288D01*
X75387603Y-114016338D01*
X75517700Y-114051198D01*
X75606559Y-114109867D01*
X74763885Y-113221742D02*
X74716266Y-113139263D01*
X74709886Y-113032975D01*
X74727316Y-112967926D01*
X74785985Y-112879068D01*
X74927133Y-112742590D01*
X75133329Y-112623543D01*
X75322096Y-112569544D01*
X75428384Y-112563164D01*
X75493433Y-112580594D01*
X75582291Y-112639263D01*
X75629910Y-112721742D01*
X75636290Y-112828030D01*
X75618860Y-112893079D01*
X75560191Y-112981937D01*
X75419043Y-113118414D01*
X75212847Y-113237462D01*
X75024080Y-113291461D01*
X74917792Y-113297840D01*
X74852743Y-113280411D01*
X74763885Y-113221742D01*
X77971641Y-116977738D02*
X77105615Y-117477738D01*
X76986567Y-117271542D01*
X76956378Y-117124014D01*
X76991238Y-116993917D01*
X77049907Y-116905058D01*
X77191055Y-116768581D01*
X77314772Y-116697152D01*
X77503539Y-116643154D01*
X77609827Y-116636774D01*
X77739925Y-116671633D01*
X77852593Y-116771542D01*
X77971641Y-116977738D01*
X76653234Y-116694191D02*
X76343710Y-116158080D01*
X76840291Y-116256279D01*
X76768863Y-116132562D01*
X76762483Y-116026273D01*
X76779913Y-115961225D01*
X76838582Y-115872366D01*
X77044779Y-115753319D01*
X77151067Y-115746939D01*
X77216115Y-115764369D01*
X77304974Y-115823038D01*
X77447831Y-116070474D01*
X77454211Y-116176762D01*
X77436781Y-116241811D01*
X123887038Y-120105549D02*
X123791800Y-120057930D01*
X123696562Y-119962691D01*
X123553705Y-119819834D01*
X123458467Y-119772215D01*
X123363229Y-119772215D01*
X123410848Y-120010310D02*
X123315610Y-119962691D01*
X123220372Y-119867453D01*
X123172753Y-119676977D01*
X123172753Y-119343644D01*
X123220372Y-119153168D01*
X123315610Y-119057930D01*
X123410848Y-119010310D01*
X123601324Y-119010310D01*
X123696562Y-119057930D01*
X123791800Y-119153168D01*
X123839419Y-119343644D01*
X123839419Y-119676977D01*
X123791800Y-119867453D01*
X123696562Y-119962691D01*
X123601324Y-120010310D01*
X123410848Y-120010310D01*
X124791800Y-120010310D02*
X124220372Y-120010310D01*
X124506086Y-120010310D02*
X124506086Y-119010310D01*
X124410848Y-119153168D01*
X124315610Y-119248406D01*
X124220372Y-119296025D01*
X127250383Y-105933880D02*
X127202764Y-105981499D01*
X127059907Y-106029118D01*
X126964669Y-106029118D01*
X126821811Y-105981499D01*
X126726573Y-105886261D01*
X126678954Y-105791023D01*
X126631335Y-105600547D01*
X126631335Y-105457690D01*
X126678954Y-105267214D01*
X126726573Y-105171976D01*
X126821811Y-105076738D01*
X126964669Y-105029118D01*
X127059907Y-105029118D01*
X127202764Y-105076738D01*
X127250383Y-105124357D01*
X128107526Y-105029118D02*
X127917050Y-105029118D01*
X127821811Y-105076738D01*
X127774192Y-105124357D01*
X127678954Y-105267214D01*
X127631335Y-105457690D01*
X127631335Y-105838642D01*
X127678954Y-105933880D01*
X127726573Y-105981499D01*
X127821811Y-106029118D01*
X128012288Y-106029118D01*
X128107526Y-105981499D01*
X128155145Y-105933880D01*
X128202764Y-105838642D01*
X128202764Y-105600547D01*
X128155145Y-105505309D01*
X128107526Y-105457690D01*
X128012288Y-105410071D01*
X127821811Y-105410071D01*
X127726573Y-105457690D01*
X127678954Y-105505309D01*
X127631335Y-105600547D01*
X132934172Y-112812445D02*
X132600839Y-112336255D01*
X132362743Y-112812445D02*
X132362743Y-111812445D01*
X132743696Y-111812445D01*
X132838934Y-111860065D01*
X132886553Y-111907684D01*
X132934172Y-112002922D01*
X132934172Y-112145779D01*
X132886553Y-112241017D01*
X132838934Y-112288636D01*
X132743696Y-112336255D01*
X132362743Y-112336255D01*
X133791315Y-112145779D02*
X133791315Y-112812445D01*
X133553219Y-111764826D02*
X133315124Y-112479112D01*
X133934172Y-112479112D01*
X137405607Y-114435075D02*
X137357988Y-114482694D01*
X137215131Y-114530313D01*
X137119893Y-114530313D01*
X136977035Y-114482694D01*
X136881797Y-114387456D01*
X136834178Y-114292218D01*
X136786559Y-114101742D01*
X136786559Y-113958885D01*
X136834178Y-113768409D01*
X136881797Y-113673171D01*
X136977035Y-113577933D01*
X137119893Y-113530313D01*
X137215131Y-113530313D01*
X137357988Y-113577933D01*
X137405607Y-113625552D01*
X138357988Y-114530313D02*
X137786559Y-114530313D01*
X138072274Y-114530313D02*
X138072274Y-113530313D01*
X137977035Y-113673171D01*
X137881797Y-113768409D01*
X137786559Y-113816028D01*
X138153099Y-103590122D02*
X138153099Y-104399646D01*
X138200718Y-104494884D01*
X138248337Y-104542503D01*
X138343575Y-104590122D01*
X138534051Y-104590122D01*
X138629289Y-104542503D01*
X138676908Y-104494884D01*
X138724527Y-104399646D01*
X138724527Y-103590122D01*
X139724527Y-104590122D02*
X139153099Y-104590122D01*
X139438813Y-104590122D02*
X139438813Y-103590122D01*
X139343575Y-103732980D01*
X139248337Y-103828218D01*
X139153099Y-103875837D01*
X114234200Y-76515403D02*
X114234200Y-75515403D01*
X114472296Y-75515403D01*
X114615153Y-75563023D01*
X114710391Y-75658261D01*
X114758010Y-75753499D01*
X114805629Y-75943975D01*
X114805629Y-76086832D01*
X114758010Y-76277308D01*
X114710391Y-76372546D01*
X114615153Y-76467784D01*
X114472296Y-76515403D01*
X114234200Y-76515403D01*
X115186581Y-75610642D02*
X115234200Y-75563023D01*
X115329438Y-75515403D01*
X115567534Y-75515403D01*
X115662772Y-75563023D01*
X115710391Y-75610642D01*
X115758010Y-75705880D01*
X115758010Y-75801118D01*
X115710391Y-75943975D01*
X115138962Y-76515403D01*
X115758010Y-76515403D01*
X84594992Y-122020194D02*
X84660040Y-122037623D01*
X84772708Y-122137532D01*
X84820327Y-122220010D01*
X84850517Y-122367538D01*
X84815657Y-122497636D01*
X84756988Y-122586494D01*
X84615840Y-122722971D01*
X84492122Y-122794400D01*
X84303356Y-122848399D01*
X84197068Y-122854778D01*
X84066970Y-122819919D01*
X83954302Y-122720010D01*
X83906683Y-122637532D01*
X83876494Y-122490004D01*
X83893923Y-122424956D01*
X83896884Y-121763417D02*
X83903264Y-121869705D01*
X83885834Y-121934754D01*
X83827165Y-122023613D01*
X83785926Y-122047422D01*
X83679638Y-122053802D01*
X83614589Y-122036372D01*
X83525731Y-121977703D01*
X83430492Y-121812746D01*
X83424113Y-121706458D01*
X83441542Y-121641409D01*
X83500212Y-121552550D01*
X83541451Y-121528741D01*
X83647739Y-121522361D01*
X83712788Y-121539791D01*
X83801646Y-121598460D01*
X83896884Y-121763417D01*
X83985743Y-121822086D01*
X84050791Y-121839516D01*
X84157080Y-121833136D01*
X84322037Y-121737898D01*
X84380706Y-121649040D01*
X84398136Y-121583991D01*
X84391756Y-121477703D01*
X84296518Y-121312746D01*
X84207659Y-121254077D01*
X84142611Y-121236647D01*
X84036323Y-121243027D01*
X83871365Y-121338265D01*
X83812696Y-121427123D01*
X83795266Y-121492172D01*
X83801646Y-121598460D01*
X74750474Y-126618511D02*
X74504748Y-127145281D01*
X75036189Y-127113382D02*
X74170163Y-127613382D01*
X73979687Y-127283468D01*
X73973307Y-127177180D01*
X73990737Y-127112131D01*
X74049406Y-127023272D01*
X74173124Y-126951844D01*
X74279412Y-126945464D01*
X74344461Y-126962894D01*
X74433319Y-127021563D01*
X74623795Y-127351477D01*
X73969888Y-126409353D02*
X73976268Y-126515641D01*
X73958838Y-126580690D01*
X73900169Y-126669549D01*
X73858930Y-126693358D01*
X73752642Y-126699738D01*
X73687593Y-126682308D01*
X73598735Y-126623639D01*
X73503496Y-126458682D01*
X73497117Y-126352394D01*
X73514546Y-126287345D01*
X73573216Y-126198486D01*
X73614455Y-126174677D01*
X73720743Y-126168297D01*
X73785792Y-126185727D01*
X73874650Y-126244396D01*
X73969888Y-126409353D01*
X74058747Y-126468022D01*
X74123795Y-126485452D01*
X74230084Y-126479072D01*
X74395041Y-126383834D01*
X74453710Y-126294976D01*
X74471140Y-126229927D01*
X74464760Y-126123639D01*
X74369522Y-125958682D01*
X74280663Y-125900013D01*
X74215615Y-125882583D01*
X74109327Y-125888963D01*
X73944369Y-125984201D01*
X73885700Y-126073059D01*
X73868270Y-126138108D01*
X73874650Y-126244396D01*
X81499507Y-119708186D02*
X81253781Y-120234956D01*
X81785222Y-120203057D02*
X80919196Y-120703057D01*
X80728720Y-120373143D01*
X80722340Y-120266855D01*
X80739770Y-120201806D01*
X80798439Y-120112947D01*
X80922157Y-120041519D01*
X81028445Y-120035139D01*
X81093494Y-120052569D01*
X81182352Y-120111238D01*
X81372828Y-120441152D01*
X81261412Y-119295793D02*
X81166174Y-119130835D01*
X81077316Y-119072166D01*
X81012267Y-119054736D01*
X80840930Y-119043686D01*
X80652163Y-119097685D01*
X80322249Y-119288161D01*
X80263579Y-119377020D01*
X80246150Y-119442069D01*
X80252529Y-119548357D01*
X80347768Y-119713314D01*
X80436626Y-119771983D01*
X80501675Y-119789413D01*
X80607963Y-119783033D01*
X80814159Y-119663985D01*
X80872828Y-119575127D01*
X80890258Y-119510078D01*
X80883879Y-119403790D01*
X80788640Y-119238833D01*
X80699782Y-119180164D01*
X80634733Y-119162734D01*
X80528445Y-119169114D01*
X121785608Y-119710312D02*
X121452275Y-119234122D01*
X121214179Y-119710312D02*
X121214179Y-118710312D01*
X121595132Y-118710312D01*
X121690370Y-118757932D01*
X121737989Y-118805551D01*
X121785608Y-118900789D01*
X121785608Y-119043646D01*
X121737989Y-119138884D01*
X121690370Y-119186503D01*
X121595132Y-119234122D01*
X121214179Y-119234122D01*
X122737989Y-119710312D02*
X122166560Y-119710312D01*
X122452275Y-119710312D02*
X122452275Y-118710312D01*
X122357036Y-118853170D01*
X122261798Y-118948408D01*
X122166560Y-118996027D01*
X84059845Y-105142819D02*
X83814119Y-105669589D01*
X84345560Y-105637690D02*
X83479534Y-106137690D01*
X83289058Y-105807776D01*
X83282678Y-105701488D01*
X83300108Y-105636439D01*
X83358777Y-105547581D01*
X83482495Y-105476152D01*
X83588783Y-105469772D01*
X83653832Y-105487202D01*
X83742691Y-105545871D01*
X83933167Y-105875786D01*
X83583655Y-104318033D02*
X83869369Y-104812904D01*
X83726512Y-104565468D02*
X82860487Y-105065468D01*
X83031824Y-105076518D01*
X83161921Y-105111378D01*
X83250780Y-105170047D01*
X82577733Y-103909058D02*
X83155084Y-103575725D01*
X82366866Y-104305731D02*
X83104504Y-104154785D01*
X82794980Y-103618674D01*
X118018899Y-102501491D02*
X118018899Y-103215777D01*
X117971280Y-103358634D01*
X117876042Y-103453872D01*
X117733185Y-103501491D01*
X117637947Y-103501491D01*
X118399852Y-102501491D02*
X119018899Y-102501491D01*
X118685566Y-102882444D01*
X118828423Y-102882444D01*
X118923661Y-102930063D01*
X118971280Y-102977682D01*
X119018899Y-103072920D01*
X119018899Y-103311015D01*
X118971280Y-103406253D01*
X118923661Y-103453872D01*
X118828423Y-103501491D01*
X118542709Y-103501491D01*
X118447471Y-103453872D01*
X118399852Y-103406253D01*
X113760390Y-59415402D02*
X113760390Y-60224926D01*
X113808009Y-60320164D01*
X113855628Y-60367783D01*
X113950866Y-60415402D01*
X114141342Y-60415402D01*
X114236580Y-60367783D01*
X114284199Y-60320164D01*
X114331818Y-60224926D01*
X114331818Y-59415402D01*
X114760390Y-59510641D02*
X114808009Y-59463022D01*
X114903247Y-59415402D01*
X115141342Y-59415402D01*
X115236580Y-59463022D01*
X115284199Y-59510641D01*
X115331818Y-59605879D01*
X115331818Y-59701117D01*
X115284199Y-59843974D01*
X114712771Y-60415402D01*
X115331818Y-60415402D01*
X124015609Y-128635073D02*
X123967990Y-128682692D01*
X123825133Y-128730311D01*
X123729895Y-128730311D01*
X123587037Y-128682692D01*
X123491799Y-128587454D01*
X123444180Y-128492216D01*
X123396561Y-128301740D01*
X123396561Y-128158883D01*
X123444180Y-127968407D01*
X123491799Y-127873169D01*
X123587037Y-127777931D01*
X123729895Y-127730311D01*
X123825133Y-127730311D01*
X123967990Y-127777931D01*
X124015609Y-127825550D01*
X124920371Y-127730311D02*
X124444180Y-127730311D01*
X124396561Y-128206502D01*
X124444180Y-128158883D01*
X124539418Y-128111264D01*
X124777514Y-128111264D01*
X124872752Y-128158883D01*
X124920371Y-128206502D01*
X124967990Y-128301740D01*
X124967990Y-128539835D01*
X124920371Y-128635073D01*
X124872752Y-128682692D01*
X124777514Y-128730311D01*
X124539418Y-128730311D01*
X124444180Y-128682692D01*
X124396561Y-128635073D01*
X126797565Y-112680607D02*
X126749946Y-112728226D01*
X126607089Y-112775845D01*
X126511851Y-112775845D01*
X126368993Y-112728226D01*
X126273755Y-112632988D01*
X126226136Y-112537750D01*
X126178517Y-112347274D01*
X126178517Y-112204417D01*
X126226136Y-112013941D01*
X126273755Y-111918703D01*
X126368993Y-111823465D01*
X126511851Y-111775845D01*
X126607089Y-111775845D01*
X126749946Y-111823465D01*
X126797565Y-111871084D01*
X127178517Y-111871084D02*
X127226136Y-111823465D01*
X127321374Y-111775845D01*
X127559470Y-111775845D01*
X127654708Y-111823465D01*
X127702327Y-111871084D01*
X127749946Y-111966322D01*
X127749946Y-112061560D01*
X127702327Y-112204417D01*
X127130898Y-112775845D01*
X127749946Y-112775845D01*
X88178905Y-102730004D02*
X88178905Y-103444290D01*
X88131286Y-103587147D01*
X88036048Y-103682385D01*
X87893191Y-103730004D01*
X87797953Y-103730004D01*
X89131286Y-102730004D02*
X88655096Y-102730004D01*
X88607477Y-103206195D01*
X88655096Y-103158576D01*
X88750334Y-103110957D01*
X88988429Y-103110957D01*
X89083667Y-103158576D01*
X89131286Y-103206195D01*
X89178905Y-103301433D01*
X89178905Y-103539528D01*
X89131286Y-103634766D01*
X89083667Y-103682385D01*
X88988429Y-103730004D01*
X88750334Y-103730004D01*
X88655096Y-103682385D01*
X88607477Y-103634766D01*
X106189401Y-104924193D02*
X105856068Y-104448003D01*
X105617973Y-104924193D02*
X105617973Y-103924193D01*
X105998925Y-103924193D01*
X106094163Y-103971813D01*
X106141782Y-104019432D01*
X106189401Y-104114670D01*
X106189401Y-104257527D01*
X106141782Y-104352765D01*
X106094163Y-104400384D01*
X105998925Y-104448003D01*
X105617973Y-104448003D01*
X107141782Y-104924193D02*
X106570354Y-104924193D01*
X106856068Y-104924193D02*
X106856068Y-103924193D01*
X106760830Y-104067051D01*
X106665592Y-104162289D01*
X106570354Y-104209908D01*
X107475116Y-103924193D02*
X108141782Y-103924193D01*
X107713211Y-104924193D01*
X87184410Y-120525192D02*
X87249458Y-120542621D01*
X87362126Y-120642530D01*
X87409745Y-120725008D01*
X87439935Y-120872536D01*
X87405075Y-121002634D01*
X87346406Y-121091492D01*
X87205258Y-121227969D01*
X87081540Y-121299398D01*
X86892774Y-121353397D01*
X86786486Y-121359776D01*
X86656388Y-121324917D01*
X86543720Y-121225008D01*
X86496101Y-121142530D01*
X86465912Y-120995002D01*
X86483341Y-120929954D01*
X86234196Y-120688897D02*
X85900863Y-120111547D01*
X86981174Y-119982701D01*
X105769420Y-94305069D02*
X105721801Y-94352688D01*
X105578944Y-94400307D01*
X105483706Y-94400307D01*
X105340849Y-94352688D01*
X105245611Y-94257450D01*
X105197992Y-94162212D01*
X105150373Y-93971736D01*
X105150373Y-93828879D01*
X105197992Y-93638403D01*
X105245611Y-93543165D01*
X105340849Y-93447927D01*
X105483706Y-93400307D01*
X105578944Y-93400307D01*
X105721801Y-93447927D01*
X105769420Y-93495546D01*
X106721801Y-94400307D02*
X106150373Y-94400307D01*
X106436087Y-94400307D02*
X106436087Y-93400307D01*
X106340849Y-93543165D01*
X106245611Y-93638403D01*
X106150373Y-93686022D01*
X107340849Y-93400307D02*
X107436087Y-93400307D01*
X107531325Y-93447927D01*
X107578944Y-93495546D01*
X107626563Y-93590784D01*
X107674182Y-93781260D01*
X107674182Y-94019355D01*
X107626563Y-94209831D01*
X107578944Y-94305069D01*
X107531325Y-94352688D01*
X107436087Y-94400307D01*
X107340849Y-94400307D01*
X107245611Y-94352688D01*
X107197992Y-94305069D01*
X107150373Y-94209831D01*
X107102754Y-94019355D01*
X107102754Y-93781260D01*
X107150373Y-93590784D01*
X107197992Y-93495546D01*
X107245611Y-93447927D01*
X107340849Y-93400307D01*
X107329414Y-100380311D02*
X106996081Y-99904121D01*
X106757986Y-100380311D02*
X106757986Y-99380311D01*
X107138938Y-99380311D01*
X107234176Y-99427931D01*
X107281795Y-99475550D01*
X107329414Y-99570788D01*
X107329414Y-99713645D01*
X107281795Y-99808883D01*
X107234176Y-99856502D01*
X107138938Y-99904121D01*
X106757986Y-99904121D01*
X108281795Y-100380311D02*
X107710367Y-100380311D01*
X107996081Y-100380311D02*
X107996081Y-99380311D01*
X107900843Y-99523169D01*
X107805605Y-99618407D01*
X107710367Y-99666026D01*
X108853224Y-99808883D02*
X108757986Y-99761264D01*
X108710367Y-99713645D01*
X108662748Y-99618407D01*
X108662748Y-99570788D01*
X108710367Y-99475550D01*
X108757986Y-99427931D01*
X108853224Y-99380311D01*
X109043700Y-99380311D01*
X109138938Y-99427931D01*
X109186557Y-99475550D01*
X109234176Y-99570788D01*
X109234176Y-99618407D01*
X109186557Y-99713645D01*
X109138938Y-99761264D01*
X109043700Y-99808883D01*
X108853224Y-99808883D01*
X108757986Y-99856502D01*
X108710367Y-99904121D01*
X108662748Y-99999359D01*
X108662748Y-100189835D01*
X108710367Y-100285073D01*
X108757986Y-100332692D01*
X108853224Y-100380311D01*
X109043700Y-100380311D01*
X109138938Y-100332692D01*
X109186557Y-100285073D01*
X109234176Y-100189835D01*
X109234176Y-99999359D01*
X109186557Y-99904121D01*
X109138938Y-99856502D01*
X109043700Y-99808883D01*
X127258105Y-110350308D02*
X126924772Y-109874118D01*
X126686676Y-110350308D02*
X126686676Y-109350308D01*
X127067629Y-109350308D01*
X127162867Y-109397928D01*
X127210486Y-109445547D01*
X127258105Y-109540785D01*
X127258105Y-109683642D01*
X127210486Y-109778880D01*
X127162867Y-109826499D01*
X127067629Y-109874118D01*
X126686676Y-109874118D01*
X127591438Y-109350308D02*
X128210486Y-109350308D01*
X127877152Y-109731261D01*
X128020010Y-109731261D01*
X128115248Y-109778880D01*
X128162867Y-109826499D01*
X128210486Y-109921737D01*
X128210486Y-110159832D01*
X128162867Y-110255070D01*
X128115248Y-110302689D01*
X128020010Y-110350308D01*
X127734295Y-110350308D01*
X127639057Y-110302689D01*
X127591438Y-110255070D01*
X129838901Y-124193132D02*
X129981758Y-124240751D01*
X130219854Y-124240751D01*
X130315092Y-124193132D01*
X130362711Y-124145513D01*
X130410330Y-124050275D01*
X130410330Y-123955037D01*
X130362711Y-123859799D01*
X130315092Y-123812180D01*
X130219854Y-123764561D01*
X130029377Y-123716942D01*
X129934139Y-123669323D01*
X129886520Y-123621704D01*
X129838901Y-123526466D01*
X129838901Y-123431228D01*
X129886520Y-123335990D01*
X129934139Y-123288371D01*
X130029377Y-123240751D01*
X130267473Y-123240751D01*
X130410330Y-123288371D01*
X130743663Y-123240751D02*
X130981758Y-124240751D01*
X131172235Y-123526466D01*
X131362711Y-124240751D01*
X131600806Y-123240751D01*
X131934139Y-123335990D02*
X131981758Y-123288371D01*
X132076996Y-123240751D01*
X132315092Y-123240751D01*
X132410330Y-123288371D01*
X132457949Y-123335990D01*
X132505568Y-123431228D01*
X132505568Y-123526466D01*
X132457949Y-123669323D01*
X131886520Y-124240751D01*
X132505568Y-124240751D01*
X97480351Y-100429190D02*
X97480351Y-101238714D01*
X97527970Y-101333952D01*
X97575589Y-101381571D01*
X97670827Y-101429190D01*
X97861303Y-101429190D01*
X97956541Y-101381571D01*
X98004160Y-101333952D01*
X98051779Y-101238714D01*
X98051779Y-100429190D01*
X98956541Y-100762524D02*
X98956541Y-101429190D01*
X98718446Y-100381571D02*
X98480351Y-101095857D01*
X99099398Y-101095857D01*
X129797563Y-112680601D02*
X129749944Y-112728220D01*
X129607087Y-112775839D01*
X129511849Y-112775839D01*
X129368991Y-112728220D01*
X129273753Y-112632982D01*
X129226134Y-112537744D01*
X129178515Y-112347268D01*
X129178515Y-112204411D01*
X129226134Y-112013935D01*
X129273753Y-111918697D01*
X129368991Y-111823459D01*
X129511849Y-111775839D01*
X129607087Y-111775839D01*
X129749944Y-111823459D01*
X129797563Y-111871078D01*
X130130896Y-111775839D02*
X130749944Y-111775839D01*
X130416610Y-112156792D01*
X130559468Y-112156792D01*
X130654706Y-112204411D01*
X130702325Y-112252030D01*
X130749944Y-112347268D01*
X130749944Y-112585363D01*
X130702325Y-112680601D01*
X130654706Y-112728220D01*
X130559468Y-112775839D01*
X130273753Y-112775839D01*
X130178515Y-112728220D01*
X130130896Y-112680601D01*
X139808905Y-115700750D02*
X139808905Y-116415036D01*
X139761286Y-116557893D01*
X139666048Y-116653131D01*
X139523191Y-116700750D01*
X139427953Y-116700750D01*
X140808905Y-116700750D02*
X140237477Y-116700750D01*
X140523191Y-116700750D02*
X140523191Y-115700750D01*
X140427953Y-115843608D01*
X140332715Y-115938846D01*
X140237477Y-115986465D01*
X67560599Y-114565291D02*
X68179189Y-114208148D01*
X68326716Y-114177959D01*
X68456814Y-114212819D01*
X68569482Y-114312727D01*
X68617101Y-114395206D01*
X67428792Y-114146518D02*
X67363743Y-114129089D01*
X67274885Y-114070419D01*
X67155837Y-113864223D01*
X67149458Y-113757935D01*
X67166887Y-113692886D01*
X67225556Y-113604028D01*
X67308035Y-113556409D01*
X67455562Y-113526219D01*
X68236148Y-113735377D01*
X67926625Y-113199266D01*
X97779397Y-104949191D02*
X97446064Y-104473001D01*
X97207969Y-104949191D02*
X97207969Y-103949191D01*
X97588921Y-103949191D01*
X97684159Y-103996811D01*
X97731778Y-104044430D01*
X97779397Y-104139668D01*
X97779397Y-104282525D01*
X97731778Y-104377763D01*
X97684159Y-104425382D01*
X97588921Y-104473001D01*
X97207969Y-104473001D01*
X98160350Y-104044430D02*
X98207969Y-103996811D01*
X98303207Y-103949191D01*
X98541302Y-103949191D01*
X98636540Y-103996811D01*
X98684159Y-104044430D01*
X98731778Y-104139668D01*
X98731778Y-104234906D01*
X98684159Y-104377763D01*
X98112731Y-104949191D01*
X98731778Y-104949191D01*
X99350826Y-103949191D02*
X99446064Y-103949191D01*
X99541302Y-103996811D01*
X99588921Y-104044430D01*
X99636540Y-104139668D01*
X99684159Y-104330144D01*
X99684159Y-104568239D01*
X99636540Y-104758715D01*
X99588921Y-104853953D01*
X99541302Y-104901572D01*
X99446064Y-104949191D01*
X99350826Y-104949191D01*
X99255588Y-104901572D01*
X99207969Y-104853953D01*
X99160350Y-104758715D01*
X99112731Y-104568239D01*
X99112731Y-104330144D01*
X99160350Y-104139668D01*
X99207969Y-104044430D01*
X99255588Y-103996811D01*
X99350826Y-103949191D01*
X91020861Y-114639642D02*
X90775135Y-115166412D01*
X91306576Y-115134513D02*
X90440550Y-115634513D01*
X90250074Y-115304599D01*
X90243694Y-115198311D01*
X90261124Y-115133262D01*
X90319793Y-115044404D01*
X90443511Y-114972975D01*
X90549799Y-114966595D01*
X90614848Y-114984025D01*
X90703707Y-115042694D01*
X90894183Y-115372609D01*
X90544671Y-113814856D02*
X90830385Y-114309727D01*
X90687528Y-114062291D02*
X89821503Y-114562291D01*
X89992840Y-114573341D01*
X90122937Y-114608201D01*
X90211796Y-114666870D01*
X89570648Y-113937322D02*
X89505599Y-113919892D01*
X89416741Y-113861223D01*
X89297693Y-113655027D01*
X89291313Y-113548739D01*
X89308743Y-113483690D01*
X89367412Y-113394831D01*
X89449891Y-113347212D01*
X89597418Y-113317023D01*
X90378004Y-113526180D01*
X90068481Y-112990069D01*
D13*
X95242238Y-110088367D02*
X95242238Y-112748367D01*
X109272238Y-110088367D02*
X110602238Y-110088367D01*
X108002238Y-112748367D02*
X95242238Y-112748367D01*
X108002238Y-110088367D02*
X108002238Y-112748367D01*
X110602238Y-110088367D02*
X110602238Y-111418367D01*
X108002238Y-110088367D02*
X95242238Y-110088367D01*
X126942278Y-123967932D02*
X127592278Y-123967932D01*
X126942278Y-123967932D02*
X125267278Y-123967932D01*
X126942278Y-127087932D02*
X126292278Y-127087932D01*
X126942278Y-127087932D02*
X127592278Y-127087932D01*
X79876217Y-123336809D02*
X79465275Y-123574067D01*
X80398717Y-124241805D02*
X79987775Y-124479063D01*
X129454775Y-108472930D02*
X131739775Y-108472930D01*
X131739775Y-107002930D02*
X129454775Y-107002930D01*
X131739775Y-108472930D02*
X131739775Y-107002930D01*
X103924775Y-96435192D02*
X103924775Y-95960676D01*
X102879775Y-96435192D02*
X102879775Y-95960676D01*
X104552254Y-106566230D02*
X104552254Y-106847390D01*
X103532254Y-106566230D02*
X103532254Y-106847390D01*
X118439777Y-121210672D02*
X118439777Y-121685188D01*
X119484777Y-121210672D02*
X119484777Y-121685188D01*
X114777748Y-80025245D02*
X115252264Y-80025245D01*
X114777748Y-81070245D02*
X115252264Y-81070245D01*
X84227577Y-108218103D02*
X84590077Y-108845971D01*
X82944793Y-114986255D02*
X82316925Y-115348755D01*
X83599709Y-108580603D02*
X84227577Y-108218103D01*
X80334793Y-110465603D02*
X79706925Y-110828103D01*
X86837577Y-112738755D02*
X86475077Y-112110887D01*
X86209709Y-113101255D02*
X86837577Y-112738755D01*
X82316925Y-115348755D02*
X81954425Y-114720887D01*
X73970430Y-128972201D02*
X71991562Y-130114701D01*
X71991562Y-130114701D02*
X72726562Y-131387759D01*
X72726562Y-131387759D02*
X74705430Y-130245259D01*
X85994269Y-117183102D02*
X85757011Y-116772160D01*
X86899265Y-116660602D02*
X86662007Y-116249660D01*
X99972272Y-96348511D02*
X99972272Y-96067351D01*
X100992272Y-96348511D02*
X100992272Y-96067351D01*
X127142851Y-122797930D02*
X126861691Y-122797930D01*
X127142851Y-121777930D02*
X126861691Y-121777930D01*
X91742239Y-68278367D02*
X91712239Y-68278367D01*
X85282239Y-68278367D02*
X85282239Y-61818367D01*
X91742239Y-68278367D02*
X91742239Y-61818367D01*
X87212239Y-61818367D02*
X89812239Y-61818367D01*
X85312239Y-68278367D02*
X85282239Y-68278367D01*
X91742239Y-61818367D02*
X91712239Y-61818367D01*
X85282239Y-61818367D02*
X85312239Y-61818367D01*
X87212239Y-68278367D02*
X89812239Y-68278367D01*
X134625008Y-120477749D02*
X134625008Y-120377749D01*
X130225008Y-121977749D02*
X134625008Y-121977749D01*
X134625008Y-118877749D02*
X130225008Y-118877749D01*
X130225008Y-120477749D02*
X130225008Y-120377749D01*
X101624752Y-106459553D02*
X101624752Y-106934069D01*
X100579752Y-106459553D02*
X100579752Y-106934069D01*
X78832549Y-107738638D02*
X78595291Y-107327696D01*
X79737545Y-107216138D02*
X79500287Y-106805196D01*
X111084774Y-99250676D02*
X111084774Y-99725192D01*
X110039774Y-99250676D02*
X110039774Y-99725192D01*
X90004976Y-70625867D02*
X90479492Y-70625867D01*
X90004976Y-71670867D02*
X90479492Y-71670867D01*
X78165022Y-113002930D02*
X77754080Y-113240188D01*
X77642522Y-112097934D02*
X77231580Y-112335192D01*
X79523684Y-117030720D02*
X80649518Y-116380720D01*
X79089518Y-113678720D02*
X77357467Y-114678720D01*
X127032277Y-121117930D02*
X127682277Y-121117930D01*
X127032277Y-117997930D02*
X125357277Y-117997930D01*
X127032277Y-117997930D02*
X127682277Y-117997930D01*
X127032277Y-121117930D02*
X126382277Y-121117930D01*
X130064197Y-105997929D02*
X130345357Y-105997929D01*
X130064197Y-104977929D02*
X130345357Y-104977929D01*
X132502506Y-115065976D02*
X132502506Y-114591460D01*
X133547506Y-115065976D02*
X133547506Y-114591460D01*
X137431694Y-114997933D02*
X137712854Y-114997933D01*
X137431694Y-116017933D02*
X137712854Y-116017933D01*
X135215004Y-105027742D02*
X141225004Y-105027742D01*
X137465004Y-111847742D02*
X141225004Y-111847742D01*
X141225004Y-105027742D02*
X141225004Y-106287742D01*
X141225004Y-111847742D02*
X141225004Y-110587742D01*
X114215006Y-78282746D02*
X116500006Y-78282746D01*
X116500006Y-78282746D02*
X116500006Y-76812746D01*
X116500006Y-76812746D02*
X114215006Y-76812746D01*
X85069397Y-121716174D02*
X84928817Y-121472682D01*
X85952743Y-121206174D02*
X85812163Y-120962682D01*
X72374910Y-128343190D02*
X72785852Y-128105932D01*
X71852410Y-127438194D02*
X72263352Y-127200936D01*
X83499320Y-119022209D02*
X83088378Y-119259467D01*
X82976820Y-118117213D02*
X82565878Y-118354471D01*
X122444775Y-121685190D02*
X122444775Y-121210674D01*
X121399775Y-121685190D02*
X121399775Y-121210674D01*
X81768378Y-106043641D02*
X81531120Y-105632699D01*
X82673374Y-105521141D02*
X82436116Y-105110199D01*
X109880419Y-91303963D02*
X116260419Y-102354447D01*
X112184047Y-89973963D02*
X118564047Y-101024447D01*
X109245419Y-90204111D02*
X108580419Y-89052297D01*
X109880419Y-91303963D02*
X112184047Y-89973963D01*
X108580419Y-89052297D02*
X109732233Y-88387297D01*
X116260419Y-102354447D02*
X118564047Y-101024447D01*
D14*
X112025001Y-52337746D02*
X94025001Y-52337746D01*
X112025001Y-58887746D02*
X112025001Y-52337746D01*
X94025001Y-52337746D02*
X94025001Y-58887746D01*
X94025001Y-83737746D02*
X112025001Y-83737746D01*
D15*
X92965001Y-59147746D02*
G75*
G03*
X92965001Y-59147746I-100000J0D01*
G01*
D13*
X126761696Y-127717931D02*
X127042856Y-127717931D01*
X126761696Y-128737931D02*
X127042856Y-128737931D01*
X127535002Y-114688141D02*
X127535002Y-114969301D01*
X126515002Y-114688141D02*
X126515002Y-114969301D01*
X98384052Y-89372288D02*
X96080424Y-88042288D01*
X89700424Y-99092772D02*
X96080424Y-88042288D01*
X91369052Y-101522624D02*
X90704052Y-102674438D01*
X90704052Y-102674438D02*
X89552238Y-102009438D01*
X92004052Y-100422772D02*
X98384052Y-89372288D01*
X92004052Y-100422772D02*
X89700424Y-99092772D01*
X106219759Y-106489555D02*
X106219759Y-106964071D01*
X107264759Y-106489555D02*
X107264759Y-106964071D01*
X87719437Y-120186172D02*
X87578857Y-119942680D01*
X88602783Y-119676172D02*
X88462203Y-119432680D01*
X106922278Y-96288507D02*
X106922278Y-96007347D01*
X105902278Y-96288507D02*
X105902278Y-96007347D01*
X107449772Y-102265189D02*
X107449772Y-101790673D01*
X108494772Y-102265189D02*
X108494772Y-101790673D01*
X130037514Y-109375428D02*
X130512030Y-109375428D01*
X130037514Y-110420428D02*
X130512030Y-110420428D01*
X134625003Y-124768723D02*
X130225003Y-124768723D01*
X130225003Y-126368723D02*
X130225003Y-126268723D01*
X134625003Y-126368723D02*
X134625003Y-126268723D01*
X130225003Y-127868723D02*
X134625003Y-127868723D01*
X105735004Y-103047747D02*
X105475004Y-103047747D01*
X100315004Y-103047747D02*
X100575004Y-103047747D01*
X105735004Y-99027747D02*
X105475004Y-99027747D01*
X100315004Y-99027747D02*
X100575004Y-99027747D01*
X105735004Y-99027747D02*
X105735004Y-99287747D01*
X105735004Y-103047747D02*
X105735004Y-102787747D01*
X100315004Y-103047747D02*
X100315004Y-102787747D01*
X129515000Y-114688135D02*
X129515000Y-114969295D01*
X130535000Y-114688135D02*
X130535000Y-114969295D01*
X140011821Y-121002898D02*
X141311821Y-118751232D01*
X140011821Y-121002898D02*
X137708193Y-119672898D01*
X141311821Y-118751232D02*
X139008193Y-117421232D01*
X137708193Y-119672898D02*
X139008193Y-117421232D01*
X137560007Y-122589564D02*
X136408193Y-121924564D01*
X136408193Y-121924564D02*
X137073193Y-120772750D01*
X73425353Y-113239126D02*
X74175353Y-114538164D01*
X77425353Y-120167330D02*
X78175353Y-121466368D01*
X78175353Y-121466368D02*
X71888009Y-125096368D01*
X73425353Y-113239126D02*
X67138009Y-116869126D01*
X98944755Y-106459553D02*
X98944755Y-106934069D01*
X97899755Y-106459553D02*
X97899755Y-106934069D01*
X88555796Y-115219785D02*
X88793054Y-115630727D01*
X89460792Y-114697285D02*
X89698050Y-115108227D01*
M02*
