G04 #@! TF.GenerationSoftware,KiCad,Pcbnew,6.0.2+dfsg-1*
G04 #@! TF.CreationDate,2024-12-02T22:35:52+09:00*
G04 #@! TF.ProjectId,omni_wheel,6f6d6e69-5f77-4686-9565-6c2e6b696361,rev?*
G04 #@! TF.SameCoordinates,Original*
G04 #@! TF.FileFunction,Profile,NP*
%FSLAX46Y46*%
G04 Gerber Fmt 4.6, Leading zero omitted, Abs format (unit mm)*
G04 Created by KiCad (PCBNEW 6.0.2+dfsg-1) date 2024-12-02 22:35:52*
%MOMM*%
%LPD*%
G01*
G04 APERTURE LIST*
G04 #@! TA.AperFunction,Profile*
%ADD10C,0.200000*%
G04 #@! TD*
G04 APERTURE END LIST*
D10*
X59862747Y-111064124D02*
X72815740Y-133499365D01*
X72815740Y-68628874D02*
X59862747Y-91064119D01*
X92639243Y-133064120D02*
G75*
G03*
X92639243Y-133064120I-1550001J0D01*
G01*
X115893410Y-107556906D02*
G75*
G03*
X115893410Y-107556906I-1550002J0D01*
G01*
X138352057Y-95456423D02*
G75*
G03*
X138352057Y-95456423I-1550003J0D01*
G01*
X70926431Y-95456423D02*
G75*
G03*
X70926431Y-95456423I-1550003J0D01*
G01*
X82926435Y-74671817D02*
G75*
G03*
X82926435Y-74671817I-1550005J0D01*
G01*
X59862749Y-91064120D02*
G75*
G03*
X59862747Y-111064124I17320476J-10000004D01*
G01*
X126352051Y-74671815D02*
G75*
G03*
X126352051Y-74671815I-1549996J0D01*
G01*
X93389247Y-107564121D02*
G75*
G03*
X93389247Y-107564121I-1550004J0D01*
G01*
X133362748Y-68628876D02*
G75*
G03*
X116042234Y-58628874I-17320507J-9999995D01*
G01*
X90136245Y-143499364D02*
X116042236Y-143499367D01*
X104635073Y-88071332D02*
G75*
G03*
X104635073Y-88071332I-1549996J0D01*
G01*
X116042236Y-143499365D02*
G75*
G03*
X133362745Y-133499366I5J19999993D01*
G01*
X133362745Y-133499366D02*
X146315742Y-111064120D01*
X72815739Y-133499366D02*
G75*
G03*
X90136245Y-143499364I17320516J10000018D01*
G01*
X146315742Y-91064120D02*
X133362746Y-68628877D01*
X116042234Y-58628874D02*
X90136247Y-58628875D01*
X146315746Y-111064122D02*
G75*
G03*
X146315742Y-91064120I-17320515J9999998D01*
G01*
X116639243Y-133064122D02*
G75*
G03*
X116639243Y-133064122I-1550000J0D01*
G01*
X90136247Y-58628875D02*
G75*
G03*
X72815740Y-68628874I-3J-19999994D01*
G01*
M02*
