G04 #@! TF.GenerationSoftware,KiCad,Pcbnew,6.0.2+dfsg-1*
G04 #@! TF.CreationDate,2024-09-01T09:28:51+09:00*
G04 #@! TF.ProjectId,omni_wheel,6f6d6e69-5f77-4686-9565-6c2e6b696361,rev?*
G04 #@! TF.SameCoordinates,Original*
G04 #@! TF.FileFunction,Profile,NP*
%FSLAX46Y46*%
G04 Gerber Fmt 4.6, Leading zero omitted, Abs format (unit mm)*
G04 Created by KiCad (PCBNEW 6.0.2+dfsg-1) date 2024-09-01 09:28:51*
%MOMM*%
%LPD*%
G01*
G04 APERTURE LIST*
G04 #@! TA.AperFunction,Profile*
%ADD10C,0.200000*%
G04 #@! TD*
G04 APERTURE END LIST*
D10*
X143679261Y-109829379D02*
G75*
G03*
X143679264Y-89829377I-17320484J10000004D01*
G01*
X70179263Y-67394135D02*
X57226270Y-89829377D01*
X135715585Y-94221683D02*
G75*
G03*
X135715585Y-94221683I-1550003J0D01*
G01*
X87499771Y-57394135D02*
G75*
G03*
X70179263Y-67394135I-8J-19999986D01*
G01*
X80289958Y-73437076D02*
G75*
G03*
X80289958Y-73437076I-1550003J0D01*
G01*
X114002773Y-131829381D02*
G75*
G03*
X114002773Y-131829381I-1550003J0D01*
G01*
X113405763Y-57394132D02*
X87499771Y-57394135D01*
X130726273Y-67394133D02*
G75*
G03*
X113405763Y-57394132I-17320510J-10000001D01*
G01*
X112306929Y-106322164D02*
G75*
G03*
X112306929Y-106322164I-599998J0D01*
G01*
X123715575Y-73437073D02*
G75*
G03*
X123715575Y-73437073I-1549997J0D01*
G01*
X101048594Y-86836589D02*
G75*
G03*
X101048594Y-86836589I-599994J0D01*
G01*
X90002768Y-131829377D02*
G75*
G03*
X90002768Y-131829377I-1550000J0D01*
G01*
X87499775Y-142264624D02*
X113405762Y-142264626D01*
X130726274Y-132264623D02*
X143679261Y-109829379D01*
X89802766Y-106329378D02*
G75*
G03*
X89802766Y-106329378I-599998J0D01*
G01*
X57226271Y-109829378D02*
X70179262Y-132264626D01*
X113405762Y-142264626D02*
G75*
G03*
X130726274Y-132264623I-2J20000007D01*
G01*
X57226270Y-89829377D02*
G75*
G03*
X57226271Y-109829378I17320514J-10000000D01*
G01*
X143679264Y-89829377D02*
X130726273Y-67394133D01*
X68289959Y-94221684D02*
G75*
G03*
X68289959Y-94221684I-1550004J0D01*
G01*
X70179262Y-132264626D02*
G75*
G03*
X87499775Y-142264624I17320512J10000010D01*
G01*
M02*
