G04 #@! TF.GenerationSoftware,KiCad,Pcbnew,6.0.2+dfsg-1*
G04 #@! TF.CreationDate,2024-09-01T09:28:51+09:00*
G04 #@! TF.ProjectId,omni_wheel,6f6d6e69-5f77-4686-9565-6c2e6b696361,rev?*
G04 #@! TF.SameCoordinates,Original*
G04 #@! TF.FileFunction,Soldermask,Bot*
G04 #@! TF.FilePolarity,Negative*
%FSLAX46Y46*%
G04 Gerber Fmt 4.6, Leading zero omitted, Abs format (unit mm)*
G04 Created by KiCad (PCBNEW 6.0.2+dfsg-1) date 2024-09-01 09:28:51*
%MOMM*%
%LPD*%
G01*
G04 APERTURE LIST*
G04 Aperture macros list*
%AMHorizOval*
0 Thick line with rounded ends*
0 $1 width*
0 $2 $3 position (X,Y) of the first rounded end (center of the circle)*
0 $4 $5 position (X,Y) of the second rounded end (center of the circle)*
0 Add line between two ends*
20,1,$1,$2,$3,$4,$5,0*
0 Add two circle primitives to create the rounded ends*
1,1,$1,$2,$3*
1,1,$1,$4,$5*%
%AMRotRect*
0 Rectangle, with rotation*
0 The origin of the aperture is its center*
0 $1 length*
0 $2 width*
0 $3 Rotation angle, in degrees counterclockwise*
0 Add horizontal line*
21,1,$1,$2,0,0,$3*%
G04 Aperture macros list end*
%ADD10R,1.700000X1.700000*%
%ADD11O,1.700000X1.700000*%
%ADD12HorizOval,2.200000X-0.325000X0.562917X0.325000X-0.562917X0*%
%ADD13RotRect,1.500000X2.500000X30.000000*%
%ADD14HorizOval,1.500000X-0.250000X0.433013X0.250000X-0.433013X0*%
%ADD15RotRect,1.700000X1.700000X210.000000*%
%ADD16HorizOval,1.700000X0.000000X0.000000X0.000000X0.000000X0*%
%ADD17C,0.504000*%
%ADD18RotRect,1.700000X1.700000X330.000000*%
%ADD19HorizOval,1.700000X0.000000X0.000000X0.000000X0.000000X0*%
%ADD20RotRect,1.700000X1.700000X150.000000*%
%ADD21HorizOval,1.700000X0.000000X0.000000X0.000000X0.000000X0*%
%ADD22HorizOval,0.650000X0.075000X-0.129904X-0.075000X0.129904X0*%
%ADD23C,0.650000*%
%ADD24HorizOval,0.800000X-0.259808X-0.150000X0.259808X0.150000X0*%
G04 APERTURE END LIST*
D10*
X94172766Y-110239376D03*
D11*
X96712766Y-110239376D03*
X99252766Y-110239376D03*
X101792766Y-110239376D03*
X104332766Y-110239376D03*
X106872766Y-110239376D03*
D12*
X59532066Y-111259379D03*
X66633474Y-107159379D03*
D13*
X61350719Y-110209379D03*
D14*
X63082770Y-109209379D03*
X64814821Y-108209379D03*
D15*
X114017768Y-99718640D03*
D16*
X112747768Y-97518935D03*
X111477768Y-95319231D03*
X110207768Y-93119526D03*
X108937768Y-90919822D03*
X107667768Y-88720117D03*
D17*
X100352765Y-65669381D03*
X98952765Y-65669381D03*
X97552765Y-65669381D03*
X97552765Y-67069381D03*
X98952765Y-67069381D03*
X100352765Y-67069381D03*
X99652765Y-64969381D03*
X98252765Y-64969381D03*
X99652765Y-66369381D03*
X98252765Y-66369381D03*
X98252765Y-67769381D03*
X99652765Y-67769381D03*
D18*
X93997767Y-88850117D03*
D19*
X92727767Y-91049822D03*
X91457767Y-93249526D03*
X90187767Y-95449231D03*
X88917767Y-97648935D03*
X87647767Y-99848640D03*
D20*
X135652767Y-120229380D03*
D21*
X136922767Y-118029675D03*
D22*
X74153433Y-119767069D03*
D23*
X70553433Y-113531687D03*
D24*
X68363050Y-124137832D03*
X73335901Y-120851063D03*
X63873050Y-116360924D03*
X69205901Y-113697693D03*
M02*
