G04 #@! TF.GenerationSoftware,KiCad,Pcbnew,6.0.2+dfsg-1*
G04 #@! TF.CreationDate,2024-12-02T22:35:52+09:00*
G04 #@! TF.ProjectId,omni_wheel,6f6d6e69-5f77-4686-9565-6c2e6b696361,rev?*
G04 #@! TF.SameCoordinates,Original*
G04 #@! TF.FileFunction,Soldermask,Top*
G04 #@! TF.FilePolarity,Negative*
%FSLAX46Y46*%
G04 Gerber Fmt 4.6, Leading zero omitted, Abs format (unit mm)*
G04 Created by KiCad (PCBNEW 6.0.2+dfsg-1) date 2024-12-02 22:35:52*
%MOMM*%
%LPD*%
G01*
G04 APERTURE LIST*
G04 Aperture macros list*
%AMRoundRect*
0 Rectangle with rounded corners*
0 $1 Rounding radius*
0 $2 $3 $4 $5 $6 $7 $8 $9 X,Y pos of 4 corners*
0 Add a 4 corners polygon primitive as box body*
4,1,4,$2,$3,$4,$5,$6,$7,$8,$9,$2,$3,0*
0 Add four circle primitives for the rounded corners*
1,1,$1+$1,$2,$3*
1,1,$1+$1,$4,$5*
1,1,$1+$1,$6,$7*
1,1,$1+$1,$8,$9*
0 Add four rect primitives between the rounded corners*
20,1,$1+$1,$2,$3,$4,$5,0*
20,1,$1+$1,$4,$5,$6,$7,0*
20,1,$1+$1,$6,$7,$8,$9,0*
20,1,$1+$1,$8,$9,$2,$3,0*%
%AMHorizOval*
0 Thick line with rounded ends*
0 $1 width*
0 $2 $3 position (X,Y) of the first rounded end (center of the circle)*
0 $4 $5 position (X,Y) of the second rounded end (center of the circle)*
0 Add line between two ends*
20,1,$1,$2,$3,$4,$5,0*
0 Add two circle primitives to create the rounded ends*
1,1,$1,$2,$3*
1,1,$1,$4,$5*%
%AMRotRect*
0 Rectangle, with rotation*
0 The origin of the aperture is its center*
0 $1 length*
0 $2 width*
0 $3 Rotation angle, in degrees counterclockwise*
0 Add horizontal line*
21,1,$1,$2,0,0,$3*%
G04 Aperture macros list end*
%ADD10R,1.700000X1.700000*%
%ADD11O,1.700000X1.700000*%
%ADD12RoundRect,0.150000X-0.587500X-0.150000X0.587500X-0.150000X0.587500X0.150000X-0.587500X0.150000X0*%
%ADD13RoundRect,0.200000X0.035705X0.338157X-0.310705X0.138157X-0.035705X-0.338157X0.310705X-0.138157X0*%
%ADD14RoundRect,0.218750X0.218750X0.256250X-0.218750X0.256250X-0.218750X-0.256250X0.218750X-0.256250X0*%
%ADD15RoundRect,0.200000X0.275000X-0.200000X0.275000X0.200000X-0.275000X0.200000X-0.275000X-0.200000X0*%
%ADD16RoundRect,0.225000X-0.250000X0.225000X-0.250000X-0.225000X0.250000X-0.225000X0.250000X0.225000X0*%
%ADD17RoundRect,0.200000X-0.275000X0.200000X-0.275000X-0.200000X0.275000X-0.200000X0.275000X0.200000X0*%
%ADD18RoundRect,0.200000X-0.200000X-0.275000X0.200000X-0.275000X0.200000X0.275000X-0.200000X0.275000X0*%
%ADD19RoundRect,0.062500X-0.261034X-0.222877X0.323534X0.114623X0.261034X0.222877X-0.323534X-0.114623X0*%
%ADD20RoundRect,0.062500X0.114623X-0.323534X0.222877X-0.261034X-0.114623X0.323534X-0.222877X0.261034X0*%
%ADD21RotRect,3.350000X3.350000X30.000000*%
%ADD22RoundRect,0.218750X-0.061318X-0.331294X0.317568X-0.112544X0.061318X0.331294X-0.317568X0.112544X0*%
%ADD23RoundRect,0.200000X0.338157X-0.035705X0.138157X0.310705X-0.338157X0.035705X-0.138157X-0.310705X0*%
%ADD24RoundRect,0.225000X0.250000X-0.225000X0.250000X0.225000X-0.250000X0.225000X-0.250000X-0.225000X0*%
%ADD25RoundRect,0.225000X0.225000X0.250000X-0.225000X0.250000X-0.225000X-0.250000X0.225000X-0.250000X0*%
%ADD26R,1.300000X1.550000*%
%ADD27R,0.900000X1.000000*%
%ADD28RotRect,0.700000X1.000000X30.000000*%
%ADD29RotRect,0.700000X0.600000X30.000000*%
%ADD30RoundRect,0.225000X-0.225000X-0.250000X0.225000X-0.250000X0.225000X0.250000X-0.225000X0.250000X0*%
%ADD31R,2.000000X1.500000*%
%ADD32R,2.000000X3.800000*%
%ADD33RoundRect,0.225000X0.329006X-0.069856X0.104006X0.319856X-0.329006X0.069856X-0.104006X-0.319856X0*%
%ADD34RoundRect,0.200000X-0.035705X-0.338157X0.310705X-0.138157X0.035705X0.338157X-0.310705X0.138157X0*%
%ADD35RotRect,1.700000X1.700000X30.000000*%
%ADD36HorizOval,1.700000X0.000000X0.000000X0.000000X0.000000X0*%
%ADD37RoundRect,0.102000X-0.750000X-0.450000X0.750000X-0.450000X0.750000X0.450000X-0.750000X0.450000X0*%
%ADD38RoundRect,0.102000X-0.450000X-0.450000X0.450000X-0.450000X0.450000X0.450000X-0.450000X0.450000X0*%
%ADD39C,0.504000*%
%ADD40RotRect,1.700000X1.700000X150.000000*%
%ADD41HorizOval,1.700000X0.000000X0.000000X0.000000X0.000000X0*%
%ADD42R,0.254000X0.675000*%
%ADD43R,0.675000X0.254000*%
%ADD44HorizOval,0.650000X0.075000X-0.129904X-0.075000X0.129904X0*%
%ADD45C,0.650000*%
%ADD46RotRect,0.300000X0.700000X300.000000*%
%ADD47HorizOval,0.800000X-0.259808X-0.150000X0.259808X0.150000X0*%
%ADD48RoundRect,0.200000X-0.338157X0.035705X-0.138157X-0.310705X0.338157X-0.035705X0.138157X0.310705X0*%
G04 APERTURE END LIST*
D10*
X109272238Y-111418367D03*
D11*
X106732238Y-111418367D03*
X104192238Y-111418367D03*
X101652238Y-111418367D03*
X99112238Y-111418367D03*
X96572238Y-111418367D03*
D12*
X126004778Y-124577932D03*
X126004778Y-126477932D03*
X127879778Y-125527932D03*
D13*
X80646467Y-123495436D03*
X79217525Y-124320436D03*
D14*
X131042275Y-107737930D03*
X129467275Y-107737930D03*
D15*
X103402275Y-97022934D03*
X103402275Y-95372934D03*
D16*
X104042254Y-105931810D03*
X104042254Y-107481810D03*
D17*
X118962277Y-120622930D03*
X118962277Y-122272930D03*
D18*
X114190006Y-80547745D03*
X115840006Y-80547745D03*
D19*
X80400489Y-111709391D03*
X80650489Y-112142404D03*
X80900489Y-112575416D03*
X81150489Y-113008429D03*
X81400489Y-113441442D03*
X81650489Y-113874454D03*
X81900489Y-114307467D03*
D20*
X83198213Y-114655191D03*
X83631226Y-114405191D03*
X84064238Y-114155191D03*
X84497251Y-113905191D03*
X84930264Y-113655191D03*
X85363276Y-113405191D03*
X85796289Y-113155191D03*
D19*
X86144013Y-111857467D03*
X85894013Y-111424454D03*
X85644013Y-110991442D03*
X85394013Y-110558429D03*
X85144013Y-110125416D03*
X84894013Y-109692404D03*
X84644013Y-109259391D03*
D20*
X83346289Y-108911667D03*
X82913276Y-109161667D03*
X82480264Y-109411667D03*
X82047251Y-109661667D03*
X81614238Y-109911667D03*
X81181226Y-110161667D03*
X80748213Y-110411667D03*
D21*
X83272251Y-111783429D03*
D22*
X72963115Y-130402480D03*
X74327105Y-129614980D03*
D23*
X86740638Y-117430852D03*
X85915638Y-116001910D03*
D24*
X100482272Y-96982931D03*
X100482272Y-95432931D03*
D25*
X127777271Y-122287930D03*
X126227271Y-122287930D03*
D26*
X86262239Y-69023367D03*
X86262239Y-61073367D03*
X90762239Y-61073367D03*
X90762239Y-69023367D03*
D27*
X130375008Y-119627749D03*
X134475008Y-119627749D03*
X134475008Y-121227749D03*
X130375008Y-121227749D03*
D17*
X101102252Y-105871811D03*
X101102252Y-107521811D03*
D23*
X79578918Y-107986388D03*
X78753918Y-106557446D03*
D17*
X110562274Y-98662934D03*
X110562274Y-100312934D03*
D18*
X89417234Y-71148367D03*
X91067234Y-71148367D03*
D13*
X78412772Y-112256561D03*
X76983830Y-113081561D03*
D28*
X78065576Y-115205201D03*
D29*
X78915576Y-116677444D03*
X80647626Y-115677444D03*
X79697626Y-114031996D03*
D12*
X126094777Y-118607930D03*
X126094777Y-120507930D03*
X127969777Y-119557930D03*
D30*
X129429777Y-105487929D03*
X130979777Y-105487929D03*
D15*
X133025006Y-115653718D03*
X133025006Y-114003718D03*
D30*
X136797274Y-115507933D03*
X138347274Y-115507933D03*
D31*
X136165004Y-106137742D03*
D32*
X142465004Y-108437742D03*
D31*
X136165004Y-108437742D03*
X136165004Y-110737742D03*
D14*
X115802506Y-77547746D03*
X114227506Y-77547746D03*
D33*
X85828280Y-122010598D03*
X85053280Y-120668258D03*
D34*
X71604660Y-128184563D03*
X73033602Y-127359563D03*
D13*
X83747070Y-118275840D03*
X82318128Y-119100840D03*
D15*
X121922275Y-122272932D03*
X121922275Y-120622932D03*
D23*
X82514747Y-106291391D03*
X81689747Y-104862449D03*
D35*
X110397233Y-89539111D03*
D36*
X111667233Y-91738816D03*
X112937233Y-93938520D03*
X114207233Y-96138225D03*
X115477233Y-98337929D03*
X116747233Y-100537634D03*
D37*
X94275001Y-59777746D03*
X94275001Y-61047746D03*
X94275001Y-62317746D03*
X94275001Y-63587746D03*
X94275001Y-64857746D03*
X94275001Y-66127746D03*
X94275001Y-67397746D03*
X94275001Y-68667746D03*
X94275001Y-69937746D03*
X94275001Y-71207746D03*
X94275001Y-72477746D03*
X94275001Y-73747746D03*
X94275001Y-75017746D03*
X94275001Y-76287746D03*
X94275001Y-77557746D03*
X94275001Y-78827746D03*
X94275001Y-80097746D03*
X94275001Y-81367746D03*
X94275001Y-82637746D03*
X111775001Y-82637746D03*
X111775001Y-81367746D03*
X111775001Y-80097746D03*
X111775001Y-78827746D03*
X111775001Y-77557746D03*
X111775001Y-76287746D03*
X111775001Y-75017746D03*
X111775001Y-73747746D03*
X111775001Y-72477746D03*
X111775001Y-71207746D03*
X111775001Y-69937746D03*
X111775001Y-68667746D03*
X111775001Y-67397746D03*
X111775001Y-66127746D03*
X111775001Y-64857746D03*
X111775001Y-63587746D03*
X111775001Y-62317746D03*
X111775001Y-61047746D03*
X111775001Y-59777746D03*
D38*
X100125001Y-67577746D03*
X101525001Y-67577746D03*
X102925001Y-67577746D03*
X100125001Y-66177746D03*
X101525001Y-66177746D03*
X102925001Y-66177746D03*
X100125001Y-68977746D03*
X101525001Y-68977746D03*
X102925001Y-68977746D03*
D39*
X102925001Y-66877746D03*
X101525001Y-66877746D03*
X100125001Y-66877746D03*
X100125001Y-68277746D03*
X101525001Y-68277746D03*
X102925001Y-68277746D03*
X102225001Y-66177746D03*
X100825001Y-66177746D03*
X102225001Y-67577746D03*
X100825001Y-67577746D03*
X100825001Y-68977746D03*
X102225001Y-68977746D03*
D30*
X126127276Y-128227931D03*
X127677276Y-128227931D03*
D16*
X127025002Y-114053721D03*
X127025002Y-115603721D03*
D40*
X90217238Y-100857624D03*
D41*
X91487238Y-98657919D03*
X92757238Y-96458215D03*
X94027238Y-94258510D03*
X95297238Y-92058806D03*
X96567238Y-89859101D03*
D17*
X106742259Y-105901813D03*
X106742259Y-107551813D03*
D33*
X88478320Y-120480596D03*
X87703320Y-119138256D03*
D24*
X106412278Y-96922927D03*
X106412278Y-95372927D03*
D15*
X107972272Y-102852931D03*
X107972272Y-101202931D03*
D18*
X129449772Y-109897928D03*
X131099772Y-109897928D03*
D27*
X134475003Y-125518723D03*
X130375003Y-125518723D03*
X130375003Y-127118723D03*
X134475003Y-127118723D03*
D42*
X100775004Y-99375247D03*
D43*
X100637504Y-100287747D03*
X100637504Y-100787747D03*
X100637504Y-101287747D03*
X100637504Y-101787747D03*
D42*
X100775004Y-102700247D03*
X101275004Y-102700247D03*
X101775004Y-102700247D03*
X102275004Y-102700247D03*
X102775004Y-102700247D03*
X103275004Y-102700247D03*
X103775004Y-102700247D03*
X104275004Y-102700247D03*
X104775004Y-102700247D03*
X105275004Y-102700247D03*
D43*
X105412504Y-101787747D03*
X105412504Y-101287747D03*
X105412504Y-100787747D03*
X105412504Y-100287747D03*
D42*
X105275004Y-99375247D03*
X104775004Y-99375247D03*
X104275004Y-99375247D03*
X103775004Y-99375247D03*
X103275004Y-99375247D03*
X102775004Y-99375247D03*
X102275004Y-99375247D03*
X101775004Y-99375247D03*
X101275004Y-99375247D03*
D16*
X130025000Y-114053715D03*
X130025000Y-115603715D03*
D40*
X138225007Y-121437750D03*
D41*
X139495007Y-119238045D03*
D44*
X76725668Y-120975438D03*
D45*
X73125668Y-114740056D03*
D46*
X74122245Y-115146177D03*
X74372245Y-115579190D03*
X74622245Y-116012203D03*
X74872245Y-116445215D03*
X75122245Y-116878228D03*
X75372245Y-117311241D03*
X75622245Y-117744253D03*
X75872245Y-118177266D03*
X76122245Y-118610279D03*
X76372245Y-119043291D03*
X76622245Y-119476304D03*
X76872245Y-119909317D03*
X75275001Y-120542811D03*
X75025001Y-120109798D03*
X74775001Y-119676785D03*
X74525001Y-119243772D03*
X74275001Y-118810760D03*
X74025001Y-118377747D03*
X73775001Y-117944734D03*
X73525001Y-117511722D03*
X73275001Y-117078709D03*
X73025001Y-116645696D03*
X72775001Y-116212683D03*
X72525001Y-115779671D03*
D47*
X70935285Y-125346201D03*
X75908136Y-122059432D03*
X66445285Y-117569293D03*
X71778136Y-114906062D03*
D17*
X98422255Y-105871811D03*
X98422255Y-107521811D03*
D48*
X88714423Y-114449535D03*
X89539423Y-115878477D03*
M02*
