G04 #@! TF.GenerationSoftware,KiCad,Pcbnew,6.0.2+dfsg-1*
G04 #@! TF.CreationDate,2024-03-31T18:07:32+09:00*
G04 #@! TF.ProjectId,remote_controller,72656d6f-7465-45f6-936f-6e74726f6c6c,rev?*
G04 #@! TF.SameCoordinates,Original*
G04 #@! TF.FileFunction,Legend,Top*
G04 #@! TF.FilePolarity,Positive*
%FSLAX46Y46*%
G04 Gerber Fmt 4.6, Leading zero omitted, Abs format (unit mm)*
G04 Created by KiCad (PCBNEW 6.0.2+dfsg-1) date 2024-03-31 18:07:32*
%MOMM*%
%LPD*%
G01*
G04 APERTURE LIST*
%ADD10C,0.150000*%
%ADD11C,0.120000*%
%ADD12C,0.127000*%
%ADD13C,0.200000*%
G04 APERTURE END LIST*
D10*
X100418095Y-128070000D02*
X100322857Y-128022380D01*
X100180000Y-128022380D01*
X100037142Y-128070000D01*
X99941904Y-128165238D01*
X99894285Y-128260476D01*
X99846666Y-128450952D01*
X99846666Y-128593809D01*
X99894285Y-128784285D01*
X99941904Y-128879523D01*
X100037142Y-128974761D01*
X100180000Y-129022380D01*
X100275238Y-129022380D01*
X100418095Y-128974761D01*
X100465714Y-128927142D01*
X100465714Y-128593809D01*
X100275238Y-128593809D01*
X100894285Y-129022380D02*
X100894285Y-128022380D01*
X101465714Y-129022380D01*
X101465714Y-128022380D01*
X101941904Y-129022380D02*
X101941904Y-128022380D01*
X102180000Y-128022380D01*
X102322857Y-128070000D01*
X102418095Y-128165238D01*
X102465714Y-128260476D01*
X102513333Y-128450952D01*
X102513333Y-128593809D01*
X102465714Y-128784285D01*
X102418095Y-128879523D01*
X102322857Y-128974761D01*
X102180000Y-129022380D01*
X101941904Y-129022380D01*
X90390952Y-128418571D02*
X90533809Y-128466190D01*
X90581428Y-128513809D01*
X90629047Y-128609047D01*
X90629047Y-128751904D01*
X90581428Y-128847142D01*
X90533809Y-128894761D01*
X90438571Y-128942380D01*
X90057619Y-128942380D01*
X90057619Y-127942380D01*
X90390952Y-127942380D01*
X90486190Y-127990000D01*
X90533809Y-128037619D01*
X90581428Y-128132857D01*
X90581428Y-128228095D01*
X90533809Y-128323333D01*
X90486190Y-128370952D01*
X90390952Y-128418571D01*
X90057619Y-128418571D01*
X91010000Y-128656666D02*
X91486190Y-128656666D01*
X90914761Y-128942380D02*
X91248095Y-127942380D01*
X91581428Y-128942380D01*
X91771904Y-127942380D02*
X92343333Y-127942380D01*
X92057619Y-128942380D02*
X92057619Y-127942380D01*
X92533809Y-127942380D02*
X93105238Y-127942380D01*
X92819523Y-128942380D02*
X92819523Y-127942380D01*
G04 #@! TO.C,R28*
X108197142Y-68402380D02*
X107863809Y-67926190D01*
X107625714Y-68402380D02*
X107625714Y-67402380D01*
X108006666Y-67402380D01*
X108101904Y-67450000D01*
X108149523Y-67497619D01*
X108197142Y-67592857D01*
X108197142Y-67735714D01*
X108149523Y-67830952D01*
X108101904Y-67878571D01*
X108006666Y-67926190D01*
X107625714Y-67926190D01*
X108578095Y-67497619D02*
X108625714Y-67450000D01*
X108720952Y-67402380D01*
X108959047Y-67402380D01*
X109054285Y-67450000D01*
X109101904Y-67497619D01*
X109149523Y-67592857D01*
X109149523Y-67688095D01*
X109101904Y-67830952D01*
X108530476Y-68402380D01*
X109149523Y-68402380D01*
X109720952Y-67830952D02*
X109625714Y-67783333D01*
X109578095Y-67735714D01*
X109530476Y-67640476D01*
X109530476Y-67592857D01*
X109578095Y-67497619D01*
X109625714Y-67450000D01*
X109720952Y-67402380D01*
X109911428Y-67402380D01*
X110006666Y-67450000D01*
X110054285Y-67497619D01*
X110101904Y-67592857D01*
X110101904Y-67640476D01*
X110054285Y-67735714D01*
X110006666Y-67783333D01*
X109911428Y-67830952D01*
X109720952Y-67830952D01*
X109625714Y-67878571D01*
X109578095Y-67926190D01*
X109530476Y-68021428D01*
X109530476Y-68211904D01*
X109578095Y-68307142D01*
X109625714Y-68354761D01*
X109720952Y-68402380D01*
X109911428Y-68402380D01*
X110006666Y-68354761D01*
X110054285Y-68307142D01*
X110101904Y-68211904D01*
X110101904Y-68021428D01*
X110054285Y-67926190D01*
X110006666Y-67878571D01*
X109911428Y-67830952D01*
G04 #@! TO.C,U3*
X116178095Y-102512380D02*
X116178095Y-103321904D01*
X116225714Y-103417142D01*
X116273333Y-103464761D01*
X116368571Y-103512380D01*
X116559047Y-103512380D01*
X116654285Y-103464761D01*
X116701904Y-103417142D01*
X116749523Y-103321904D01*
X116749523Y-102512380D01*
X117130476Y-102512380D02*
X117749523Y-102512380D01*
X117416190Y-102893333D01*
X117559047Y-102893333D01*
X117654285Y-102940952D01*
X117701904Y-102988571D01*
X117749523Y-103083809D01*
X117749523Y-103321904D01*
X117701904Y-103417142D01*
X117654285Y-103464761D01*
X117559047Y-103512380D01*
X117273333Y-103512380D01*
X117178095Y-103464761D01*
X117130476Y-103417142D01*
G04 #@! TO.C,R29*
X122237142Y-87132380D02*
X121903809Y-86656190D01*
X121665714Y-87132380D02*
X121665714Y-86132380D01*
X122046666Y-86132380D01*
X122141904Y-86180000D01*
X122189523Y-86227619D01*
X122237142Y-86322857D01*
X122237142Y-86465714D01*
X122189523Y-86560952D01*
X122141904Y-86608571D01*
X122046666Y-86656190D01*
X121665714Y-86656190D01*
X122618095Y-86227619D02*
X122665714Y-86180000D01*
X122760952Y-86132380D01*
X122999047Y-86132380D01*
X123094285Y-86180000D01*
X123141904Y-86227619D01*
X123189523Y-86322857D01*
X123189523Y-86418095D01*
X123141904Y-86560952D01*
X122570476Y-87132380D01*
X123189523Y-87132380D01*
X123665714Y-87132380D02*
X123856190Y-87132380D01*
X123951428Y-87084761D01*
X123999047Y-87037142D01*
X124094285Y-86894285D01*
X124141904Y-86703809D01*
X124141904Y-86322857D01*
X124094285Y-86227619D01*
X124046666Y-86180000D01*
X123951428Y-86132380D01*
X123760952Y-86132380D01*
X123665714Y-86180000D01*
X123618095Y-86227619D01*
X123570476Y-86322857D01*
X123570476Y-86560952D01*
X123618095Y-86656190D01*
X123665714Y-86703809D01*
X123760952Y-86751428D01*
X123951428Y-86751428D01*
X124046666Y-86703809D01*
X124094285Y-86656190D01*
X124141904Y-86560952D01*
G04 #@! TO.C,D13*
X118695714Y-97262380D02*
X118695714Y-96262380D01*
X118933809Y-96262380D01*
X119076666Y-96310000D01*
X119171904Y-96405238D01*
X119219523Y-96500476D01*
X119267142Y-96690952D01*
X119267142Y-96833809D01*
X119219523Y-97024285D01*
X119171904Y-97119523D01*
X119076666Y-97214761D01*
X118933809Y-97262380D01*
X118695714Y-97262380D01*
X120219523Y-97262380D02*
X119648095Y-97262380D01*
X119933809Y-97262380D02*
X119933809Y-96262380D01*
X119838571Y-96405238D01*
X119743333Y-96500476D01*
X119648095Y-96548095D01*
X120552857Y-96262380D02*
X121171904Y-96262380D01*
X120838571Y-96643333D01*
X120981428Y-96643333D01*
X121076666Y-96690952D01*
X121124285Y-96738571D01*
X121171904Y-96833809D01*
X121171904Y-97071904D01*
X121124285Y-97167142D01*
X121076666Y-97214761D01*
X120981428Y-97262380D01*
X120695714Y-97262380D01*
X120600476Y-97214761D01*
X120552857Y-97167142D01*
G04 #@! TO.C,IO0*
X98330000Y-111132380D02*
X98330000Y-110132380D01*
X98996666Y-110132380D02*
X99187142Y-110132380D01*
X99282380Y-110180000D01*
X99377619Y-110275238D01*
X99425238Y-110465714D01*
X99425238Y-110799047D01*
X99377619Y-110989523D01*
X99282380Y-111084761D01*
X99187142Y-111132380D01*
X98996666Y-111132380D01*
X98901428Y-111084761D01*
X98806190Y-110989523D01*
X98758571Y-110799047D01*
X98758571Y-110465714D01*
X98806190Y-110275238D01*
X98901428Y-110180000D01*
X98996666Y-110132380D01*
X100044285Y-110132380D02*
X100139523Y-110132380D01*
X100234761Y-110180000D01*
X100282380Y-110227619D01*
X100330000Y-110322857D01*
X100377619Y-110513333D01*
X100377619Y-110751428D01*
X100330000Y-110941904D01*
X100282380Y-111037142D01*
X100234761Y-111084761D01*
X100139523Y-111132380D01*
X100044285Y-111132380D01*
X99949047Y-111084761D01*
X99901428Y-111037142D01*
X99853809Y-110941904D01*
X99806190Y-110751428D01*
X99806190Y-110513333D01*
X99853809Y-110322857D01*
X99901428Y-110227619D01*
X99949047Y-110180000D01*
X100044285Y-110132380D01*
G04 #@! TO.C,C1*
X89103333Y-118607142D02*
X89055714Y-118654761D01*
X88912857Y-118702380D01*
X88817619Y-118702380D01*
X88674761Y-118654761D01*
X88579523Y-118559523D01*
X88531904Y-118464285D01*
X88484285Y-118273809D01*
X88484285Y-118130952D01*
X88531904Y-117940476D01*
X88579523Y-117845238D01*
X88674761Y-117750000D01*
X88817619Y-117702380D01*
X88912857Y-117702380D01*
X89055714Y-117750000D01*
X89103333Y-117797619D01*
X90055714Y-118702380D02*
X89484285Y-118702380D01*
X89770000Y-118702380D02*
X89770000Y-117702380D01*
X89674761Y-117845238D01*
X89579523Y-117940476D01*
X89484285Y-117988095D01*
G04 #@! TO.C,OPT2*
X112027619Y-94532380D02*
X112218095Y-94532380D01*
X112313333Y-94580000D01*
X112408571Y-94675238D01*
X112456190Y-94865714D01*
X112456190Y-95199047D01*
X112408571Y-95389523D01*
X112313333Y-95484761D01*
X112218095Y-95532380D01*
X112027619Y-95532380D01*
X111932380Y-95484761D01*
X111837142Y-95389523D01*
X111789523Y-95199047D01*
X111789523Y-94865714D01*
X111837142Y-94675238D01*
X111932380Y-94580000D01*
X112027619Y-94532380D01*
X112884761Y-95532380D02*
X112884761Y-94532380D01*
X113265714Y-94532380D01*
X113360952Y-94580000D01*
X113408571Y-94627619D01*
X113456190Y-94722857D01*
X113456190Y-94865714D01*
X113408571Y-94960952D01*
X113360952Y-95008571D01*
X113265714Y-95056190D01*
X112884761Y-95056190D01*
X113741904Y-94532380D02*
X114313333Y-94532380D01*
X114027619Y-95532380D02*
X114027619Y-94532380D01*
X114599047Y-94627619D02*
X114646666Y-94580000D01*
X114741904Y-94532380D01*
X114980000Y-94532380D01*
X115075238Y-94580000D01*
X115122857Y-94627619D01*
X115170476Y-94722857D01*
X115170476Y-94818095D01*
X115122857Y-94960952D01*
X114551428Y-95532380D01*
X115170476Y-95532380D01*
G04 #@! TO.C,R13*
X116352142Y-36702380D02*
X116018809Y-36226190D01*
X115780714Y-36702380D02*
X115780714Y-35702380D01*
X116161666Y-35702380D01*
X116256904Y-35750000D01*
X116304523Y-35797619D01*
X116352142Y-35892857D01*
X116352142Y-36035714D01*
X116304523Y-36130952D01*
X116256904Y-36178571D01*
X116161666Y-36226190D01*
X115780714Y-36226190D01*
X117304523Y-36702380D02*
X116733095Y-36702380D01*
X117018809Y-36702380D02*
X117018809Y-35702380D01*
X116923571Y-35845238D01*
X116828333Y-35940476D01*
X116733095Y-35988095D01*
X117637857Y-35702380D02*
X118256904Y-35702380D01*
X117923571Y-36083333D01*
X118066428Y-36083333D01*
X118161666Y-36130952D01*
X118209285Y-36178571D01*
X118256904Y-36273809D01*
X118256904Y-36511904D01*
X118209285Y-36607142D01*
X118161666Y-36654761D01*
X118066428Y-36702380D01*
X117780714Y-36702380D01*
X117685476Y-36654761D01*
X117637857Y-36607142D01*
G04 #@! TO.C,C3*
X104323333Y-126257142D02*
X104275714Y-126304761D01*
X104132857Y-126352380D01*
X104037619Y-126352380D01*
X103894761Y-126304761D01*
X103799523Y-126209523D01*
X103751904Y-126114285D01*
X103704285Y-125923809D01*
X103704285Y-125780952D01*
X103751904Y-125590476D01*
X103799523Y-125495238D01*
X103894761Y-125400000D01*
X104037619Y-125352380D01*
X104132857Y-125352380D01*
X104275714Y-125400000D01*
X104323333Y-125447619D01*
X104656666Y-125352380D02*
X105275714Y-125352380D01*
X104942380Y-125733333D01*
X105085238Y-125733333D01*
X105180476Y-125780952D01*
X105228095Y-125828571D01*
X105275714Y-125923809D01*
X105275714Y-126161904D01*
X105228095Y-126257142D01*
X105180476Y-126304761D01*
X105085238Y-126352380D01*
X104799523Y-126352380D01*
X104704285Y-126304761D01*
X104656666Y-126257142D01*
G04 #@! TO.C,R8*
X120263333Y-49532380D02*
X119930000Y-49056190D01*
X119691904Y-49532380D02*
X119691904Y-48532380D01*
X120072857Y-48532380D01*
X120168095Y-48580000D01*
X120215714Y-48627619D01*
X120263333Y-48722857D01*
X120263333Y-48865714D01*
X120215714Y-48960952D01*
X120168095Y-49008571D01*
X120072857Y-49056190D01*
X119691904Y-49056190D01*
X120834761Y-48960952D02*
X120739523Y-48913333D01*
X120691904Y-48865714D01*
X120644285Y-48770476D01*
X120644285Y-48722857D01*
X120691904Y-48627619D01*
X120739523Y-48580000D01*
X120834761Y-48532380D01*
X121025238Y-48532380D01*
X121120476Y-48580000D01*
X121168095Y-48627619D01*
X121215714Y-48722857D01*
X121215714Y-48770476D01*
X121168095Y-48865714D01*
X121120476Y-48913333D01*
X121025238Y-48960952D01*
X120834761Y-48960952D01*
X120739523Y-49008571D01*
X120691904Y-49056190D01*
X120644285Y-49151428D01*
X120644285Y-49341904D01*
X120691904Y-49437142D01*
X120739523Y-49484761D01*
X120834761Y-49532380D01*
X121025238Y-49532380D01*
X121120476Y-49484761D01*
X121168095Y-49437142D01*
X121215714Y-49341904D01*
X121215714Y-49151428D01*
X121168095Y-49056190D01*
X121120476Y-49008571D01*
X121025238Y-48960952D01*
G04 #@! TO.C,D11*
X110705714Y-68382380D02*
X110705714Y-67382380D01*
X110943809Y-67382380D01*
X111086666Y-67430000D01*
X111181904Y-67525238D01*
X111229523Y-67620476D01*
X111277142Y-67810952D01*
X111277142Y-67953809D01*
X111229523Y-68144285D01*
X111181904Y-68239523D01*
X111086666Y-68334761D01*
X110943809Y-68382380D01*
X110705714Y-68382380D01*
X112229523Y-68382380D02*
X111658095Y-68382380D01*
X111943809Y-68382380D02*
X111943809Y-67382380D01*
X111848571Y-67525238D01*
X111753333Y-67620476D01*
X111658095Y-67668095D01*
X113181904Y-68382380D02*
X112610476Y-68382380D01*
X112896190Y-68382380D02*
X112896190Y-67382380D01*
X112800952Y-67525238D01*
X112705714Y-67620476D01*
X112610476Y-67668095D01*
G04 #@! TO.C,U1*
X95538095Y-117012380D02*
X95538095Y-117821904D01*
X95585714Y-117917142D01*
X95633333Y-117964761D01*
X95728571Y-118012380D01*
X95919047Y-118012380D01*
X96014285Y-117964761D01*
X96061904Y-117917142D01*
X96109523Y-117821904D01*
X96109523Y-117012380D01*
X97109523Y-118012380D02*
X96538095Y-118012380D01*
X96823809Y-118012380D02*
X96823809Y-117012380D01*
X96728571Y-117155238D01*
X96633333Y-117250476D01*
X96538095Y-117298095D01*
G04 #@! TO.C,R21*
X88582142Y-88014880D02*
X88248809Y-87538690D01*
X88010714Y-88014880D02*
X88010714Y-87014880D01*
X88391666Y-87014880D01*
X88486904Y-87062500D01*
X88534523Y-87110119D01*
X88582142Y-87205357D01*
X88582142Y-87348214D01*
X88534523Y-87443452D01*
X88486904Y-87491071D01*
X88391666Y-87538690D01*
X88010714Y-87538690D01*
X88963095Y-87110119D02*
X89010714Y-87062500D01*
X89105952Y-87014880D01*
X89344047Y-87014880D01*
X89439285Y-87062500D01*
X89486904Y-87110119D01*
X89534523Y-87205357D01*
X89534523Y-87300595D01*
X89486904Y-87443452D01*
X88915476Y-88014880D01*
X89534523Y-88014880D01*
X90486904Y-88014880D02*
X89915476Y-88014880D01*
X90201190Y-88014880D02*
X90201190Y-87014880D01*
X90105952Y-87157738D01*
X90010714Y-87252976D01*
X89915476Y-87300595D01*
G04 #@! TO.C,D9*
X90891904Y-97532380D02*
X90891904Y-96532380D01*
X91130000Y-96532380D01*
X91272857Y-96580000D01*
X91368095Y-96675238D01*
X91415714Y-96770476D01*
X91463333Y-96960952D01*
X91463333Y-97103809D01*
X91415714Y-97294285D01*
X91368095Y-97389523D01*
X91272857Y-97484761D01*
X91130000Y-97532380D01*
X90891904Y-97532380D01*
X91939523Y-97532380D02*
X92130000Y-97532380D01*
X92225238Y-97484761D01*
X92272857Y-97437142D01*
X92368095Y-97294285D01*
X92415714Y-97103809D01*
X92415714Y-96722857D01*
X92368095Y-96627619D01*
X92320476Y-96580000D01*
X92225238Y-96532380D01*
X92034761Y-96532380D01*
X91939523Y-96580000D01*
X91891904Y-96627619D01*
X91844285Y-96722857D01*
X91844285Y-96960952D01*
X91891904Y-97056190D01*
X91939523Y-97103809D01*
X92034761Y-97151428D01*
X92225238Y-97151428D01*
X92320476Y-97103809D01*
X92368095Y-97056190D01*
X92415714Y-96960952D01*
G04 #@! TO.C,D2*
X109791904Y-103512380D02*
X109791904Y-102512380D01*
X110030000Y-102512380D01*
X110172857Y-102560000D01*
X110268095Y-102655238D01*
X110315714Y-102750476D01*
X110363333Y-102940952D01*
X110363333Y-103083809D01*
X110315714Y-103274285D01*
X110268095Y-103369523D01*
X110172857Y-103464761D01*
X110030000Y-103512380D01*
X109791904Y-103512380D01*
X110744285Y-102607619D02*
X110791904Y-102560000D01*
X110887142Y-102512380D01*
X111125238Y-102512380D01*
X111220476Y-102560000D01*
X111268095Y-102607619D01*
X111315714Y-102702857D01*
X111315714Y-102798095D01*
X111268095Y-102940952D01*
X110696666Y-103512380D01*
X111315714Y-103512380D01*
G04 #@! TO.C,R27*
X101177142Y-68212380D02*
X100843809Y-67736190D01*
X100605714Y-68212380D02*
X100605714Y-67212380D01*
X100986666Y-67212380D01*
X101081904Y-67260000D01*
X101129523Y-67307619D01*
X101177142Y-67402857D01*
X101177142Y-67545714D01*
X101129523Y-67640952D01*
X101081904Y-67688571D01*
X100986666Y-67736190D01*
X100605714Y-67736190D01*
X101558095Y-67307619D02*
X101605714Y-67260000D01*
X101700952Y-67212380D01*
X101939047Y-67212380D01*
X102034285Y-67260000D01*
X102081904Y-67307619D01*
X102129523Y-67402857D01*
X102129523Y-67498095D01*
X102081904Y-67640952D01*
X101510476Y-68212380D01*
X102129523Y-68212380D01*
X102462857Y-67212380D02*
X103129523Y-67212380D01*
X102700952Y-68212380D01*
G04 #@! TO.C,CCW*
X96888095Y-85977142D02*
X96840476Y-86024761D01*
X96697619Y-86072380D01*
X96602380Y-86072380D01*
X96459523Y-86024761D01*
X96364285Y-85929523D01*
X96316666Y-85834285D01*
X96269047Y-85643809D01*
X96269047Y-85500952D01*
X96316666Y-85310476D01*
X96364285Y-85215238D01*
X96459523Y-85120000D01*
X96602380Y-85072380D01*
X96697619Y-85072380D01*
X96840476Y-85120000D01*
X96888095Y-85167619D01*
X97888095Y-85977142D02*
X97840476Y-86024761D01*
X97697619Y-86072380D01*
X97602380Y-86072380D01*
X97459523Y-86024761D01*
X97364285Y-85929523D01*
X97316666Y-85834285D01*
X97269047Y-85643809D01*
X97269047Y-85500952D01*
X97316666Y-85310476D01*
X97364285Y-85215238D01*
X97459523Y-85120000D01*
X97602380Y-85072380D01*
X97697619Y-85072380D01*
X97840476Y-85120000D01*
X97888095Y-85167619D01*
X98221428Y-85072380D02*
X98459523Y-86072380D01*
X98650000Y-85358095D01*
X98840476Y-86072380D01*
X99078571Y-85072380D01*
G04 #@! TO.C,R22*
X88407142Y-97482380D02*
X88073809Y-97006190D01*
X87835714Y-97482380D02*
X87835714Y-96482380D01*
X88216666Y-96482380D01*
X88311904Y-96530000D01*
X88359523Y-96577619D01*
X88407142Y-96672857D01*
X88407142Y-96815714D01*
X88359523Y-96910952D01*
X88311904Y-96958571D01*
X88216666Y-97006190D01*
X87835714Y-97006190D01*
X88788095Y-96577619D02*
X88835714Y-96530000D01*
X88930952Y-96482380D01*
X89169047Y-96482380D01*
X89264285Y-96530000D01*
X89311904Y-96577619D01*
X89359523Y-96672857D01*
X89359523Y-96768095D01*
X89311904Y-96910952D01*
X88740476Y-97482380D01*
X89359523Y-97482380D01*
X89740476Y-96577619D02*
X89788095Y-96530000D01*
X89883333Y-96482380D01*
X90121428Y-96482380D01*
X90216666Y-96530000D01*
X90264285Y-96577619D01*
X90311904Y-96672857D01*
X90311904Y-96768095D01*
X90264285Y-96910952D01*
X89692857Y-97482380D01*
X90311904Y-97482380D01*
G04 #@! TO.C,R24*
X108937142Y-72912380D02*
X108603809Y-72436190D01*
X108365714Y-72912380D02*
X108365714Y-71912380D01*
X108746666Y-71912380D01*
X108841904Y-71960000D01*
X108889523Y-72007619D01*
X108937142Y-72102857D01*
X108937142Y-72245714D01*
X108889523Y-72340952D01*
X108841904Y-72388571D01*
X108746666Y-72436190D01*
X108365714Y-72436190D01*
X109318095Y-72007619D02*
X109365714Y-71960000D01*
X109460952Y-71912380D01*
X109699047Y-71912380D01*
X109794285Y-71960000D01*
X109841904Y-72007619D01*
X109889523Y-72102857D01*
X109889523Y-72198095D01*
X109841904Y-72340952D01*
X109270476Y-72912380D01*
X109889523Y-72912380D01*
X110746666Y-72245714D02*
X110746666Y-72912380D01*
X110508571Y-71864761D02*
X110270476Y-72579047D01*
X110889523Y-72579047D01*
G04 #@! TO.C,R1*
X88483333Y-106992380D02*
X88150000Y-106516190D01*
X87911904Y-106992380D02*
X87911904Y-105992380D01*
X88292857Y-105992380D01*
X88388095Y-106040000D01*
X88435714Y-106087619D01*
X88483333Y-106182857D01*
X88483333Y-106325714D01*
X88435714Y-106420952D01*
X88388095Y-106468571D01*
X88292857Y-106516190D01*
X87911904Y-106516190D01*
X89435714Y-106992380D02*
X88864285Y-106992380D01*
X89150000Y-106992380D02*
X89150000Y-105992380D01*
X89054761Y-106135238D01*
X88959523Y-106230476D01*
X88864285Y-106278095D01*
G04 #@! TO.C,OPT1*
X96197619Y-94542380D02*
X96388095Y-94542380D01*
X96483333Y-94590000D01*
X96578571Y-94685238D01*
X96626190Y-94875714D01*
X96626190Y-95209047D01*
X96578571Y-95399523D01*
X96483333Y-95494761D01*
X96388095Y-95542380D01*
X96197619Y-95542380D01*
X96102380Y-95494761D01*
X96007142Y-95399523D01*
X95959523Y-95209047D01*
X95959523Y-94875714D01*
X96007142Y-94685238D01*
X96102380Y-94590000D01*
X96197619Y-94542380D01*
X97054761Y-95542380D02*
X97054761Y-94542380D01*
X97435714Y-94542380D01*
X97530952Y-94590000D01*
X97578571Y-94637619D01*
X97626190Y-94732857D01*
X97626190Y-94875714D01*
X97578571Y-94970952D01*
X97530952Y-95018571D01*
X97435714Y-95066190D01*
X97054761Y-95066190D01*
X97911904Y-94542380D02*
X98483333Y-94542380D01*
X98197619Y-95542380D02*
X98197619Y-94542380D01*
X99340476Y-95542380D02*
X98769047Y-95542380D01*
X99054761Y-95542380D02*
X99054761Y-94542380D01*
X98959523Y-94685238D01*
X98864285Y-94780476D01*
X98769047Y-94828095D01*
G04 #@! TO.C,DOWN*
X103686547Y-85797380D02*
X103686547Y-84797380D01*
X103924642Y-84797380D01*
X104067500Y-84845000D01*
X104162738Y-84940238D01*
X104210357Y-85035476D01*
X104257976Y-85225952D01*
X104257976Y-85368809D01*
X104210357Y-85559285D01*
X104162738Y-85654523D01*
X104067500Y-85749761D01*
X103924642Y-85797380D01*
X103686547Y-85797380D01*
X104877023Y-84797380D02*
X105067500Y-84797380D01*
X105162738Y-84845000D01*
X105257976Y-84940238D01*
X105305595Y-85130714D01*
X105305595Y-85464047D01*
X105257976Y-85654523D01*
X105162738Y-85749761D01*
X105067500Y-85797380D01*
X104877023Y-85797380D01*
X104781785Y-85749761D01*
X104686547Y-85654523D01*
X104638928Y-85464047D01*
X104638928Y-85130714D01*
X104686547Y-84940238D01*
X104781785Y-84845000D01*
X104877023Y-84797380D01*
X105638928Y-84797380D02*
X105877023Y-85797380D01*
X106067500Y-85083095D01*
X106257976Y-85797380D01*
X106496071Y-84797380D01*
X106877023Y-85797380D02*
X106877023Y-84797380D01*
X107448452Y-85797380D01*
X107448452Y-84797380D01*
G04 #@! TO.C,D3*
X116259404Y-32882380D02*
X116259404Y-31882380D01*
X116497500Y-31882380D01*
X116640357Y-31930000D01*
X116735595Y-32025238D01*
X116783214Y-32120476D01*
X116830833Y-32310952D01*
X116830833Y-32453809D01*
X116783214Y-32644285D01*
X116735595Y-32739523D01*
X116640357Y-32834761D01*
X116497500Y-32882380D01*
X116259404Y-32882380D01*
X117164166Y-31882380D02*
X117783214Y-31882380D01*
X117449880Y-32263333D01*
X117592738Y-32263333D01*
X117687976Y-32310952D01*
X117735595Y-32358571D01*
X117783214Y-32453809D01*
X117783214Y-32691904D01*
X117735595Y-32787142D01*
X117687976Y-32834761D01*
X117592738Y-32882380D01*
X117307023Y-32882380D01*
X117211785Y-32834761D01*
X117164166Y-32787142D01*
G04 #@! TO.C,R15*
X108037142Y-65752380D02*
X107703809Y-65276190D01*
X107465714Y-65752380D02*
X107465714Y-64752380D01*
X107846666Y-64752380D01*
X107941904Y-64800000D01*
X107989523Y-64847619D01*
X108037142Y-64942857D01*
X108037142Y-65085714D01*
X107989523Y-65180952D01*
X107941904Y-65228571D01*
X107846666Y-65276190D01*
X107465714Y-65276190D01*
X108989523Y-65752380D02*
X108418095Y-65752380D01*
X108703809Y-65752380D02*
X108703809Y-64752380D01*
X108608571Y-64895238D01*
X108513333Y-64990476D01*
X108418095Y-65038095D01*
X109894285Y-64752380D02*
X109418095Y-64752380D01*
X109370476Y-65228571D01*
X109418095Y-65180952D01*
X109513333Y-65133333D01*
X109751428Y-65133333D01*
X109846666Y-65180952D01*
X109894285Y-65228571D01*
X109941904Y-65323809D01*
X109941904Y-65561904D01*
X109894285Y-65657142D01*
X109846666Y-65704761D01*
X109751428Y-65752380D01*
X109513333Y-65752380D01*
X109418095Y-65704761D01*
X109370476Y-65657142D01*
G04 #@! TO.C,EN*
X98599404Y-104688571D02*
X98932738Y-104688571D01*
X99075595Y-105212380D02*
X98599404Y-105212380D01*
X98599404Y-104212380D01*
X99075595Y-104212380D01*
X99504166Y-105212380D02*
X99504166Y-104212380D01*
X100075595Y-105212380D01*
X100075595Y-104212380D01*
G04 #@! TO.C,R16*
X107957142Y-74772380D02*
X107623809Y-74296190D01*
X107385714Y-74772380D02*
X107385714Y-73772380D01*
X107766666Y-73772380D01*
X107861904Y-73820000D01*
X107909523Y-73867619D01*
X107957142Y-73962857D01*
X107957142Y-74105714D01*
X107909523Y-74200952D01*
X107861904Y-74248571D01*
X107766666Y-74296190D01*
X107385714Y-74296190D01*
X108909523Y-74772380D02*
X108338095Y-74772380D01*
X108623809Y-74772380D02*
X108623809Y-73772380D01*
X108528571Y-73915238D01*
X108433333Y-74010476D01*
X108338095Y-74058095D01*
X109766666Y-73772380D02*
X109576190Y-73772380D01*
X109480952Y-73820000D01*
X109433333Y-73867619D01*
X109338095Y-74010476D01*
X109290476Y-74200952D01*
X109290476Y-74581904D01*
X109338095Y-74677142D01*
X109385714Y-74724761D01*
X109480952Y-74772380D01*
X109671428Y-74772380D01*
X109766666Y-74724761D01*
X109814285Y-74677142D01*
X109861904Y-74581904D01*
X109861904Y-74343809D01*
X109814285Y-74248571D01*
X109766666Y-74200952D01*
X109671428Y-74153333D01*
X109480952Y-74153333D01*
X109385714Y-74200952D01*
X109338095Y-74248571D01*
X109290476Y-74343809D01*
G04 #@! TO.C,R7*
X122763333Y-31472380D02*
X122430000Y-30996190D01*
X122191904Y-31472380D02*
X122191904Y-30472380D01*
X122572857Y-30472380D01*
X122668095Y-30520000D01*
X122715714Y-30567619D01*
X122763333Y-30662857D01*
X122763333Y-30805714D01*
X122715714Y-30900952D01*
X122668095Y-30948571D01*
X122572857Y-30996190D01*
X122191904Y-30996190D01*
X123096666Y-30472380D02*
X123763333Y-30472380D01*
X123334761Y-31472380D01*
G04 #@! TO.C,RIGHT*
X117109166Y-66322380D02*
X116775833Y-65846190D01*
X116537738Y-66322380D02*
X116537738Y-65322380D01*
X116918690Y-65322380D01*
X117013928Y-65370000D01*
X117061547Y-65417619D01*
X117109166Y-65512857D01*
X117109166Y-65655714D01*
X117061547Y-65750952D01*
X117013928Y-65798571D01*
X116918690Y-65846190D01*
X116537738Y-65846190D01*
X117537738Y-66322380D02*
X117537738Y-65322380D01*
X118537738Y-65370000D02*
X118442500Y-65322380D01*
X118299642Y-65322380D01*
X118156785Y-65370000D01*
X118061547Y-65465238D01*
X118013928Y-65560476D01*
X117966309Y-65750952D01*
X117966309Y-65893809D01*
X118013928Y-66084285D01*
X118061547Y-66179523D01*
X118156785Y-66274761D01*
X118299642Y-66322380D01*
X118394880Y-66322380D01*
X118537738Y-66274761D01*
X118585357Y-66227142D01*
X118585357Y-65893809D01*
X118394880Y-65893809D01*
X119013928Y-66322380D02*
X119013928Y-65322380D01*
X119013928Y-65798571D02*
X119585357Y-65798571D01*
X119585357Y-66322380D02*
X119585357Y-65322380D01*
X119918690Y-65322380D02*
X120490119Y-65322380D01*
X120204404Y-66322380D02*
X120204404Y-65322380D01*
G04 #@! TO.C,Q2*
X91944761Y-116237619D02*
X91849523Y-116190000D01*
X91754285Y-116094761D01*
X91611428Y-115951904D01*
X91516190Y-115904285D01*
X91420952Y-115904285D01*
X91468571Y-116142380D02*
X91373333Y-116094761D01*
X91278095Y-115999523D01*
X91230476Y-115809047D01*
X91230476Y-115475714D01*
X91278095Y-115285238D01*
X91373333Y-115190000D01*
X91468571Y-115142380D01*
X91659047Y-115142380D01*
X91754285Y-115190000D01*
X91849523Y-115285238D01*
X91897142Y-115475714D01*
X91897142Y-115809047D01*
X91849523Y-115999523D01*
X91754285Y-116094761D01*
X91659047Y-116142380D01*
X91468571Y-116142380D01*
X92278095Y-115237619D02*
X92325714Y-115190000D01*
X92420952Y-115142380D01*
X92659047Y-115142380D01*
X92754285Y-115190000D01*
X92801904Y-115237619D01*
X92849523Y-115332857D01*
X92849523Y-115428095D01*
X92801904Y-115570952D01*
X92230476Y-116142380D01*
X92849523Y-116142380D01*
G04 #@! TO.C,C7*
X106728333Y-115167142D02*
X106680714Y-115214761D01*
X106537857Y-115262380D01*
X106442619Y-115262380D01*
X106299761Y-115214761D01*
X106204523Y-115119523D01*
X106156904Y-115024285D01*
X106109285Y-114833809D01*
X106109285Y-114690952D01*
X106156904Y-114500476D01*
X106204523Y-114405238D01*
X106299761Y-114310000D01*
X106442619Y-114262380D01*
X106537857Y-114262380D01*
X106680714Y-114310000D01*
X106728333Y-114357619D01*
X107061666Y-114262380D02*
X107728333Y-114262380D01*
X107299761Y-115262380D01*
G04 #@! TO.C,C5*
X92333333Y-110027142D02*
X92285714Y-110074761D01*
X92142857Y-110122380D01*
X92047619Y-110122380D01*
X91904761Y-110074761D01*
X91809523Y-109979523D01*
X91761904Y-109884285D01*
X91714285Y-109693809D01*
X91714285Y-109550952D01*
X91761904Y-109360476D01*
X91809523Y-109265238D01*
X91904761Y-109170000D01*
X92047619Y-109122380D01*
X92142857Y-109122380D01*
X92285714Y-109170000D01*
X92333333Y-109217619D01*
X93238095Y-109122380D02*
X92761904Y-109122380D01*
X92714285Y-109598571D01*
X92761904Y-109550952D01*
X92857142Y-109503333D01*
X93095238Y-109503333D01*
X93190476Y-109550952D01*
X93238095Y-109598571D01*
X93285714Y-109693809D01*
X93285714Y-109931904D01*
X93238095Y-110027142D01*
X93190476Y-110074761D01*
X93095238Y-110122380D01*
X92857142Y-110122380D01*
X92761904Y-110074761D01*
X92714285Y-110027142D01*
G04 #@! TO.C,C8*
X106738333Y-111367142D02*
X106690714Y-111414761D01*
X106547857Y-111462380D01*
X106452619Y-111462380D01*
X106309761Y-111414761D01*
X106214523Y-111319523D01*
X106166904Y-111224285D01*
X106119285Y-111033809D01*
X106119285Y-110890952D01*
X106166904Y-110700476D01*
X106214523Y-110605238D01*
X106309761Y-110510000D01*
X106452619Y-110462380D01*
X106547857Y-110462380D01*
X106690714Y-110510000D01*
X106738333Y-110557619D01*
X107309761Y-110890952D02*
X107214523Y-110843333D01*
X107166904Y-110795714D01*
X107119285Y-110700476D01*
X107119285Y-110652857D01*
X107166904Y-110557619D01*
X107214523Y-110510000D01*
X107309761Y-110462380D01*
X107500238Y-110462380D01*
X107595476Y-110510000D01*
X107643095Y-110557619D01*
X107690714Y-110652857D01*
X107690714Y-110700476D01*
X107643095Y-110795714D01*
X107595476Y-110843333D01*
X107500238Y-110890952D01*
X107309761Y-110890952D01*
X107214523Y-110938571D01*
X107166904Y-110986190D01*
X107119285Y-111081428D01*
X107119285Y-111271904D01*
X107166904Y-111367142D01*
X107214523Y-111414761D01*
X107309761Y-111462380D01*
X107500238Y-111462380D01*
X107595476Y-111414761D01*
X107643095Y-111367142D01*
X107690714Y-111271904D01*
X107690714Y-111081428D01*
X107643095Y-110986190D01*
X107595476Y-110938571D01*
X107500238Y-110890952D01*
G04 #@! TO.C,D6*
X107331904Y-63762380D02*
X107331904Y-62762380D01*
X107570000Y-62762380D01*
X107712857Y-62810000D01*
X107808095Y-62905238D01*
X107855714Y-63000476D01*
X107903333Y-63190952D01*
X107903333Y-63333809D01*
X107855714Y-63524285D01*
X107808095Y-63619523D01*
X107712857Y-63714761D01*
X107570000Y-63762380D01*
X107331904Y-63762380D01*
X108760476Y-62762380D02*
X108570000Y-62762380D01*
X108474761Y-62810000D01*
X108427142Y-62857619D01*
X108331904Y-63000476D01*
X108284285Y-63190952D01*
X108284285Y-63571904D01*
X108331904Y-63667142D01*
X108379523Y-63714761D01*
X108474761Y-63762380D01*
X108665238Y-63762380D01*
X108760476Y-63714761D01*
X108808095Y-63667142D01*
X108855714Y-63571904D01*
X108855714Y-63333809D01*
X108808095Y-63238571D01*
X108760476Y-63190952D01*
X108665238Y-63143333D01*
X108474761Y-63143333D01*
X108379523Y-63190952D01*
X108331904Y-63238571D01*
X108284285Y-63333809D01*
G04 #@! TO.C,J1*
X92496666Y-125872380D02*
X92496666Y-126586666D01*
X92449047Y-126729523D01*
X92353809Y-126824761D01*
X92210952Y-126872380D01*
X92115714Y-126872380D01*
X93496666Y-126872380D02*
X92925238Y-126872380D01*
X93210952Y-126872380D02*
X93210952Y-125872380D01*
X93115714Y-126015238D01*
X93020476Y-126110476D01*
X92925238Y-126158095D01*
G04 #@! TO.C,D7*
X102011904Y-77162380D02*
X102011904Y-76162380D01*
X102250000Y-76162380D01*
X102392857Y-76210000D01*
X102488095Y-76305238D01*
X102535714Y-76400476D01*
X102583333Y-76590952D01*
X102583333Y-76733809D01*
X102535714Y-76924285D01*
X102488095Y-77019523D01*
X102392857Y-77114761D01*
X102250000Y-77162380D01*
X102011904Y-77162380D01*
X102916666Y-76162380D02*
X103583333Y-76162380D01*
X103154761Y-77162380D01*
G04 #@! TO.C,R23*
X100687142Y-72622380D02*
X100353809Y-72146190D01*
X100115714Y-72622380D02*
X100115714Y-71622380D01*
X100496666Y-71622380D01*
X100591904Y-71670000D01*
X100639523Y-71717619D01*
X100687142Y-71812857D01*
X100687142Y-71955714D01*
X100639523Y-72050952D01*
X100591904Y-72098571D01*
X100496666Y-72146190D01*
X100115714Y-72146190D01*
X101068095Y-71717619D02*
X101115714Y-71670000D01*
X101210952Y-71622380D01*
X101449047Y-71622380D01*
X101544285Y-71670000D01*
X101591904Y-71717619D01*
X101639523Y-71812857D01*
X101639523Y-71908095D01*
X101591904Y-72050952D01*
X101020476Y-72622380D01*
X101639523Y-72622380D01*
X101972857Y-71622380D02*
X102591904Y-71622380D01*
X102258571Y-72003333D01*
X102401428Y-72003333D01*
X102496666Y-72050952D01*
X102544285Y-72098571D01*
X102591904Y-72193809D01*
X102591904Y-72431904D01*
X102544285Y-72527142D01*
X102496666Y-72574761D01*
X102401428Y-72622380D01*
X102115714Y-72622380D01*
X102020476Y-72574761D01*
X101972857Y-72527142D01*
G04 #@! TO.C,J2*
X119876666Y-123382380D02*
X119876666Y-124096666D01*
X119829047Y-124239523D01*
X119733809Y-124334761D01*
X119590952Y-124382380D01*
X119495714Y-124382380D01*
X120305238Y-123477619D02*
X120352857Y-123430000D01*
X120448095Y-123382380D01*
X120686190Y-123382380D01*
X120781428Y-123430000D01*
X120829047Y-123477619D01*
X120876666Y-123572857D01*
X120876666Y-123668095D01*
X120829047Y-123810952D01*
X120257619Y-124382380D01*
X120876666Y-124382380D01*
G04 #@! TO.C,R11*
X116087142Y-111482380D02*
X115753809Y-111006190D01*
X115515714Y-111482380D02*
X115515714Y-110482380D01*
X115896666Y-110482380D01*
X115991904Y-110530000D01*
X116039523Y-110577619D01*
X116087142Y-110672857D01*
X116087142Y-110815714D01*
X116039523Y-110910952D01*
X115991904Y-110958571D01*
X115896666Y-111006190D01*
X115515714Y-111006190D01*
X117039523Y-111482380D02*
X116468095Y-111482380D01*
X116753809Y-111482380D02*
X116753809Y-110482380D01*
X116658571Y-110625238D01*
X116563333Y-110720476D01*
X116468095Y-110768095D01*
X117991904Y-111482380D02*
X117420476Y-111482380D01*
X117706190Y-111482380D02*
X117706190Y-110482380D01*
X117610952Y-110625238D01*
X117515714Y-110720476D01*
X117420476Y-110768095D01*
G04 #@! TO.C,R20*
X101867142Y-74822380D02*
X101533809Y-74346190D01*
X101295714Y-74822380D02*
X101295714Y-73822380D01*
X101676666Y-73822380D01*
X101771904Y-73870000D01*
X101819523Y-73917619D01*
X101867142Y-74012857D01*
X101867142Y-74155714D01*
X101819523Y-74250952D01*
X101771904Y-74298571D01*
X101676666Y-74346190D01*
X101295714Y-74346190D01*
X102248095Y-73917619D02*
X102295714Y-73870000D01*
X102390952Y-73822380D01*
X102629047Y-73822380D01*
X102724285Y-73870000D01*
X102771904Y-73917619D01*
X102819523Y-74012857D01*
X102819523Y-74108095D01*
X102771904Y-74250952D01*
X102200476Y-74822380D01*
X102819523Y-74822380D01*
X103438571Y-73822380D02*
X103533809Y-73822380D01*
X103629047Y-73870000D01*
X103676666Y-73917619D01*
X103724285Y-74012857D01*
X103771904Y-74203333D01*
X103771904Y-74441428D01*
X103724285Y-74631904D01*
X103676666Y-74727142D01*
X103629047Y-74774761D01*
X103533809Y-74822380D01*
X103438571Y-74822380D01*
X103343333Y-74774761D01*
X103295714Y-74727142D01*
X103248095Y-74631904D01*
X103200476Y-74441428D01*
X103200476Y-74203333D01*
X103248095Y-74012857D01*
X103295714Y-73917619D01*
X103343333Y-73870000D01*
X103438571Y-73822380D01*
G04 #@! TO.C,R6*
X121013333Y-111462380D02*
X120680000Y-110986190D01*
X120441904Y-111462380D02*
X120441904Y-110462380D01*
X120822857Y-110462380D01*
X120918095Y-110510000D01*
X120965714Y-110557619D01*
X121013333Y-110652857D01*
X121013333Y-110795714D01*
X120965714Y-110890952D01*
X120918095Y-110938571D01*
X120822857Y-110986190D01*
X120441904Y-110986190D01*
X121870476Y-110462380D02*
X121680000Y-110462380D01*
X121584761Y-110510000D01*
X121537142Y-110557619D01*
X121441904Y-110700476D01*
X121394285Y-110890952D01*
X121394285Y-111271904D01*
X121441904Y-111367142D01*
X121489523Y-111414761D01*
X121584761Y-111462380D01*
X121775238Y-111462380D01*
X121870476Y-111414761D01*
X121918095Y-111367142D01*
X121965714Y-111271904D01*
X121965714Y-111033809D01*
X121918095Y-110938571D01*
X121870476Y-110890952D01*
X121775238Y-110843333D01*
X121584761Y-110843333D01*
X121489523Y-110890952D01*
X121441904Y-110938571D01*
X121394285Y-111033809D01*
G04 #@! TO.C,R18*
X88607142Y-101982380D02*
X88273809Y-101506190D01*
X88035714Y-101982380D02*
X88035714Y-100982380D01*
X88416666Y-100982380D01*
X88511904Y-101030000D01*
X88559523Y-101077619D01*
X88607142Y-101172857D01*
X88607142Y-101315714D01*
X88559523Y-101410952D01*
X88511904Y-101458571D01*
X88416666Y-101506190D01*
X88035714Y-101506190D01*
X89559523Y-101982380D02*
X88988095Y-101982380D01*
X89273809Y-101982380D02*
X89273809Y-100982380D01*
X89178571Y-101125238D01*
X89083333Y-101220476D01*
X88988095Y-101268095D01*
X90130952Y-101410952D02*
X90035714Y-101363333D01*
X89988095Y-101315714D01*
X89940476Y-101220476D01*
X89940476Y-101172857D01*
X89988095Y-101077619D01*
X90035714Y-101030000D01*
X90130952Y-100982380D01*
X90321428Y-100982380D01*
X90416666Y-101030000D01*
X90464285Y-101077619D01*
X90511904Y-101172857D01*
X90511904Y-101220476D01*
X90464285Y-101315714D01*
X90416666Y-101363333D01*
X90321428Y-101410952D01*
X90130952Y-101410952D01*
X90035714Y-101458571D01*
X89988095Y-101506190D01*
X89940476Y-101601428D01*
X89940476Y-101791904D01*
X89988095Y-101887142D01*
X90035714Y-101934761D01*
X90130952Y-101982380D01*
X90321428Y-101982380D01*
X90416666Y-101934761D01*
X90464285Y-101887142D01*
X90511904Y-101791904D01*
X90511904Y-101601428D01*
X90464285Y-101506190D01*
X90416666Y-101458571D01*
X90321428Y-101410952D01*
G04 #@! TO.C,UPPER*
X103361904Y-54322380D02*
X103361904Y-55131904D01*
X103409523Y-55227142D01*
X103457142Y-55274761D01*
X103552380Y-55322380D01*
X103742857Y-55322380D01*
X103838095Y-55274761D01*
X103885714Y-55227142D01*
X103933333Y-55131904D01*
X103933333Y-54322380D01*
X104409523Y-55322380D02*
X104409523Y-54322380D01*
X104790476Y-54322380D01*
X104885714Y-54370000D01*
X104933333Y-54417619D01*
X104980952Y-54512857D01*
X104980952Y-54655714D01*
X104933333Y-54750952D01*
X104885714Y-54798571D01*
X104790476Y-54846190D01*
X104409523Y-54846190D01*
X105409523Y-55322380D02*
X105409523Y-54322380D01*
X105790476Y-54322380D01*
X105885714Y-54370000D01*
X105933333Y-54417619D01*
X105980952Y-54512857D01*
X105980952Y-54655714D01*
X105933333Y-54750952D01*
X105885714Y-54798571D01*
X105790476Y-54846190D01*
X105409523Y-54846190D01*
X106409523Y-54798571D02*
X106742857Y-54798571D01*
X106885714Y-55322380D02*
X106409523Y-55322380D01*
X106409523Y-54322380D01*
X106885714Y-54322380D01*
X107885714Y-55322380D02*
X107552380Y-54846190D01*
X107314285Y-55322380D02*
X107314285Y-54322380D01*
X107695238Y-54322380D01*
X107790476Y-54370000D01*
X107838095Y-54417619D01*
X107885714Y-54512857D01*
X107885714Y-54655714D01*
X107838095Y-54750952D01*
X107790476Y-54798571D01*
X107695238Y-54846190D01*
X107314285Y-54846190D01*
G04 #@! TO.C,D10*
X97605714Y-68232380D02*
X97605714Y-67232380D01*
X97843809Y-67232380D01*
X97986666Y-67280000D01*
X98081904Y-67375238D01*
X98129523Y-67470476D01*
X98177142Y-67660952D01*
X98177142Y-67803809D01*
X98129523Y-67994285D01*
X98081904Y-68089523D01*
X97986666Y-68184761D01*
X97843809Y-68232380D01*
X97605714Y-68232380D01*
X99129523Y-68232380D02*
X98558095Y-68232380D01*
X98843809Y-68232380D02*
X98843809Y-67232380D01*
X98748571Y-67375238D01*
X98653333Y-67470476D01*
X98558095Y-67518095D01*
X99748571Y-67232380D02*
X99843809Y-67232380D01*
X99939047Y-67280000D01*
X99986666Y-67327619D01*
X100034285Y-67422857D01*
X100081904Y-67613333D01*
X100081904Y-67851428D01*
X100034285Y-68041904D01*
X99986666Y-68137142D01*
X99939047Y-68184761D01*
X99843809Y-68232380D01*
X99748571Y-68232380D01*
X99653333Y-68184761D01*
X99605714Y-68137142D01*
X99558095Y-68041904D01*
X99510476Y-67851428D01*
X99510476Y-67613333D01*
X99558095Y-67422857D01*
X99605714Y-67327619D01*
X99653333Y-67280000D01*
X99748571Y-67232380D01*
G04 #@! TO.C,R19*
X101777142Y-65802380D02*
X101443809Y-65326190D01*
X101205714Y-65802380D02*
X101205714Y-64802380D01*
X101586666Y-64802380D01*
X101681904Y-64850000D01*
X101729523Y-64897619D01*
X101777142Y-64992857D01*
X101777142Y-65135714D01*
X101729523Y-65230952D01*
X101681904Y-65278571D01*
X101586666Y-65326190D01*
X101205714Y-65326190D01*
X102729523Y-65802380D02*
X102158095Y-65802380D01*
X102443809Y-65802380D02*
X102443809Y-64802380D01*
X102348571Y-64945238D01*
X102253333Y-65040476D01*
X102158095Y-65088095D01*
X103205714Y-65802380D02*
X103396190Y-65802380D01*
X103491428Y-65754761D01*
X103539047Y-65707142D01*
X103634285Y-65564285D01*
X103681904Y-65373809D01*
X103681904Y-64992857D01*
X103634285Y-64897619D01*
X103586666Y-64850000D01*
X103491428Y-64802380D01*
X103300952Y-64802380D01*
X103205714Y-64850000D01*
X103158095Y-64897619D01*
X103110476Y-64992857D01*
X103110476Y-65230952D01*
X103158095Y-65326190D01*
X103205714Y-65373809D01*
X103300952Y-65421428D01*
X103491428Y-65421428D01*
X103586666Y-65373809D01*
X103634285Y-65326190D01*
X103681904Y-65230952D01*
G04 #@! TO.C,R5*
X111433333Y-111402380D02*
X111100000Y-110926190D01*
X110861904Y-111402380D02*
X110861904Y-110402380D01*
X111242857Y-110402380D01*
X111338095Y-110450000D01*
X111385714Y-110497619D01*
X111433333Y-110592857D01*
X111433333Y-110735714D01*
X111385714Y-110830952D01*
X111338095Y-110878571D01*
X111242857Y-110926190D01*
X110861904Y-110926190D01*
X112338095Y-110402380D02*
X111861904Y-110402380D01*
X111814285Y-110878571D01*
X111861904Y-110830952D01*
X111957142Y-110783333D01*
X112195238Y-110783333D01*
X112290476Y-110830952D01*
X112338095Y-110878571D01*
X112385714Y-110973809D01*
X112385714Y-111211904D01*
X112338095Y-111307142D01*
X112290476Y-111354761D01*
X112195238Y-111402380D01*
X111957142Y-111402380D01*
X111861904Y-111354761D01*
X111814285Y-111307142D01*
G04 #@! TO.C,Q1*
X92294761Y-105417619D02*
X92199523Y-105370000D01*
X92104285Y-105274761D01*
X91961428Y-105131904D01*
X91866190Y-105084285D01*
X91770952Y-105084285D01*
X91818571Y-105322380D02*
X91723333Y-105274761D01*
X91628095Y-105179523D01*
X91580476Y-104989047D01*
X91580476Y-104655714D01*
X91628095Y-104465238D01*
X91723333Y-104370000D01*
X91818571Y-104322380D01*
X92009047Y-104322380D01*
X92104285Y-104370000D01*
X92199523Y-104465238D01*
X92247142Y-104655714D01*
X92247142Y-104989047D01*
X92199523Y-105179523D01*
X92104285Y-105274761D01*
X92009047Y-105322380D01*
X91818571Y-105322380D01*
X93199523Y-105322380D02*
X92628095Y-105322380D01*
X92913809Y-105322380D02*
X92913809Y-104322380D01*
X92818571Y-104465238D01*
X92723333Y-104560476D01*
X92628095Y-104608095D01*
G04 #@! TO.C,R4*
X104293333Y-119582380D02*
X103960000Y-119106190D01*
X103721904Y-119582380D02*
X103721904Y-118582380D01*
X104102857Y-118582380D01*
X104198095Y-118630000D01*
X104245714Y-118677619D01*
X104293333Y-118772857D01*
X104293333Y-118915714D01*
X104245714Y-119010952D01*
X104198095Y-119058571D01*
X104102857Y-119106190D01*
X103721904Y-119106190D01*
X105150476Y-118915714D02*
X105150476Y-119582380D01*
X104912380Y-118534761D02*
X104674285Y-119249047D01*
X105293333Y-119249047D01*
G04 #@! TO.C,CW*
X113188095Y-85997142D02*
X113140476Y-86044761D01*
X112997619Y-86092380D01*
X112902380Y-86092380D01*
X112759523Y-86044761D01*
X112664285Y-85949523D01*
X112616666Y-85854285D01*
X112569047Y-85663809D01*
X112569047Y-85520952D01*
X112616666Y-85330476D01*
X112664285Y-85235238D01*
X112759523Y-85140000D01*
X112902380Y-85092380D01*
X112997619Y-85092380D01*
X113140476Y-85140000D01*
X113188095Y-85187619D01*
X113521428Y-85092380D02*
X113759523Y-86092380D01*
X113950000Y-85378095D01*
X114140476Y-86092380D01*
X114378571Y-85092380D01*
G04 #@! TO.C,D12*
X118715714Y-87892380D02*
X118715714Y-86892380D01*
X118953809Y-86892380D01*
X119096666Y-86940000D01*
X119191904Y-87035238D01*
X119239523Y-87130476D01*
X119287142Y-87320952D01*
X119287142Y-87463809D01*
X119239523Y-87654285D01*
X119191904Y-87749523D01*
X119096666Y-87844761D01*
X118953809Y-87892380D01*
X118715714Y-87892380D01*
X120239523Y-87892380D02*
X119668095Y-87892380D01*
X119953809Y-87892380D02*
X119953809Y-86892380D01*
X119858571Y-87035238D01*
X119763333Y-87130476D01*
X119668095Y-87178095D01*
X120620476Y-86987619D02*
X120668095Y-86940000D01*
X120763333Y-86892380D01*
X121001428Y-86892380D01*
X121096666Y-86940000D01*
X121144285Y-86987619D01*
X121191904Y-87082857D01*
X121191904Y-87178095D01*
X121144285Y-87320952D01*
X120572857Y-87892380D01*
X121191904Y-87892380D01*
G04 #@! TO.C,R2*
X88183333Y-114472380D02*
X87850000Y-113996190D01*
X87611904Y-114472380D02*
X87611904Y-113472380D01*
X87992857Y-113472380D01*
X88088095Y-113520000D01*
X88135714Y-113567619D01*
X88183333Y-113662857D01*
X88183333Y-113805714D01*
X88135714Y-113900952D01*
X88088095Y-113948571D01*
X87992857Y-113996190D01*
X87611904Y-113996190D01*
X88564285Y-113567619D02*
X88611904Y-113520000D01*
X88707142Y-113472380D01*
X88945238Y-113472380D01*
X89040476Y-113520000D01*
X89088095Y-113567619D01*
X89135714Y-113662857D01*
X89135714Y-113758095D01*
X89088095Y-113900952D01*
X88516666Y-114472380D01*
X89135714Y-114472380D01*
G04 #@! TO.C,D4*
X116371904Y-49532380D02*
X116371904Y-48532380D01*
X116610000Y-48532380D01*
X116752857Y-48580000D01*
X116848095Y-48675238D01*
X116895714Y-48770476D01*
X116943333Y-48960952D01*
X116943333Y-49103809D01*
X116895714Y-49294285D01*
X116848095Y-49389523D01*
X116752857Y-49484761D01*
X116610000Y-49532380D01*
X116371904Y-49532380D01*
X117800476Y-48865714D02*
X117800476Y-49532380D01*
X117562380Y-48484761D02*
X117324285Y-49199047D01*
X117943333Y-49199047D01*
G04 #@! TO.C,R25*
X121337142Y-92374880D02*
X121003809Y-91898690D01*
X120765714Y-92374880D02*
X120765714Y-91374880D01*
X121146666Y-91374880D01*
X121241904Y-91422500D01*
X121289523Y-91470119D01*
X121337142Y-91565357D01*
X121337142Y-91708214D01*
X121289523Y-91803452D01*
X121241904Y-91851071D01*
X121146666Y-91898690D01*
X120765714Y-91898690D01*
X121718095Y-91470119D02*
X121765714Y-91422500D01*
X121860952Y-91374880D01*
X122099047Y-91374880D01*
X122194285Y-91422500D01*
X122241904Y-91470119D01*
X122289523Y-91565357D01*
X122289523Y-91660595D01*
X122241904Y-91803452D01*
X121670476Y-92374880D01*
X122289523Y-92374880D01*
X123194285Y-91374880D02*
X122718095Y-91374880D01*
X122670476Y-91851071D01*
X122718095Y-91803452D01*
X122813333Y-91755833D01*
X123051428Y-91755833D01*
X123146666Y-91803452D01*
X123194285Y-91851071D01*
X123241904Y-91946309D01*
X123241904Y-92184404D01*
X123194285Y-92279642D01*
X123146666Y-92327261D01*
X123051428Y-92374880D01*
X122813333Y-92374880D01*
X122718095Y-92327261D01*
X122670476Y-92279642D01*
G04 #@! TO.C,C2*
X106933333Y-122857142D02*
X106885714Y-122904761D01*
X106742857Y-122952380D01*
X106647619Y-122952380D01*
X106504761Y-122904761D01*
X106409523Y-122809523D01*
X106361904Y-122714285D01*
X106314285Y-122523809D01*
X106314285Y-122380952D01*
X106361904Y-122190476D01*
X106409523Y-122095238D01*
X106504761Y-122000000D01*
X106647619Y-121952380D01*
X106742857Y-121952380D01*
X106885714Y-122000000D01*
X106933333Y-122047619D01*
X107314285Y-122047619D02*
X107361904Y-122000000D01*
X107457142Y-121952380D01*
X107695238Y-121952380D01*
X107790476Y-122000000D01*
X107838095Y-122047619D01*
X107885714Y-122142857D01*
X107885714Y-122238095D01*
X107838095Y-122380952D01*
X107266666Y-122952380D01*
X107885714Y-122952380D01*
G04 #@! TO.C,U2*
X98413095Y-20477380D02*
X98413095Y-21286904D01*
X98460714Y-21382142D01*
X98508333Y-21429761D01*
X98603571Y-21477380D01*
X98794047Y-21477380D01*
X98889285Y-21429761D01*
X98936904Y-21382142D01*
X98984523Y-21286904D01*
X98984523Y-20477380D01*
X99413095Y-20572619D02*
X99460714Y-20525000D01*
X99555952Y-20477380D01*
X99794047Y-20477380D01*
X99889285Y-20525000D01*
X99936904Y-20572619D01*
X99984523Y-20667857D01*
X99984523Y-20763095D01*
X99936904Y-20905952D01*
X99365476Y-21477380D01*
X99984523Y-21477380D01*
G04 #@! TO.C,LEFT*
X91335119Y-66312380D02*
X90858928Y-66312380D01*
X90858928Y-65312380D01*
X91668452Y-65788571D02*
X92001785Y-65788571D01*
X92144642Y-66312380D02*
X91668452Y-66312380D01*
X91668452Y-65312380D01*
X92144642Y-65312380D01*
X92906547Y-65788571D02*
X92573214Y-65788571D01*
X92573214Y-66312380D02*
X92573214Y-65312380D01*
X93049404Y-65312380D01*
X93287500Y-65312380D02*
X93858928Y-65312380D01*
X93573214Y-66312380D02*
X93573214Y-65312380D01*
G04 #@! TO.C,R26*
X121282142Y-101822380D02*
X120948809Y-101346190D01*
X120710714Y-101822380D02*
X120710714Y-100822380D01*
X121091666Y-100822380D01*
X121186904Y-100870000D01*
X121234523Y-100917619D01*
X121282142Y-101012857D01*
X121282142Y-101155714D01*
X121234523Y-101250952D01*
X121186904Y-101298571D01*
X121091666Y-101346190D01*
X120710714Y-101346190D01*
X121663095Y-100917619D02*
X121710714Y-100870000D01*
X121805952Y-100822380D01*
X122044047Y-100822380D01*
X122139285Y-100870000D01*
X122186904Y-100917619D01*
X122234523Y-101012857D01*
X122234523Y-101108095D01*
X122186904Y-101250952D01*
X121615476Y-101822380D01*
X122234523Y-101822380D01*
X123091666Y-100822380D02*
X122901190Y-100822380D01*
X122805952Y-100870000D01*
X122758333Y-100917619D01*
X122663095Y-101060476D01*
X122615476Y-101250952D01*
X122615476Y-101631904D01*
X122663095Y-101727142D01*
X122710714Y-101774761D01*
X122805952Y-101822380D01*
X122996428Y-101822380D01*
X123091666Y-101774761D01*
X123139285Y-101727142D01*
X123186904Y-101631904D01*
X123186904Y-101393809D01*
X123139285Y-101298571D01*
X123091666Y-101250952D01*
X122996428Y-101203333D01*
X122805952Y-101203333D01*
X122710714Y-101250952D01*
X122663095Y-101298571D01*
X122615476Y-101393809D01*
G04 #@! TO.C,D1*
X87492380Y-124298095D02*
X86492380Y-124298095D01*
X86492380Y-124060000D01*
X86540000Y-123917142D01*
X86635238Y-123821904D01*
X86730476Y-123774285D01*
X86920952Y-123726666D01*
X87063809Y-123726666D01*
X87254285Y-123774285D01*
X87349523Y-123821904D01*
X87444761Y-123917142D01*
X87492380Y-124060000D01*
X87492380Y-124298095D01*
X87492380Y-122774285D02*
X87492380Y-123345714D01*
X87492380Y-123060000D02*
X86492380Y-123060000D01*
X86635238Y-123155238D01*
X86730476Y-123250476D01*
X86778095Y-123345714D01*
G04 #@! TO.C,C6*
X97683333Y-116197142D02*
X97635714Y-116244761D01*
X97492857Y-116292380D01*
X97397619Y-116292380D01*
X97254761Y-116244761D01*
X97159523Y-116149523D01*
X97111904Y-116054285D01*
X97064285Y-115863809D01*
X97064285Y-115720952D01*
X97111904Y-115530476D01*
X97159523Y-115435238D01*
X97254761Y-115340000D01*
X97397619Y-115292380D01*
X97492857Y-115292380D01*
X97635714Y-115340000D01*
X97683333Y-115387619D01*
X98540476Y-115292380D02*
X98350000Y-115292380D01*
X98254761Y-115340000D01*
X98207142Y-115387619D01*
X98111904Y-115530476D01*
X98064285Y-115720952D01*
X98064285Y-116101904D01*
X98111904Y-116197142D01*
X98159523Y-116244761D01*
X98254761Y-116292380D01*
X98445238Y-116292380D01*
X98540476Y-116244761D01*
X98588095Y-116197142D01*
X98635714Y-116101904D01*
X98635714Y-115863809D01*
X98588095Y-115768571D01*
X98540476Y-115720952D01*
X98445238Y-115673333D01*
X98254761Y-115673333D01*
X98159523Y-115720952D01*
X98111904Y-115768571D01*
X98064285Y-115863809D01*
G04 #@! TO.C,R9*
X111458333Y-115262380D02*
X111125000Y-114786190D01*
X110886904Y-115262380D02*
X110886904Y-114262380D01*
X111267857Y-114262380D01*
X111363095Y-114310000D01*
X111410714Y-114357619D01*
X111458333Y-114452857D01*
X111458333Y-114595714D01*
X111410714Y-114690952D01*
X111363095Y-114738571D01*
X111267857Y-114786190D01*
X110886904Y-114786190D01*
X111934523Y-115262380D02*
X112125000Y-115262380D01*
X112220238Y-115214761D01*
X112267857Y-115167142D01*
X112363095Y-115024285D01*
X112410714Y-114833809D01*
X112410714Y-114452857D01*
X112363095Y-114357619D01*
X112315476Y-114310000D01*
X112220238Y-114262380D01*
X112029761Y-114262380D01*
X111934523Y-114310000D01*
X111886904Y-114357619D01*
X111839285Y-114452857D01*
X111839285Y-114690952D01*
X111886904Y-114786190D01*
X111934523Y-114833809D01*
X112029761Y-114881428D01*
X112220238Y-114881428D01*
X112315476Y-114833809D01*
X112363095Y-114786190D01*
X112410714Y-114690952D01*
G04 #@! TO.C,R17*
X88577142Y-92502380D02*
X88243809Y-92026190D01*
X88005714Y-92502380D02*
X88005714Y-91502380D01*
X88386666Y-91502380D01*
X88481904Y-91550000D01*
X88529523Y-91597619D01*
X88577142Y-91692857D01*
X88577142Y-91835714D01*
X88529523Y-91930952D01*
X88481904Y-91978571D01*
X88386666Y-92026190D01*
X88005714Y-92026190D01*
X89529523Y-92502380D02*
X88958095Y-92502380D01*
X89243809Y-92502380D02*
X89243809Y-91502380D01*
X89148571Y-91645238D01*
X89053333Y-91740476D01*
X88958095Y-91788095D01*
X89862857Y-91502380D02*
X90529523Y-91502380D01*
X90100952Y-92502380D01*
G04 #@! TO.C,R30*
X122297142Y-97262380D02*
X121963809Y-96786190D01*
X121725714Y-97262380D02*
X121725714Y-96262380D01*
X122106666Y-96262380D01*
X122201904Y-96310000D01*
X122249523Y-96357619D01*
X122297142Y-96452857D01*
X122297142Y-96595714D01*
X122249523Y-96690952D01*
X122201904Y-96738571D01*
X122106666Y-96786190D01*
X121725714Y-96786190D01*
X122630476Y-96262380D02*
X123249523Y-96262380D01*
X122916190Y-96643333D01*
X123059047Y-96643333D01*
X123154285Y-96690952D01*
X123201904Y-96738571D01*
X123249523Y-96833809D01*
X123249523Y-97071904D01*
X123201904Y-97167142D01*
X123154285Y-97214761D01*
X123059047Y-97262380D01*
X122773333Y-97262380D01*
X122678095Y-97214761D01*
X122630476Y-97167142D01*
X123868571Y-96262380D02*
X123963809Y-96262380D01*
X124059047Y-96310000D01*
X124106666Y-96357619D01*
X124154285Y-96452857D01*
X124201904Y-96643333D01*
X124201904Y-96881428D01*
X124154285Y-97071904D01*
X124106666Y-97167142D01*
X124059047Y-97214761D01*
X123963809Y-97262380D01*
X123868571Y-97262380D01*
X123773333Y-97214761D01*
X123725714Y-97167142D01*
X123678095Y-97071904D01*
X123630476Y-96881428D01*
X123630476Y-96643333D01*
X123678095Y-96452857D01*
X123725714Y-96357619D01*
X123773333Y-96310000D01*
X123868571Y-96262380D01*
G04 #@! TO.C,D5*
X107161904Y-109362380D02*
X107161904Y-108362380D01*
X107400000Y-108362380D01*
X107542857Y-108410000D01*
X107638095Y-108505238D01*
X107685714Y-108600476D01*
X107733333Y-108790952D01*
X107733333Y-108933809D01*
X107685714Y-109124285D01*
X107638095Y-109219523D01*
X107542857Y-109314761D01*
X107400000Y-109362380D01*
X107161904Y-109362380D01*
X108638095Y-108362380D02*
X108161904Y-108362380D01*
X108114285Y-108838571D01*
X108161904Y-108790952D01*
X108257142Y-108743333D01*
X108495238Y-108743333D01*
X108590476Y-108790952D01*
X108638095Y-108838571D01*
X108685714Y-108933809D01*
X108685714Y-109171904D01*
X108638095Y-109267142D01*
X108590476Y-109314761D01*
X108495238Y-109362380D01*
X108257142Y-109362380D01*
X108161904Y-109314761D01*
X108114285Y-109267142D01*
G04 #@! TO.C,R3*
X87542380Y-121806666D02*
X87066190Y-122140000D01*
X87542380Y-122378095D02*
X86542380Y-122378095D01*
X86542380Y-121997142D01*
X86590000Y-121901904D01*
X86637619Y-121854285D01*
X86732857Y-121806666D01*
X86875714Y-121806666D01*
X86970952Y-121854285D01*
X87018571Y-121901904D01*
X87066190Y-121997142D01*
X87066190Y-122378095D01*
X86542380Y-121473333D02*
X86542380Y-120854285D01*
X86923333Y-121187619D01*
X86923333Y-121044761D01*
X86970952Y-120949523D01*
X87018571Y-120901904D01*
X87113809Y-120854285D01*
X87351904Y-120854285D01*
X87447142Y-120901904D01*
X87494761Y-120949523D01*
X87542380Y-121044761D01*
X87542380Y-121330476D01*
X87494761Y-121425714D01*
X87447142Y-121473333D01*
G04 #@! TO.C,R14*
X119882142Y-35432380D02*
X119548809Y-34956190D01*
X119310714Y-35432380D02*
X119310714Y-34432380D01*
X119691666Y-34432380D01*
X119786904Y-34480000D01*
X119834523Y-34527619D01*
X119882142Y-34622857D01*
X119882142Y-34765714D01*
X119834523Y-34860952D01*
X119786904Y-34908571D01*
X119691666Y-34956190D01*
X119310714Y-34956190D01*
X120834523Y-35432380D02*
X120263095Y-35432380D01*
X120548809Y-35432380D02*
X120548809Y-34432380D01*
X120453571Y-34575238D01*
X120358333Y-34670476D01*
X120263095Y-34718095D01*
X121691666Y-34765714D02*
X121691666Y-35432380D01*
X121453571Y-34384761D02*
X121215476Y-35099047D01*
X121834523Y-35099047D01*
G04 #@! TO.C,D8*
X90961904Y-88022380D02*
X90961904Y-87022380D01*
X91200000Y-87022380D01*
X91342857Y-87070000D01*
X91438095Y-87165238D01*
X91485714Y-87260476D01*
X91533333Y-87450952D01*
X91533333Y-87593809D01*
X91485714Y-87784285D01*
X91438095Y-87879523D01*
X91342857Y-87974761D01*
X91200000Y-88022380D01*
X90961904Y-88022380D01*
X92104761Y-87450952D02*
X92009523Y-87403333D01*
X91961904Y-87355714D01*
X91914285Y-87260476D01*
X91914285Y-87212857D01*
X91961904Y-87117619D01*
X92009523Y-87070000D01*
X92104761Y-87022380D01*
X92295238Y-87022380D01*
X92390476Y-87070000D01*
X92438095Y-87117619D01*
X92485714Y-87212857D01*
X92485714Y-87260476D01*
X92438095Y-87355714D01*
X92390476Y-87403333D01*
X92295238Y-87450952D01*
X92104761Y-87450952D01*
X92009523Y-87498571D01*
X91961904Y-87546190D01*
X91914285Y-87641428D01*
X91914285Y-87831904D01*
X91961904Y-87927142D01*
X92009523Y-87974761D01*
X92104761Y-88022380D01*
X92295238Y-88022380D01*
X92390476Y-87974761D01*
X92438095Y-87927142D01*
X92485714Y-87831904D01*
X92485714Y-87641428D01*
X92438095Y-87546190D01*
X92390476Y-87498571D01*
X92295238Y-87450952D01*
G04 #@! TO.C,R10*
X121687142Y-115222380D02*
X121353809Y-114746190D01*
X121115714Y-115222380D02*
X121115714Y-114222380D01*
X121496666Y-114222380D01*
X121591904Y-114270000D01*
X121639523Y-114317619D01*
X121687142Y-114412857D01*
X121687142Y-114555714D01*
X121639523Y-114650952D01*
X121591904Y-114698571D01*
X121496666Y-114746190D01*
X121115714Y-114746190D01*
X122639523Y-115222380D02*
X122068095Y-115222380D01*
X122353809Y-115222380D02*
X122353809Y-114222380D01*
X122258571Y-114365238D01*
X122163333Y-114460476D01*
X122068095Y-114508095D01*
X123258571Y-114222380D02*
X123353809Y-114222380D01*
X123449047Y-114270000D01*
X123496666Y-114317619D01*
X123544285Y-114412857D01*
X123591904Y-114603333D01*
X123591904Y-114841428D01*
X123544285Y-115031904D01*
X123496666Y-115127142D01*
X123449047Y-115174761D01*
X123353809Y-115222380D01*
X123258571Y-115222380D01*
X123163333Y-115174761D01*
X123115714Y-115127142D01*
X123068095Y-115031904D01*
X123020476Y-114841428D01*
X123020476Y-114603333D01*
X123068095Y-114412857D01*
X123115714Y-114317619D01*
X123163333Y-114270000D01*
X123258571Y-114222380D01*
G04 #@! TO.C,C4*
X89188333Y-127407142D02*
X89140714Y-127454761D01*
X88997857Y-127502380D01*
X88902619Y-127502380D01*
X88759761Y-127454761D01*
X88664523Y-127359523D01*
X88616904Y-127264285D01*
X88569285Y-127073809D01*
X88569285Y-126930952D01*
X88616904Y-126740476D01*
X88664523Y-126645238D01*
X88759761Y-126550000D01*
X88902619Y-126502380D01*
X88997857Y-126502380D01*
X89140714Y-126550000D01*
X89188333Y-126597619D01*
X90045476Y-126835714D02*
X90045476Y-127502380D01*
X89807380Y-126454761D02*
X89569285Y-127169047D01*
X90188333Y-127169047D01*
G04 #@! TO.C,R12*
X116047142Y-115162380D02*
X115713809Y-114686190D01*
X115475714Y-115162380D02*
X115475714Y-114162380D01*
X115856666Y-114162380D01*
X115951904Y-114210000D01*
X115999523Y-114257619D01*
X116047142Y-114352857D01*
X116047142Y-114495714D01*
X115999523Y-114590952D01*
X115951904Y-114638571D01*
X115856666Y-114686190D01*
X115475714Y-114686190D01*
X116999523Y-115162380D02*
X116428095Y-115162380D01*
X116713809Y-115162380D02*
X116713809Y-114162380D01*
X116618571Y-114305238D01*
X116523333Y-114400476D01*
X116428095Y-114448095D01*
X117380476Y-114257619D02*
X117428095Y-114210000D01*
X117523333Y-114162380D01*
X117761428Y-114162380D01*
X117856666Y-114210000D01*
X117904285Y-114257619D01*
X117951904Y-114352857D01*
X117951904Y-114448095D01*
X117904285Y-114590952D01*
X117332857Y-115162380D01*
X117951904Y-115162380D01*
D11*
G04 #@! TO.C,R28*
X109215242Y-68817500D02*
X109689758Y-68817500D01*
X109215242Y-69862500D02*
X109689758Y-69862500D01*
G04 #@! TO.C,U3*
X115055000Y-109470000D02*
X114330000Y-109470000D01*
X118825000Y-109470000D02*
X119550000Y-109470000D01*
X118825000Y-104250000D02*
X119550000Y-104250000D01*
X119550000Y-104250000D02*
X119550000Y-104975000D01*
X114330000Y-109470000D02*
X114330000Y-108745000D01*
X119550000Y-109470000D02*
X119550000Y-108745000D01*
X115055000Y-104250000D02*
X114330000Y-104250000D01*
G04 #@! TO.C,R29*
X122192258Y-89435000D02*
X121717742Y-89435000D01*
X122192258Y-88390000D02*
X121717742Y-88390000D01*
G04 #@! TO.C,D13*
X120175000Y-99950000D02*
X120175000Y-97665000D01*
X120175000Y-97665000D02*
X118705000Y-97665000D01*
X118705000Y-97665000D02*
X118705000Y-99950000D01*
G04 #@! TO.C,IO0*
X101530000Y-113180000D02*
X101530000Y-113080000D01*
X97130000Y-114680000D02*
X101530000Y-114680000D01*
X97130000Y-113180000D02*
X97130000Y-113080000D01*
X101530000Y-111580000D02*
X97130000Y-111580000D01*
G04 #@! TO.C,C1*
X89495580Y-119250000D02*
X89214420Y-119250000D01*
X89495580Y-120270000D02*
X89214420Y-120270000D01*
G04 #@! TO.C,OPT2*
X110250000Y-95930000D02*
X110250000Y-95900000D01*
X110250000Y-95900000D02*
X116710000Y-95900000D01*
X110250000Y-102360000D02*
X110250000Y-102330000D01*
X116710000Y-102360000D02*
X116710000Y-102330000D01*
X116710000Y-95900000D02*
X116710000Y-95930000D01*
X110250000Y-102360000D02*
X116710000Y-102360000D01*
X116710000Y-97830000D02*
X116710000Y-100430000D01*
X110250000Y-97830000D02*
X110250000Y-100430000D01*
G04 #@! TO.C,R13*
X117232258Y-35342500D02*
X116757742Y-35342500D01*
X117232258Y-34297500D02*
X116757742Y-34297500D01*
G04 #@! TO.C,C3*
X104630580Y-123960000D02*
X104349420Y-123960000D01*
X104630580Y-124980000D02*
X104349420Y-124980000D01*
G04 #@! TO.C,R8*
X120757258Y-47017500D02*
X120282742Y-47017500D01*
X120757258Y-48062500D02*
X120282742Y-48062500D01*
G04 #@! TO.C,D11*
X112852500Y-68642500D02*
X111382500Y-68642500D01*
X111382500Y-68642500D02*
X111382500Y-70927500D01*
X112852500Y-70927500D02*
X112852500Y-68642500D01*
G04 #@! TO.C,U1*
X92200000Y-118650000D02*
X98210000Y-118650000D01*
X98210000Y-125470000D02*
X98210000Y-124210000D01*
X94450000Y-125470000D02*
X98210000Y-125470000D01*
X98210000Y-118650000D02*
X98210000Y-119910000D01*
G04 #@! TO.C,R21*
X88987742Y-89515000D02*
X89462258Y-89515000D01*
X88987742Y-88470000D02*
X89462258Y-88470000D01*
G04 #@! TO.C,D9*
X92425000Y-97777500D02*
X90955000Y-97777500D01*
X90955000Y-97777500D02*
X90955000Y-100062500D01*
X92425000Y-100062500D02*
X92425000Y-97777500D01*
G04 #@! TO.C,D2*
X109860000Y-107000000D02*
X111160000Y-107000000D01*
X111160000Y-103880000D02*
X109160000Y-103880000D01*
G04 #@! TO.C,R27*
X101654758Y-69672500D02*
X101180242Y-69672500D01*
X101654758Y-68627500D02*
X101180242Y-68627500D01*
G04 #@! TO.C,CCW*
X94420000Y-86440000D02*
X100880000Y-86440000D01*
X100880000Y-92900000D02*
X100880000Y-92870000D01*
X100880000Y-88370000D02*
X100880000Y-90970000D01*
X94420000Y-92900000D02*
X100880000Y-92900000D01*
X94420000Y-88370000D02*
X94420000Y-90970000D01*
X94420000Y-92900000D02*
X94420000Y-92870000D01*
X94420000Y-86470000D02*
X94420000Y-86440000D01*
X100880000Y-86440000D02*
X100880000Y-86470000D01*
G04 #@! TO.C,R22*
X88967742Y-97957500D02*
X89442258Y-97957500D01*
X88967742Y-99002500D02*
X89442258Y-99002500D01*
G04 #@! TO.C,R24*
X109240242Y-70407500D02*
X109714758Y-70407500D01*
X109240242Y-71452500D02*
X109714758Y-71452500D01*
G04 #@! TO.C,R1*
X89877500Y-107032742D02*
X89877500Y-107507258D01*
X90922500Y-107032742D02*
X90922500Y-107507258D01*
G04 #@! TO.C,OPT1*
X94420000Y-95910000D02*
X100880000Y-95910000D01*
X94420000Y-95940000D02*
X94420000Y-95910000D01*
X94420000Y-102370000D02*
X100880000Y-102370000D01*
X100880000Y-102370000D02*
X100880000Y-102340000D01*
X100880000Y-95910000D02*
X100880000Y-95940000D01*
X100880000Y-97840000D02*
X100880000Y-100440000D01*
X94420000Y-97840000D02*
X94420000Y-100440000D01*
X94420000Y-102370000D02*
X94420000Y-102340000D01*
G04 #@! TO.C,DOWN*
X102347500Y-77905000D02*
X108807500Y-77905000D01*
X108807500Y-84365000D02*
X108807500Y-84335000D01*
X102347500Y-77935000D02*
X102347500Y-77905000D01*
X108807500Y-77905000D02*
X108807500Y-77935000D01*
X102347500Y-84365000D02*
X102347500Y-84335000D01*
X102347500Y-79835000D02*
X102347500Y-82435000D01*
X108807500Y-79835000D02*
X108807500Y-82435000D01*
X102347500Y-84365000D02*
X108807500Y-84365000D01*
G04 #@! TO.C,D3*
X116197500Y-31735000D02*
X118482500Y-31735000D01*
X118482500Y-31735000D02*
X118482500Y-30265000D01*
X118482500Y-30265000D02*
X116197500Y-30265000D01*
G04 #@! TO.C,R15*
X105817500Y-66367258D02*
X105817500Y-65892742D01*
X106862500Y-66367258D02*
X106862500Y-65892742D01*
G04 #@! TO.C,EN*
X101537500Y-107260000D02*
X101537500Y-107160000D01*
X97137500Y-107260000D02*
X97137500Y-107160000D01*
X97137500Y-108760000D02*
X101537500Y-108760000D01*
X101537500Y-105660000D02*
X97137500Y-105660000D01*
G04 #@! TO.C,R16*
X106840000Y-74077742D02*
X106840000Y-74552258D01*
X105795000Y-74077742D02*
X105795000Y-74552258D01*
G04 #@! TO.C,R7*
X120742258Y-30477500D02*
X120267742Y-30477500D01*
X120742258Y-31522500D02*
X120267742Y-31522500D01*
G04 #@! TO.C,RIGHT*
X115212500Y-66690000D02*
X121672500Y-66690000D01*
X121672500Y-68620000D02*
X121672500Y-71220000D01*
X115212500Y-73150000D02*
X121672500Y-73150000D01*
X115212500Y-68620000D02*
X115212500Y-71220000D01*
X121672500Y-73150000D02*
X121672500Y-73120000D01*
X115212500Y-73150000D02*
X115212500Y-73120000D01*
X121672500Y-66690000D02*
X121672500Y-66720000D01*
X115212500Y-66720000D02*
X115212500Y-66690000D01*
G04 #@! TO.C,Q2*
X93460000Y-114690000D02*
X94110000Y-114690000D01*
X93460000Y-111570000D02*
X94110000Y-111570000D01*
X93460000Y-114690000D02*
X92810000Y-114690000D01*
X93460000Y-111570000D02*
X91785000Y-111570000D01*
G04 #@! TO.C,C7*
X106754420Y-116750000D02*
X107035580Y-116750000D01*
X106754420Y-115730000D02*
X107035580Y-115730000D01*
G04 #@! TO.C,C5*
X95034420Y-109420000D02*
X95315580Y-109420000D01*
X95034420Y-110440000D02*
X95315580Y-110440000D01*
G04 #@! TO.C,C8*
X106764420Y-111930000D02*
X107045580Y-111930000D01*
X106764420Y-112950000D02*
X107045580Y-112950000D01*
G04 #@! TO.C,D6*
X104062500Y-62555000D02*
X104062500Y-64025000D01*
X106347500Y-62555000D02*
X104062500Y-62555000D01*
X104062500Y-64025000D02*
X106347500Y-64025000D01*
G04 #@! TO.C,J1*
X99060000Y-129250000D02*
X99060000Y-126590000D01*
X95190000Y-129250000D02*
X93860000Y-129250000D01*
X96460000Y-129250000D02*
X96460000Y-126590000D01*
X93860000Y-129250000D02*
X93860000Y-127920000D01*
X96460000Y-126590000D02*
X99060000Y-126590000D01*
X96460000Y-129250000D02*
X99060000Y-129250000D01*
G04 #@! TO.C,D7*
X104045000Y-75960000D02*
X104045000Y-77430000D01*
X106330000Y-75960000D02*
X104045000Y-75960000D01*
X104045000Y-77430000D02*
X106330000Y-77430000D01*
G04 #@! TO.C,R23*
X101674758Y-70207500D02*
X101200242Y-70207500D01*
X101674758Y-71252500D02*
X101200242Y-71252500D01*
G04 #@! TO.C,J2*
X118530000Y-118750000D02*
X118530000Y-126010000D01*
X117030000Y-118750000D02*
X118530000Y-118750000D01*
X109030000Y-118750000D02*
X110530000Y-118750000D01*
X109030000Y-118750000D02*
X109030000Y-126010000D01*
G04 #@! TO.C,R11*
X116492742Y-112982500D02*
X116967258Y-112982500D01*
X116492742Y-111937500D02*
X116967258Y-111937500D01*
G04 #@! TO.C,R20*
X104225000Y-74072742D02*
X104225000Y-74547258D01*
X105270000Y-74072742D02*
X105270000Y-74547258D01*
G04 #@! TO.C,R6*
X121532258Y-112952500D02*
X121057742Y-112952500D01*
X121532258Y-111907500D02*
X121057742Y-111907500D01*
G04 #@! TO.C,R18*
X88977742Y-100582500D02*
X89452258Y-100582500D01*
X88977742Y-99537500D02*
X89452258Y-99537500D01*
G04 #@! TO.C,UPPER*
X102370000Y-55720000D02*
X102370000Y-55690000D01*
X102370000Y-57620000D02*
X102370000Y-60220000D01*
X108830000Y-55690000D02*
X108830000Y-55720000D01*
X102370000Y-55690000D02*
X108830000Y-55690000D01*
X108830000Y-57620000D02*
X108830000Y-60220000D01*
X108830000Y-62150000D02*
X108830000Y-62120000D01*
X102370000Y-62150000D02*
X102370000Y-62120000D01*
X102370000Y-62150000D02*
X108830000Y-62150000D01*
G04 #@! TO.C,D10*
X99462500Y-68455000D02*
X97992500Y-68455000D01*
X97992500Y-68455000D02*
X97992500Y-70740000D01*
X99462500Y-70740000D02*
X99462500Y-68455000D01*
G04 #@! TO.C,R19*
X105292500Y-66367258D02*
X105292500Y-65892742D01*
X104247500Y-66367258D02*
X104247500Y-65892742D01*
G04 #@! TO.C,R5*
X111877258Y-112992500D02*
X111402742Y-112992500D01*
X111877258Y-111947500D02*
X111402742Y-111947500D01*
G04 #@! TO.C,Q1*
X93460000Y-108780000D02*
X94110000Y-108780000D01*
X93460000Y-105660000D02*
X91785000Y-105660000D01*
X93460000Y-108780000D02*
X92810000Y-108780000D01*
X93460000Y-105660000D02*
X94110000Y-105660000D01*
G04 #@! TO.C,R4*
X104222742Y-121082500D02*
X104697258Y-121082500D01*
X104222742Y-120037500D02*
X104697258Y-120037500D01*
G04 #@! TO.C,CW*
X116680000Y-92920000D02*
X116680000Y-92890000D01*
X110220000Y-92920000D02*
X110220000Y-92890000D01*
X110220000Y-86490000D02*
X110220000Y-86460000D01*
X116680000Y-88390000D02*
X116680000Y-90990000D01*
X110220000Y-86460000D02*
X116680000Y-86460000D01*
X116680000Y-86460000D02*
X116680000Y-86490000D01*
X110220000Y-92920000D02*
X116680000Y-92920000D01*
X110220000Y-88390000D02*
X110220000Y-90990000D01*
G04 #@! TO.C,D12*
X120235000Y-88217500D02*
X118765000Y-88217500D01*
X118765000Y-88217500D02*
X118765000Y-90502500D01*
X120235000Y-90502500D02*
X120235000Y-88217500D01*
G04 #@! TO.C,R2*
X89927500Y-112862742D02*
X89927500Y-113337258D01*
X90972500Y-112862742D02*
X90972500Y-113337258D01*
G04 #@! TO.C,D4*
X116282500Y-48245000D02*
X118567500Y-48245000D01*
X118567500Y-46775000D02*
X116282500Y-46775000D01*
X118567500Y-48245000D02*
X118567500Y-46775000D01*
G04 #@! TO.C,R25*
X122217258Y-89970000D02*
X121742742Y-89970000D01*
X122217258Y-91015000D02*
X121742742Y-91015000D01*
G04 #@! TO.C,C2*
X104635580Y-121970000D02*
X104354420Y-121970000D01*
X104635580Y-122990000D02*
X104354420Y-122990000D01*
D12*
G04 #@! TO.C,U2*
X96000000Y-53700000D02*
X114000000Y-53700000D01*
X96000000Y-22300000D02*
X96000000Y-28850000D01*
X114000000Y-22300000D02*
X96000000Y-22300000D01*
X114000000Y-28850000D02*
X114000000Y-22300000D01*
D13*
X94940000Y-29110000D02*
G75*
G03*
X94940000Y-29110000I-100000J0D01*
G01*
D11*
G04 #@! TO.C,LEFT*
X89057500Y-73140000D02*
X89057500Y-73110000D01*
X95517500Y-73140000D02*
X95517500Y-73110000D01*
X89057500Y-66710000D02*
X89057500Y-66680000D01*
X95517500Y-68610000D02*
X95517500Y-71210000D01*
X95517500Y-66680000D02*
X95517500Y-66710000D01*
X89057500Y-73140000D02*
X95517500Y-73140000D01*
X89057500Y-66680000D02*
X95517500Y-66680000D01*
X89057500Y-68610000D02*
X89057500Y-71210000D01*
G04 #@! TO.C,R26*
X122162258Y-99417500D02*
X121687742Y-99417500D01*
X122162258Y-100462500D02*
X121687742Y-100462500D01*
G04 #@! TO.C,D1*
X87865000Y-124395000D02*
X90150000Y-124395000D01*
X87865000Y-122925000D02*
X87865000Y-124395000D01*
X90150000Y-122925000D02*
X87865000Y-122925000D01*
G04 #@! TO.C,C6*
X95024420Y-115320000D02*
X95305580Y-115320000D01*
X95024420Y-116340000D02*
X95305580Y-116340000D01*
G04 #@! TO.C,R9*
X111387742Y-115717500D02*
X111862258Y-115717500D01*
X111387742Y-116762500D02*
X111862258Y-116762500D01*
G04 #@! TO.C,R17*
X88997742Y-90040000D02*
X89472258Y-90040000D01*
X88997742Y-91085000D02*
X89472258Y-91085000D01*
G04 #@! TO.C,R30*
X122162258Y-98882500D02*
X121687742Y-98882500D01*
X122162258Y-97837500D02*
X121687742Y-97837500D01*
G04 #@! TO.C,D5*
X109085000Y-109505000D02*
X111370000Y-109505000D01*
X109085000Y-108035000D02*
X109085000Y-109505000D01*
X111370000Y-108035000D02*
X109085000Y-108035000D01*
G04 #@! TO.C,R3*
X89592258Y-122222500D02*
X89117742Y-122222500D01*
X89592258Y-121177500D02*
X89117742Y-121177500D01*
G04 #@! TO.C,R14*
X120762258Y-33027500D02*
X120287742Y-33027500D01*
X120762258Y-34072500D02*
X120287742Y-34072500D01*
G04 #@! TO.C,D8*
X90955000Y-88305000D02*
X90955000Y-90590000D01*
X92425000Y-90590000D02*
X92425000Y-88305000D01*
X92425000Y-88305000D02*
X90955000Y-88305000D01*
G04 #@! TO.C,R10*
X121547258Y-116792500D02*
X121072742Y-116792500D01*
X121547258Y-115747500D02*
X121072742Y-115747500D01*
G04 #@! TO.C,C4*
X89495580Y-125110000D02*
X89214420Y-125110000D01*
X89495580Y-126130000D02*
X89214420Y-126130000D01*
G04 #@! TO.C,R12*
X116977258Y-115697500D02*
X116502742Y-115697500D01*
X116977258Y-116742500D02*
X116502742Y-116742500D01*
G04 #@! TD*
M02*
