G04 #@! TF.GenerationSoftware,KiCad,Pcbnew,6.0.2+dfsg-1*
G04 #@! TF.CreationDate,2024-03-31T18:07:32+09:00*
G04 #@! TF.ProjectId,remote_controller,72656d6f-7465-45f6-936f-6e74726f6c6c,rev?*
G04 #@! TF.SameCoordinates,Original*
G04 #@! TF.FileFunction,Copper,L2,Bot*
G04 #@! TF.FilePolarity,Positive*
%FSLAX46Y46*%
G04 Gerber Fmt 4.6, Leading zero omitted, Abs format (unit mm)*
G04 Created by KiCad (PCBNEW 6.0.2+dfsg-1) date 2024-03-31 18:07:32*
%MOMM*%
%LPD*%
G01*
G04 APERTURE LIST*
G04 #@! TA.AperFunction,ComponentPad*
%ADD10R,1.700000X1.700000*%
G04 #@! TD*
G04 #@! TA.AperFunction,ComponentPad*
%ADD11O,1.700000X1.700000*%
G04 #@! TD*
G04 #@! TA.AperFunction,ComponentPad*
%ADD12O,0.800000X1.400000*%
G04 #@! TD*
G04 #@! TA.AperFunction,ComponentPad*
%ADD13C,0.300000*%
G04 #@! TD*
G04 #@! TA.AperFunction,ViaPad*
%ADD14C,0.800000*%
G04 #@! TD*
G04 #@! TA.AperFunction,Conductor*
%ADD15C,0.500000*%
G04 #@! TD*
G04 #@! TA.AperFunction,Conductor*
%ADD16C,0.250000*%
G04 #@! TD*
G04 APERTURE END LIST*
D10*
G04 #@! TO.P,J1,1,Pin_1*
G04 #@! TO.N,+BATT*
X95190000Y-127920000D03*
D11*
G04 #@! TO.P,J1,2,Pin_2*
G04 #@! TO.N,GND*
X97730000Y-127920000D03*
G04 #@! TD*
D12*
G04 #@! TO.P,J2,S1,SHIELD*
G04 #@! TO.N,GND*
X109290000Y-126960000D03*
X118270000Y-126960000D03*
X109650000Y-121010000D03*
X117910000Y-121010000D03*
G04 #@! TD*
D13*
G04 #@! TO.P,U2,48,GND*
G04 #@! TO.N,GND*
X104900000Y-36840000D03*
G04 #@! TO.P,U2,49,GND*
X103500000Y-36840000D03*
G04 #@! TO.P,U2,50,GND*
X102100000Y-36840000D03*
G04 #@! TO.P,U2,51,GND*
X102100000Y-38240000D03*
G04 #@! TO.P,U2,52,GND*
X103500000Y-38240000D03*
G04 #@! TO.P,U2,53,GND*
X104900000Y-38240000D03*
G04 #@! TO.P,U2,54,GND*
X104200000Y-36140000D03*
G04 #@! TO.P,U2,55,GND*
X102800000Y-36140000D03*
G04 #@! TO.P,U2,56,GND*
X104200000Y-37540000D03*
G04 #@! TO.P,U2,57,GND*
X102800000Y-37540000D03*
G04 #@! TO.P,U2,58,GND*
X102800000Y-38940000D03*
G04 #@! TO.P,U2,59,GND*
X104200000Y-38940000D03*
G04 #@! TD*
D14*
G04 #@! TO.N,+BATT*
X105680000Y-110040000D03*
X95190000Y-120560000D03*
G04 #@! TO.N,GND*
X97010000Y-54590000D03*
X119080000Y-119120000D03*
X115920000Y-116190000D03*
X110570000Y-105470000D03*
X107660000Y-114120000D03*
X101387500Y-108010000D03*
X102970000Y-58160000D03*
X114170000Y-115710000D03*
X104740000Y-52340000D03*
X108920000Y-114550000D03*
X104120000Y-111750000D03*
G04 #@! TO.N,+3V3*
X98410000Y-32450000D03*
X113700000Y-87430000D03*
X117590000Y-67650000D03*
X108260000Y-105330000D03*
X109310000Y-110520000D03*
X98450000Y-47380000D03*
X117650000Y-75100000D03*
X113640000Y-96880000D03*
G04 #@! TO.N,EN*
X94390000Y-109870000D03*
X87160000Y-112680000D03*
G04 #@! TO.N,IO0*
X105480000Y-102715500D03*
X107700000Y-46230000D03*
G04 #@! TO.N,VBUSa*
X109530000Y-112490000D03*
X107460000Y-107100000D03*
G04 #@! TO.N,USB_DN*
X112610000Y-109150000D03*
X113040000Y-122355500D03*
G04 #@! TO.N,USB_DP*
X115170000Y-117730000D03*
X113300000Y-105470000D03*
X113521098Y-124773731D03*
G04 #@! TO.N,upper switch*
X103710000Y-61060000D03*
X103750000Y-55730000D03*
G04 #@! TO.N,down switch*
X108350000Y-76750000D03*
X101480000Y-83400000D03*
X109552500Y-83385000D03*
X90880000Y-65490000D03*
G04 #@! TO.N,ccw switch*
X96170000Y-43790000D03*
X96750000Y-91920000D03*
G04 #@! TO.N,option 1 switch*
X92060000Y-80450000D03*
X92550000Y-65490000D03*
X89897701Y-86877701D03*
X90040000Y-100100000D03*
G04 #@! TO.N,left switch*
X88300000Y-72140000D03*
X88410000Y-66100000D03*
G04 #@! TO.N,right switch*
X101880000Y-42430000D03*
X110302500Y-70930000D03*
G04 #@! TO.N,cw switch*
X99560000Y-55820500D03*
X104340000Y-91940000D03*
G04 #@! TO.N,option 2 switch*
X104755500Y-48800000D03*
X109505000Y-101380000D03*
X96180000Y-48850000D03*
X106980000Y-49770000D03*
G04 #@! TO.N,Net-(J2-PadB5)*
X120470000Y-114590000D03*
X114055500Y-127220000D03*
G04 #@! TO.N,RTS*
X118970000Y-103440000D03*
X93230000Y-103370000D03*
G04 #@! TO.N,DTR*
X112920000Y-104420000D03*
X91990000Y-110790000D03*
G04 #@! TO.N,Net-(R13-Pad1)*
X116450000Y-102670000D03*
X117790000Y-44390000D03*
G04 #@! TO.N,Net-(R14-Pad1)*
X117800000Y-102629502D03*
X121810000Y-87770000D03*
G04 #@! TD*
D15*
G04 #@! TO.N,+BATT*
X105750000Y-118690000D02*
X105750000Y-110110000D01*
X105070000Y-119370000D02*
X105440000Y-119000000D01*
X105440000Y-119000000D02*
X105470000Y-118970000D01*
X105750000Y-110110000D02*
X105680000Y-110040000D01*
X105470000Y-118970000D02*
X105750000Y-118690000D01*
X103880000Y-120560000D02*
X105070000Y-119370000D01*
X95190000Y-120560000D02*
X103880000Y-120560000D01*
X95190000Y-120560000D02*
X95190000Y-127920000D01*
G04 #@! TO.N,GND*
X101387500Y-109017500D02*
X104120000Y-111750000D01*
X102460000Y-54620000D02*
X104740000Y-52340000D01*
X112035000Y-106935000D02*
X114170000Y-109070000D01*
X116150000Y-116190000D02*
X119080000Y-119120000D01*
X106160969Y-109190489D02*
X106760000Y-109789520D01*
X106760000Y-109789520D02*
X106760000Y-113220000D01*
X97040000Y-54620000D02*
X102460000Y-54620000D01*
X101387500Y-108010000D02*
X101387500Y-109017500D01*
X104120000Y-110398609D02*
X105328120Y-109190489D01*
X110379511Y-113090489D02*
X108920000Y-114550000D01*
X110379511Y-108590489D02*
X110379511Y-113090489D01*
X102460000Y-54620000D02*
X102460000Y-57650000D01*
X106760000Y-113220000D02*
X107660000Y-114120000D01*
X110570000Y-105470000D02*
X112035000Y-106935000D01*
X105328120Y-109190489D02*
X106160969Y-109190489D01*
X102460000Y-57650000D02*
X102970000Y-58160000D01*
X97010000Y-54590000D02*
X97040000Y-54620000D01*
X115920000Y-116190000D02*
X116150000Y-116190000D01*
X112035000Y-106935000D02*
X110379511Y-108590489D01*
X104120000Y-111750000D02*
X104120000Y-110398609D01*
X114170000Y-109070000D02*
X114170000Y-115710000D01*
G04 #@! TO.N,+3V3*
X117650000Y-67710000D02*
X117590000Y-67650000D01*
X117650000Y-75100000D02*
X117650000Y-67710000D01*
X113700000Y-96820000D02*
X113700000Y-87430000D01*
X98450000Y-32490000D02*
X98410000Y-32450000D01*
X109310000Y-106380000D02*
X109310000Y-110520000D01*
X108260000Y-105330000D02*
X109310000Y-106380000D01*
X98450000Y-47380000D02*
X98450000Y-32490000D01*
X113640000Y-96880000D02*
X113700000Y-96820000D01*
D16*
G04 #@! TO.N,EN*
X93620000Y-112680000D02*
X94390000Y-111910000D01*
X94390000Y-111910000D02*
X94390000Y-109870000D01*
X87160000Y-112680000D02*
X93620000Y-112680000D01*
G04 #@! TO.N,IO0*
X105480000Y-102715500D02*
X105480000Y-48450000D01*
X105480000Y-48450000D02*
X107700000Y-46230000D01*
D15*
G04 #@! TO.N,VBUSa*
X107460000Y-111440000D02*
X107460000Y-107100000D01*
X109530000Y-112490000D02*
X108510000Y-112490000D01*
X108510000Y-112490000D02*
X107460000Y-111440000D01*
D16*
G04 #@! TO.N,USB_DN*
X111315500Y-122355500D02*
X111315500Y-109554500D01*
X111720000Y-109150000D02*
X112610000Y-109150000D01*
X111315500Y-109554500D02*
X111720000Y-109150000D01*
X113040000Y-122355500D02*
X111315500Y-122355500D01*
G04 #@! TO.N,USB_DP*
X113400000Y-105470000D02*
X113300000Y-105470000D01*
X115400000Y-122650000D02*
X115400000Y-117960000D01*
X115400000Y-117960000D02*
X115170000Y-117730000D01*
X115170000Y-117730000D02*
X115170000Y-107240000D01*
X112460000Y-123080000D02*
X114970000Y-123080000D01*
X114970000Y-123080000D02*
X115400000Y-122650000D01*
X112263731Y-124773731D02*
X111840000Y-124350000D01*
X111840000Y-124350000D02*
X111840000Y-123700000D01*
X115170000Y-107240000D02*
X113400000Y-105470000D01*
X111840000Y-123700000D02*
X112460000Y-123080000D01*
X113521098Y-124773731D02*
X112263731Y-124773731D01*
G04 #@! TO.N,upper switch*
X103750000Y-55730000D02*
X103750000Y-61020000D01*
X103750000Y-61020000D02*
X103710000Y-61060000D01*
G04 #@! TO.N,down switch*
X108420000Y-76750000D02*
X108350000Y-76750000D01*
X109552500Y-83385000D02*
X109552500Y-77882500D01*
X92770000Y-83400000D02*
X101480000Y-83400000D01*
X109552500Y-77882500D02*
X108420000Y-76750000D01*
X90880000Y-81510000D02*
X92770000Y-83400000D01*
X90880000Y-65490000D02*
X90880000Y-81510000D01*
G04 #@! TO.N,ccw switch*
X90155489Y-46684511D02*
X93050000Y-43790000D01*
X96750000Y-86130000D02*
X95560000Y-84940000D01*
X90580000Y-84940000D02*
X90155489Y-84515489D01*
X93050000Y-43790000D02*
X96170000Y-43790000D01*
X95560000Y-84940000D02*
X90580000Y-84940000D01*
X96750000Y-91920000D02*
X96750000Y-86130000D01*
X90155489Y-84515489D02*
X90155489Y-46684511D01*
G04 #@! TO.N,option 1 switch*
X89897701Y-99957701D02*
X90040000Y-100100000D01*
X92550000Y-79960000D02*
X92060000Y-80450000D01*
X92550000Y-65490000D02*
X92550000Y-79960000D01*
X89897701Y-86877701D02*
X89897701Y-99957701D01*
G04 #@! TO.N,left switch*
X88410000Y-66100000D02*
X88410000Y-72030000D01*
X88410000Y-72030000D02*
X88300000Y-72140000D01*
G04 #@! TO.N,right switch*
X110302500Y-43862500D02*
X108870000Y-42430000D01*
X110302500Y-70930000D02*
X110302500Y-43862500D01*
X108870000Y-42430000D02*
X101880000Y-42430000D01*
G04 #@! TO.N,cw switch*
X99560000Y-55820500D02*
X102204511Y-58465011D01*
X102204511Y-58465011D02*
X102204511Y-89804511D01*
X102204511Y-89804511D02*
X104340000Y-91940000D01*
G04 #@! TO.N,option 2 switch*
X108010000Y-101380000D02*
X106980000Y-100350000D01*
X109505000Y-101380000D02*
X108010000Y-101380000D01*
X104755500Y-48800000D02*
X96230000Y-48800000D01*
X96230000Y-48800000D02*
X96180000Y-48850000D01*
X106980000Y-100350000D02*
X106980000Y-49770000D01*
G04 #@! TO.N,Net-(J2-PadB5)*
X113630000Y-125490000D02*
X120050000Y-125490000D01*
X120470000Y-125070000D02*
X120470000Y-114590000D01*
X120050000Y-125490000D02*
X120470000Y-125070000D01*
X114055500Y-127220000D02*
X113550000Y-127220000D01*
X113160000Y-125960000D02*
X113630000Y-125490000D01*
X113550000Y-127220000D02*
X113160000Y-126830000D01*
X113160000Y-126830000D02*
X113160000Y-125960000D01*
G04 #@! TO.N,RTS*
X118970000Y-103440000D02*
X93300000Y-103440000D01*
X93300000Y-103440000D02*
X93230000Y-103370000D01*
G04 #@! TO.N,DTR*
X91990000Y-110790000D02*
X91990000Y-105210000D01*
X92780000Y-104420000D02*
X112920000Y-104420000D01*
X91990000Y-105210000D02*
X92780000Y-104420000D01*
G04 #@! TO.N,Net-(R13-Pad1)*
X116530480Y-102589520D02*
X116450000Y-102670000D01*
X116530480Y-45649520D02*
X116530480Y-102589520D01*
X117790000Y-44390000D02*
X116530480Y-45649520D01*
G04 #@! TO.N,Net-(R14-Pad1)*
X117800000Y-91780000D02*
X117800000Y-102629502D01*
X121810000Y-87770000D02*
X117800000Y-91780000D01*
G04 #@! TD*
M02*
