M48
INCH,TZ
T1C0.0079
T2C0.0157
T3C0.0197
T4C0.0394
%
G90
G05
T1
X40197Y-14504
X40197Y-15055
X40472Y-14228
X40472Y-14780
X40472Y-15331
X40748Y-14504
X40748Y-15055
X41024Y-14228
X41024Y-14780
X41024Y-15331
X41299Y-14504
X41299Y-15055
T2
X34315Y-44362
X34764Y-28402
X34807Y-26024
X35393Y-34204
X35449Y-39409
X35780Y-25783
X36217Y-43618
X36244Y-31673
X36437Y-25783
X36705Y-40697
X37161Y-43256
X37476Y-47465
X37862Y-17240
X37866Y-19232
X38091Y-36189
X38193Y-21492
X38744Y-12776
X38760Y-18654
X39197Y-21977
X39916Y-42524
X39953Y-32835
X40110Y-16705
X40539Y-22898
X40831Y-24039
X40846Y-21941
X40992Y-43996
X41079Y-36197
X41236Y-20606
X41242Y-19213
X41528Y-40439
X41606Y-43323
X42118Y-19594
X42307Y-42165
X42386Y-44929
X42402Y-18201
X42622Y-41469
X42657Y-30217
X42882Y-45098
X43035Y-43512
X43112Y-39913
X43122Y-44287
X43131Y-32829
X43426Y-27925
X43531Y-41524
X44335Y-42972
X44457Y-41110
X44504Y-48171
X44606Y-41524
X44693Y-49124
X44740Y-38142
X44764Y-34421
X44904Y-50087
X44949Y-45555
X45343Y-46350
X45638Y-45744
X45846Y-40421
X46295Y-26634
X46319Y-29567
X46374Y-17476
X46378Y-40405
X46839Y-40724
X46882Y-46898
X47429Y-45114
X47957Y-34555
T4
X37476Y-50362
X38476Y-50362
T3
G00X43028Y-49866
M15
G01X43028Y-50102
M16
G05
G00X43169Y-47524
M15
G01X43169Y-47760
M16
G05
G00X46421Y-47524
M15
G01X46421Y-47760
M16
G05
G00X46563Y-49866
M15
G01X46563Y-50102
M16
G05
T0
M30
