G04 #@! TF.GenerationSoftware,KiCad,Pcbnew,6.0.2+dfsg-1*
G04 #@! TF.CreationDate,2024-03-31T18:10:36+09:00*
G04 #@! TF.ProjectId,remote_controller,72656d6f-7465-45f6-936f-6e74726f6c6c,rev?*
G04 #@! TF.SameCoordinates,Original*
G04 #@! TF.FileFunction,Soldermask,Top*
G04 #@! TF.FilePolarity,Negative*
%FSLAX46Y46*%
G04 Gerber Fmt 4.6, Leading zero omitted, Abs format (unit mm)*
G04 Created by KiCad (PCBNEW 6.0.2+dfsg-1) date 2024-03-31 18:10:36*
%MOMM*%
%LPD*%
G01*
G04 APERTURE LIST*
G04 Aperture macros list*
%AMRoundRect*
0 Rectangle with rounded corners*
0 $1 Rounding radius*
0 $2 $3 $4 $5 $6 $7 $8 $9 X,Y pos of 4 corners*
0 Add a 4 corners polygon primitive as box body*
4,1,4,$2,$3,$4,$5,$6,$7,$8,$9,$2,$3,0*
0 Add four circle primitives for the rounded corners*
1,1,$1+$1,$2,$3*
1,1,$1+$1,$4,$5*
1,1,$1+$1,$6,$7*
1,1,$1+$1,$8,$9*
0 Add four rect primitives between the rounded corners*
20,1,$1+$1,$2,$3,$4,$5,0*
20,1,$1+$1,$4,$5,$6,$7,0*
20,1,$1+$1,$6,$7,$8,$9,0*
20,1,$1+$1,$8,$9,$2,$3,0*%
G04 Aperture macros list end*
%ADD10RoundRect,0.200000X-0.200000X-0.275000X0.200000X-0.275000X0.200000X0.275000X-0.200000X0.275000X0*%
%ADD11RoundRect,0.062500X-0.337500X-0.062500X0.337500X-0.062500X0.337500X0.062500X-0.337500X0.062500X0*%
%ADD12RoundRect,0.062500X-0.062500X-0.337500X0.062500X-0.337500X0.062500X0.337500X-0.062500X0.337500X0*%
%ADD13R,3.350000X3.350000*%
%ADD14RoundRect,0.200000X0.200000X0.275000X-0.200000X0.275000X-0.200000X-0.275000X0.200000X-0.275000X0*%
%ADD15RoundRect,0.218750X-0.256250X0.218750X-0.256250X-0.218750X0.256250X-0.218750X0.256250X0.218750X0*%
%ADD16R,0.900000X1.000000*%
%ADD17RoundRect,0.225000X0.225000X0.250000X-0.225000X0.250000X-0.225000X-0.250000X0.225000X-0.250000X0*%
%ADD18R,1.550000X1.300000*%
%ADD19R,2.000000X1.500000*%
%ADD20R,2.000000X3.800000*%
%ADD21R,0.700000X1.000000*%
%ADD22R,0.700000X0.600000*%
%ADD23RoundRect,0.200000X-0.275000X0.200000X-0.275000X-0.200000X0.275000X-0.200000X0.275000X0.200000X0*%
%ADD24RoundRect,0.218750X0.218750X0.256250X-0.218750X0.256250X-0.218750X-0.256250X0.218750X-0.256250X0*%
%ADD25RoundRect,0.200000X0.275000X-0.200000X0.275000X0.200000X-0.275000X0.200000X-0.275000X-0.200000X0*%
%ADD26RoundRect,0.150000X-0.587500X-0.150000X0.587500X-0.150000X0.587500X0.150000X-0.587500X0.150000X0*%
%ADD27RoundRect,0.225000X-0.225000X-0.250000X0.225000X-0.250000X0.225000X0.250000X-0.225000X0.250000X0*%
%ADD28RoundRect,0.218750X-0.218750X-0.256250X0.218750X-0.256250X0.218750X0.256250X-0.218750X0.256250X0*%
%ADD29R,1.700000X1.700000*%
%ADD30O,1.700000X1.700000*%
%ADD31C,0.650000*%
%ADD32O,0.950000X0.650000*%
%ADD33R,0.300000X0.700000*%
%ADD34O,0.800000X1.400000*%
%ADD35RoundRect,0.102000X-0.750000X-0.450000X0.750000X-0.450000X0.750000X0.450000X-0.750000X0.450000X0*%
%ADD36RoundRect,0.102000X-0.450000X-0.450000X0.450000X-0.450000X0.450000X0.450000X-0.450000X0.450000X0*%
%ADD37C,0.504000*%
G04 APERTURE END LIST*
D10*
G04 #@! TO.C,R28*
X108627500Y-69340000D03*
X110277500Y-69340000D03*
G04 #@! TD*
D11*
G04 #@! TO.C,U3*
X114490000Y-105360000D03*
X114490000Y-105860000D03*
X114490000Y-106360000D03*
X114490000Y-106860000D03*
X114490000Y-107360000D03*
X114490000Y-107860000D03*
X114490000Y-108360000D03*
D12*
X115440000Y-109310000D03*
X115940000Y-109310000D03*
X116440000Y-109310000D03*
X116940000Y-109310000D03*
X117440000Y-109310000D03*
X117940000Y-109310000D03*
X118440000Y-109310000D03*
D11*
X119390000Y-108360000D03*
X119390000Y-107860000D03*
X119390000Y-107360000D03*
X119390000Y-106860000D03*
X119390000Y-106360000D03*
X119390000Y-105860000D03*
X119390000Y-105360000D03*
D12*
X118440000Y-104410000D03*
X117940000Y-104410000D03*
X117440000Y-104410000D03*
X116940000Y-104410000D03*
X116440000Y-104410000D03*
X115940000Y-104410000D03*
X115440000Y-104410000D03*
D13*
X116940000Y-106860000D03*
G04 #@! TD*
D14*
G04 #@! TO.C,R29*
X122780000Y-88912500D03*
X121130000Y-88912500D03*
G04 #@! TD*
D15*
G04 #@! TO.C,D13*
X119440000Y-98362500D03*
X119440000Y-99937500D03*
G04 #@! TD*
D16*
G04 #@! TO.C,IO0*
X101380000Y-112330000D03*
X97280000Y-112330000D03*
X101380000Y-113930000D03*
X97280000Y-113930000D03*
G04 #@! TD*
D17*
G04 #@! TO.C,C1*
X90130000Y-119760000D03*
X88580000Y-119760000D03*
G04 #@! TD*
D18*
G04 #@! TO.C,OPT2*
X117455000Y-96880000D03*
X109505000Y-96880000D03*
X117455000Y-101380000D03*
X109505000Y-101380000D03*
G04 #@! TD*
D14*
G04 #@! TO.C,R13*
X117820000Y-34820000D03*
X116170000Y-34820000D03*
G04 #@! TD*
D17*
G04 #@! TO.C,C3*
X105265000Y-124470000D03*
X103715000Y-124470000D03*
G04 #@! TD*
D14*
G04 #@! TO.C,R8*
X121345000Y-47540000D03*
X119695000Y-47540000D03*
G04 #@! TD*
D15*
G04 #@! TO.C,D11*
X112117500Y-69340000D03*
X112117500Y-70915000D03*
G04 #@! TD*
D19*
G04 #@! TO.C,U1*
X93150000Y-119760000D03*
X93150000Y-122060000D03*
D20*
X99450000Y-122060000D03*
D19*
X93150000Y-124360000D03*
G04 #@! TD*
D10*
G04 #@! TO.C,R21*
X88400000Y-88992500D03*
X90050000Y-88992500D03*
G04 #@! TD*
D15*
G04 #@! TO.C,D9*
X91690000Y-98475000D03*
X91690000Y-100050000D03*
G04 #@! TD*
D21*
G04 #@! TO.C,D2*
X109510000Y-104690000D03*
D22*
X109510000Y-106390000D03*
X111510000Y-106390000D03*
X111510000Y-104490000D03*
G04 #@! TD*
D14*
G04 #@! TO.C,R27*
X102242500Y-69150000D03*
X100592500Y-69150000D03*
G04 #@! TD*
D18*
G04 #@! TO.C,CCW*
X101625000Y-87420000D03*
X93675000Y-87420000D03*
X101625000Y-91920000D03*
X93675000Y-91920000D03*
G04 #@! TD*
D10*
G04 #@! TO.C,R22*
X88380000Y-98480000D03*
X90030000Y-98480000D03*
G04 #@! TD*
G04 #@! TO.C,R24*
X108652500Y-70930000D03*
X110302500Y-70930000D03*
G04 #@! TD*
D23*
G04 #@! TO.C,R1*
X90400000Y-106445000D03*
X90400000Y-108095000D03*
G04 #@! TD*
D18*
G04 #@! TO.C,OPT1*
X93675000Y-96890000D03*
X101625000Y-96890000D03*
X101625000Y-101390000D03*
X93675000Y-101390000D03*
G04 #@! TD*
G04 #@! TO.C,DOWN*
X101602500Y-78885000D03*
X109552500Y-78885000D03*
X101602500Y-83385000D03*
X109552500Y-83385000D03*
G04 #@! TD*
D24*
G04 #@! TO.C,D3*
X117785000Y-31000000D03*
X116210000Y-31000000D03*
G04 #@! TD*
D25*
G04 #@! TO.C,R15*
X106340000Y-66955000D03*
X106340000Y-65305000D03*
G04 #@! TD*
D16*
G04 #@! TO.C,EN*
X97287500Y-106410000D03*
X101387500Y-106410000D03*
X101387500Y-108010000D03*
X97287500Y-108010000D03*
G04 #@! TD*
D23*
G04 #@! TO.C,R16*
X106317500Y-73490000D03*
X106317500Y-75140000D03*
G04 #@! TD*
D14*
G04 #@! TO.C,R7*
X121330000Y-31000000D03*
X119680000Y-31000000D03*
G04 #@! TD*
D18*
G04 #@! TO.C,RIGHT*
X122417500Y-67670000D03*
X114467500Y-67670000D03*
X122417500Y-72170000D03*
X114467500Y-72170000D03*
G04 #@! TD*
D26*
G04 #@! TO.C,Q2*
X92522500Y-112180000D03*
X92522500Y-114080000D03*
X94397500Y-113130000D03*
G04 #@! TD*
D27*
G04 #@! TO.C,C7*
X106120000Y-116240000D03*
X107670000Y-116240000D03*
G04 #@! TD*
G04 #@! TO.C,C5*
X94400000Y-109930000D03*
X95950000Y-109930000D03*
G04 #@! TD*
G04 #@! TO.C,C8*
X106130000Y-112440000D03*
X107680000Y-112440000D03*
G04 #@! TD*
D28*
G04 #@! TO.C,D6*
X104760000Y-63290000D03*
X106335000Y-63290000D03*
G04 #@! TD*
D29*
G04 #@! TO.C,J1*
X95190000Y-127920000D03*
D30*
X97730000Y-127920000D03*
G04 #@! TD*
D28*
G04 #@! TO.C,D7*
X104742500Y-76695000D03*
X106317500Y-76695000D03*
G04 #@! TD*
D14*
G04 #@! TO.C,R23*
X102262500Y-70730000D03*
X100612500Y-70730000D03*
G04 #@! TD*
D31*
G04 #@! TO.C,J2*
X110180000Y-119760000D03*
D32*
X117380000Y-119760000D03*
D33*
X111030000Y-119100000D03*
X111530000Y-119100000D03*
X112030000Y-119100000D03*
X112530000Y-119100000D03*
X113030000Y-119100000D03*
X113530000Y-119100000D03*
X114030000Y-119100000D03*
X114530000Y-119100000D03*
X115030000Y-119100000D03*
X115530000Y-119100000D03*
X116030000Y-119100000D03*
X116530000Y-119100000D03*
X116280000Y-120800000D03*
X115780000Y-120800000D03*
X115280000Y-120800000D03*
X114780000Y-120800000D03*
X114280000Y-120800000D03*
X113780000Y-120800000D03*
X113280000Y-120800000D03*
X112780000Y-120800000D03*
X112280000Y-120800000D03*
X111780000Y-120800000D03*
X111280000Y-120800000D03*
X110780000Y-120800000D03*
D34*
X109290000Y-126960000D03*
X118270000Y-126960000D03*
X109650000Y-121010000D03*
X117910000Y-121010000D03*
G04 #@! TD*
D10*
G04 #@! TO.C,R11*
X115905000Y-112460000D03*
X117555000Y-112460000D03*
G04 #@! TD*
D23*
G04 #@! TO.C,R20*
X104747500Y-73485000D03*
X104747500Y-75135000D03*
G04 #@! TD*
D14*
G04 #@! TO.C,R6*
X122120000Y-112430000D03*
X120470000Y-112430000D03*
G04 #@! TD*
D10*
G04 #@! TO.C,R18*
X88390000Y-100060000D03*
X90040000Y-100060000D03*
G04 #@! TD*
D18*
G04 #@! TO.C,UPPER*
X101625000Y-56670000D03*
X109575000Y-56670000D03*
X109575000Y-61170000D03*
X101625000Y-61170000D03*
G04 #@! TD*
D15*
G04 #@! TO.C,D10*
X98727500Y-69152500D03*
X98727500Y-70727500D03*
G04 #@! TD*
D25*
G04 #@! TO.C,R19*
X104770000Y-66955000D03*
X104770000Y-65305000D03*
G04 #@! TD*
D14*
G04 #@! TO.C,R5*
X112465000Y-112470000D03*
X110815000Y-112470000D03*
G04 #@! TD*
D26*
G04 #@! TO.C,Q1*
X92522500Y-106270000D03*
X92522500Y-108170000D03*
X94397500Y-107220000D03*
G04 #@! TD*
D10*
G04 #@! TO.C,R4*
X103635000Y-120560000D03*
X105285000Y-120560000D03*
G04 #@! TD*
D18*
G04 #@! TO.C,CW*
X109475000Y-87440000D03*
X117425000Y-87440000D03*
X109475000Y-91940000D03*
X117425000Y-91940000D03*
G04 #@! TD*
D15*
G04 #@! TO.C,D12*
X119500000Y-88915000D03*
X119500000Y-90490000D03*
G04 #@! TD*
D23*
G04 #@! TO.C,R2*
X90450000Y-112275000D03*
X90450000Y-113925000D03*
G04 #@! TD*
D24*
G04 #@! TO.C,D4*
X117870000Y-47510000D03*
X116295000Y-47510000D03*
G04 #@! TD*
D14*
G04 #@! TO.C,R25*
X122805000Y-90492500D03*
X121155000Y-90492500D03*
G04 #@! TD*
D17*
G04 #@! TO.C,C2*
X105270000Y-122480000D03*
X103720000Y-122480000D03*
G04 #@! TD*
D35*
G04 #@! TO.C,U2*
X96250000Y-29740000D03*
X96250000Y-31010000D03*
X96250000Y-32280000D03*
X96250000Y-33550000D03*
X96250000Y-34820000D03*
X96250000Y-36090000D03*
X96250000Y-37360000D03*
X96250000Y-38630000D03*
X96250000Y-39900000D03*
X96250000Y-41170000D03*
X96250000Y-42440000D03*
X96250000Y-43710000D03*
X96250000Y-44980000D03*
X96250000Y-46250000D03*
X96250000Y-47520000D03*
X96250000Y-48790000D03*
X96250000Y-50060000D03*
X96250000Y-51330000D03*
X96250000Y-52600000D03*
X113750000Y-52600000D03*
X113750000Y-51330000D03*
X113750000Y-50060000D03*
X113750000Y-48790000D03*
X113750000Y-47520000D03*
X113750000Y-46250000D03*
X113750000Y-44980000D03*
X113750000Y-43710000D03*
X113750000Y-42440000D03*
X113750000Y-41170000D03*
X113750000Y-39900000D03*
X113750000Y-38630000D03*
X113750000Y-37360000D03*
X113750000Y-36090000D03*
X113750000Y-34820000D03*
X113750000Y-33550000D03*
X113750000Y-32280000D03*
X113750000Y-31010000D03*
X113750000Y-29740000D03*
D36*
X102100000Y-37540000D03*
X103500000Y-37540000D03*
X104900000Y-37540000D03*
X102100000Y-36140000D03*
X103500000Y-36140000D03*
X104900000Y-36140000D03*
X102100000Y-38940000D03*
X103500000Y-38940000D03*
X104900000Y-38940000D03*
D37*
X104900000Y-36840000D03*
X103500000Y-36840000D03*
X102100000Y-36840000D03*
X102100000Y-38240000D03*
X103500000Y-38240000D03*
X104900000Y-38240000D03*
X104200000Y-36140000D03*
X102800000Y-36140000D03*
X104200000Y-37540000D03*
X102800000Y-37540000D03*
X102800000Y-38940000D03*
X104200000Y-38940000D03*
G04 #@! TD*
D18*
G04 #@! TO.C,LEFT*
X88312500Y-67660000D03*
X96262500Y-67660000D03*
X88312500Y-72160000D03*
X96262500Y-72160000D03*
G04 #@! TD*
D14*
G04 #@! TO.C,R26*
X122750000Y-99940000D03*
X121100000Y-99940000D03*
G04 #@! TD*
D28*
G04 #@! TO.C,D1*
X88562500Y-123660000D03*
X90137500Y-123660000D03*
G04 #@! TD*
D27*
G04 #@! TO.C,C6*
X94390000Y-115830000D03*
X95940000Y-115830000D03*
G04 #@! TD*
D10*
G04 #@! TO.C,R9*
X110800000Y-116240000D03*
X112450000Y-116240000D03*
G04 #@! TD*
G04 #@! TO.C,R17*
X88410000Y-90562500D03*
X90060000Y-90562500D03*
G04 #@! TD*
D14*
G04 #@! TO.C,R30*
X122750000Y-98360000D03*
X121100000Y-98360000D03*
G04 #@! TD*
D28*
G04 #@! TO.C,D5*
X109782500Y-108770000D03*
X111357500Y-108770000D03*
G04 #@! TD*
D14*
G04 #@! TO.C,R3*
X90180000Y-121700000D03*
X88530000Y-121700000D03*
G04 #@! TD*
G04 #@! TO.C,R14*
X121350000Y-33550000D03*
X119700000Y-33550000D03*
G04 #@! TD*
D15*
G04 #@! TO.C,D8*
X91690000Y-89002500D03*
X91690000Y-90577500D03*
G04 #@! TD*
D14*
G04 #@! TO.C,R10*
X122135000Y-116270000D03*
X120485000Y-116270000D03*
G04 #@! TD*
D17*
G04 #@! TO.C,C4*
X90130000Y-125620000D03*
X88580000Y-125620000D03*
G04 #@! TD*
D14*
G04 #@! TO.C,R12*
X117565000Y-116220000D03*
X115915000Y-116220000D03*
G04 #@! TD*
M02*
